<?xml version="1.0" encoding="utf-8" standalone="no"?>
<!DOCTYPE svg PUBLIC "-//W3C//DTD SVG 1.1//EN"
  "http://www.w3.org/Graphics/SVG/1.1/DTD/svg11.dtd">
<svg xmlns:xlink="http://www.w3.org/1999/xlink" width="712.312344pt" height="495pt" viewBox="0 0 712.312344 495" xmlns="http://www.w3.org/2000/svg" version="1.1">
 <metadata>
  <rdf:RDF xmlns:dc="http://purl.org/dc/elements/1.1/" xmlns:cc="http://creativecommons.org/ns#" xmlns:rdf="http://www.w3.org/1999/02/22-rdf-syntax-ns#">
   <cc:Work>
    <dc:type rdf:resource="http://purl.org/dc/dcmitype/StillImage"/>
    <dc:date>2026-04-26T11:18:20.415407</dc:date>
    <dc:format>image/svg+xml</dc:format>
    <dc:creator>
     <cc:Agent>
      <dc:title>Matplotlib v3.6.3, https://matplotlib.org/</dc:title>
     </cc:Agent>
    </dc:creator>
   </cc:Work>
  </rdf:RDF>
 </metadata>
 <defs>
  <style type="text/css">*{stroke-linejoin: round; stroke-linecap: butt}</style>
 </defs>
 <g id="figure_1">
  <g id="patch_1">
   <path d="M 0 495 
L 712.312344 495 
L 712.312344 0 
L 0 0 
z
" style="fill: #ffffff"/>
  </g>
  <g id="axes_1">
   <g id="patch_2">
    <path d="M 46.872344 487.8 
L 705.112344 487.8 
L 705.112344 20.04 
L 46.872344 20.04 
z
" style="fill: #ffffff"/>
   </g>
   <g id="matplotlib.axis_1"/>
   <g id="matplotlib.axis_2">
    <g id="ytick_1">
     <g id="line2d_1">
      <defs>
       <path id="m0e75eeb8c4" d="M 0 0 
L -3.5 0 
" style="stroke: #000000; stroke-width: 0.8"/>
      </defs>
      <g>
       <use xlink:href="#m0e75eeb8c4" x="46.872344" y="473.1825" style="stroke: #000000; stroke-width: 0.8"/>
      </g>
     </g>
     <g id="text_1">
      <!-- −14 -->
      <g transform="translate(20.878125 476.601797) scale(0.09 -0.09)">
       <defs>
        <path id="DejaVuSans-2212" d="M 678 2272 
L 4684 2272 
L 4684 1741 
L 678 1741 
L 678 2272 
z
" transform="scale(0.015625)"/>
        <path id="DejaVuSans-31" d="M 794 531 
L 1825 531 
L 1825 4091 
L 703 3866 
L 703 4441 
L 1819 4666 
L 2450 4666 
L 2450 531 
L 3481 531 
L 3481 0 
L 794 0 
L 794 531 
z
" transform="scale(0.015625)"/>
        <path id="DejaVuSans-34" d="M 2419 4116 
L 825 1625 
L 2419 1625 
L 2419 4116 
z
M 2253 4666 
L 3047 4666 
L 3047 1625 
L 3713 1625 
L 3713 1100 
L 3047 1100 
L 3047 0 
L 2419 0 
L 2419 1100 
L 313 1100 
L 313 1709 
L 2253 4666 
z
" transform="scale(0.015625)"/>
       </defs>
       <use xlink:href="#DejaVuSans-2212"/>
       <use xlink:href="#DejaVuSans-31" x="83.789062"/>
       <use xlink:href="#DejaVuSans-34" x="147.412109"/>
      </g>
     </g>
    </g>
    <g id="ytick_2">
     <g id="line2d_2">
      <g>
       <use xlink:href="#m0e75eeb8c4" x="46.872344" y="414.7125" style="stroke: #000000; stroke-width: 0.8"/>
      </g>
     </g>
     <g id="text_2">
      <!-- −12 -->
      <g transform="translate(20.878125 418.131797) scale(0.09 -0.09)">
       <defs>
        <path id="DejaVuSans-32" d="M 1228 531 
L 3431 531 
L 3431 0 
L 469 0 
L 469 531 
Q 828 903 1448 1529 
Q 2069 2156 2228 2338 
Q 2531 2678 2651 2914 
Q 2772 3150 2772 3378 
Q 2772 3750 2511 3984 
Q 2250 4219 1831 4219 
Q 1534 4219 1204 4116 
Q 875 4013 500 3803 
L 500 4441 
Q 881 4594 1212 4672 
Q 1544 4750 1819 4750 
Q 2544 4750 2975 4387 
Q 3406 4025 3406 3419 
Q 3406 3131 3298 2873 
Q 3191 2616 2906 2266 
Q 2828 2175 2409 1742 
Q 1991 1309 1228 531 
z
" transform="scale(0.015625)"/>
       </defs>
       <use xlink:href="#DejaVuSans-2212"/>
       <use xlink:href="#DejaVuSans-31" x="83.789062"/>
       <use xlink:href="#DejaVuSans-32" x="147.412109"/>
      </g>
     </g>
    </g>
    <g id="ytick_3">
     <g id="line2d_3">
      <g>
       <use xlink:href="#m0e75eeb8c4" x="46.872344" y="356.2425" style="stroke: #000000; stroke-width: 0.8"/>
      </g>
     </g>
     <g id="text_3">
      <!-- −10 -->
      <g transform="translate(20.878125 359.661797) scale(0.09 -0.09)">
       <defs>
        <path id="DejaVuSans-30" d="M 2034 4250 
Q 1547 4250 1301 3770 
Q 1056 3291 1056 2328 
Q 1056 1369 1301 889 
Q 1547 409 2034 409 
Q 2525 409 2770 889 
Q 3016 1369 3016 2328 
Q 3016 3291 2770 3770 
Q 2525 4250 2034 4250 
z
M 2034 4750 
Q 2819 4750 3233 4129 
Q 3647 3509 3647 2328 
Q 3647 1150 3233 529 
Q 2819 -91 2034 -91 
Q 1250 -91 836 529 
Q 422 1150 422 2328 
Q 422 3509 836 4129 
Q 1250 4750 2034 4750 
z
" transform="scale(0.015625)"/>
       </defs>
       <use xlink:href="#DejaVuSans-2212"/>
       <use xlink:href="#DejaVuSans-31" x="83.789062"/>
       <use xlink:href="#DejaVuSans-30" x="147.412109"/>
      </g>
     </g>
    </g>
    <g id="ytick_4">
     <g id="line2d_4">
      <g>
       <use xlink:href="#m0e75eeb8c4" x="46.872344" y="297.7725" style="stroke: #000000; stroke-width: 0.8"/>
      </g>
     </g>
     <g id="text_4">
      <!-- −8 -->
      <g transform="translate(26.604375 301.191797) scale(0.09 -0.09)">
       <defs>
        <path id="DejaVuSans-38" d="M 2034 2216 
Q 1584 2216 1326 1975 
Q 1069 1734 1069 1313 
Q 1069 891 1326 650 
Q 1584 409 2034 409 
Q 2484 409 2743 651 
Q 3003 894 3003 1313 
Q 3003 1734 2745 1975 
Q 2488 2216 2034 2216 
z
M 1403 2484 
Q 997 2584 770 2862 
Q 544 3141 544 3541 
Q 544 4100 942 4425 
Q 1341 4750 2034 4750 
Q 2731 4750 3128 4425 
Q 3525 4100 3525 3541 
Q 3525 3141 3298 2862 
Q 3072 2584 2669 2484 
Q 3125 2378 3379 2068 
Q 3634 1759 3634 1313 
Q 3634 634 3220 271 
Q 2806 -91 2034 -91 
Q 1263 -91 848 271 
Q 434 634 434 1313 
Q 434 1759 690 2068 
Q 947 2378 1403 2484 
z
M 1172 3481 
Q 1172 3119 1398 2916 
Q 1625 2713 2034 2713 
Q 2441 2713 2670 2916 
Q 2900 3119 2900 3481 
Q 2900 3844 2670 4047 
Q 2441 4250 2034 4250 
Q 1625 4250 1398 4047 
Q 1172 3844 1172 3481 
z
" transform="scale(0.015625)"/>
       </defs>
       <use xlink:href="#DejaVuSans-2212"/>
       <use xlink:href="#DejaVuSans-38" x="83.789062"/>
      </g>
     </g>
    </g>
    <g id="ytick_5">
     <g id="line2d_5">
      <g>
       <use xlink:href="#m0e75eeb8c4" x="46.872344" y="239.3025" style="stroke: #000000; stroke-width: 0.8"/>
      </g>
     </g>
     <g id="text_5">
      <!-- −6 -->
      <g transform="translate(26.604375 242.721797) scale(0.09 -0.09)">
       <defs>
        <path id="DejaVuSans-36" d="M 2113 2584 
Q 1688 2584 1439 2293 
Q 1191 2003 1191 1497 
Q 1191 994 1439 701 
Q 1688 409 2113 409 
Q 2538 409 2786 701 
Q 3034 994 3034 1497 
Q 3034 2003 2786 2293 
Q 2538 2584 2113 2584 
z
M 3366 4563 
L 3366 3988 
Q 3128 4100 2886 4159 
Q 2644 4219 2406 4219 
Q 1781 4219 1451 3797 
Q 1122 3375 1075 2522 
Q 1259 2794 1537 2939 
Q 1816 3084 2150 3084 
Q 2853 3084 3261 2657 
Q 3669 2231 3669 1497 
Q 3669 778 3244 343 
Q 2819 -91 2113 -91 
Q 1303 -91 875 529 
Q 447 1150 447 2328 
Q 447 3434 972 4092 
Q 1497 4750 2381 4750 
Q 2619 4750 2861 4703 
Q 3103 4656 3366 4563 
z
" transform="scale(0.015625)"/>
       </defs>
       <use xlink:href="#DejaVuSans-2212"/>
       <use xlink:href="#DejaVuSans-36" x="83.789062"/>
      </g>
     </g>
    </g>
    <g id="ytick_6">
     <g id="line2d_6">
      <g>
       <use xlink:href="#m0e75eeb8c4" x="46.872344" y="180.8325" style="stroke: #000000; stroke-width: 0.8"/>
      </g>
     </g>
     <g id="text_6">
      <!-- −4 -->
      <g transform="translate(26.604375 184.251797) scale(0.09 -0.09)">
       <use xlink:href="#DejaVuSans-2212"/>
       <use xlink:href="#DejaVuSans-34" x="83.789062"/>
      </g>
     </g>
    </g>
    <g id="ytick_7">
     <g id="line2d_7">
      <g>
       <use xlink:href="#m0e75eeb8c4" x="46.872344" y="122.3625" style="stroke: #000000; stroke-width: 0.8"/>
      </g>
     </g>
     <g id="text_7">
      <!-- −2 -->
      <g transform="translate(26.604375 125.781797) scale(0.09 -0.09)">
       <use xlink:href="#DejaVuSans-2212"/>
       <use xlink:href="#DejaVuSans-32" x="83.789062"/>
      </g>
     </g>
    </g>
    <g id="ytick_8">
     <g id="line2d_8">
      <g>
       <use xlink:href="#m0e75eeb8c4" x="46.872344" y="63.8925" style="stroke: #000000; stroke-width: 0.8"/>
      </g>
     </g>
     <g id="text_8">
      <!-- 0 -->
      <g transform="translate(34.146094 67.311797) scale(0.09 -0.09)">
       <use xlink:href="#DejaVuSans-30"/>
      </g>
     </g>
    </g>
    <g id="text_9">
     <!-- Energy (eV) — relative to atomized ground state -->
     <g transform="translate(14.798438 375.397344) rotate(-90) scale(0.1 -0.1)">
      <defs>
       <path id="DejaVuSans-45" d="M 628 4666 
L 3578 4666 
L 3578 4134 
L 1259 4134 
L 1259 2753 
L 3481 2753 
L 3481 2222 
L 1259 2222 
L 1259 531 
L 3634 531 
L 3634 0 
L 628 0 
L 628 4666 
z
" transform="scale(0.015625)"/>
       <path id="DejaVuSans-6e" d="M 3513 2113 
L 3513 0 
L 2938 0 
L 2938 2094 
Q 2938 2591 2744 2837 
Q 2550 3084 2163 3084 
Q 1697 3084 1428 2787 
Q 1159 2491 1159 1978 
L 1159 0 
L 581 0 
L 581 3500 
L 1159 3500 
L 1159 2956 
Q 1366 3272 1645 3428 
Q 1925 3584 2291 3584 
Q 2894 3584 3203 3211 
Q 3513 2838 3513 2113 
z
" transform="scale(0.015625)"/>
       <path id="DejaVuSans-65" d="M 3597 1894 
L 3597 1613 
L 953 1613 
Q 991 1019 1311 708 
Q 1631 397 2203 397 
Q 2534 397 2845 478 
Q 3156 559 3463 722 
L 3463 178 
Q 3153 47 2828 -22 
Q 2503 -91 2169 -91 
Q 1331 -91 842 396 
Q 353 884 353 1716 
Q 353 2575 817 3079 
Q 1281 3584 2069 3584 
Q 2775 3584 3186 3129 
Q 3597 2675 3597 1894 
z
M 3022 2063 
Q 3016 2534 2758 2815 
Q 2500 3097 2075 3097 
Q 1594 3097 1305 2825 
Q 1016 2553 972 2059 
L 3022 2063 
z
" transform="scale(0.015625)"/>
       <path id="DejaVuSans-72" d="M 2631 2963 
Q 2534 3019 2420 3045 
Q 2306 3072 2169 3072 
Q 1681 3072 1420 2755 
Q 1159 2438 1159 1844 
L 1159 0 
L 581 0 
L 581 3500 
L 1159 3500 
L 1159 2956 
Q 1341 3275 1631 3429 
Q 1922 3584 2338 3584 
Q 2397 3584 2469 3576 
Q 2541 3569 2628 3553 
L 2631 2963 
z
" transform="scale(0.015625)"/>
       <path id="DejaVuSans-67" d="M 2906 1791 
Q 2906 2416 2648 2759 
Q 2391 3103 1925 3103 
Q 1463 3103 1205 2759 
Q 947 2416 947 1791 
Q 947 1169 1205 825 
Q 1463 481 1925 481 
Q 2391 481 2648 825 
Q 2906 1169 2906 1791 
z
M 3481 434 
Q 3481 -459 3084 -895 
Q 2688 -1331 1869 -1331 
Q 1566 -1331 1297 -1286 
Q 1028 -1241 775 -1147 
L 775 -588 
Q 1028 -725 1275 -790 
Q 1522 -856 1778 -856 
Q 2344 -856 2625 -561 
Q 2906 -266 2906 331 
L 2906 616 
Q 2728 306 2450 153 
Q 2172 0 1784 0 
Q 1141 0 747 490 
Q 353 981 353 1791 
Q 353 2603 747 3093 
Q 1141 3584 1784 3584 
Q 2172 3584 2450 3431 
Q 2728 3278 2906 2969 
L 2906 3500 
L 3481 3500 
L 3481 434 
z
" transform="scale(0.015625)"/>
       <path id="DejaVuSans-79" d="M 2059 -325 
Q 1816 -950 1584 -1140 
Q 1353 -1331 966 -1331 
L 506 -1331 
L 506 -850 
L 844 -850 
Q 1081 -850 1212 -737 
Q 1344 -625 1503 -206 
L 1606 56 
L 191 3500 
L 800 3500 
L 1894 763 
L 2988 3500 
L 3597 3500 
L 2059 -325 
z
" transform="scale(0.015625)"/>
       <path id="DejaVuSans-20" transform="scale(0.015625)"/>
       <path id="DejaVuSans-28" d="M 1984 4856 
Q 1566 4138 1362 3434 
Q 1159 2731 1159 2009 
Q 1159 1288 1364 580 
Q 1569 -128 1984 -844 
L 1484 -844 
Q 1016 -109 783 600 
Q 550 1309 550 2009 
Q 550 2706 781 3412 
Q 1013 4119 1484 4856 
L 1984 4856 
z
" transform="scale(0.015625)"/>
       <path id="DejaVuSans-56" d="M 1831 0 
L 50 4666 
L 709 4666 
L 2188 738 
L 3669 4666 
L 4325 4666 
L 2547 0 
L 1831 0 
z
" transform="scale(0.015625)"/>
       <path id="DejaVuSans-29" d="M 513 4856 
L 1013 4856 
Q 1481 4119 1714 3412 
Q 1947 2706 1947 2009 
Q 1947 1309 1714 600 
Q 1481 -109 1013 -844 
L 513 -844 
Q 928 -128 1133 580 
Q 1338 1288 1338 2009 
Q 1338 2731 1133 3434 
Q 928 4138 513 4856 
z
" transform="scale(0.015625)"/>
       <path id="DejaVuSans-2014" d="M 313 1978 
L 6088 1978 
L 6088 1528 
L 313 1528 
L 313 1978 
z
" transform="scale(0.015625)"/>
       <path id="DejaVuSans-6c" d="M 603 4863 
L 1178 4863 
L 1178 0 
L 603 0 
L 603 4863 
z
" transform="scale(0.015625)"/>
       <path id="DejaVuSans-61" d="M 2194 1759 
Q 1497 1759 1228 1600 
Q 959 1441 959 1056 
Q 959 750 1161 570 
Q 1363 391 1709 391 
Q 2188 391 2477 730 
Q 2766 1069 2766 1631 
L 2766 1759 
L 2194 1759 
z
M 3341 1997 
L 3341 0 
L 2766 0 
L 2766 531 
Q 2569 213 2275 61 
Q 1981 -91 1556 -91 
Q 1019 -91 701 211 
Q 384 513 384 1019 
Q 384 1609 779 1909 
Q 1175 2209 1959 2209 
L 2766 2209 
L 2766 2266 
Q 2766 2663 2505 2880 
Q 2244 3097 1772 3097 
Q 1472 3097 1187 3025 
Q 903 2953 641 2809 
L 641 3341 
Q 956 3463 1253 3523 
Q 1550 3584 1831 3584 
Q 2591 3584 2966 3190 
Q 3341 2797 3341 1997 
z
" transform="scale(0.015625)"/>
       <path id="DejaVuSans-74" d="M 1172 4494 
L 1172 3500 
L 2356 3500 
L 2356 3053 
L 1172 3053 
L 1172 1153 
Q 1172 725 1289 603 
Q 1406 481 1766 481 
L 2356 481 
L 2356 0 
L 1766 0 
Q 1100 0 847 248 
Q 594 497 594 1153 
L 594 3053 
L 172 3053 
L 172 3500 
L 594 3500 
L 594 4494 
L 1172 4494 
z
" transform="scale(0.015625)"/>
       <path id="DejaVuSans-69" d="M 603 3500 
L 1178 3500 
L 1178 0 
L 603 0 
L 603 3500 
z
M 603 4863 
L 1178 4863 
L 1178 4134 
L 603 4134 
L 603 4863 
z
" transform="scale(0.015625)"/>
       <path id="DejaVuSans-76" d="M 191 3500 
L 800 3500 
L 1894 563 
L 2988 3500 
L 3597 3500 
L 2284 0 
L 1503 0 
L 191 3500 
z
" transform="scale(0.015625)"/>
       <path id="DejaVuSans-6f" d="M 1959 3097 
Q 1497 3097 1228 2736 
Q 959 2375 959 1747 
Q 959 1119 1226 758 
Q 1494 397 1959 397 
Q 2419 397 2687 759 
Q 2956 1122 2956 1747 
Q 2956 2369 2687 2733 
Q 2419 3097 1959 3097 
z
M 1959 3584 
Q 2709 3584 3137 3096 
Q 3566 2609 3566 1747 
Q 3566 888 3137 398 
Q 2709 -91 1959 -91 
Q 1206 -91 779 398 
Q 353 888 353 1747 
Q 353 2609 779 3096 
Q 1206 3584 1959 3584 
z
" transform="scale(0.015625)"/>
       <path id="DejaVuSans-6d" d="M 3328 2828 
Q 3544 3216 3844 3400 
Q 4144 3584 4550 3584 
Q 5097 3584 5394 3201 
Q 5691 2819 5691 2113 
L 5691 0 
L 5113 0 
L 5113 2094 
Q 5113 2597 4934 2840 
Q 4756 3084 4391 3084 
Q 3944 3084 3684 2787 
Q 3425 2491 3425 1978 
L 3425 0 
L 2847 0 
L 2847 2094 
Q 2847 2600 2669 2842 
Q 2491 3084 2119 3084 
Q 1678 3084 1418 2786 
Q 1159 2488 1159 1978 
L 1159 0 
L 581 0 
L 581 3500 
L 1159 3500 
L 1159 2956 
Q 1356 3278 1631 3431 
Q 1906 3584 2284 3584 
Q 2666 3584 2933 3390 
Q 3200 3197 3328 2828 
z
" transform="scale(0.015625)"/>
       <path id="DejaVuSans-7a" d="M 353 3500 
L 3084 3500 
L 3084 2975 
L 922 459 
L 3084 459 
L 3084 0 
L 275 0 
L 275 525 
L 2438 3041 
L 353 3041 
L 353 3500 
z
" transform="scale(0.015625)"/>
       <path id="DejaVuSans-64" d="M 2906 2969 
L 2906 4863 
L 3481 4863 
L 3481 0 
L 2906 0 
L 2906 525 
Q 2725 213 2448 61 
Q 2172 -91 1784 -91 
Q 1150 -91 751 415 
Q 353 922 353 1747 
Q 353 2572 751 3078 
Q 1150 3584 1784 3584 
Q 2172 3584 2448 3432 
Q 2725 3281 2906 2969 
z
M 947 1747 
Q 947 1113 1208 752 
Q 1469 391 1925 391 
Q 2381 391 2643 752 
Q 2906 1113 2906 1747 
Q 2906 2381 2643 2742 
Q 2381 3103 1925 3103 
Q 1469 3103 1208 2742 
Q 947 2381 947 1747 
z
" transform="scale(0.015625)"/>
       <path id="DejaVuSans-75" d="M 544 1381 
L 544 3500 
L 1119 3500 
L 1119 1403 
Q 1119 906 1312 657 
Q 1506 409 1894 409 
Q 2359 409 2629 706 
Q 2900 1003 2900 1516 
L 2900 3500 
L 3475 3500 
L 3475 0 
L 2900 0 
L 2900 538 
Q 2691 219 2414 64 
Q 2138 -91 1772 -91 
Q 1169 -91 856 284 
Q 544 659 544 1381 
z
M 1991 3584 
L 1991 3584 
z
" transform="scale(0.015625)"/>
       <path id="DejaVuSans-73" d="M 2834 3397 
L 2834 2853 
Q 2591 2978 2328 3040 
Q 2066 3103 1784 3103 
Q 1356 3103 1142 2972 
Q 928 2841 928 2578 
Q 928 2378 1081 2264 
Q 1234 2150 1697 2047 
L 1894 2003 
Q 2506 1872 2764 1633 
Q 3022 1394 3022 966 
Q 3022 478 2636 193 
Q 2250 -91 1575 -91 
Q 1294 -91 989 -36 
Q 684 19 347 128 
L 347 722 
Q 666 556 975 473 
Q 1284 391 1588 391 
Q 1994 391 2212 530 
Q 2431 669 2431 922 
Q 2431 1156 2273 1281 
Q 2116 1406 1581 1522 
L 1381 1569 
Q 847 1681 609 1914 
Q 372 2147 372 2553 
Q 372 3047 722 3315 
Q 1072 3584 1716 3584 
Q 2034 3584 2315 3537 
Q 2597 3491 2834 3397 
z
" transform="scale(0.015625)"/>
      </defs>
      <use xlink:href="#DejaVuSans-45"/>
      <use xlink:href="#DejaVuSans-6e" x="63.183594"/>
      <use xlink:href="#DejaVuSans-65" x="126.5625"/>
      <use xlink:href="#DejaVuSans-72" x="188.085938"/>
      <use xlink:href="#DejaVuSans-67" x="227.449219"/>
      <use xlink:href="#DejaVuSans-79" x="290.925781"/>
      <use xlink:href="#DejaVuSans-20" x="350.105469"/>
      <use xlink:href="#DejaVuSans-28" x="381.892578"/>
      <use xlink:href="#DejaVuSans-65" x="420.90625"/>
      <use xlink:href="#DejaVuSans-56" x="482.429688"/>
      <use xlink:href="#DejaVuSans-29" x="550.837891"/>
      <use xlink:href="#DejaVuSans-20" x="589.851562"/>
      <use xlink:href="#DejaVuSans-2014" x="621.638672"/>
      <use xlink:href="#DejaVuSans-20" x="721.638672"/>
      <use xlink:href="#DejaVuSans-72" x="753.425781"/>
      <use xlink:href="#DejaVuSans-65" x="792.289062"/>
      <use xlink:href="#DejaVuSans-6c" x="853.8125"/>
      <use xlink:href="#DejaVuSans-61" x="881.595703"/>
      <use xlink:href="#DejaVuSans-74" x="942.875"/>
      <use xlink:href="#DejaVuSans-69" x="982.083984"/>
      <use xlink:href="#DejaVuSans-76" x="1009.867188"/>
      <use xlink:href="#DejaVuSans-65" x="1069.046875"/>
      <use xlink:href="#DejaVuSans-20" x="1130.570312"/>
      <use xlink:href="#DejaVuSans-74" x="1162.357422"/>
      <use xlink:href="#DejaVuSans-6f" x="1201.566406"/>
      <use xlink:href="#DejaVuSans-20" x="1262.748047"/>
      <use xlink:href="#DejaVuSans-61" x="1294.535156"/>
      <use xlink:href="#DejaVuSans-74" x="1355.814453"/>
      <use xlink:href="#DejaVuSans-6f" x="1395.023438"/>
      <use xlink:href="#DejaVuSans-6d" x="1456.205078"/>
      <use xlink:href="#DejaVuSans-69" x="1553.617188"/>
      <use xlink:href="#DejaVuSans-7a" x="1581.400391"/>
      <use xlink:href="#DejaVuSans-65" x="1633.890625"/>
      <use xlink:href="#DejaVuSans-64" x="1695.414062"/>
      <use xlink:href="#DejaVuSans-20" x="1758.890625"/>
      <use xlink:href="#DejaVuSans-67" x="1790.677734"/>
      <use xlink:href="#DejaVuSans-72" x="1854.154297"/>
      <use xlink:href="#DejaVuSans-6f" x="1893.017578"/>
      <use xlink:href="#DejaVuSans-75" x="1954.199219"/>
      <use xlink:href="#DejaVuSans-6e" x="2017.578125"/>
      <use xlink:href="#DejaVuSans-64" x="2080.957031"/>
      <use xlink:href="#DejaVuSans-20" x="2144.433594"/>
      <use xlink:href="#DejaVuSans-73" x="2176.220703"/>
      <use xlink:href="#DejaVuSans-74" x="2228.320312"/>
      <use xlink:href="#DejaVuSans-61" x="2267.529297"/>
      <use xlink:href="#DejaVuSans-74" x="2328.808594"/>
      <use xlink:href="#DejaVuSans-65" x="2368.017578"/>
     </g>
    </g>
   </g>
   <g id="LineCollection_1">
    <path d="M 92.268206 290.083695 
L 183.05993 290.083695 
" clip-path="url(#p64d46fca3b)" style="fill: none; stroke: #000000; stroke-width: 2"/>
   </g>
   <g id="LineCollection_2">
    <path d="M 319.247516 165.191775 
L 410.03924 165.191775 
" clip-path="url(#p64d46fca3b)" style="fill: none; stroke: #000000; stroke-width: 2"/>
   </g>
   <g id="LineCollection_3">
    <path d="M 523.528895 163.8762 
L 614.32062 163.8762 
" clip-path="url(#p64d46fca3b)" style="fill: none; stroke: #000000; stroke-width: 2"/>
   </g>
   <g id="LineCollection_4">
    <path d="M 432.737171 63.8925 
L 523.528895 63.8925 
" clip-path="url(#p64d46fca3b)" style="fill: none; stroke: #000000; stroke-width: 2"/>
   </g>
   <g id="LineCollection_5">
    <path d="M 192.139102 442.1934 
L 310.168344 442.1934 
" clip-path="url(#p64d46fca3b)" style="fill: none; stroke: #1f77b4; stroke-width: 2.6"/>
   </g>
   <g id="LineCollection_6">
    <path d="M 419.118413 424.6524 
L 514.449723 424.6524 
" clip-path="url(#p64d46fca3b)" style="fill: none; stroke: #1f77b4; stroke-width: 2.6"/>
   </g>
   <g id="LineCollection_7">
    <path d="M 92.268206 267.07575 
L 183.05993 267.07575 
" clip-path="url(#p64d46fca3b)" style="fill: none; stroke-dasharray: 8,4; stroke-dashoffset: 0; stroke: #d62728; stroke-width: 2"/>
   </g>
   <g id="LineCollection_8">
    <path d="M 192.139102 157.4445 
L 310.168344 157.4445 
" clip-path="url(#p64d46fca3b)" style="fill: none; stroke-dasharray: 8,4; stroke-dashoffset: 0; stroke: #d62728; stroke-width: 2"/>
   </g>
   <g id="LineCollection_9">
    <path d="M 319.247516 154.521 
L 410.03924 154.521 
" clip-path="url(#p64d46fca3b)" style="fill: none; stroke-dasharray: 8,4; stroke-dashoffset: 0; stroke: #d62728; stroke-width: 2"/>
   </g>
   <g id="LineCollection_10">
    <path d="M 419.118413 154.521 
L 514.449723 154.521 
" clip-path="url(#p64d46fca3b)" style="fill: none; stroke-dasharray: 8,4; stroke-dashoffset: 0; stroke: #d62728; stroke-width: 2"/>
   </g>
   <g id="LineCollection_11">
    <path d="M 319.247516 374.3682 
L 410.03924 374.3682 
" clip-path="url(#p64d46fca3b)" style="fill: none; stroke-dasharray: 8,4; stroke-dashoffset: 0; stroke: #d62728; stroke-width: 2"/>
   </g>
   <g id="line2d_9">
    <path d="M 183.05993 290.083695 
L 183.05993 267.07575 
" clip-path="url(#p64d46fca3b)" style="fill: none; stroke-dasharray: 3.6,1.8; stroke-dashoffset: 0; stroke: #1f77b4; stroke-width: 0.9"/>
   </g>
   <g id="line2d_10">
    <path d="M 183.05993 267.07575 
L 192.139102 442.1934 
" clip-path="url(#p64d46fca3b)" style="fill: none; stroke-dasharray: 3.6,1.8; stroke-dashoffset: 0; stroke: #1f77b4; stroke-width: 0.9"/>
   </g>
   <g id="line2d_11">
    <path d="M 319.247516 165.191775 
L 310.168344 157.4445 
" clip-path="url(#p64d46fca3b)" style="fill: none; stroke-dasharray: 3.6,1.8; stroke-dashoffset: 0; stroke: #1f77b4; stroke-width: 0.9"/>
   </g>
   <g id="line2d_12">
    <path d="M 310.168344 157.4445 
L 310.168344 442.1934 
" clip-path="url(#p64d46fca3b)" style="fill: none; stroke-dasharray: 3.6,1.8; stroke-dashoffset: 0; stroke: #1f77b4; stroke-width: 0.9"/>
   </g>
   <g id="line2d_13">
    <path d="M 410.03924 165.191775 
L 319.247516 154.521 
" clip-path="url(#p64d46fca3b)" style="fill: none; stroke-dasharray: 3.6,1.8; stroke-dashoffset: 0; stroke: #1f77b4; stroke-width: 0.9"/>
   </g>
   <g id="line2d_14">
    <path d="M 410.03924 154.521 
L 419.118413 424.6524 
" clip-path="url(#p64d46fca3b)" style="fill: none; stroke-dasharray: 3.6,1.8; stroke-dashoffset: 0; stroke: #1f77b4; stroke-width: 0.9"/>
   </g>
   <g id="line2d_15">
    <path d="M 310.168344 442.1934 
L 319.247516 374.3682 
" clip-path="url(#p64d46fca3b)" style="fill: none; stroke-dasharray: 3.6,1.8; stroke-dashoffset: 0; stroke: #1f77b4; stroke-width: 0.9"/>
   </g>
   <g id="line2d_16">
    <path d="M 410.03924 374.3682 
L 419.118413 424.6524 
" clip-path="url(#p64d46fca3b)" style="fill: none; stroke-dasharray: 3.6,1.8; stroke-dashoffset: 0; stroke: #1f77b4; stroke-width: 0.9"/>
   </g>
   <g id="line2d_17">
    <path d="M 514.449723 424.6524 
L 514.449723 154.521 
" clip-path="url(#p64d46fca3b)" style="fill: none; stroke-dasharray: 3.6,1.8; stroke-dashoffset: 0; stroke: #1f77b4; stroke-width: 0.9"/>
   </g>
   <g id="line2d_18">
    <path d="M 514.449723 154.521 
L 523.528895 163.8762 
" clip-path="url(#p64d46fca3b)" style="fill: none; stroke-dasharray: 3.6,1.8; stroke-dashoffset: 0; stroke: #1f77b4; stroke-width: 0.9"/>
   </g>
   <g id="line2d_19">
    <path d="M 183.05993 290.083695 
L 432.737171 63.8925 
" clip-path="url(#p64d46fca3b)" style="fill: none; stroke: #808080; stroke-width: 0.7; stroke-linecap: square"/>
   </g>
   <g id="line2d_20">
    <path d="M 410.03924 165.191775 
L 432.737171 63.8925 
" clip-path="url(#p64d46fca3b)" style="fill: none; stroke: #808080; stroke-width: 0.7; stroke-linecap: square"/>
   </g>
   <g id="line2d_21">
    <path d="M 523.528895 163.8762 
L 523.528895 63.8925 
" clip-path="url(#p64d46fca3b)" style="fill: none; stroke: #808080; stroke-width: 0.7; stroke-linecap: square"/>
   </g>
   <g id="patch_3">
    <path d="M 46.872344 487.8 
L 46.872344 20.04 
" style="fill: none; stroke: #000000; stroke-width: 0.8; stroke-linejoin: miter; stroke-linecap: square"/>
   </g>
   <g id="text_10">
    <!-- CN(X$^2\Sigma^+$) + H($^2$S) -->
    <g transform="translate(96.184068 283.053661) scale(0.085 -0.085)">
     <defs>
      <path id="DejaVuSans-Bold-43" d="M 4288 256 
Q 3956 84 3597 -3 
Q 3238 -91 2847 -91 
Q 1681 -91 1000 561 
Q 319 1213 319 2328 
Q 319 3447 1000 4098 
Q 1681 4750 2847 4750 
Q 3238 4750 3597 4662 
Q 3956 4575 4288 4403 
L 4288 3438 
Q 3953 3666 3628 3772 
Q 3303 3878 2944 3878 
Q 2300 3878 1931 3465 
Q 1563 3053 1563 2328 
Q 1563 1606 1931 1193 
Q 2300 781 2944 781 
Q 3303 781 3628 887 
Q 3953 994 4288 1222 
L 4288 256 
z
" transform="scale(0.015625)"/>
      <path id="DejaVuSans-Bold-4e" d="M 588 4666 
L 1931 4666 
L 3628 1466 
L 3628 4666 
L 4769 4666 
L 4769 0 
L 3425 0 
L 1728 3200 
L 1728 0 
L 588 0 
L 588 4666 
z
" transform="scale(0.015625)"/>
      <path id="DejaVuSans-Bold-28" d="M 2413 -844 
L 1484 -844 
Q 1006 -72 778 623 
Q 550 1319 550 2003 
Q 550 2688 779 3389 
Q 1009 4091 1484 4856 
L 2413 4856 
Q 2013 4116 1813 3408 
Q 1613 2700 1613 2009 
Q 1613 1319 1811 609 
Q 2009 -100 2413 -844 
z
" transform="scale(0.015625)"/>
      <path id="DejaVuSans-Bold-58" d="M 3188 2381 
L 4806 0 
L 3553 0 
L 2463 1594 
L 1381 0 
L 122 0 
L 1741 2381 
L 184 4666 
L 1441 4666 
L 2463 3163 
L 3481 4666 
L 4744 4666 
L 3188 2381 
z
" transform="scale(0.015625)"/>
      <path id="DejaVuSans-3a3" d="M 1353 531 
L 3634 531 
L 3634 0 
L 628 0 
L 628 531 
L 2125 2481 
L 628 4134 
L 628 4666 
L 3578 4666 
L 3578 4134 
L 1353 4134 
L 2850 2494 
L 1353 531 
z
" transform="scale(0.015625)"/>
      <path id="DejaVuSans-2b" d="M 2944 4013 
L 2944 2272 
L 4684 2272 
L 4684 1741 
L 2944 1741 
L 2944 0 
L 2419 0 
L 2419 1741 
L 678 1741 
L 678 2272 
L 2419 2272 
L 2419 4013 
L 2944 4013 
z
" transform="scale(0.015625)"/>
      <path id="DejaVuSans-Bold-29" d="M 513 -844 
Q 913 -100 1113 609 
Q 1313 1319 1313 2009 
Q 1313 2700 1113 3408 
Q 913 4116 513 4856 
L 1441 4856 
Q 1916 4091 2145 3389 
Q 2375 2688 2375 2003 
Q 2375 1319 2147 623 
Q 1919 -72 1441 -844 
L 513 -844 
z
" transform="scale(0.015625)"/>
      <path id="DejaVuSans-Bold-20" transform="scale(0.015625)"/>
      <path id="DejaVuSans-Bold-2b" d="M 3053 4013 
L 3053 2375 
L 4684 2375 
L 4684 1638 
L 3053 1638 
L 3053 0 
L 2309 0 
L 2309 1638 
L 678 1638 
L 678 2375 
L 2309 2375 
L 2309 4013 
L 3053 4013 
z
" transform="scale(0.015625)"/>
      <path id="DejaVuSans-Bold-48" d="M 588 4666 
L 1791 4666 
L 1791 2888 
L 3566 2888 
L 3566 4666 
L 4769 4666 
L 4769 0 
L 3566 0 
L 3566 1978 
L 1791 1978 
L 1791 0 
L 588 0 
L 588 4666 
z
" transform="scale(0.015625)"/>
      <path id="DejaVuSans-Bold-53" d="M 3834 4519 
L 3834 3531 
Q 3450 3703 3084 3790 
Q 2719 3878 2394 3878 
Q 1963 3878 1756 3759 
Q 1550 3641 1550 3391 
Q 1550 3203 1689 3098 
Q 1828 2994 2194 2919 
L 2706 2816 
Q 3484 2659 3812 2340 
Q 4141 2022 4141 1434 
Q 4141 663 3683 286 
Q 3225 -91 2284 -91 
Q 1841 -91 1394 -6 
Q 947 78 500 244 
L 500 1259 
Q 947 1022 1364 901 
Q 1781 781 2169 781 
Q 2563 781 2772 912 
Q 2981 1044 2981 1288 
Q 2981 1506 2839 1625 
Q 2697 1744 2272 1838 
L 1806 1941 
Q 1106 2091 782 2419 
Q 459 2747 459 3303 
Q 459 4000 909 4375 
Q 1359 4750 2203 4750 
Q 2588 4750 2994 4692 
Q 3400 4634 3834 4519 
z
" transform="scale(0.015625)"/>
     </defs>
     <use xlink:href="#DejaVuSans-Bold-43" transform="translate(0 0.765625)"/>
     <use xlink:href="#DejaVuSans-Bold-4e" transform="translate(73.388672 0.765625)"/>
     <use xlink:href="#DejaVuSans-Bold-28" transform="translate(157.080078 0.765625)"/>
     <use xlink:href="#DejaVuSans-Bold-58" transform="translate(202.783203 0.765625)"/>
     <use xlink:href="#DejaVuSans-32" transform="translate(280.839844 39.046875) scale(0.7)"/>
     <use xlink:href="#DejaVuSans-3a3" transform="translate(328.110352 0.765625)"/>
     <use xlink:href="#DejaVuSans-2b" transform="translate(405.888672 39.046875) scale(0.7)"/>
     <use xlink:href="#DejaVuSans-Bold-29" transform="translate(480.913086 0.765625)"/>
     <use xlink:href="#DejaVuSans-Bold-20" transform="translate(526.616211 0.765625)"/>
     <use xlink:href="#DejaVuSans-Bold-2b" transform="translate(561.430664 0.765625)"/>
     <use xlink:href="#DejaVuSans-Bold-20" transform="translate(645.219727 0.765625)"/>
     <use xlink:href="#DejaVuSans-Bold-48" transform="translate(680.03418 0.765625)"/>
     <use xlink:href="#DejaVuSans-Bold-28" transform="translate(763.725586 0.765625)"/>
     <use xlink:href="#DejaVuSans-32" transform="translate(810.385742 39.046875) scale(0.7)"/>
     <use xlink:href="#DejaVuSans-Bold-53" transform="translate(857.65625 0.765625)"/>
     <use xlink:href="#DejaVuSans-Bold-29" transform="translate(929.677734 0.765625)"/>
    </g>
   </g>
   <g id="text_11">
    <!-- CH(X$^2\Pi$) + N($^4$S) -->
    <g transform="translate(326.478378 158.161741) scale(0.085 -0.085)">
     <defs>
      <path id="DejaVuSans-3a0" d="M 4184 4666 
L 4184 0 
L 3553 0 
L 3553 4134 
L 1259 4134 
L 1259 0 
L 628 0 
L 628 4666 
L 4184 4666 
z
" transform="scale(0.015625)"/>
     </defs>
     <use xlink:href="#DejaVuSans-Bold-43" transform="translate(0 0.765625)"/>
     <use xlink:href="#DejaVuSans-Bold-48" transform="translate(73.388672 0.765625)"/>
     <use xlink:href="#DejaVuSans-Bold-28" transform="translate(157.080078 0.765625)"/>
     <use xlink:href="#DejaVuSans-Bold-58" transform="translate(202.783203 0.765625)"/>
     <use xlink:href="#DejaVuSans-32" transform="translate(280.839844 39.046875) scale(0.7)"/>
     <use xlink:href="#DejaVuSans-3a0" transform="translate(328.110352 0.765625)"/>
     <use xlink:href="#DejaVuSans-Bold-29" transform="translate(403.305664 0.765625)"/>
     <use xlink:href="#DejaVuSans-Bold-20" transform="translate(449.008789 0.765625)"/>
     <use xlink:href="#DejaVuSans-Bold-2b" transform="translate(483.823242 0.765625)"/>
     <use xlink:href="#DejaVuSans-Bold-20" transform="translate(567.612305 0.765625)"/>
     <use xlink:href="#DejaVuSans-Bold-4e" transform="translate(602.426758 0.765625)"/>
     <use xlink:href="#DejaVuSans-Bold-28" transform="translate(686.118164 0.765625)"/>
     <use xlink:href="#DejaVuSans-34" transform="translate(732.77832 39.046875) scale(0.7)"/>
     <use xlink:href="#DejaVuSans-Bold-53" transform="translate(780.048828 0.765625)"/>
     <use xlink:href="#DejaVuSans-Bold-29" transform="translate(852.070312 0.765625)"/>
    </g>
   </g>
   <g id="text_12">
    <!-- NH(X$^3\Sigma^-$) + C($^3$P) -->
    <g transform="translate(527.487258 156.846166) scale(0.085 -0.085)">
     <defs>
      <path id="DejaVuSans-33" d="M 2597 2516 
Q 3050 2419 3304 2112 
Q 3559 1806 3559 1356 
Q 3559 666 3084 287 
Q 2609 -91 1734 -91 
Q 1441 -91 1130 -33 
Q 819 25 488 141 
L 488 750 
Q 750 597 1062 519 
Q 1375 441 1716 441 
Q 2309 441 2620 675 
Q 2931 909 2931 1356 
Q 2931 1769 2642 2001 
Q 2353 2234 1838 2234 
L 1294 2234 
L 1294 2753 
L 1863 2753 
Q 2328 2753 2575 2939 
Q 2822 3125 2822 3475 
Q 2822 3834 2567 4026 
Q 2313 4219 1838 4219 
Q 1578 4219 1281 4162 
Q 984 4106 628 3988 
L 628 4550 
Q 988 4650 1302 4700 
Q 1616 4750 1894 4750 
Q 2613 4750 3031 4423 
Q 3450 4097 3450 3541 
Q 3450 3153 3228 2886 
Q 3006 2619 2597 2516 
z
" transform="scale(0.015625)"/>
      <path id="DejaVuSans-Bold-50" d="M 588 4666 
L 2584 4666 
Q 3475 4666 3951 4270 
Q 4428 3875 4428 3144 
Q 4428 2409 3951 2014 
Q 3475 1619 2584 1619 
L 1791 1619 
L 1791 0 
L 588 0 
L 588 4666 
z
M 1791 3794 
L 1791 2491 
L 2456 2491 
Q 2806 2491 2997 2661 
Q 3188 2831 3188 3144 
Q 3188 3456 2997 3625 
Q 2806 3794 2456 3794 
L 1791 3794 
z
" transform="scale(0.015625)"/>
     </defs>
     <use xlink:href="#DejaVuSans-Bold-4e" transform="translate(0 0.765625)"/>
     <use xlink:href="#DejaVuSans-Bold-48" transform="translate(81.066406 0.765625)"/>
     <use xlink:href="#DejaVuSans-Bold-28" transform="translate(164.757812 0.765625)"/>
     <use xlink:href="#DejaVuSans-Bold-58" transform="translate(210.460938 0.765625)"/>
     <use xlink:href="#DejaVuSans-33" transform="translate(288.517578 39.046875) scale(0.7)"/>
     <use xlink:href="#DejaVuSans-3a3" transform="translate(335.788086 0.765625)"/>
     <use xlink:href="#DejaVuSans-2212" transform="translate(413.566406 39.046875) scale(0.7)"/>
     <use xlink:href="#DejaVuSans-Bold-29" transform="translate(488.59082 0.765625)"/>
     <use xlink:href="#DejaVuSans-Bold-20" transform="translate(534.293945 0.765625)"/>
     <use xlink:href="#DejaVuSans-Bold-2b" transform="translate(569.108398 0.765625)"/>
     <use xlink:href="#DejaVuSans-Bold-20" transform="translate(652.897461 0.765625)"/>
     <use xlink:href="#DejaVuSans-Bold-43" transform="translate(687.711914 0.765625)"/>
     <use xlink:href="#DejaVuSans-Bold-28" transform="translate(761.100586 0.765625)"/>
     <use xlink:href="#DejaVuSans-33" transform="translate(807.760742 39.046875) scale(0.7)"/>
     <use xlink:href="#DejaVuSans-Bold-50" transform="translate(855.03125 0.765625)"/>
     <use xlink:href="#DejaVuSans-Bold-29" transform="translate(928.322266 0.765625)"/>
    </g>
   </g>
   <g id="text_13">
    <!-- C + H + N -->
    <g transform="translate(454.859635 56.862466) scale(0.085 -0.085)">
     <use xlink:href="#DejaVuSans-Bold-43"/>
     <use xlink:href="#DejaVuSans-Bold-20" x="73.388672"/>
     <use xlink:href="#DejaVuSans-Bold-2b" x="108.203125"/>
     <use xlink:href="#DejaVuSans-Bold-20" x="191.992188"/>
     <use xlink:href="#DejaVuSans-Bold-48" x="226.806641"/>
     <use xlink:href="#DejaVuSans-Bold-20" x="310.498047"/>
     <use xlink:href="#DejaVuSans-Bold-2b" x="345.3125"/>
     <use xlink:href="#DejaVuSans-Bold-20" x="429.101562"/>
     <use xlink:href="#DejaVuSans-Bold-4e" x="463.916016"/>
    </g>
   </g>
   <g id="text_14">
    <!-- HCN ($X^1\Sigma^+$, linear) -->
    <g style="fill: #1f77b4" transform="translate(210.693723 435.163366) scale(0.085 -0.085)">
     <defs>
      <path id="DejaVuSans-48" d="M 628 4666 
L 1259 4666 
L 1259 2753 
L 3553 2753 
L 3553 4666 
L 4184 4666 
L 4184 0 
L 3553 0 
L 3553 2222 
L 1259 2222 
L 1259 0 
L 628 0 
L 628 4666 
z
" transform="scale(0.015625)"/>
      <path id="DejaVuSans-43" d="M 4122 4306 
L 4122 3641 
Q 3803 3938 3442 4084 
Q 3081 4231 2675 4231 
Q 1875 4231 1450 3742 
Q 1025 3253 1025 2328 
Q 1025 1406 1450 917 
Q 1875 428 2675 428 
Q 3081 428 3442 575 
Q 3803 722 4122 1019 
L 4122 359 
Q 3791 134 3420 21 
Q 3050 -91 2638 -91 
Q 1578 -91 968 557 
Q 359 1206 359 2328 
Q 359 3453 968 4101 
Q 1578 4750 2638 4750 
Q 3056 4750 3426 4639 
Q 3797 4528 4122 4306 
z
" transform="scale(0.015625)"/>
      <path id="DejaVuSans-4e" d="M 628 4666 
L 1478 4666 
L 3547 763 
L 3547 4666 
L 4159 4666 
L 4159 0 
L 3309 0 
L 1241 3903 
L 1241 0 
L 628 0 
L 628 4666 
z
" transform="scale(0.015625)"/>
      <path id="DejaVuSans-Oblique-58" d="M 878 4666 
L 1516 4666 
L 2316 2981 
L 3763 4666 
L 4500 4666 
L 2578 2438 
L 3738 0 
L 3103 0 
L 2163 1966 
L 459 0 
L -275 0 
L 1906 2509 
L 878 4666 
z
" transform="scale(0.015625)"/>
      <path id="DejaVuSans-2c" d="M 750 794 
L 1409 794 
L 1409 256 
L 897 -744 
L 494 -744 
L 750 256 
L 750 794 
z
" transform="scale(0.015625)"/>
     </defs>
     <use xlink:href="#DejaVuSans-48" transform="translate(0 0.684375)"/>
     <use xlink:href="#DejaVuSans-43" transform="translate(75.195312 0.684375)"/>
     <use xlink:href="#DejaVuSans-4e" transform="translate(145.019531 0.684375)"/>
     <use xlink:href="#DejaVuSans-20" transform="translate(219.824219 0.684375)"/>
     <use xlink:href="#DejaVuSans-28" transform="translate(251.611328 0.684375)"/>
     <use xlink:href="#DejaVuSans-Oblique-58" transform="translate(290.625 0.684375)"/>
     <use xlink:href="#DejaVuSans-31" transform="translate(366.14763 38.965625) scale(0.7)"/>
     <use xlink:href="#DejaVuSans-3a3" transform="translate(413.418138 0.684375)"/>
     <use xlink:href="#DejaVuSans-2b" transform="translate(491.196458 38.965625) scale(0.7)"/>
     <use xlink:href="#DejaVuSans-2c" transform="translate(566.220872 0.684375)"/>
     <use xlink:href="#DejaVuSans-20" transform="translate(598.007982 0.684375)"/>
     <use xlink:href="#DejaVuSans-6c" transform="translate(629.795091 0.684375)"/>
     <use xlink:href="#DejaVuSans-69" transform="translate(657.578294 0.684375)"/>
     <use xlink:href="#DejaVuSans-6e" transform="translate(685.361497 0.684375)"/>
     <use xlink:href="#DejaVuSans-65" transform="translate(748.740404 0.684375)"/>
     <use xlink:href="#DejaVuSans-61" transform="translate(810.263841 0.684375)"/>
     <use xlink:href="#DejaVuSans-72" transform="translate(871.543138 0.684375)"/>
     <use xlink:href="#DejaVuSans-29" transform="translate(912.656419 0.684375)"/>
    </g>
   </g>
   <g id="text_15">
    <!-- HNC ($X^1\Sigma^+$, linear) -->
    <g style="fill: #1f77b4" transform="translate(426.324068 417.622366) scale(0.085 -0.085)">
     <use xlink:href="#DejaVuSans-48" transform="translate(0 0.684375)"/>
     <use xlink:href="#DejaVuSans-4e" transform="translate(75.195312 0.684375)"/>
     <use xlink:href="#DejaVuSans-43" transform="translate(150 0.684375)"/>
     <use xlink:href="#DejaVuSans-20" transform="translate(219.824219 0.684375)"/>
     <use xlink:href="#DejaVuSans-28" transform="translate(251.611328 0.684375)"/>
     <use xlink:href="#DejaVuSans-Oblique-58" transform="translate(290.625 0.684375)"/>
     <use xlink:href="#DejaVuSans-31" transform="translate(366.14763 38.965625) scale(0.7)"/>
     <use xlink:href="#DejaVuSans-3a3" transform="translate(413.418138 0.684375)"/>
     <use xlink:href="#DejaVuSans-2b" transform="translate(491.196458 38.965625) scale(0.7)"/>
     <use xlink:href="#DejaVuSans-2c" transform="translate(566.220872 0.684375)"/>
     <use xlink:href="#DejaVuSans-20" transform="translate(598.007982 0.684375)"/>
     <use xlink:href="#DejaVuSans-6c" transform="translate(629.795091 0.684375)"/>
     <use xlink:href="#DejaVuSans-69" transform="translate(657.578294 0.684375)"/>
     <use xlink:href="#DejaVuSans-6e" transform="translate(685.361497 0.684375)"/>
     <use xlink:href="#DejaVuSans-65" transform="translate(748.740404 0.684375)"/>
     <use xlink:href="#DejaVuSans-61" transform="translate(810.263841 0.684375)"/>
     <use xlink:href="#DejaVuSans-72" transform="translate(871.543138 0.684375)"/>
     <use xlink:href="#DejaVuSans-29" transform="translate(912.656419 0.684375)"/>
    </g>
   </g>
   <g id="text_16">
    <!-- CN+H $\to$ HCN TS -->
    <g style="fill: #d62728" transform="translate(104.544068 260.1497) scale(0.08 -0.08)">
     <defs>
      <path id="DejaVuSans-Oblique-43" d="M 4447 4306 
L 4319 3641 
Q 4019 3944 3683 4091 
Q 3347 4238 2956 4238 
Q 2422 4238 2017 3981 
Q 1613 3725 1319 3200 
Q 1131 2863 1032 2486 
Q 934 2109 934 1728 
Q 934 1091 1264 756 
Q 1594 422 2222 422 
Q 2656 422 3056 561 
Q 3456 700 3834 978 
L 3688 231 
Q 3316 72 2936 -9 
Q 2556 -91 2175 -91 
Q 1278 -91 773 396 
Q 269 884 269 1753 
Q 269 2309 461 2846 
Q 653 3384 1013 3828 
Q 1394 4300 1883 4525 
Q 2372 4750 3022 4750 
Q 3422 4750 3780 4639 
Q 4138 4528 4447 4306 
z
" transform="scale(0.015625)"/>
      <path id="DejaVuSans-Oblique-4e" d="M 1081 4666 
L 1931 4666 
L 3219 666 
L 4000 4666 
L 4616 4666 
L 3706 0 
L 2853 0 
L 1569 4025 
L 788 0 
L 172 0 
L 1081 4666 
z
" transform="scale(0.015625)"/>
      <path id="DejaVuSans-Oblique-2b" d="M 2944 4013 
L 2944 2272 
L 4684 2272 
L 4684 1741 
L 2944 1741 
L 2944 0 
L 2419 0 
L 2419 1741 
L 678 1741 
L 678 2272 
L 2419 2272 
L 2419 4013 
L 2944 4013 
z
" transform="scale(0.015625)"/>
      <path id="DejaVuSans-Oblique-48" d="M 1081 4666 
L 1716 4666 
L 1344 2753 
L 3634 2753 
L 4006 4666 
L 4641 4666 
L 3731 0 
L 3097 0 
L 3531 2222 
L 1241 2222 
L 806 0 
L 172 0 
L 1081 4666 
z
" transform="scale(0.015625)"/>
      <path id="DejaVuSans-Oblique-20" transform="scale(0.015625)"/>
      <path id="DejaVuSans-2192" d="M 5050 2147 
L 5050 1866 
L 3822 638 
L 3447 1013 
L 4175 1741 
L 366 1741 
L 366 2272 
L 4175 2272 
L 3447 3000 
L 3822 3375 
L 5050 2147 
z
" transform="scale(0.015625)"/>
      <path id="DejaVuSans-Oblique-54" d="M 378 4666 
L 4325 4666 
L 4225 4134 
L 2559 4134 
L 1759 0 
L 1125 0 
L 1925 4134 
L 275 4134 
L 378 4666 
z
" transform="scale(0.015625)"/>
      <path id="DejaVuSans-Oblique-53" d="M 3859 4513 
L 3738 3897 
Q 3422 4066 3111 4152 
Q 2800 4238 2509 4238 
Q 1944 4238 1609 3991 
Q 1275 3744 1275 3334 
Q 1275 3109 1398 2989 
Q 1522 2869 2034 2731 
L 2413 2638 
Q 3053 2472 3303 2217 
Q 3553 1963 3553 1503 
Q 3553 797 2998 353 
Q 2444 -91 1538 -91 
Q 1166 -91 791 -17 
Q 416 56 38 206 
L 166 856 
Q 513 641 861 531 
Q 1209 422 1556 422 
Q 2147 422 2503 684 
Q 2859 947 2859 1369 
Q 2859 1650 2717 1795 
Q 2575 1941 2106 2059 
L 1728 2156 
Q 1081 2325 845 2545 
Q 609 2766 609 3163 
Q 609 3859 1145 4304 
Q 1681 4750 2541 4750 
Q 2875 4750 3203 4690 
Q 3531 4631 3859 4513 
z
" transform="scale(0.015625)"/>
     </defs>
     <use xlink:href="#DejaVuSans-Oblique-43" transform="translate(0 0.78125)"/>
     <use xlink:href="#DejaVuSans-Oblique-4e" transform="translate(69.824219 0.78125)"/>
     <use xlink:href="#DejaVuSans-Oblique-2b" transform="translate(144.628906 0.78125)"/>
     <use xlink:href="#DejaVuSans-Oblique-48" transform="translate(228.417969 0.78125)"/>
     <use xlink:href="#DejaVuSans-Oblique-20" transform="translate(303.613281 0.78125)"/>
     <use xlink:href="#DejaVuSans-2192" transform="translate(335.400391 0.78125)"/>
     <use xlink:href="#DejaVuSans-Oblique-20" transform="translate(419.189453 0.78125)"/>
     <use xlink:href="#DejaVuSans-Oblique-48" transform="translate(450.976562 0.78125)"/>
     <use xlink:href="#DejaVuSans-Oblique-43" transform="translate(526.171875 0.78125)"/>
     <use xlink:href="#DejaVuSans-Oblique-4e" transform="translate(595.996094 0.78125)"/>
     <use xlink:href="#DejaVuSans-Oblique-20" transform="translate(670.800781 0.78125)"/>
     <use xlink:href="#DejaVuSans-Oblique-54" transform="translate(702.587891 0.78125)"/>
     <use xlink:href="#DejaVuSans-Oblique-53" transform="translate(763.671875 0.78125)"/>
    </g>
   </g>
   <g id="text_17">
    <!-- CH+N $\to$ HCN TS -->
    <g style="fill: #d62728" transform="translate(218.033723 150.51845) scale(0.08 -0.08)">
     <use xlink:href="#DejaVuSans-Oblique-43" transform="translate(0 0.78125)"/>
     <use xlink:href="#DejaVuSans-Oblique-48" transform="translate(69.824219 0.78125)"/>
     <use xlink:href="#DejaVuSans-Oblique-2b" transform="translate(145.019531 0.78125)"/>
     <use xlink:href="#DejaVuSans-Oblique-4e" transform="translate(228.808594 0.78125)"/>
     <use xlink:href="#DejaVuSans-Oblique-20" transform="translate(303.613281 0.78125)"/>
     <use xlink:href="#DejaVuSans-2192" transform="translate(335.400391 0.78125)"/>
     <use xlink:href="#DejaVuSans-Oblique-20" transform="translate(419.189453 0.78125)"/>
     <use xlink:href="#DejaVuSans-Oblique-48" transform="translate(450.976562 0.78125)"/>
     <use xlink:href="#DejaVuSans-Oblique-43" transform="translate(526.171875 0.78125)"/>
     <use xlink:href="#DejaVuSans-Oblique-4e" transform="translate(595.996094 0.78125)"/>
     <use xlink:href="#DejaVuSans-Oblique-20" transform="translate(670.800781 0.78125)"/>
     <use xlink:href="#DejaVuSans-Oblique-54" transform="translate(702.587891 0.78125)"/>
     <use xlink:href="#DejaVuSans-Oblique-53" transform="translate(763.671875 0.78125)"/>
    </g>
   </g>
   <g id="text_18">
    <!-- CH+N $\to$ HNC TS -->
    <g style="fill: #d62728" transform="translate(331.523378 147.59495) scale(0.08 -0.08)">
     <use xlink:href="#DejaVuSans-Oblique-43" transform="translate(0 0.78125)"/>
     <use xlink:href="#DejaVuSans-Oblique-48" transform="translate(69.824219 0.78125)"/>
     <use xlink:href="#DejaVuSans-Oblique-2b" transform="translate(145.019531 0.78125)"/>
     <use xlink:href="#DejaVuSans-Oblique-4e" transform="translate(228.808594 0.78125)"/>
     <use xlink:href="#DejaVuSans-Oblique-20" transform="translate(303.613281 0.78125)"/>
     <use xlink:href="#DejaVuSans-2192" transform="translate(335.400391 0.78125)"/>
     <use xlink:href="#DejaVuSans-Oblique-20" transform="translate(419.189453 0.78125)"/>
     <use xlink:href="#DejaVuSans-Oblique-48" transform="translate(450.976562 0.78125)"/>
     <use xlink:href="#DejaVuSans-Oblique-4e" transform="translate(526.171875 0.78125)"/>
     <use xlink:href="#DejaVuSans-Oblique-43" transform="translate(600.976562 0.78125)"/>
     <use xlink:href="#DejaVuSans-Oblique-20" transform="translate(670.800781 0.78125)"/>
     <use xlink:href="#DejaVuSans-Oblique-54" transform="translate(702.587891 0.78125)"/>
     <use xlink:href="#DejaVuSans-Oblique-53" transform="translate(763.671875 0.78125)"/>
    </g>
   </g>
   <g id="text_19">
    <!-- NH+C $\to$ HNC TS -->
    <g style="fill: #d62728" transform="translate(433.664068 147.59495) scale(0.08 -0.08)">
     <use xlink:href="#DejaVuSans-Oblique-4e" transform="translate(0 0.78125)"/>
     <use xlink:href="#DejaVuSans-Oblique-48" transform="translate(74.804688 0.78125)"/>
     <use xlink:href="#DejaVuSans-Oblique-2b" transform="translate(150 0.78125)"/>
     <use xlink:href="#DejaVuSans-Oblique-43" transform="translate(233.789062 0.78125)"/>
     <use xlink:href="#DejaVuSans-Oblique-20" transform="translate(303.613281 0.78125)"/>
     <use xlink:href="#DejaVuSans-2192" transform="translate(335.400391 0.78125)"/>
     <use xlink:href="#DejaVuSans-Oblique-20" transform="translate(419.189453 0.78125)"/>
     <use xlink:href="#DejaVuSans-Oblique-48" transform="translate(450.976562 0.78125)"/>
     <use xlink:href="#DejaVuSans-Oblique-4e" transform="translate(526.171875 0.78125)"/>
     <use xlink:href="#DejaVuSans-Oblique-43" transform="translate(600.976562 0.78125)"/>
     <use xlink:href="#DejaVuSans-Oblique-20" transform="translate(670.800781 0.78125)"/>
     <use xlink:href="#DejaVuSans-Oblique-54" transform="translate(702.587891 0.78125)"/>
     <use xlink:href="#DejaVuSans-Oblique-53" transform="translate(763.671875 0.78125)"/>
    </g>
   </g>
   <g id="text_20">
    <!-- HCN $\leftrightarrow$ HNC TS -->
    <g style="fill: #d62728" transform="translate(333.323378 367.44215) scale(0.08 -0.08)">
     <defs>
      <path id="DejaVuSans-2194" d="M 313 1866 
L 313 2147 
L 1541 3375 
L 1916 3000 
L 1188 2272 
L 4175 2272 
L 3447 3000 
L 3822 3375 
L 5050 2147 
L 5050 1866 
L 3822 638 
L 3447 1013 
L 4175 1741 
L 1188 1741 
L 1916 1013 
L 1541 638 
L 313 1866 
z
" transform="scale(0.015625)"/>
     </defs>
     <use xlink:href="#DejaVuSans-Oblique-48" transform="translate(0 0.78125)"/>
     <use xlink:href="#DejaVuSans-Oblique-43" transform="translate(75.195312 0.78125)"/>
     <use xlink:href="#DejaVuSans-Oblique-4e" transform="translate(145.019531 0.78125)"/>
     <use xlink:href="#DejaVuSans-Oblique-20" transform="translate(219.824219 0.78125)"/>
     <use xlink:href="#DejaVuSans-2194" transform="translate(271.09375 0.78125)"/>
     <use xlink:href="#DejaVuSans-Oblique-20" transform="translate(374.365234 0.78125)"/>
     <use xlink:href="#DejaVuSans-Oblique-48" transform="translate(406.152344 0.78125)"/>
     <use xlink:href="#DejaVuSans-Oblique-4e" transform="translate(481.347656 0.78125)"/>
     <use xlink:href="#DejaVuSans-Oblique-43" transform="translate(556.152344 0.78125)"/>
     <use xlink:href="#DejaVuSans-Oblique-20" transform="translate(625.976562 0.78125)"/>
     <use xlink:href="#DejaVuSans-Oblique-54" transform="translate(657.763672 0.78125)"/>
     <use xlink:href="#DejaVuSans-Oblique-53" transform="translate(718.847656 0.78125)"/>
    </g>
   </g>
   <g id="text_21">
    <!-- CHN correlation diagram (UIUC NN surface) — entrance / exit saddles to HCN ($-12.94$ eV) and HNC ($-12.34$ eV) -->
    <g transform="translate(122.867344 14.04) scale(0.09 -0.09)">
     <defs>
      <path id="DejaVuSans-63" d="M 3122 3366 
L 3122 2828 
Q 2878 2963 2633 3030 
Q 2388 3097 2138 3097 
Q 1578 3097 1268 2742 
Q 959 2388 959 1747 
Q 959 1106 1268 751 
Q 1578 397 2138 397 
Q 2388 397 2633 464 
Q 2878 531 3122 666 
L 3122 134 
Q 2881 22 2623 -34 
Q 2366 -91 2075 -91 
Q 1284 -91 818 406 
Q 353 903 353 1747 
Q 353 2603 823 3093 
Q 1294 3584 2113 3584 
Q 2378 3584 2631 3529 
Q 2884 3475 3122 3366 
z
" transform="scale(0.015625)"/>
      <path id="DejaVuSans-55" d="M 556 4666 
L 1191 4666 
L 1191 1831 
Q 1191 1081 1462 751 
Q 1734 422 2344 422 
Q 2950 422 3222 751 
Q 3494 1081 3494 1831 
L 3494 4666 
L 4128 4666 
L 4128 1753 
Q 4128 841 3676 375 
Q 3225 -91 2344 -91 
Q 1459 -91 1007 375 
Q 556 841 556 1753 
L 556 4666 
z
" transform="scale(0.015625)"/>
      <path id="DejaVuSans-49" d="M 628 4666 
L 1259 4666 
L 1259 0 
L 628 0 
L 628 4666 
z
" transform="scale(0.015625)"/>
      <path id="DejaVuSans-66" d="M 2375 4863 
L 2375 4384 
L 1825 4384 
Q 1516 4384 1395 4259 
Q 1275 4134 1275 3809 
L 1275 3500 
L 2222 3500 
L 2222 3053 
L 1275 3053 
L 1275 0 
L 697 0 
L 697 3053 
L 147 3053 
L 147 3500 
L 697 3500 
L 697 3744 
Q 697 4328 969 4595 
Q 1241 4863 1831 4863 
L 2375 4863 
z
" transform="scale(0.015625)"/>
      <path id="DejaVuSansDisplay-2014" d="M 313 1978 
L 6088 1978 
L 6088 1528 
L 313 1528 
L 313 1978 
z
" transform="scale(0.015625)"/>
      <path id="DejaVuSans-2f" d="M 1625 4666 
L 2156 4666 
L 531 -594 
L 0 -594 
L 1625 4666 
z
" transform="scale(0.015625)"/>
      <path id="DejaVuSans-78" d="M 3513 3500 
L 2247 1797 
L 3578 0 
L 2900 0 
L 1881 1375 
L 863 0 
L 184 0 
L 1544 1831 
L 300 3500 
L 978 3500 
L 1906 2253 
L 2834 3500 
L 3513 3500 
z
" transform="scale(0.015625)"/>
      <path id="DejaVuSans-2e" d="M 684 794 
L 1344 794 
L 1344 0 
L 684 0 
L 684 794 
z
" transform="scale(0.015625)"/>
      <path id="DejaVuSans-39" d="M 703 97 
L 703 672 
Q 941 559 1184 500 
Q 1428 441 1663 441 
Q 2288 441 2617 861 
Q 2947 1281 2994 2138 
Q 2813 1869 2534 1725 
Q 2256 1581 1919 1581 
Q 1219 1581 811 2004 
Q 403 2428 403 3163 
Q 403 3881 828 4315 
Q 1253 4750 1959 4750 
Q 2769 4750 3195 4129 
Q 3622 3509 3622 2328 
Q 3622 1225 3098 567 
Q 2575 -91 1691 -91 
Q 1453 -91 1209 -44 
Q 966 3 703 97 
z
M 1959 2075 
Q 2384 2075 2632 2365 
Q 2881 2656 2881 3163 
Q 2881 3666 2632 3958 
Q 2384 4250 1959 4250 
Q 1534 4250 1286 3958 
Q 1038 3666 1038 3163 
Q 1038 2656 1286 2365 
Q 1534 2075 1959 2075 
z
" transform="scale(0.015625)"/>
     </defs>
     <use xlink:href="#DejaVuSans-43" transform="translate(0 0.015625)"/>
     <use xlink:href="#DejaVuSans-48" transform="translate(69.824219 0.015625)"/>
     <use xlink:href="#DejaVuSans-4e" transform="translate(145.019531 0.015625)"/>
     <use xlink:href="#DejaVuSans-20" transform="translate(219.824219 0.015625)"/>
     <use xlink:href="#DejaVuSans-63" transform="translate(251.611328 0.015625)"/>
     <use xlink:href="#DejaVuSans-6f" transform="translate(306.591797 0.015625)"/>
     <use xlink:href="#DejaVuSans-72" transform="translate(367.773438 0.015625)"/>
     <use xlink:href="#DejaVuSans-72" transform="translate(408.886719 0.015625)"/>
     <use xlink:href="#DejaVuSans-65" transform="translate(450 0.015625)"/>
     <use xlink:href="#DejaVuSans-6c" transform="translate(511.523438 0.015625)"/>
     <use xlink:href="#DejaVuSans-61" transform="translate(539.306641 0.015625)"/>
     <use xlink:href="#DejaVuSans-74" transform="translate(600.585938 0.015625)"/>
     <use xlink:href="#DejaVuSans-69" transform="translate(639.794922 0.015625)"/>
     <use xlink:href="#DejaVuSans-6f" transform="translate(667.578125 0.015625)"/>
     <use xlink:href="#DejaVuSans-6e" transform="translate(728.759766 0.015625)"/>
     <use xlink:href="#DejaVuSans-20" transform="translate(792.138672 0.015625)"/>
     <use xlink:href="#DejaVuSans-64" transform="translate(823.925781 0.015625)"/>
     <use xlink:href="#DejaVuSans-69" transform="translate(887.402344 0.015625)"/>
     <use xlink:href="#DejaVuSans-61" transform="translate(915.185547 0.015625)"/>
     <use xlink:href="#DejaVuSans-67" transform="translate(976.464844 0.015625)"/>
     <use xlink:href="#DejaVuSans-72" transform="translate(1039.941406 0.015625)"/>
     <use xlink:href="#DejaVuSans-61" transform="translate(1081.054688 0.015625)"/>
     <use xlink:href="#DejaVuSans-6d" transform="translate(1142.333984 0.015625)"/>
     <use xlink:href="#DejaVuSans-20" transform="translate(1239.746094 0.015625)"/>
     <use xlink:href="#DejaVuSans-28" transform="translate(1271.533203 0.015625)"/>
     <use xlink:href="#DejaVuSans-55" transform="translate(1310.546875 0.015625)"/>
     <use xlink:href="#DejaVuSans-49" transform="translate(1383.740234 0.015625)"/>
     <use xlink:href="#DejaVuSans-55" transform="translate(1413.232422 0.015625)"/>
     <use xlink:href="#DejaVuSans-43" transform="translate(1486.425781 0.015625)"/>
     <use xlink:href="#DejaVuSans-20" transform="translate(1556.25 0.015625)"/>
     <use xlink:href="#DejaVuSans-4e" transform="translate(1588.037109 0.015625)"/>
     <use xlink:href="#DejaVuSans-4e" transform="translate(1662.841797 0.015625)"/>
     <use xlink:href="#DejaVuSans-20" transform="translate(1737.646484 0.015625)"/>
     <use xlink:href="#DejaVuSans-73" transform="translate(1769.433594 0.015625)"/>
     <use xlink:href="#DejaVuSans-75" transform="translate(1821.533203 0.015625)"/>
     <use xlink:href="#DejaVuSans-72" transform="translate(1884.912109 0.015625)"/>
     <use xlink:href="#DejaVuSans-66" transform="translate(1926.025391 0.015625)"/>
     <use xlink:href="#DejaVuSans-61" transform="translate(1961.230469 0.015625)"/>
     <use xlink:href="#DejaVuSans-63" transform="translate(2022.509766 0.015625)"/>
     <use xlink:href="#DejaVuSans-65" transform="translate(2077.490234 0.015625)"/>
     <use xlink:href="#DejaVuSans-29" transform="translate(2139.013672 0.015625)"/>
     <use xlink:href="#DejaVuSans-20" transform="translate(2178.027344 0.015625)"/>
     <use xlink:href="#DejaVuSansDisplay-2014" transform="translate(2209.814453 0.015625)"/>
     <use xlink:href="#DejaVuSans-20" transform="translate(2309.814453 0.015625)"/>
     <use xlink:href="#DejaVuSans-65" transform="translate(2341.601562 0.015625)"/>
     <use xlink:href="#DejaVuSans-6e" transform="translate(2403.125 0.015625)"/>
     <use xlink:href="#DejaVuSans-74" transform="translate(2466.503906 0.015625)"/>
     <use xlink:href="#DejaVuSans-72" transform="translate(2505.712891 0.015625)"/>
     <use xlink:href="#DejaVuSans-61" transform="translate(2546.826172 0.015625)"/>
     <use xlink:href="#DejaVuSans-6e" transform="translate(2608.105469 0.015625)"/>
     <use xlink:href="#DejaVuSans-63" transform="translate(2671.484375 0.015625)"/>
     <use xlink:href="#DejaVuSans-65" transform="translate(2726.464844 0.015625)"/>
     <use xlink:href="#DejaVuSans-20" transform="translate(2787.988281 0.015625)"/>
     <use xlink:href="#DejaVuSans-2f" transform="translate(2819.775391 0.015625)"/>
     <use xlink:href="#DejaVuSans-20" transform="translate(2853.466797 0.015625)"/>
     <use xlink:href="#DejaVuSans-65" transform="translate(2885.253906 0.015625)"/>
     <use xlink:href="#DejaVuSans-78" transform="translate(2946.777344 0.015625)"/>
     <use xlink:href="#DejaVuSans-69" transform="translate(3005.957031 0.015625)"/>
     <use xlink:href="#DejaVuSans-74" transform="translate(3033.740234 0.015625)"/>
     <use xlink:href="#DejaVuSans-20" transform="translate(3072.949219 0.015625)"/>
     <use xlink:href="#DejaVuSans-73" transform="translate(3104.736328 0.015625)"/>
     <use xlink:href="#DejaVuSans-61" transform="translate(3156.835938 0.015625)"/>
     <use xlink:href="#DejaVuSans-64" transform="translate(3218.115234 0.015625)"/>
     <use xlink:href="#DejaVuSans-64" transform="translate(3281.591797 0.015625)"/>
     <use xlink:href="#DejaVuSans-6c" transform="translate(3345.068359 0.015625)"/>
     <use xlink:href="#DejaVuSans-65" transform="translate(3372.851562 0.015625)"/>
     <use xlink:href="#DejaVuSans-73" transform="translate(3434.375 0.015625)"/>
     <use xlink:href="#DejaVuSans-20" transform="translate(3486.474609 0.015625)"/>
     <use xlink:href="#DejaVuSans-74" transform="translate(3518.261719 0.015625)"/>
     <use xlink:href="#DejaVuSans-6f" transform="translate(3557.470703 0.015625)"/>
     <use xlink:href="#DejaVuSans-20" transform="translate(3618.652344 0.015625)"/>
     <use xlink:href="#DejaVuSans-48" transform="translate(3650.439453 0.015625)"/>
     <use xlink:href="#DejaVuSans-43" transform="translate(3725.634766 0.015625)"/>
     <use xlink:href="#DejaVuSans-4e" transform="translate(3795.458984 0.015625)"/>
     <use xlink:href="#DejaVuSans-20" transform="translate(3870.263672 0.015625)"/>
     <use xlink:href="#DejaVuSans-28" transform="translate(3902.050781 0.015625)"/>
     <use xlink:href="#DejaVuSans-2212" transform="translate(3941.064453 0.015625)"/>
     <use xlink:href="#DejaVuSans-31" transform="translate(4024.853516 0.015625)"/>
     <use xlink:href="#DejaVuSans-32" transform="translate(4088.476562 0.015625)"/>
     <use xlink:href="#DejaVuSans-2e" transform="translate(4152.099609 0.015625)"/>
     <use xlink:href="#DejaVuSans-39" transform="translate(4183.886719 0.015625)"/>
     <use xlink:href="#DejaVuSans-34" transform="translate(4247.509766 0.015625)"/>
     <use xlink:href="#DejaVuSans-20" transform="translate(4311.132812 0.015625)"/>
     <use xlink:href="#DejaVuSans-65" transform="translate(4342.919922 0.015625)"/>
     <use xlink:href="#DejaVuSans-56" transform="translate(4404.443359 0.015625)"/>
     <use xlink:href="#DejaVuSans-29" transform="translate(4472.851562 0.015625)"/>
     <use xlink:href="#DejaVuSans-20" transform="translate(4511.865234 0.015625)"/>
     <use xlink:href="#DejaVuSans-61" transform="translate(4543.652344 0.015625)"/>
     <use xlink:href="#DejaVuSans-6e" transform="translate(4604.931641 0.015625)"/>
     <use xlink:href="#DejaVuSans-64" transform="translate(4668.310547 0.015625)"/>
     <use xlink:href="#DejaVuSans-20" transform="translate(4731.787109 0.015625)"/>
     <use xlink:href="#DejaVuSans-48" transform="translate(4763.574219 0.015625)"/>
     <use xlink:href="#DejaVuSans-4e" transform="translate(4838.769531 0.015625)"/>
     <use xlink:href="#DejaVuSans-43" transform="translate(4913.574219 0.015625)"/>
     <use xlink:href="#DejaVuSans-20" transform="translate(4983.398438 0.015625)"/>
     <use xlink:href="#DejaVuSans-28" transform="translate(5015.185547 0.015625)"/>
     <use xlink:href="#DejaVuSans-2212" transform="translate(5054.199219 0.015625)"/>
     <use xlink:href="#DejaVuSans-31" transform="translate(5137.988281 0.015625)"/>
     <use xlink:href="#DejaVuSans-32" transform="translate(5201.611328 0.015625)"/>
     <use xlink:href="#DejaVuSans-2e" transform="translate(5265.234375 0.015625)"/>
     <use xlink:href="#DejaVuSans-33" transform="translate(5297.021484 0.015625)"/>
     <use xlink:href="#DejaVuSans-34" transform="translate(5360.644531 0.015625)"/>
     <use xlink:href="#DejaVuSans-20" transform="translate(5424.267578 0.015625)"/>
     <use xlink:href="#DejaVuSans-65" transform="translate(5456.054688 0.015625)"/>
     <use xlink:href="#DejaVuSans-56" transform="translate(5517.578125 0.015625)"/>
     <use xlink:href="#DejaVuSans-29" transform="translate(5585.986328 0.015625)"/>
    </g>
   </g>
  </g>
 </g>
 <defs>
  <clipPath id="p64d46fca3b">
   <rect x="46.872344" y="20.04" width="658.24" height="467.76"/>
  </clipPath>
 </defs>
</svg>
