<?xml version="1.0" encoding="utf-8" standalone="no"?>
<!DOCTYPE svg PUBLIC "-//W3C//DTD SVG 1.1//EN"
  "http://www.w3.org/Graphics/SVG/1.1/DTD/svg11.dtd">
<svg xmlns:xlink="http://www.w3.org/1999/xlink" width="712.312344pt" height="480.64pt" viewBox="0 0 712.312344 480.64" xmlns="http://www.w3.org/2000/svg" version="1.1">
 <metadata>
  <rdf:RDF xmlns:dc="http://purl.org/dc/elements/1.1/" xmlns:cc="http://creativecommons.org/ns#" xmlns:rdf="http://www.w3.org/1999/02/22-rdf-syntax-ns#">
   <cc:Work>
    <dc:type rdf:resource="http://purl.org/dc/dcmitype/StillImage"/>
    <dc:date>2026-04-26T11:03:18.782634</dc:date>
    <dc:format>image/svg+xml</dc:format>
    <dc:creator>
     <cc:Agent>
      <dc:title>Matplotlib v3.6.3, https://matplotlib.org/</dc:title>
     </cc:Agent>
    </dc:creator>
   </cc:Work>
  </rdf:RDF>
 </metadata>
 <defs>
  <style type="text/css">*{stroke-linejoin: round; stroke-linecap: butt}</style>
 </defs>
 <g id="figure_1">
  <g id="patch_1">
   <path d="M 0 480.64 
L 712.312344 480.64 
L 712.312344 0 
L 0 0 
z
" style="fill: #ffffff"/>
  </g>
  <g id="axes_1">
   <g id="patch_2">
    <path d="M 46.872344 473.44 
L 705.112344 473.44 
L 705.112344 20.8 
L 46.872344 20.8 
z
" style="fill: #ffffff"/>
   </g>
   <g id="matplotlib.axis_1"/>
   <g id="matplotlib.axis_2">
    <g id="ytick_1">
     <g id="line2d_1">
      <defs>
       <path id="mc03ac49e22" d="M 0 0 
L -3.5 0 
" style="stroke: #000000; stroke-width: 0.8"/>
      </defs>
      <g>
       <use xlink:href="#mc03ac49e22" x="46.872344" y="428.176" style="stroke: #000000; stroke-width: 0.8"/>
      </g>
     </g>
     <g id="text_1">
      <!-- −12 -->
      <g transform="translate(20.878125 431.595297) scale(0.09 -0.09)">
       <defs>
        <path id="DejaVuSans-2212" d="M 678 2272 
L 4684 2272 
L 4684 1741 
L 678 1741 
L 678 2272 
z
" transform="scale(0.015625)"/>
        <path id="DejaVuSans-31" d="M 794 531 
L 1825 531 
L 1825 4091 
L 703 3866 
L 703 4441 
L 1819 4666 
L 2450 4666 
L 2450 531 
L 3481 531 
L 3481 0 
L 794 0 
L 794 531 
z
" transform="scale(0.015625)"/>
        <path id="DejaVuSans-32" d="M 1228 531 
L 3431 531 
L 3431 0 
L 469 0 
L 469 531 
Q 828 903 1448 1529 
Q 2069 2156 2228 2338 
Q 2531 2678 2651 2914 
Q 2772 3150 2772 3378 
Q 2772 3750 2511 3984 
Q 2250 4219 1831 4219 
Q 1534 4219 1204 4116 
Q 875 4013 500 3803 
L 500 4441 
Q 881 4594 1212 4672 
Q 1544 4750 1819 4750 
Q 2544 4750 2975 4387 
Q 3406 4025 3406 3419 
Q 3406 3131 3298 2873 
Q 3191 2616 2906 2266 
Q 2828 2175 2409 1742 
Q 1991 1309 1228 531 
z
" transform="scale(0.015625)"/>
       </defs>
       <use xlink:href="#DejaVuSans-2212"/>
       <use xlink:href="#DejaVuSans-31" x="83.789062"/>
       <use xlink:href="#DejaVuSans-32" x="147.412109"/>
      </g>
     </g>
    </g>
    <g id="ytick_2">
     <g id="line2d_2">
      <g>
       <use xlink:href="#mc03ac49e22" x="46.872344" y="367.824" style="stroke: #000000; stroke-width: 0.8"/>
      </g>
     </g>
     <g id="text_2">
      <!-- −10 -->
      <g transform="translate(20.878125 371.243297) scale(0.09 -0.09)">
       <defs>
        <path id="DejaVuSans-30" d="M 2034 4250 
Q 1547 4250 1301 3770 
Q 1056 3291 1056 2328 
Q 1056 1369 1301 889 
Q 1547 409 2034 409 
Q 2525 409 2770 889 
Q 3016 1369 3016 2328 
Q 3016 3291 2770 3770 
Q 2525 4250 2034 4250 
z
M 2034 4750 
Q 2819 4750 3233 4129 
Q 3647 3509 3647 2328 
Q 3647 1150 3233 529 
Q 2819 -91 2034 -91 
Q 1250 -91 836 529 
Q 422 1150 422 2328 
Q 422 3509 836 4129 
Q 1250 4750 2034 4750 
z
" transform="scale(0.015625)"/>
       </defs>
       <use xlink:href="#DejaVuSans-2212"/>
       <use xlink:href="#DejaVuSans-31" x="83.789062"/>
       <use xlink:href="#DejaVuSans-30" x="147.412109"/>
      </g>
     </g>
    </g>
    <g id="ytick_3">
     <g id="line2d_3">
      <g>
       <use xlink:href="#mc03ac49e22" x="46.872344" y="307.472" style="stroke: #000000; stroke-width: 0.8"/>
      </g>
     </g>
     <g id="text_3">
      <!-- −8 -->
      <g transform="translate(26.604375 310.891297) scale(0.09 -0.09)">
       <defs>
        <path id="DejaVuSans-38" d="M 2034 2216 
Q 1584 2216 1326 1975 
Q 1069 1734 1069 1313 
Q 1069 891 1326 650 
Q 1584 409 2034 409 
Q 2484 409 2743 651 
Q 3003 894 3003 1313 
Q 3003 1734 2745 1975 
Q 2488 2216 2034 2216 
z
M 1403 2484 
Q 997 2584 770 2862 
Q 544 3141 544 3541 
Q 544 4100 942 4425 
Q 1341 4750 2034 4750 
Q 2731 4750 3128 4425 
Q 3525 4100 3525 3541 
Q 3525 3141 3298 2862 
Q 3072 2584 2669 2484 
Q 3125 2378 3379 2068 
Q 3634 1759 3634 1313 
Q 3634 634 3220 271 
Q 2806 -91 2034 -91 
Q 1263 -91 848 271 
Q 434 634 434 1313 
Q 434 1759 690 2068 
Q 947 2378 1403 2484 
z
M 1172 3481 
Q 1172 3119 1398 2916 
Q 1625 2713 2034 2713 
Q 2441 2713 2670 2916 
Q 2900 3119 2900 3481 
Q 2900 3844 2670 4047 
Q 2441 4250 2034 4250 
Q 1625 4250 1398 4047 
Q 1172 3844 1172 3481 
z
" transform="scale(0.015625)"/>
       </defs>
       <use xlink:href="#DejaVuSans-2212"/>
       <use xlink:href="#DejaVuSans-38" x="83.789062"/>
      </g>
     </g>
    </g>
    <g id="ytick_4">
     <g id="line2d_4">
      <g>
       <use xlink:href="#mc03ac49e22" x="46.872344" y="247.12" style="stroke: #000000; stroke-width: 0.8"/>
      </g>
     </g>
     <g id="text_4">
      <!-- −6 -->
      <g transform="translate(26.604375 250.539297) scale(0.09 -0.09)">
       <defs>
        <path id="DejaVuSans-36" d="M 2113 2584 
Q 1688 2584 1439 2293 
Q 1191 2003 1191 1497 
Q 1191 994 1439 701 
Q 1688 409 2113 409 
Q 2538 409 2786 701 
Q 3034 994 3034 1497 
Q 3034 2003 2786 2293 
Q 2538 2584 2113 2584 
z
M 3366 4563 
L 3366 3988 
Q 3128 4100 2886 4159 
Q 2644 4219 2406 4219 
Q 1781 4219 1451 3797 
Q 1122 3375 1075 2522 
Q 1259 2794 1537 2939 
Q 1816 3084 2150 3084 
Q 2853 3084 3261 2657 
Q 3669 2231 3669 1497 
Q 3669 778 3244 343 
Q 2819 -91 2113 -91 
Q 1303 -91 875 529 
Q 447 1150 447 2328 
Q 447 3434 972 4092 
Q 1497 4750 2381 4750 
Q 2619 4750 2861 4703 
Q 3103 4656 3366 4563 
z
" transform="scale(0.015625)"/>
       </defs>
       <use xlink:href="#DejaVuSans-2212"/>
       <use xlink:href="#DejaVuSans-36" x="83.789062"/>
      </g>
     </g>
    </g>
    <g id="ytick_5">
     <g id="line2d_5">
      <g>
       <use xlink:href="#mc03ac49e22" x="46.872344" y="186.768" style="stroke: #000000; stroke-width: 0.8"/>
      </g>
     </g>
     <g id="text_5">
      <!-- −4 -->
      <g transform="translate(26.604375 190.187297) scale(0.09 -0.09)">
       <defs>
        <path id="DejaVuSans-34" d="M 2419 4116 
L 825 1625 
L 2419 1625 
L 2419 4116 
z
M 2253 4666 
L 3047 4666 
L 3047 1625 
L 3713 1625 
L 3713 1100 
L 3047 1100 
L 3047 0 
L 2419 0 
L 2419 1100 
L 313 1100 
L 313 1709 
L 2253 4666 
z
" transform="scale(0.015625)"/>
       </defs>
       <use xlink:href="#DejaVuSans-2212"/>
       <use xlink:href="#DejaVuSans-34" x="83.789062"/>
      </g>
     </g>
    </g>
    <g id="ytick_6">
     <g id="line2d_6">
      <g>
       <use xlink:href="#mc03ac49e22" x="46.872344" y="126.416" style="stroke: #000000; stroke-width: 0.8"/>
      </g>
     </g>
     <g id="text_6">
      <!-- −2 -->
      <g transform="translate(26.604375 129.835297) scale(0.09 -0.09)">
       <use xlink:href="#DejaVuSans-2212"/>
       <use xlink:href="#DejaVuSans-32" x="83.789062"/>
      </g>
     </g>
    </g>
    <g id="ytick_7">
     <g id="line2d_7">
      <g>
       <use xlink:href="#mc03ac49e22" x="46.872344" y="66.064" style="stroke: #000000; stroke-width: 0.8"/>
      </g>
     </g>
     <g id="text_7">
      <!-- 0 -->
      <g transform="translate(34.146094 69.483297) scale(0.09 -0.09)">
       <use xlink:href="#DejaVuSans-30"/>
      </g>
     </g>
    </g>
    <g id="text_8">
     <!-- Energy (eV) — relative to atomized ground state -->
     <g transform="translate(14.798438 368.597344) rotate(-90) scale(0.1 -0.1)">
      <defs>
       <path id="DejaVuSans-45" d="M 628 4666 
L 3578 4666 
L 3578 4134 
L 1259 4134 
L 1259 2753 
L 3481 2753 
L 3481 2222 
L 1259 2222 
L 1259 531 
L 3634 531 
L 3634 0 
L 628 0 
L 628 4666 
z
" transform="scale(0.015625)"/>
       <path id="DejaVuSans-6e" d="M 3513 2113 
L 3513 0 
L 2938 0 
L 2938 2094 
Q 2938 2591 2744 2837 
Q 2550 3084 2163 3084 
Q 1697 3084 1428 2787 
Q 1159 2491 1159 1978 
L 1159 0 
L 581 0 
L 581 3500 
L 1159 3500 
L 1159 2956 
Q 1366 3272 1645 3428 
Q 1925 3584 2291 3584 
Q 2894 3584 3203 3211 
Q 3513 2838 3513 2113 
z
" transform="scale(0.015625)"/>
       <path id="DejaVuSans-65" d="M 3597 1894 
L 3597 1613 
L 953 1613 
Q 991 1019 1311 708 
Q 1631 397 2203 397 
Q 2534 397 2845 478 
Q 3156 559 3463 722 
L 3463 178 
Q 3153 47 2828 -22 
Q 2503 -91 2169 -91 
Q 1331 -91 842 396 
Q 353 884 353 1716 
Q 353 2575 817 3079 
Q 1281 3584 2069 3584 
Q 2775 3584 3186 3129 
Q 3597 2675 3597 1894 
z
M 3022 2063 
Q 3016 2534 2758 2815 
Q 2500 3097 2075 3097 
Q 1594 3097 1305 2825 
Q 1016 2553 972 2059 
L 3022 2063 
z
" transform="scale(0.015625)"/>
       <path id="DejaVuSans-72" d="M 2631 2963 
Q 2534 3019 2420 3045 
Q 2306 3072 2169 3072 
Q 1681 3072 1420 2755 
Q 1159 2438 1159 1844 
L 1159 0 
L 581 0 
L 581 3500 
L 1159 3500 
L 1159 2956 
Q 1341 3275 1631 3429 
Q 1922 3584 2338 3584 
Q 2397 3584 2469 3576 
Q 2541 3569 2628 3553 
L 2631 2963 
z
" transform="scale(0.015625)"/>
       <path id="DejaVuSans-67" d="M 2906 1791 
Q 2906 2416 2648 2759 
Q 2391 3103 1925 3103 
Q 1463 3103 1205 2759 
Q 947 2416 947 1791 
Q 947 1169 1205 825 
Q 1463 481 1925 481 
Q 2391 481 2648 825 
Q 2906 1169 2906 1791 
z
M 3481 434 
Q 3481 -459 3084 -895 
Q 2688 -1331 1869 -1331 
Q 1566 -1331 1297 -1286 
Q 1028 -1241 775 -1147 
L 775 -588 
Q 1028 -725 1275 -790 
Q 1522 -856 1778 -856 
Q 2344 -856 2625 -561 
Q 2906 -266 2906 331 
L 2906 616 
Q 2728 306 2450 153 
Q 2172 0 1784 0 
Q 1141 0 747 490 
Q 353 981 353 1791 
Q 353 2603 747 3093 
Q 1141 3584 1784 3584 
Q 2172 3584 2450 3431 
Q 2728 3278 2906 2969 
L 2906 3500 
L 3481 3500 
L 3481 434 
z
" transform="scale(0.015625)"/>
       <path id="DejaVuSans-79" d="M 2059 -325 
Q 1816 -950 1584 -1140 
Q 1353 -1331 966 -1331 
L 506 -1331 
L 506 -850 
L 844 -850 
Q 1081 -850 1212 -737 
Q 1344 -625 1503 -206 
L 1606 56 
L 191 3500 
L 800 3500 
L 1894 763 
L 2988 3500 
L 3597 3500 
L 2059 -325 
z
" transform="scale(0.015625)"/>
       <path id="DejaVuSans-20" transform="scale(0.015625)"/>
       <path id="DejaVuSans-28" d="M 1984 4856 
Q 1566 4138 1362 3434 
Q 1159 2731 1159 2009 
Q 1159 1288 1364 580 
Q 1569 -128 1984 -844 
L 1484 -844 
Q 1016 -109 783 600 
Q 550 1309 550 2009 
Q 550 2706 781 3412 
Q 1013 4119 1484 4856 
L 1984 4856 
z
" transform="scale(0.015625)"/>
       <path id="DejaVuSans-56" d="M 1831 0 
L 50 4666 
L 709 4666 
L 2188 738 
L 3669 4666 
L 4325 4666 
L 2547 0 
L 1831 0 
z
" transform="scale(0.015625)"/>
       <path id="DejaVuSans-29" d="M 513 4856 
L 1013 4856 
Q 1481 4119 1714 3412 
Q 1947 2706 1947 2009 
Q 1947 1309 1714 600 
Q 1481 -109 1013 -844 
L 513 -844 
Q 928 -128 1133 580 
Q 1338 1288 1338 2009 
Q 1338 2731 1133 3434 
Q 928 4138 513 4856 
z
" transform="scale(0.015625)"/>
       <path id="DejaVuSans-2014" d="M 313 1978 
L 6088 1978 
L 6088 1528 
L 313 1528 
L 313 1978 
z
" transform="scale(0.015625)"/>
       <path id="DejaVuSans-6c" d="M 603 4863 
L 1178 4863 
L 1178 0 
L 603 0 
L 603 4863 
z
" transform="scale(0.015625)"/>
       <path id="DejaVuSans-61" d="M 2194 1759 
Q 1497 1759 1228 1600 
Q 959 1441 959 1056 
Q 959 750 1161 570 
Q 1363 391 1709 391 
Q 2188 391 2477 730 
Q 2766 1069 2766 1631 
L 2766 1759 
L 2194 1759 
z
M 3341 1997 
L 3341 0 
L 2766 0 
L 2766 531 
Q 2569 213 2275 61 
Q 1981 -91 1556 -91 
Q 1019 -91 701 211 
Q 384 513 384 1019 
Q 384 1609 779 1909 
Q 1175 2209 1959 2209 
L 2766 2209 
L 2766 2266 
Q 2766 2663 2505 2880 
Q 2244 3097 1772 3097 
Q 1472 3097 1187 3025 
Q 903 2953 641 2809 
L 641 3341 
Q 956 3463 1253 3523 
Q 1550 3584 1831 3584 
Q 2591 3584 2966 3190 
Q 3341 2797 3341 1997 
z
" transform="scale(0.015625)"/>
       <path id="DejaVuSans-74" d="M 1172 4494 
L 1172 3500 
L 2356 3500 
L 2356 3053 
L 1172 3053 
L 1172 1153 
Q 1172 725 1289 603 
Q 1406 481 1766 481 
L 2356 481 
L 2356 0 
L 1766 0 
Q 1100 0 847 248 
Q 594 497 594 1153 
L 594 3053 
L 172 3053 
L 172 3500 
L 594 3500 
L 594 4494 
L 1172 4494 
z
" transform="scale(0.015625)"/>
       <path id="DejaVuSans-69" d="M 603 3500 
L 1178 3500 
L 1178 0 
L 603 0 
L 603 3500 
z
M 603 4863 
L 1178 4863 
L 1178 4134 
L 603 4134 
L 603 4863 
z
" transform="scale(0.015625)"/>
       <path id="DejaVuSans-76" d="M 191 3500 
L 800 3500 
L 1894 563 
L 2988 3500 
L 3597 3500 
L 2284 0 
L 1503 0 
L 191 3500 
z
" transform="scale(0.015625)"/>
       <path id="DejaVuSans-6f" d="M 1959 3097 
Q 1497 3097 1228 2736 
Q 959 2375 959 1747 
Q 959 1119 1226 758 
Q 1494 397 1959 397 
Q 2419 397 2687 759 
Q 2956 1122 2956 1747 
Q 2956 2369 2687 2733 
Q 2419 3097 1959 3097 
z
M 1959 3584 
Q 2709 3584 3137 3096 
Q 3566 2609 3566 1747 
Q 3566 888 3137 398 
Q 2709 -91 1959 -91 
Q 1206 -91 779 398 
Q 353 888 353 1747 
Q 353 2609 779 3096 
Q 1206 3584 1959 3584 
z
" transform="scale(0.015625)"/>
       <path id="DejaVuSans-6d" d="M 3328 2828 
Q 3544 3216 3844 3400 
Q 4144 3584 4550 3584 
Q 5097 3584 5394 3201 
Q 5691 2819 5691 2113 
L 5691 0 
L 5113 0 
L 5113 2094 
Q 5113 2597 4934 2840 
Q 4756 3084 4391 3084 
Q 3944 3084 3684 2787 
Q 3425 2491 3425 1978 
L 3425 0 
L 2847 0 
L 2847 2094 
Q 2847 2600 2669 2842 
Q 2491 3084 2119 3084 
Q 1678 3084 1418 2786 
Q 1159 2488 1159 1978 
L 1159 0 
L 581 0 
L 581 3500 
L 1159 3500 
L 1159 2956 
Q 1356 3278 1631 3431 
Q 1906 3584 2284 3584 
Q 2666 3584 2933 3390 
Q 3200 3197 3328 2828 
z
" transform="scale(0.015625)"/>
       <path id="DejaVuSans-7a" d="M 353 3500 
L 3084 3500 
L 3084 2975 
L 922 459 
L 3084 459 
L 3084 0 
L 275 0 
L 275 525 
L 2438 3041 
L 353 3041 
L 353 3500 
z
" transform="scale(0.015625)"/>
       <path id="DejaVuSans-64" d="M 2906 2969 
L 2906 4863 
L 3481 4863 
L 3481 0 
L 2906 0 
L 2906 525 
Q 2725 213 2448 61 
Q 2172 -91 1784 -91 
Q 1150 -91 751 415 
Q 353 922 353 1747 
Q 353 2572 751 3078 
Q 1150 3584 1784 3584 
Q 2172 3584 2448 3432 
Q 2725 3281 2906 2969 
z
M 947 1747 
Q 947 1113 1208 752 
Q 1469 391 1925 391 
Q 2381 391 2643 752 
Q 2906 1113 2906 1747 
Q 2906 2381 2643 2742 
Q 2381 3103 1925 3103 
Q 1469 3103 1208 2742 
Q 947 2381 947 1747 
z
" transform="scale(0.015625)"/>
       <path id="DejaVuSans-75" d="M 544 1381 
L 544 3500 
L 1119 3500 
L 1119 1403 
Q 1119 906 1312 657 
Q 1506 409 1894 409 
Q 2359 409 2629 706 
Q 2900 1003 2900 1516 
L 2900 3500 
L 3475 3500 
L 3475 0 
L 2900 0 
L 2900 538 
Q 2691 219 2414 64 
Q 2138 -91 1772 -91 
Q 1169 -91 856 284 
Q 544 659 544 1381 
z
M 1991 3584 
L 1991 3584 
z
" transform="scale(0.015625)"/>
       <path id="DejaVuSans-73" d="M 2834 3397 
L 2834 2853 
Q 2591 2978 2328 3040 
Q 2066 3103 1784 3103 
Q 1356 3103 1142 2972 
Q 928 2841 928 2578 
Q 928 2378 1081 2264 
Q 1234 2150 1697 2047 
L 1894 2003 
Q 2506 1872 2764 1633 
Q 3022 1394 3022 966 
Q 3022 478 2636 193 
Q 2250 -91 1575 -91 
Q 1294 -91 989 -36 
Q 684 19 347 128 
L 347 722 
Q 666 556 975 473 
Q 1284 391 1588 391 
Q 1994 391 2212 530 
Q 2431 669 2431 922 
Q 2431 1156 2273 1281 
Q 2116 1406 1581 1522 
L 1381 1569 
Q 847 1681 609 1914 
Q 372 2147 372 2553 
Q 372 3047 722 3315 
Q 1072 3584 1716 3584 
Q 2034 3584 2315 3537 
Q 2597 3491 2834 3397 
z
" transform="scale(0.015625)"/>
      </defs>
      <use xlink:href="#DejaVuSans-45"/>
      <use xlink:href="#DejaVuSans-6e" x="63.183594"/>
      <use xlink:href="#DejaVuSans-65" x="126.5625"/>
      <use xlink:href="#DejaVuSans-72" x="188.085938"/>
      <use xlink:href="#DejaVuSans-67" x="227.449219"/>
      <use xlink:href="#DejaVuSans-79" x="290.925781"/>
      <use xlink:href="#DejaVuSans-20" x="350.105469"/>
      <use xlink:href="#DejaVuSans-28" x="381.892578"/>
      <use xlink:href="#DejaVuSans-65" x="420.90625"/>
      <use xlink:href="#DejaVuSans-56" x="482.429688"/>
      <use xlink:href="#DejaVuSans-29" x="550.837891"/>
      <use xlink:href="#DejaVuSans-20" x="589.851562"/>
      <use xlink:href="#DejaVuSans-2014" x="621.638672"/>
      <use xlink:href="#DejaVuSans-20" x="721.638672"/>
      <use xlink:href="#DejaVuSans-72" x="753.425781"/>
      <use xlink:href="#DejaVuSans-65" x="792.289062"/>
      <use xlink:href="#DejaVuSans-6c" x="853.8125"/>
      <use xlink:href="#DejaVuSans-61" x="881.595703"/>
      <use xlink:href="#DejaVuSans-74" x="942.875"/>
      <use xlink:href="#DejaVuSans-69" x="982.083984"/>
      <use xlink:href="#DejaVuSans-76" x="1009.867188"/>
      <use xlink:href="#DejaVuSans-65" x="1069.046875"/>
      <use xlink:href="#DejaVuSans-20" x="1130.570312"/>
      <use xlink:href="#DejaVuSans-74" x="1162.357422"/>
      <use xlink:href="#DejaVuSans-6f" x="1201.566406"/>
      <use xlink:href="#DejaVuSans-20" x="1262.748047"/>
      <use xlink:href="#DejaVuSans-61" x="1294.535156"/>
      <use xlink:href="#DejaVuSans-74" x="1355.814453"/>
      <use xlink:href="#DejaVuSans-6f" x="1395.023438"/>
      <use xlink:href="#DejaVuSans-6d" x="1456.205078"/>
      <use xlink:href="#DejaVuSans-69" x="1553.617188"/>
      <use xlink:href="#DejaVuSans-7a" x="1581.400391"/>
      <use xlink:href="#DejaVuSans-65" x="1633.890625"/>
      <use xlink:href="#DejaVuSans-64" x="1695.414062"/>
      <use xlink:href="#DejaVuSans-20" x="1758.890625"/>
      <use xlink:href="#DejaVuSans-67" x="1790.677734"/>
      <use xlink:href="#DejaVuSans-72" x="1854.154297"/>
      <use xlink:href="#DejaVuSans-6f" x="1893.017578"/>
      <use xlink:href="#DejaVuSans-75" x="1954.199219"/>
      <use xlink:href="#DejaVuSans-6e" x="2017.578125"/>
      <use xlink:href="#DejaVuSans-64" x="2080.957031"/>
      <use xlink:href="#DejaVuSans-20" x="2144.433594"/>
      <use xlink:href="#DejaVuSans-73" x="2176.220703"/>
      <use xlink:href="#DejaVuSans-74" x="2228.320312"/>
      <use xlink:href="#DejaVuSans-61" x="2267.529297"/>
      <use xlink:href="#DejaVuSans-74" x="2328.808594"/>
      <use xlink:href="#DejaVuSans-65" x="2368.017578"/>
     </g>
    </g>
   </g>
   <g id="LineCollection_1">
    <path d="M 73.201944 360.43088 
L 204.849944 360.43088 
" clip-path="url(#p2b13578180)" style="fill: none; stroke: #000000; stroke-width: 2"/>
   </g>
   <g id="LineCollection_2">
    <path d="M 231.179544 301.074688 
L 362.827544 301.074688 
" clip-path="url(#p2b13578180)" style="fill: none; stroke: #000000; stroke-width: 2"/>
   </g>
   <g id="LineCollection_3">
    <path d="M 389.157144 262.117472 
L 520.805144 262.117472 
" clip-path="url(#p2b13578180)" style="fill: none; stroke: #000000; stroke-width: 2"/>
   </g>
   <g id="LineCollection_4">
    <path d="M 547.134744 190.177888 
L 678.782744 190.177888 
" clip-path="url(#p2b13578180)" style="fill: none; stroke: #000000; stroke-width: 2"/>
   </g>
   <g id="LineCollection_5">
    <path d="M 343.080344 66.064 
L 474.728344 66.064 
" clip-path="url(#p2b13578180)" style="fill: none; stroke: #000000; stroke-width: 2"/>
   </g>
   <g id="LineCollection_6">
    <path d="M 139.025944 410.97568 
L 270.673944 410.97568 
" clip-path="url(#p2b13578180)" style="fill: none; stroke: #1f77b4; stroke-width: 2.6"/>
   </g>
   <g id="LineCollection_7">
    <path d="M 310.168344 302.9456 
L 441.816344 302.9456 
" clip-path="url(#p2b13578180)" style="fill: none; stroke: #2ca02c; stroke-width: 2.6"/>
   </g>
   <g id="LineCollection_8">
    <path d="M 139.025944 333.1216 
L 204.849944 333.1216 
" clip-path="url(#p2b13578180)" style="fill: none; stroke-dasharray: 8,4; stroke-dashoffset: 0; stroke: #d62728; stroke-width: 2"/>
   </g>
   <g id="LineCollection_9">
    <path d="M 310.168344 337.648 
L 441.816344 337.648 
" clip-path="url(#p2b13578180)" style="fill: none; stroke-dasharray: 8,4; stroke-dashoffset: 0; stroke: #d62728; stroke-width: 2"/>
   </g>
   <g id="line2d_8">
    <path d="M 204.849944 360.43088 
L 204.849944 333.1216 
" clip-path="url(#p2b13578180)" style="fill: none; stroke-dasharray: 2.1,1.4; stroke-dashoffset: 0; stroke: #2ca02c; stroke-width: 0.7"/>
   </g>
   <g id="line2d_9">
    <path d="M 204.849944 333.1216 
L 375.992344 337.648 
" clip-path="url(#p2b13578180)" style="fill: none; stroke-dasharray: 2.1,1.4; stroke-dashoffset: 0; stroke: #2ca02c; stroke-width: 0.7"/>
   </g>
   <g id="line2d_10">
    <path d="M 375.992344 337.648 
L 375.992344 302.9456 
" clip-path="url(#p2b13578180)" style="fill: none; stroke-dasharray: 2.1,1.4; stroke-dashoffset: 0; stroke: #2ca02c; stroke-width: 0.7"/>
   </g>
   <g id="line2d_11">
    <path d="M 204.849944 333.1216 
L 204.849944 410.97568 
" clip-path="url(#p2b13578180)" style="fill: none; stroke-dasharray: 2.1,1.4; stroke-dashoffset: 0; stroke: #1f77b4; stroke-width: 0.7"/>
   </g>
   <g id="line2d_12">
    <path d="M 270.673944 410.97568 
L 441.816344 302.9456 
" clip-path="url(#p2b13578180)" style="fill: none; stroke-dasharray: 2.1,1.4; stroke-dashoffset: 0; stroke: #2ca02c; stroke-width: 0.7"/>
   </g>
   <g id="line2d_13">
    <path d="M 441.816344 302.9456 
L 454.981144 262.117472 
" clip-path="url(#p2b13578180)" style="fill: none; stroke-dasharray: 2.1,1.4; stroke-dashoffset: 0; stroke: #2ca02c; stroke-width: 0.7"/>
   </g>
   <g id="line2d_14">
    <path d="M 204.849944 360.43088 
L 408.904344 66.064 
" clip-path="url(#p2b13578180)" style="fill: none; stroke: #808080; stroke-width: 0.7; stroke-linecap: square"/>
   </g>
   <g id="line2d_15">
    <path d="M 362.827544 301.074688 
L 408.904344 66.064 
" clip-path="url(#p2b13578180)" style="fill: none; stroke: #808080; stroke-width: 0.7; stroke-linecap: square"/>
   </g>
   <g id="line2d_16">
    <path d="M 520.805144 262.117472 
L 408.904344 66.064 
" clip-path="url(#p2b13578180)" style="fill: none; stroke: #808080; stroke-width: 0.7; stroke-linecap: square"/>
   </g>
   <g id="line2d_17">
    <path d="M 678.782744 190.177888 
L 408.904344 66.064 
" clip-path="url(#p2b13578180)" style="fill: none; stroke: #808080; stroke-width: 0.7; stroke-linecap: square"/>
   </g>
   <g id="patch_3">
    <path d="M 46.872344 473.44 
L 46.872344 20.8 
" style="fill: none; stroke: #000000; stroke-width: 0.8; stroke-linejoin: miter; stroke-linecap: square"/>
   </g>
   <g id="text_9">
    <!-- N$_2$(X$^1\Sigma_g^+$) + O($^3$P) -->
    <g transform="translate(98.523444 351.4292) scale(0.085 -0.085)">
     <defs>
      <path id="DejaVuSans-Bold-4e" d="M 588 4666 
L 1931 4666 
L 3628 1466 
L 3628 4666 
L 4769 4666 
L 4769 0 
L 3425 0 
L 1728 3200 
L 1728 0 
L 588 0 
L 588 4666 
z
" transform="scale(0.015625)"/>
      <path id="DejaVuSans-Bold-28" d="M 2413 -844 
L 1484 -844 
Q 1006 -72 778 623 
Q 550 1319 550 2003 
Q 550 2688 779 3389 
Q 1009 4091 1484 4856 
L 2413 4856 
Q 2013 4116 1813 3408 
Q 1613 2700 1613 2009 
Q 1613 1319 1811 609 
Q 2009 -100 2413 -844 
z
" transform="scale(0.015625)"/>
      <path id="DejaVuSans-Bold-58" d="M 3188 2381 
L 4806 0 
L 3553 0 
L 2463 1594 
L 1381 0 
L 122 0 
L 1741 2381 
L 184 4666 
L 1441 4666 
L 2463 3163 
L 3481 4666 
L 4744 4666 
L 3188 2381 
z
" transform="scale(0.015625)"/>
      <path id="DejaVuSans-3a3" d="M 1353 531 
L 3634 531 
L 3634 0 
L 628 0 
L 628 531 
L 2125 2481 
L 628 4134 
L 628 4666 
L 3578 4666 
L 3578 4134 
L 1353 4134 
L 2850 2494 
L 1353 531 
z
" transform="scale(0.015625)"/>
      <path id="DejaVuSans-2b" d="M 2944 4013 
L 2944 2272 
L 4684 2272 
L 4684 1741 
L 2944 1741 
L 2944 0 
L 2419 0 
L 2419 1741 
L 678 1741 
L 678 2272 
L 2419 2272 
L 2419 4013 
L 2944 4013 
z
" transform="scale(0.015625)"/>
      <path id="DejaVuSans-Oblique-67" d="M 3816 3500 
L 3219 434 
Q 3047 -456 2561 -893 
Q 2075 -1331 1253 -1331 
Q 950 -1331 690 -1286 
Q 431 -1241 206 -1147 
L 313 -588 
Q 525 -725 762 -790 
Q 1000 -856 1269 -856 
Q 1816 -856 2167 -557 
Q 2519 -259 2631 300 
L 2681 563 
Q 2441 288 2122 144 
Q 1803 0 1434 0 
Q 903 0 598 351 
Q 294 703 294 1319 
Q 294 1803 478 2267 
Q 663 2731 997 3091 
Q 1219 3328 1514 3456 
Q 1809 3584 2131 3584 
Q 2484 3584 2746 3420 
Q 3009 3256 3138 2956 
L 3238 3500 
L 3816 3500 
z
M 2950 2216 
Q 2950 2641 2750 2872 
Q 2550 3103 2181 3103 
Q 1953 3103 1747 3012 
Q 1541 2922 1394 2759 
Q 1156 2491 1023 2127 
Q 891 1763 891 1375 
Q 891 944 1092 712 
Q 1294 481 1672 481 
Q 2219 481 2584 976 
Q 2950 1472 2950 2216 
z
" transform="scale(0.015625)"/>
      <path id="DejaVuSans-Bold-29" d="M 513 -844 
Q 913 -100 1113 609 
Q 1313 1319 1313 2009 
Q 1313 2700 1113 3408 
Q 913 4116 513 4856 
L 1441 4856 
Q 1916 4091 2145 3389 
Q 2375 2688 2375 2003 
Q 2375 1319 2147 623 
Q 1919 -72 1441 -844 
L 513 -844 
z
" transform="scale(0.015625)"/>
      <path id="DejaVuSans-Bold-20" transform="scale(0.015625)"/>
      <path id="DejaVuSans-Bold-2b" d="M 3053 4013 
L 3053 2375 
L 4684 2375 
L 4684 1638 
L 3053 1638 
L 3053 0 
L 2309 0 
L 2309 1638 
L 678 1638 
L 678 2375 
L 2309 2375 
L 2309 4013 
L 3053 4013 
z
" transform="scale(0.015625)"/>
      <path id="DejaVuSans-Bold-4f" d="M 2719 3878 
Q 2169 3878 1866 3472 
Q 1563 3066 1563 2328 
Q 1563 1594 1866 1187 
Q 2169 781 2719 781 
Q 3272 781 3575 1187 
Q 3878 1594 3878 2328 
Q 3878 3066 3575 3472 
Q 3272 3878 2719 3878 
z
M 2719 4750 
Q 3844 4750 4481 4106 
Q 5119 3463 5119 2328 
Q 5119 1197 4481 553 
Q 3844 -91 2719 -91 
Q 1597 -91 958 553 
Q 319 1197 319 2328 
Q 319 3463 958 4106 
Q 1597 4750 2719 4750 
z
" transform="scale(0.015625)"/>
      <path id="DejaVuSans-33" d="M 2597 2516 
Q 3050 2419 3304 2112 
Q 3559 1806 3559 1356 
Q 3559 666 3084 287 
Q 2609 -91 1734 -91 
Q 1441 -91 1130 -33 
Q 819 25 488 141 
L 488 750 
Q 750 597 1062 519 
Q 1375 441 1716 441 
Q 2309 441 2620 675 
Q 2931 909 2931 1356 
Q 2931 1769 2642 2001 
Q 2353 2234 1838 2234 
L 1294 2234 
L 1294 2753 
L 1863 2753 
Q 2328 2753 2575 2939 
Q 2822 3125 2822 3475 
Q 2822 3834 2567 4026 
Q 2313 4219 1838 4219 
Q 1578 4219 1281 4162 
Q 984 4106 628 3988 
L 628 4550 
Q 988 4650 1302 4700 
Q 1616 4750 1894 4750 
Q 2613 4750 3031 4423 
Q 3450 4097 3450 3541 
Q 3450 3153 3228 2886 
Q 3006 2619 2597 2516 
z
" transform="scale(0.015625)"/>
      <path id="DejaVuSans-Bold-50" d="M 588 4666 
L 2584 4666 
Q 3475 4666 3951 4270 
Q 4428 3875 4428 3144 
Q 4428 2409 3951 2014 
Q 3475 1619 2584 1619 
L 1791 1619 
L 1791 0 
L 588 0 
L 588 4666 
z
M 1791 3794 
L 1791 2491 
L 2456 2491 
Q 2806 2491 2997 2661 
Q 3188 2831 3188 3144 
Q 3188 3456 2997 3625 
Q 2806 3794 2456 3794 
L 1791 3794 
z
" transform="scale(0.015625)"/>
     </defs>
     <use xlink:href="#DejaVuSans-Bold-4e" transform="translate(0 0.765625)"/>
     <use xlink:href="#DejaVuSans-32" transform="translate(84.648438 -15.640625) scale(0.7)"/>
     <use xlink:href="#DejaVuSans-Bold-28" transform="translate(131.918945 0.765625)"/>
     <use xlink:href="#DejaVuSans-Bold-58" transform="translate(177.62207 0.765625)"/>
     <use xlink:href="#DejaVuSans-31" transform="translate(255.678711 39.046875) scale(0.7)"/>
     <use xlink:href="#DejaVuSans-3a3" transform="translate(302.949219 0.765625)"/>
     <use xlink:href="#DejaVuSans-2b" transform="translate(380.727539 39.046875) scale(0.7)"/>
     <use xlink:href="#DejaVuSans-Oblique-67" transform="translate(367.089844 -26.578125) scale(0.7)"/>
     <use xlink:href="#DejaVuSans-Bold-29" transform="translate(455.751953 0.765625)"/>
     <use xlink:href="#DejaVuSans-Bold-20" transform="translate(501.455078 0.765625)"/>
     <use xlink:href="#DejaVuSans-Bold-2b" transform="translate(536.269531 0.765625)"/>
     <use xlink:href="#DejaVuSans-Bold-20" transform="translate(620.058594 0.765625)"/>
     <use xlink:href="#DejaVuSans-Bold-4f" transform="translate(654.873047 0.765625)"/>
     <use xlink:href="#DejaVuSans-Bold-28" transform="translate(739.882812 0.765625)"/>
     <use xlink:href="#DejaVuSans-33" transform="translate(786.542969 39.046875) scale(0.7)"/>
     <use xlink:href="#DejaVuSans-Bold-50" transform="translate(833.813477 0.765625)"/>
     <use xlink:href="#DejaVuSans-Bold-29" transform="translate(907.104492 0.765625)"/>
    </g>
   </g>
   <g id="text_10">
    <!-- N$_2$ + O($^1$D) -->
    <g transform="translate(271.801044 293.875274) scale(0.085 -0.085)">
     <defs>
      <path id="DejaVuSans-Bold-44" d="M 1791 3756 
L 1791 909 
L 2222 909 
Q 2959 909 3348 1275 
Q 3738 1641 3738 2338 
Q 3738 3031 3350 3393 
Q 2963 3756 2222 3756 
L 1791 3756 
z
M 588 4666 
L 1856 4666 
Q 2919 4666 3439 4514 
Q 3959 4363 4331 4000 
Q 4659 3684 4818 3271 
Q 4978 2859 4978 2338 
Q 4978 1809 4818 1395 
Q 4659 981 4331 666 
Q 3956 303 3431 151 
Q 2906 0 1856 0 
L 588 0 
L 588 4666 
z
" transform="scale(0.015625)"/>
     </defs>
     <use xlink:href="#DejaVuSans-Bold-4e" transform="translate(0 0.684375)"/>
     <use xlink:href="#DejaVuSans-32" transform="translate(84.648438 -15.721875) scale(0.7)"/>
     <use xlink:href="#DejaVuSans-Bold-20" transform="translate(131.918945 0.684375)"/>
     <use xlink:href="#DejaVuSans-Bold-2b" transform="translate(166.733398 0.684375)"/>
     <use xlink:href="#DejaVuSans-Bold-20" transform="translate(250.522461 0.684375)"/>
     <use xlink:href="#DejaVuSans-Bold-4f" transform="translate(285.336914 0.684375)"/>
     <use xlink:href="#DejaVuSans-Bold-28" transform="translate(370.34668 0.684375)"/>
     <use xlink:href="#DejaVuSans-31" transform="translate(417.006836 38.965625) scale(0.7)"/>
     <use xlink:href="#DejaVuSans-Bold-44" transform="translate(464.277344 0.684375)"/>
     <use xlink:href="#DejaVuSans-Bold-29" transform="translate(547.285156 0.684375)"/>
    </g>
   </g>
   <g id="text_11">
    <!-- NO(X$^2\Pi$) + N($^4$S) -->
    <g transform="translate(416.306144 254.918058) scale(0.085 -0.085)">
     <defs>
      <path id="DejaVuSans-3a0" d="M 4184 4666 
L 4184 0 
L 3553 0 
L 3553 4134 
L 1259 4134 
L 1259 0 
L 628 0 
L 628 4666 
L 4184 4666 
z
" transform="scale(0.015625)"/>
      <path id="DejaVuSans-Bold-53" d="M 3834 4519 
L 3834 3531 
Q 3450 3703 3084 3790 
Q 2719 3878 2394 3878 
Q 1963 3878 1756 3759 
Q 1550 3641 1550 3391 
Q 1550 3203 1689 3098 
Q 1828 2994 2194 2919 
L 2706 2816 
Q 3484 2659 3812 2340 
Q 4141 2022 4141 1434 
Q 4141 663 3683 286 
Q 3225 -91 2284 -91 
Q 1841 -91 1394 -6 
Q 947 78 500 244 
L 500 1259 
Q 947 1022 1364 901 
Q 1781 781 2169 781 
Q 2563 781 2772 912 
Q 2981 1044 2981 1288 
Q 2981 1506 2839 1625 
Q 2697 1744 2272 1838 
L 1806 1941 
Q 1106 2091 782 2419 
Q 459 2747 459 3303 
Q 459 4000 909 4375 
Q 1359 4750 2203 4750 
Q 2588 4750 2994 4692 
Q 3400 4634 3834 4519 
z
" transform="scale(0.015625)"/>
     </defs>
     <use xlink:href="#DejaVuSans-Bold-4e" transform="translate(0 0.765625)"/>
     <use xlink:href="#DejaVuSans-Bold-4f" transform="translate(83.691406 0.765625)"/>
     <use xlink:href="#DejaVuSans-Bold-28" transform="translate(168.701172 0.765625)"/>
     <use xlink:href="#DejaVuSans-Bold-58" transform="translate(214.404297 0.765625)"/>
     <use xlink:href="#DejaVuSans-32" transform="translate(292.460938 39.046875) scale(0.7)"/>
     <use xlink:href="#DejaVuSans-3a0" transform="translate(339.731445 0.765625)"/>
     <use xlink:href="#DejaVuSans-Bold-29" transform="translate(414.926758 0.765625)"/>
     <use xlink:href="#DejaVuSans-Bold-20" transform="translate(460.629883 0.765625)"/>
     <use xlink:href="#DejaVuSans-Bold-2b" transform="translate(495.444336 0.765625)"/>
     <use xlink:href="#DejaVuSans-Bold-20" transform="translate(579.233398 0.765625)"/>
     <use xlink:href="#DejaVuSans-Bold-4e" transform="translate(614.047852 0.765625)"/>
     <use xlink:href="#DejaVuSans-Bold-28" transform="translate(697.739258 0.765625)"/>
     <use xlink:href="#DejaVuSans-34" transform="translate(744.399414 39.046875) scale(0.7)"/>
     <use xlink:href="#DejaVuSans-Bold-53" transform="translate(791.669922 0.765625)"/>
     <use xlink:href="#DejaVuSans-Bold-29" transform="translate(863.691406 0.765625)"/>
    </g>
   </g>
   <g id="text_12">
    <!-- NO(X$^2\Pi$) + N($^2$D) -->
    <g transform="translate(573.816244 182.978474) scale(0.085 -0.085)">
     <use xlink:href="#DejaVuSans-Bold-4e" transform="translate(0 0.765625)"/>
     <use xlink:href="#DejaVuSans-Bold-4f" transform="translate(83.691406 0.765625)"/>
     <use xlink:href="#DejaVuSans-Bold-28" transform="translate(168.701172 0.765625)"/>
     <use xlink:href="#DejaVuSans-Bold-58" transform="translate(214.404297 0.765625)"/>
     <use xlink:href="#DejaVuSans-32" transform="translate(292.460938 39.046875) scale(0.7)"/>
     <use xlink:href="#DejaVuSans-3a0" transform="translate(339.731445 0.765625)"/>
     <use xlink:href="#DejaVuSans-Bold-29" transform="translate(414.926758 0.765625)"/>
     <use xlink:href="#DejaVuSans-Bold-20" transform="translate(460.629883 0.765625)"/>
     <use xlink:href="#DejaVuSans-Bold-2b" transform="translate(495.444336 0.765625)"/>
     <use xlink:href="#DejaVuSans-Bold-20" transform="translate(579.233398 0.765625)"/>
     <use xlink:href="#DejaVuSans-Bold-4e" transform="translate(614.047852 0.765625)"/>
     <use xlink:href="#DejaVuSans-Bold-28" transform="translate(697.739258 0.765625)"/>
     <use xlink:href="#DejaVuSans-32" transform="translate(744.399414 39.046875) scale(0.7)"/>
     <use xlink:href="#DejaVuSans-Bold-44" transform="translate(791.669922 0.765625)"/>
     <use xlink:href="#DejaVuSans-Bold-29" transform="translate(874.677734 0.765625)"/>
    </g>
   </g>
   <g id="text_13">
    <!-- N + N + O -->
    <g transform="translate(385.136883 58.864586) scale(0.085 -0.085)">
     <use xlink:href="#DejaVuSans-Bold-4e"/>
     <use xlink:href="#DejaVuSans-Bold-20" x="83.691406"/>
     <use xlink:href="#DejaVuSans-Bold-2b" x="118.505859"/>
     <use xlink:href="#DejaVuSans-Bold-20" x="202.294922"/>
     <use xlink:href="#DejaVuSans-Bold-4e" x="237.109375"/>
     <use xlink:href="#DejaVuSans-Bold-20" x="320.800781"/>
     <use xlink:href="#DejaVuSans-Bold-2b" x="355.615234"/>
     <use xlink:href="#DejaVuSans-Bold-20" x="439.404297"/>
     <use xlink:href="#DejaVuSans-Bold-4f" x="474.21875"/>
    </g>
   </g>
   <g id="text_14">
    <!-- N$_2$O(X$^1\Sigma^+$, linear) -->
    <g style="fill: #1f77b4" transform="translate(166.769944 403.776266) scale(0.085 -0.085)">
     <defs>
      <path id="DejaVuSans-4e" d="M 628 4666 
L 1478 4666 
L 3547 763 
L 3547 4666 
L 4159 4666 
L 4159 0 
L 3309 0 
L 1241 3903 
L 1241 0 
L 628 0 
L 628 4666 
z
" transform="scale(0.015625)"/>
      <path id="DejaVuSans-4f" d="M 2522 4238 
Q 1834 4238 1429 3725 
Q 1025 3213 1025 2328 
Q 1025 1447 1429 934 
Q 1834 422 2522 422 
Q 3209 422 3611 934 
Q 4013 1447 4013 2328 
Q 4013 3213 3611 3725 
Q 3209 4238 2522 4238 
z
M 2522 4750 
Q 3503 4750 4090 4092 
Q 4678 3434 4678 2328 
Q 4678 1225 4090 567 
Q 3503 -91 2522 -91 
Q 1538 -91 948 565 
Q 359 1222 359 2328 
Q 359 3434 948 4092 
Q 1538 4750 2522 4750 
z
" transform="scale(0.015625)"/>
      <path id="DejaVuSans-58" d="M 403 4666 
L 1081 4666 
L 2241 2931 
L 3406 4666 
L 4084 4666 
L 2584 2425 
L 4184 0 
L 3506 0 
L 2194 1984 
L 872 0 
L 191 0 
L 1856 2491 
L 403 4666 
z
" transform="scale(0.015625)"/>
      <path id="DejaVuSans-2c" d="M 750 794 
L 1409 794 
L 1409 256 
L 897 -744 
L 494 -744 
L 750 256 
L 750 794 
z
" transform="scale(0.015625)"/>
     </defs>
     <use xlink:href="#DejaVuSans-4e" transform="translate(0 0.684375)"/>
     <use xlink:href="#DejaVuSans-32" transform="translate(75.761719 -15.721875) scale(0.7)"/>
     <use xlink:href="#DejaVuSans-4f" transform="translate(123.032227 0.684375)"/>
     <use xlink:href="#DejaVuSans-28" transform="translate(201.743164 0.684375)"/>
     <use xlink:href="#DejaVuSans-58" transform="translate(240.756836 0.684375)"/>
     <use xlink:href="#DejaVuSans-31" transform="translate(310.219727 38.965625) scale(0.7)"/>
     <use xlink:href="#DejaVuSans-3a3" transform="translate(357.490234 0.684375)"/>
     <use xlink:href="#DejaVuSans-2b" transform="translate(435.268555 38.965625) scale(0.7)"/>
     <use xlink:href="#DejaVuSans-2c" transform="translate(510.292969 0.684375)"/>
     <use xlink:href="#DejaVuSans-20" transform="translate(542.080078 0.684375)"/>
     <use xlink:href="#DejaVuSans-6c" transform="translate(573.867188 0.684375)"/>
     <use xlink:href="#DejaVuSans-69" transform="translate(601.650391 0.684375)"/>
     <use xlink:href="#DejaVuSans-6e" transform="translate(629.433594 0.684375)"/>
     <use xlink:href="#DejaVuSans-65" transform="translate(692.8125 0.684375)"/>
     <use xlink:href="#DejaVuSans-61" transform="translate(754.335938 0.684375)"/>
     <use xlink:href="#DejaVuSans-72" transform="translate(815.615234 0.684375)"/>
     <use xlink:href="#DejaVuSans-29" transform="translate(856.728516 0.684375)"/>
    </g>
   </g>
   <g id="text_15">
    <!-- N$_2$O($^3\!A^{\prime\prime}$, bent) -->
    <g style="fill: #2ca02c" transform="translate(345.392344 295.746186) scale(0.085 -0.085)">
     <defs>
      <path id="DejaVuSans-Oblique-41" d="M 2356 4666 
L 3072 4666 
L 3938 0 
L 3278 0 
L 3084 1197 
L 984 1197 
L 325 0 
L -341 0 
L 2356 4666 
z
M 2584 4044 
L 1275 1722 
L 2988 1722 
L 2584 4044 
z
" transform="scale(0.015625)"/>
      <path id="Cmsy10-30" d="M 225 347 
Q 184 359 184 409 
L 966 3316 
Q 1003 3434 1093 3506 
Q 1184 3578 1300 3578 
Q 1450 3578 1564 3479 
Q 1678 3381 1678 3231 
Q 1678 3166 1644 3084 
L 488 319 
Q 466 275 428 275 
Q 394 275 320 306 
Q 247 338 225 347 
z
" transform="scale(0.015625)"/>
      <path id="DejaVuSans-62" d="M 3116 1747 
Q 3116 2381 2855 2742 
Q 2594 3103 2138 3103 
Q 1681 3103 1420 2742 
Q 1159 2381 1159 1747 
Q 1159 1113 1420 752 
Q 1681 391 2138 391 
Q 2594 391 2855 752 
Q 3116 1113 3116 1747 
z
M 1159 2969 
Q 1341 3281 1617 3432 
Q 1894 3584 2278 3584 
Q 2916 3584 3314 3078 
Q 3713 2572 3713 1747 
Q 3713 922 3314 415 
Q 2916 -91 2278 -91 
Q 1894 -91 1617 61 
Q 1341 213 1159 525 
L 1159 0 
L 581 0 
L 581 4863 
L 1159 4863 
L 1159 2969 
z
" transform="scale(0.015625)"/>
     </defs>
     <use xlink:href="#DejaVuSans-4e" transform="translate(0 0.765625)"/>
     <use xlink:href="#DejaVuSans-32" transform="translate(75.761719 -15.640625) scale(0.7)"/>
     <use xlink:href="#DejaVuSans-4f" transform="translate(123.032227 0.765625)"/>
     <use xlink:href="#DejaVuSans-28" transform="translate(201.743164 0.765625)"/>
     <use xlink:href="#DejaVuSans-33" transform="translate(241.713867 39.046875) scale(0.7)"/>
     <use xlink:href="#DejaVuSans-Oblique-41" transform="translate(272.748699 0.765625)"/>
     <use xlink:href="#Cmsy10-30" transform="translate(348.173673 39.046875) scale(0.7)"/>
     <use xlink:href="#Cmsy10-30" transform="translate(367.416837 39.046875) scale(0.7)"/>
     <use xlink:href="#DejaVuSans-2c" transform="translate(389.394376 0.765625)"/>
     <use xlink:href="#DejaVuSans-20" transform="translate(421.181485 0.765625)"/>
     <use xlink:href="#DejaVuSans-62" transform="translate(452.968595 0.765625)"/>
     <use xlink:href="#DejaVuSans-65" transform="translate(516.445157 0.765625)"/>
     <use xlink:href="#DejaVuSans-6e" transform="translate(577.968595 0.765625)"/>
     <use xlink:href="#DejaVuSans-74" transform="translate(641.347501 0.765625)"/>
     <use xlink:href="#DejaVuSans-29" transform="translate(680.556485 0.765625)"/>
    </g>
   </g>
   <g id="text_16">
    <!-- N$_2$+O($^1$D) saddle ($^1A^\prime$) -->
    <g style="fill: #d62728" transform="translate(127.697944 326.02617) scale(0.08 -0.08)">
     <defs>
      <path id="DejaVuSans-Oblique-4e" d="M 1081 4666 
L 1931 4666 
L 3219 666 
L 4000 4666 
L 4616 4666 
L 3706 0 
L 2853 0 
L 1569 4025 
L 788 0 
L 172 0 
L 1081 4666 
z
" transform="scale(0.015625)"/>
      <path id="DejaVuSans-Oblique-2b" d="M 2944 4013 
L 2944 2272 
L 4684 2272 
L 4684 1741 
L 2944 1741 
L 2944 0 
L 2419 0 
L 2419 1741 
L 678 1741 
L 678 2272 
L 2419 2272 
L 2419 4013 
L 2944 4013 
z
" transform="scale(0.015625)"/>
      <path id="DejaVuSans-Oblique-4f" d="M 2919 4238 
Q 2400 4238 2003 3986 
Q 1606 3734 1313 3219 
Q 1125 2891 1026 2522 
Q 928 2153 928 1778 
Q 928 1128 1239 775 
Q 1550 422 2119 422 
Q 2631 422 3032 676 
Q 3434 931 3719 1434 
Q 3909 1772 4009 2142 
Q 4109 2513 4109 2881 
Q 4109 3528 3796 3883 
Q 3484 4238 2919 4238 
z
M 2100 -91 
Q 1241 -91 748 418 
Q 256 928 256 1813 
Q 256 2319 448 2847 
Q 641 3375 978 3788 
Q 1375 4272 1862 4511 
Q 2350 4750 2938 4750 
Q 3794 4750 4287 4245 
Q 4781 3741 4781 2869 
Q 4781 2331 4593 1812 
Q 4406 1294 4056 872 
Q 3656 384 3173 146 
Q 2691 -91 2100 -91 
z
" transform="scale(0.015625)"/>
      <path id="DejaVuSans-Oblique-28" d="M 2731 4856 
Q 1903 3822 1495 2892 
Q 1088 1963 1088 1100 
Q 1088 606 1206 120 
Q 1325 -366 1563 -844 
L 1063 -844 
Q 775 -306 634 201 
Q 494 709 494 1197 
Q 494 2125 923 3036 
Q 1353 3947 2222 4856 
L 2731 4856 
z
" transform="scale(0.015625)"/>
      <path id="DejaVuSans-Oblique-44" d="M 1081 4666 
L 2438 4666 
Q 3519 4666 4070 4208 
Q 4622 3750 4622 2847 
Q 4622 2250 4412 1698 
Q 4203 1147 3834 769 
Q 3463 381 2891 190 
Q 2319 0 1538 0 
L 172 0 
L 1081 4666 
z
M 1613 4147 
L 909 519 
L 1734 519 
Q 2794 519 3375 1128 
Q 3956 1738 3956 2847 
Q 3956 3519 3581 3833 
Q 3206 4147 2406 4147 
L 1613 4147 
z
" transform="scale(0.015625)"/>
      <path id="DejaVuSans-Oblique-29" d="M -397 -844 
Q 434 191 840 1120 
Q 1247 2050 1247 2913 
Q 1247 3406 1130 3892 
Q 1013 4378 775 4856 
L 1275 4856 
Q 1563 4316 1703 3812 
Q 1844 3309 1844 2822 
Q 1844 1891 1411 973 
Q 978 56 116 -844 
L -397 -844 
z
" transform="scale(0.015625)"/>
      <path id="DejaVuSans-Oblique-20" transform="scale(0.015625)"/>
      <path id="DejaVuSans-Oblique-73" d="M 3200 3397 
L 3091 2853 
Q 2863 2978 2609 3040 
Q 2356 3103 2088 3103 
Q 1634 3103 1373 2948 
Q 1113 2794 1113 2528 
Q 1113 2219 1719 2053 
Q 1766 2041 1788 2034 
L 1972 1978 
Q 2547 1819 2739 1644 
Q 2931 1469 2931 1166 
Q 2931 609 2489 259 
Q 2047 -91 1331 -91 
Q 1053 -91 747 -37 
Q 441 16 72 128 
L 184 722 
Q 500 559 806 475 
Q 1113 391 1394 391 
Q 1816 391 2080 572 
Q 2344 753 2344 1031 
Q 2344 1331 1650 1516 
L 1591 1531 
L 1394 1581 
Q 956 1697 753 1886 
Q 550 2075 550 2369 
Q 550 2928 970 3256 
Q 1391 3584 2113 3584 
Q 2397 3584 2667 3537 
Q 2938 3491 3200 3397 
z
" transform="scale(0.015625)"/>
      <path id="DejaVuSans-Oblique-61" d="M 3438 1997 
L 3047 0 
L 2472 0 
L 2578 531 
Q 2325 219 2001 64 
Q 1678 -91 1281 -91 
Q 834 -91 548 182 
Q 263 456 263 884 
Q 263 1497 752 1853 
Q 1241 2209 2100 2209 
L 2900 2209 
L 2931 2363 
Q 2938 2388 2941 2417 
Q 2944 2447 2944 2509 
Q 2944 2788 2717 2942 
Q 2491 3097 2081 3097 
Q 1800 3097 1504 3025 
Q 1209 2953 897 2809 
L 997 3341 
Q 1322 3463 1633 3523 
Q 1944 3584 2234 3584 
Q 2853 3584 3176 3315 
Q 3500 3047 3500 2534 
Q 3500 2431 3484 2292 
Q 3469 2153 3438 1997 
z
M 2816 1759 
L 2241 1759 
Q 1534 1759 1195 1570 
Q 856 1381 856 984 
Q 856 709 1029 553 
Q 1203 397 1509 397 
Q 1978 397 2328 733 
Q 2678 1069 2791 1631 
L 2816 1759 
z
" transform="scale(0.015625)"/>
      <path id="DejaVuSans-Oblique-64" d="M 2675 525 
Q 2444 222 2128 65 
Q 1813 -91 1428 -91 
Q 903 -91 598 267 
Q 294 625 294 1247 
Q 294 1766 478 2236 
Q 663 2706 1013 3078 
Q 1244 3325 1534 3454 
Q 1825 3584 2144 3584 
Q 2481 3584 2739 3421 
Q 2997 3259 3138 2956 
L 3513 4863 
L 4091 4863 
L 3144 0 
L 2566 0 
L 2675 525 
z
M 891 1350 
Q 891 897 1095 644 
Q 1300 391 1663 391 
Q 1931 391 2161 520 
Q 2391 650 2566 903 
Q 2750 1166 2856 1509 
Q 2963 1853 2963 2188 
Q 2963 2622 2758 2865 
Q 2553 3109 2194 3109 
Q 1922 3109 1687 2981 
Q 1453 2853 1288 2613 
Q 1106 2353 998 2009 
Q 891 1666 891 1350 
z
" transform="scale(0.015625)"/>
      <path id="DejaVuSans-Oblique-6c" d="M 1172 4863 
L 1747 4863 
L 800 0 
L 225 0 
L 1172 4863 
z
" transform="scale(0.015625)"/>
      <path id="DejaVuSans-Oblique-65" d="M 3078 2063 
Q 3088 2113 3092 2166 
Q 3097 2219 3097 2272 
Q 3097 2653 2873 2875 
Q 2650 3097 2266 3097 
Q 1838 3097 1509 2826 
Q 1181 2556 1013 2059 
L 3078 2063 
z
M 3578 1613 
L 903 1613 
Q 884 1494 878 1425 
Q 872 1356 872 1306 
Q 872 872 1139 634 
Q 1406 397 1894 397 
Q 2269 397 2603 481 
Q 2938 566 3225 728 
L 3116 159 
Q 2806 34 2476 -28 
Q 2147 -91 1806 -91 
Q 1078 -91 686 257 
Q 294 606 294 1247 
Q 294 1794 489 2264 
Q 684 2734 1063 3103 
Q 1306 3334 1642 3459 
Q 1978 3584 2356 3584 
Q 2950 3584 3301 3228 
Q 3653 2872 3653 2272 
Q 3653 2128 3634 1964 
Q 3616 1800 3578 1613 
z
" transform="scale(0.015625)"/>
     </defs>
     <use xlink:href="#DejaVuSans-Oblique-4e" transform="translate(0 0.684375)"/>
     <use xlink:href="#DejaVuSans-32" transform="translate(75.761719 -15.721875) scale(0.7)"/>
     <use xlink:href="#DejaVuSans-Oblique-2b" transform="translate(123.032227 0.684375)"/>
     <use xlink:href="#DejaVuSans-Oblique-4f" transform="translate(206.821289 0.684375)"/>
     <use xlink:href="#DejaVuSans-Oblique-28" transform="translate(285.532227 0.684375)"/>
     <use xlink:href="#DejaVuSans-31" transform="translate(325.50293 38.965625) scale(0.7)"/>
     <use xlink:href="#DejaVuSans-Oblique-44" transform="translate(372.773438 0.684375)"/>
     <use xlink:href="#DejaVuSans-Oblique-29" transform="translate(449.775391 0.684375)"/>
     <use xlink:href="#DejaVuSans-Oblique-20" transform="translate(488.789062 0.684375)"/>
     <use xlink:href="#DejaVuSans-Oblique-73" transform="translate(520.576172 0.684375)"/>
     <use xlink:href="#DejaVuSans-Oblique-61" transform="translate(572.675781 0.684375)"/>
     <use xlink:href="#DejaVuSans-Oblique-64" transform="translate(633.955078 0.684375)"/>
     <use xlink:href="#DejaVuSans-Oblique-64" transform="translate(697.431641 0.684375)"/>
     <use xlink:href="#DejaVuSans-Oblique-6c" transform="translate(760.908203 0.684375)"/>
     <use xlink:href="#DejaVuSans-Oblique-65" transform="translate(788.691406 0.684375)"/>
     <use xlink:href="#DejaVuSans-Oblique-20" transform="translate(850.214844 0.684375)"/>
     <use xlink:href="#DejaVuSans-Oblique-28" transform="translate(882.001953 0.684375)"/>
     <use xlink:href="#DejaVuSans-31" transform="translate(921.972656 38.965625) scale(0.7)"/>
     <use xlink:href="#DejaVuSans-Oblique-41" transform="translate(969.243164 0.684375)"/>
     <use xlink:href="#Cmsy10-30" transform="translate(1044.668138 38.965625) scale(0.7)"/>
     <use xlink:href="#DejaVuSans-Oblique-29" transform="translate(1066.645677 0.684375)"/>
    </g>
   </g>
   <g id="text_17">
    <!-- N$_2$+O($^3$P) saddle ($^3A^{\prime\prime}$) -->
    <g style="fill: #d62728" transform="translate(331.632344 330.55257) scale(0.08 -0.08)">
     <defs>
      <path id="DejaVuSans-Oblique-50" d="M 1081 4666 
L 2541 4666 
Q 3178 4666 3512 4369 
Q 3847 4072 3847 3500 
Q 3847 2731 3353 2303 
Q 2859 1875 1966 1875 
L 1172 1875 
L 806 0 
L 172 0 
L 1081 4666 
z
M 1613 4147 
L 1275 2394 
L 2069 2394 
Q 2606 2394 2893 2669 
Q 3181 2944 3181 3456 
Q 3181 3784 2986 3965 
Q 2791 4147 2438 4147 
L 1613 4147 
z
" transform="scale(0.015625)"/>
     </defs>
     <use xlink:href="#DejaVuSans-Oblique-4e" transform="translate(0 0.765625)"/>
     <use xlink:href="#DejaVuSans-32" transform="translate(75.761719 -15.640625) scale(0.7)"/>
     <use xlink:href="#DejaVuSans-Oblique-2b" transform="translate(123.032227 0.765625)"/>
     <use xlink:href="#DejaVuSans-Oblique-4f" transform="translate(206.821289 0.765625)"/>
     <use xlink:href="#DejaVuSans-Oblique-28" transform="translate(285.532227 0.765625)"/>
     <use xlink:href="#DejaVuSans-33" transform="translate(325.50293 39.046875) scale(0.7)"/>
     <use xlink:href="#DejaVuSans-Oblique-50" transform="translate(372.773438 0.765625)"/>
     <use xlink:href="#DejaVuSans-Oblique-29" transform="translate(433.076172 0.765625)"/>
     <use xlink:href="#DejaVuSans-Oblique-20" transform="translate(472.089844 0.765625)"/>
     <use xlink:href="#DejaVuSans-Oblique-73" transform="translate(503.876953 0.765625)"/>
     <use xlink:href="#DejaVuSans-Oblique-61" transform="translate(555.976562 0.765625)"/>
     <use xlink:href="#DejaVuSans-Oblique-64" transform="translate(617.255859 0.765625)"/>
     <use xlink:href="#DejaVuSans-Oblique-64" transform="translate(680.732422 0.765625)"/>
     <use xlink:href="#DejaVuSans-Oblique-6c" transform="translate(744.208984 0.765625)"/>
     <use xlink:href="#DejaVuSans-Oblique-65" transform="translate(771.992188 0.765625)"/>
     <use xlink:href="#DejaVuSans-Oblique-20" transform="translate(833.515625 0.765625)"/>
     <use xlink:href="#DejaVuSans-Oblique-28" transform="translate(865.302734 0.765625)"/>
     <use xlink:href="#DejaVuSans-33" transform="translate(905.273438 39.046875) scale(0.7)"/>
     <use xlink:href="#DejaVuSans-Oblique-41" transform="translate(952.543945 0.765625)"/>
     <use xlink:href="#Cmsy10-30" transform="translate(1027.968919 39.046875) scale(0.7)"/>
     <use xlink:href="#Cmsy10-30" transform="translate(1047.212083 39.046875) scale(0.7)"/>
     <use xlink:href="#DejaVuSans-Oblique-29" transform="translate(1069.189622 0.765625)"/>
    </g>
   </g>
   <g id="text_18">
    <g id="patch_4">
     <path d="M 197.327444 389.554003 
L 212.372444 389.554003 
L 212.372444 379.287597 
L 197.327444 379.287597 
z
" style="fill: #ffffff"/>
    </g>
    <!-- $\mathbf{^1A^\prime}$ -->
    <g style="fill: #1f77b4" transform="translate(198.347444 386.766269) scale(0.085 -0.085)">
     <defs>
      <path id="DejaVuSans-Bold-31" d="M 750 831 
L 1813 831 
L 1813 3847 
L 722 3622 
L 722 4441 
L 1806 4666 
L 2950 4666 
L 2950 831 
L 4013 831 
L 4013 0 
L 750 0 
L 750 831 
z
" transform="scale(0.015625)"/>
      <path id="DejaVuSans-Bold-41" d="M 3419 850 
L 1538 850 
L 1241 0 
L 31 0 
L 1759 4666 
L 3194 4666 
L 4922 0 
L 3713 0 
L 3419 850 
z
M 1838 1716 
L 3116 1716 
L 2478 3572 
L 1838 1716 
z
" transform="scale(0.015625)"/>
     </defs>
     <use xlink:href="#DejaVuSans-Bold-31" transform="translate(0.957031 38.965625) scale(0.7)"/>
     <use xlink:href="#DejaVuSans-Bold-41" transform="translate(52.397461 0.684375)"/>
     <use xlink:href="#Cmsy10-30" transform="translate(130.74707 38.965625) scale(0.7)"/>
    </g>
   </g>
   <g id="text_19">
    <g id="patch_5">
     <path d="M 367.662344 329.202003 
L 384.322344 329.202003 
L 384.322344 318.935597 
L 367.662344 318.935597 
z
" style="fill: #ffffff"/>
    </g>
    <!-- $\mathbf{^3A^{\prime\prime}}$ -->
    <g style="fill: #2ca02c" transform="translate(368.682344 326.414269) scale(0.085 -0.085)">
     <defs>
      <path id="DejaVuSans-Bold-33" d="M 2981 2516 
Q 3453 2394 3698 2092 
Q 3944 1791 3944 1325 
Q 3944 631 3412 270 
Q 2881 -91 1863 -91 
Q 1503 -91 1142 -33 
Q 781 25 428 141 
L 428 1069 
Q 766 900 1098 814 
Q 1431 728 1753 728 
Q 2231 728 2486 893 
Q 2741 1059 2741 1369 
Q 2741 1688 2480 1852 
Q 2219 2016 1709 2016 
L 1228 2016 
L 1228 2791 
L 1734 2791 
Q 2188 2791 2409 2933 
Q 2631 3075 2631 3366 
Q 2631 3634 2415 3781 
Q 2200 3928 1806 3928 
Q 1516 3928 1219 3862 
Q 922 3797 628 3669 
L 628 4550 
Q 984 4650 1334 4700 
Q 1684 4750 2022 4750 
Q 2931 4750 3382 4451 
Q 3834 4153 3834 3553 
Q 3834 3144 3618 2883 
Q 3403 2622 2981 2516 
z
" transform="scale(0.015625)"/>
     </defs>
     <use xlink:href="#DejaVuSans-Bold-33" transform="translate(0.957031 39.046875) scale(0.7)"/>
     <use xlink:href="#DejaVuSans-Bold-41" transform="translate(52.397461 0.765625)"/>
     <use xlink:href="#Cmsy10-30" transform="translate(130.74707 39.046875) scale(0.7)"/>
     <use xlink:href="#Cmsy10-30" transform="translate(149.990234 39.046875) scale(0.7)"/>
    </g>
   </g>
   <g id="text_20">
    <!-- N$_2$O correlation diagram (UMN / Basel surfaces) -->
    <g transform="translate(256.592344 14.8) scale(0.1 -0.1)">
     <defs>
      <path id="DejaVuSans-63" d="M 3122 3366 
L 3122 2828 
Q 2878 2963 2633 3030 
Q 2388 3097 2138 3097 
Q 1578 3097 1268 2742 
Q 959 2388 959 1747 
Q 959 1106 1268 751 
Q 1578 397 2138 397 
Q 2388 397 2633 464 
Q 2878 531 3122 666 
L 3122 134 
Q 2881 22 2623 -34 
Q 2366 -91 2075 -91 
Q 1284 -91 818 406 
Q 353 903 353 1747 
Q 353 2603 823 3093 
Q 1294 3584 2113 3584 
Q 2378 3584 2631 3529 
Q 2884 3475 3122 3366 
z
" transform="scale(0.015625)"/>
      <path id="DejaVuSans-55" d="M 556 4666 
L 1191 4666 
L 1191 1831 
Q 1191 1081 1462 751 
Q 1734 422 2344 422 
Q 2950 422 3222 751 
Q 3494 1081 3494 1831 
L 3494 4666 
L 4128 4666 
L 4128 1753 
Q 4128 841 3676 375 
Q 3225 -91 2344 -91 
Q 1459 -91 1007 375 
Q 556 841 556 1753 
L 556 4666 
z
" transform="scale(0.015625)"/>
      <path id="DejaVuSans-4d" d="M 628 4666 
L 1569 4666 
L 2759 1491 
L 3956 4666 
L 4897 4666 
L 4897 0 
L 4281 0 
L 4281 4097 
L 3078 897 
L 2444 897 
L 1241 4097 
L 1241 0 
L 628 0 
L 628 4666 
z
" transform="scale(0.015625)"/>
      <path id="DejaVuSans-2f" d="M 1625 4666 
L 2156 4666 
L 531 -594 
L 0 -594 
L 1625 4666 
z
" transform="scale(0.015625)"/>
      <path id="DejaVuSans-42" d="M 1259 2228 
L 1259 519 
L 2272 519 
Q 2781 519 3026 730 
Q 3272 941 3272 1375 
Q 3272 1813 3026 2020 
Q 2781 2228 2272 2228 
L 1259 2228 
z
M 1259 4147 
L 1259 2741 
L 2194 2741 
Q 2656 2741 2882 2914 
Q 3109 3088 3109 3444 
Q 3109 3797 2882 3972 
Q 2656 4147 2194 4147 
L 1259 4147 
z
M 628 4666 
L 2241 4666 
Q 2963 4666 3353 4366 
Q 3744 4066 3744 3513 
Q 3744 3084 3544 2831 
Q 3344 2578 2956 2516 
Q 3422 2416 3680 2098 
Q 3938 1781 3938 1306 
Q 3938 681 3513 340 
Q 3088 0 2303 0 
L 628 0 
L 628 4666 
z
" transform="scale(0.015625)"/>
      <path id="DejaVuSans-66" d="M 2375 4863 
L 2375 4384 
L 1825 4384 
Q 1516 4384 1395 4259 
Q 1275 4134 1275 3809 
L 1275 3500 
L 2222 3500 
L 2222 3053 
L 1275 3053 
L 1275 0 
L 697 0 
L 697 3053 
L 147 3053 
L 147 3500 
L 697 3500 
L 697 3744 
Q 697 4328 969 4595 
Q 1241 4863 1831 4863 
L 2375 4863 
z
" transform="scale(0.015625)"/>
     </defs>
     <use xlink:href="#DejaVuSans-4e" transform="translate(0 0.015625)"/>
     <use xlink:href="#DejaVuSans-32" transform="translate(75.761719 -16.390625) scale(0.7)"/>
     <use xlink:href="#DejaVuSans-4f" transform="translate(123.032227 0.015625)"/>
     <use xlink:href="#DejaVuSans-20" transform="translate(201.743164 0.015625)"/>
     <use xlink:href="#DejaVuSans-63" transform="translate(233.530273 0.015625)"/>
     <use xlink:href="#DejaVuSans-6f" transform="translate(288.510742 0.015625)"/>
     <use xlink:href="#DejaVuSans-72" transform="translate(349.692383 0.015625)"/>
     <use xlink:href="#DejaVuSans-72" transform="translate(390.805664 0.015625)"/>
     <use xlink:href="#DejaVuSans-65" transform="translate(431.918945 0.015625)"/>
     <use xlink:href="#DejaVuSans-6c" transform="translate(493.442383 0.015625)"/>
     <use xlink:href="#DejaVuSans-61" transform="translate(521.225586 0.015625)"/>
     <use xlink:href="#DejaVuSans-74" transform="translate(582.504883 0.015625)"/>
     <use xlink:href="#DejaVuSans-69" transform="translate(621.713867 0.015625)"/>
     <use xlink:href="#DejaVuSans-6f" transform="translate(649.49707 0.015625)"/>
     <use xlink:href="#DejaVuSans-6e" transform="translate(710.678711 0.015625)"/>
     <use xlink:href="#DejaVuSans-20" transform="translate(774.057617 0.015625)"/>
     <use xlink:href="#DejaVuSans-64" transform="translate(805.844727 0.015625)"/>
     <use xlink:href="#DejaVuSans-69" transform="translate(869.321289 0.015625)"/>
     <use xlink:href="#DejaVuSans-61" transform="translate(897.104492 0.015625)"/>
     <use xlink:href="#DejaVuSans-67" transform="translate(958.383789 0.015625)"/>
     <use xlink:href="#DejaVuSans-72" transform="translate(1021.860352 0.015625)"/>
     <use xlink:href="#DejaVuSans-61" transform="translate(1062.973633 0.015625)"/>
     <use xlink:href="#DejaVuSans-6d" transform="translate(1124.25293 0.015625)"/>
     <use xlink:href="#DejaVuSans-20" transform="translate(1221.665039 0.015625)"/>
     <use xlink:href="#DejaVuSans-28" transform="translate(1253.452148 0.015625)"/>
     <use xlink:href="#DejaVuSans-55" transform="translate(1292.46582 0.015625)"/>
     <use xlink:href="#DejaVuSans-4d" transform="translate(1365.65918 0.015625)"/>
     <use xlink:href="#DejaVuSans-4e" transform="translate(1451.938477 0.015625)"/>
     <use xlink:href="#DejaVuSans-20" transform="translate(1526.743164 0.015625)"/>
     <use xlink:href="#DejaVuSans-2f" transform="translate(1558.530273 0.015625)"/>
     <use xlink:href="#DejaVuSans-20" transform="translate(1592.22168 0.015625)"/>
     <use xlink:href="#DejaVuSans-42" transform="translate(1624.008789 0.015625)"/>
     <use xlink:href="#DejaVuSans-61" transform="translate(1692.612305 0.015625)"/>
     <use xlink:href="#DejaVuSans-73" transform="translate(1753.891602 0.015625)"/>
     <use xlink:href="#DejaVuSans-65" transform="translate(1805.991211 0.015625)"/>
     <use xlink:href="#DejaVuSans-6c" transform="translate(1867.514648 0.015625)"/>
     <use xlink:href="#DejaVuSans-20" transform="translate(1895.297852 0.015625)"/>
     <use xlink:href="#DejaVuSans-73" transform="translate(1927.084961 0.015625)"/>
     <use xlink:href="#DejaVuSans-75" transform="translate(1979.18457 0.015625)"/>
     <use xlink:href="#DejaVuSans-72" transform="translate(2042.563477 0.015625)"/>
     <use xlink:href="#DejaVuSans-66" transform="translate(2083.676758 0.015625)"/>
     <use xlink:href="#DejaVuSans-61" transform="translate(2118.881836 0.015625)"/>
     <use xlink:href="#DejaVuSans-63" transform="translate(2180.161133 0.015625)"/>
     <use xlink:href="#DejaVuSans-65" transform="translate(2235.141602 0.015625)"/>
     <use xlink:href="#DejaVuSans-73" transform="translate(2296.665039 0.015625)"/>
     <use xlink:href="#DejaVuSans-29" transform="translate(2348.764648 0.015625)"/>
    </g>
   </g>
   <g id="legend_1">
    <g id="patch_6">
     <path d="M 501.752344 65.2625 
L 699.512344 65.2625 
Q 701.112344 65.2625 701.112344 63.6625 
L 701.112344 26.4 
Q 701.112344 24.8 699.512344 24.8 
L 501.752344 24.8 
Q 500.152344 24.8 500.152344 26.4 
L 500.152344 63.6625 
Q 500.152344 65.2625 501.752344 65.2625 
z
" style="fill: #ffffff; opacity: 0.8; stroke: #cccccc; stroke-linejoin: miter"/>
    </g>
    <g id="line2d_18">
     <path d="M 503.352344 32.4 
L 511.352344 32.4 
L 519.352344 32.4 
" style="fill: none; stroke-dasharray: 4.2,2.8; stroke-dashoffset: 0; stroke: #1f77b4; stroke-width: 1.4"/>
    </g>
    <g id="text_21">
     <!-- $^1\!A^\prime$  (UMN_1Ap / Basel_1Ap, singlet ground) -->
     <g transform="translate(525.752344 35.2) scale(0.08 -0.08)">
      <defs>
       <path id="DejaVuSans-5f" d="M 3263 -1063 
L 3263 -1509 
L -63 -1509 
L -63 -1063 
L 3263 -1063 
z
" transform="scale(0.015625)"/>
       <path id="DejaVuSans-41" d="M 2188 4044 
L 1331 1722 
L 3047 1722 
L 2188 4044 
z
M 1831 4666 
L 2547 4666 
L 4325 0 
L 3669 0 
L 3244 1197 
L 1141 1197 
L 716 0 
L 50 0 
L 1831 4666 
z
" transform="scale(0.015625)"/>
       <path id="DejaVuSans-70" d="M 1159 525 
L 1159 -1331 
L 581 -1331 
L 581 3500 
L 1159 3500 
L 1159 2969 
Q 1341 3281 1617 3432 
Q 1894 3584 2278 3584 
Q 2916 3584 3314 3078 
Q 3713 2572 3713 1747 
Q 3713 922 3314 415 
Q 2916 -91 2278 -91 
Q 1894 -91 1617 61 
Q 1341 213 1159 525 
z
M 3116 1747 
Q 3116 2381 2855 2742 
Q 2594 3103 2138 3103 
Q 1681 3103 1420 2742 
Q 1159 2381 1159 1747 
Q 1159 1113 1420 752 
Q 1681 391 2138 391 
Q 2594 391 2855 752 
Q 3116 1113 3116 1747 
z
" transform="scale(0.015625)"/>
      </defs>
      <use xlink:href="#DejaVuSans-31" transform="translate(0.957031 38.965625) scale(0.7)"/>
      <use xlink:href="#DejaVuSans-Oblique-41" transform="translate(31.991863 0.684375)"/>
      <use xlink:href="#Cmsy10-30" transform="translate(107.416837 38.965625) scale(0.7)"/>
      <use xlink:href="#DejaVuSans-20" transform="translate(129.394376 0.684375)"/>
      <use xlink:href="#DejaVuSans-20" transform="translate(161.181485 0.684375)"/>
      <use xlink:href="#DejaVuSans-28" transform="translate(192.968595 0.684375)"/>
      <use xlink:href="#DejaVuSans-55" transform="translate(231.982266 0.684375)"/>
      <use xlink:href="#DejaVuSans-4d" transform="translate(305.175626 0.684375)"/>
      <use xlink:href="#DejaVuSans-4e" transform="translate(391.454923 0.684375)"/>
      <use xlink:href="#DejaVuSans-5f" transform="translate(466.25961 0.684375)"/>
      <use xlink:href="#DejaVuSans-31" transform="translate(516.25961 0.684375)"/>
      <use xlink:href="#DejaVuSans-41" transform="translate(579.882657 0.684375)"/>
      <use xlink:href="#DejaVuSans-70" transform="translate(648.29086 0.684375)"/>
      <use xlink:href="#DejaVuSans-20" transform="translate(711.767423 0.684375)"/>
      <use xlink:href="#DejaVuSans-2f" transform="translate(743.554532 0.684375)"/>
      <use xlink:href="#DejaVuSans-20" transform="translate(777.245938 0.684375)"/>
      <use xlink:href="#DejaVuSans-42" transform="translate(809.033048 0.684375)"/>
      <use xlink:href="#DejaVuSans-61" transform="translate(877.636563 0.684375)"/>
      <use xlink:href="#DejaVuSans-73" transform="translate(938.91586 0.684375)"/>
      <use xlink:href="#DejaVuSans-65" transform="translate(991.01547 0.684375)"/>
      <use xlink:href="#DejaVuSans-6c" transform="translate(1052.538907 0.684375)"/>
      <use xlink:href="#DejaVuSans-5f" transform="translate(1080.32211 0.684375)"/>
      <use xlink:href="#DejaVuSans-31" transform="translate(1130.32211 0.684375)"/>
      <use xlink:href="#DejaVuSans-41" transform="translate(1193.945157 0.684375)"/>
      <use xlink:href="#DejaVuSans-70" transform="translate(1262.35336 0.684375)"/>
      <use xlink:href="#DejaVuSans-2c" transform="translate(1325.829923 0.684375)"/>
      <use xlink:href="#DejaVuSans-20" transform="translate(1357.617032 0.684375)"/>
      <use xlink:href="#DejaVuSans-73" transform="translate(1389.404141 0.684375)"/>
      <use xlink:href="#DejaVuSans-69" transform="translate(1441.503751 0.684375)"/>
      <use xlink:href="#DejaVuSans-6e" transform="translate(1469.286954 0.684375)"/>
      <use xlink:href="#DejaVuSans-67" transform="translate(1532.66586 0.684375)"/>
      <use xlink:href="#DejaVuSans-6c" transform="translate(1596.142423 0.684375)"/>
      <use xlink:href="#DejaVuSans-65" transform="translate(1623.925626 0.684375)"/>
      <use xlink:href="#DejaVuSans-74" transform="translate(1685.449063 0.684375)"/>
      <use xlink:href="#DejaVuSans-20" transform="translate(1724.658048 0.684375)"/>
      <use xlink:href="#DejaVuSans-67" transform="translate(1756.445157 0.684375)"/>
      <use xlink:href="#DejaVuSans-72" transform="translate(1819.92172 0.684375)"/>
      <use xlink:href="#DejaVuSans-6f" transform="translate(1861.035001 0.684375)"/>
      <use xlink:href="#DejaVuSans-75" transform="translate(1922.216641 0.684375)"/>
      <use xlink:href="#DejaVuSans-6e" transform="translate(1985.595548 0.684375)"/>
      <use xlink:href="#DejaVuSans-64" transform="translate(2048.974454 0.684375)"/>
      <use xlink:href="#DejaVuSans-29" transform="translate(2112.451016 0.684375)"/>
     </g>
    </g>
    <g id="line2d_19">
     <path d="M 503.352344 45.6 
L 511.352344 45.6 
L 519.352344 45.6 
" style="fill: none; stroke-dasharray: 4.2,2.8; stroke-dashoffset: 0; stroke: #2ca02c; stroke-width: 1.4"/>
    </g>
    <g id="text_22">
     <!-- $^3\!A^{\prime\prime}$  (UMN_3App / Basel_13A2, triplet) -->
     <g transform="translate(525.752344 48.4) scale(0.08 -0.08)">
      <use xlink:href="#DejaVuSans-33" transform="translate(0.957031 39.046875) scale(0.7)"/>
      <use xlink:href="#DejaVuSans-Oblique-41" transform="translate(31.991863 0.765625)"/>
      <use xlink:href="#Cmsy10-30" transform="translate(107.416837 39.046875) scale(0.7)"/>
      <use xlink:href="#Cmsy10-30" transform="translate(126.660001 39.046875) scale(0.7)"/>
      <use xlink:href="#DejaVuSans-20" transform="translate(148.63754 0.765625)"/>
      <use xlink:href="#DejaVuSans-20" transform="translate(180.424649 0.765625)"/>
      <use xlink:href="#DejaVuSans-28" transform="translate(212.211759 0.765625)"/>
      <use xlink:href="#DejaVuSans-55" transform="translate(251.225431 0.765625)"/>
      <use xlink:href="#DejaVuSans-4d" transform="translate(324.41879 0.765625)"/>
      <use xlink:href="#DejaVuSans-4e" transform="translate(410.698087 0.765625)"/>
      <use xlink:href="#DejaVuSans-5f" transform="translate(485.502774 0.765625)"/>
      <use xlink:href="#DejaVuSans-33" transform="translate(535.502774 0.765625)"/>
      <use xlink:href="#DejaVuSans-41" transform="translate(599.125821 0.765625)"/>
      <use xlink:href="#DejaVuSans-70" transform="translate(667.534024 0.765625)"/>
      <use xlink:href="#DejaVuSans-70" transform="translate(731.010587 0.765625)"/>
      <use xlink:href="#DejaVuSans-20" transform="translate(794.487149 0.765625)"/>
      <use xlink:href="#DejaVuSans-2f" transform="translate(826.274259 0.765625)"/>
      <use xlink:href="#DejaVuSans-20" transform="translate(859.965665 0.765625)"/>
      <use xlink:href="#DejaVuSans-42" transform="translate(891.752774 0.765625)"/>
      <use xlink:href="#DejaVuSans-61" transform="translate(960.35629 0.765625)"/>
      <use xlink:href="#DejaVuSans-73" transform="translate(1021.635587 0.765625)"/>
      <use xlink:href="#DejaVuSans-65" transform="translate(1073.735196 0.765625)"/>
      <use xlink:href="#DejaVuSans-6c" transform="translate(1135.258634 0.765625)"/>
      <use xlink:href="#DejaVuSans-5f" transform="translate(1163.041837 0.765625)"/>
      <use xlink:href="#DejaVuSans-31" transform="translate(1213.041837 0.765625)"/>
      <use xlink:href="#DejaVuSans-33" transform="translate(1276.664884 0.765625)"/>
      <use xlink:href="#DejaVuSans-41" transform="translate(1340.287931 0.765625)"/>
      <use xlink:href="#DejaVuSans-32" transform="translate(1408.696134 0.765625)"/>
      <use xlink:href="#DejaVuSans-2c" transform="translate(1472.319181 0.765625)"/>
      <use xlink:href="#DejaVuSans-20" transform="translate(1504.10629 0.765625)"/>
      <use xlink:href="#DejaVuSans-74" transform="translate(1535.893399 0.765625)"/>
      <use xlink:href="#DejaVuSans-72" transform="translate(1575.102384 0.765625)"/>
      <use xlink:href="#DejaVuSans-69" transform="translate(1616.215665 0.765625)"/>
      <use xlink:href="#DejaVuSans-70" transform="translate(1643.998868 0.765625)"/>
      <use xlink:href="#DejaVuSans-6c" transform="translate(1707.475431 0.765625)"/>
      <use xlink:href="#DejaVuSans-65" transform="translate(1735.258634 0.765625)"/>
      <use xlink:href="#DejaVuSans-74" transform="translate(1796.782071 0.765625)"/>
      <use xlink:href="#DejaVuSans-29" transform="translate(1835.991056 0.765625)"/>
     </g>
    </g>
    <g id="line2d_20">
     <path d="M 503.352344 57.59875 
L 511.352344 57.59875 
L 519.352344 57.59875 
" style="fill: none; stroke: #808080; stroke-linecap: square"/>
    </g>
    <g id="text_23">
     <!-- Dissociation -->
     <g transform="translate(525.752344 60.39875) scale(0.08 -0.08)">
      <defs>
       <path id="DejaVuSans-44" d="M 1259 4147 
L 1259 519 
L 2022 519 
Q 2988 519 3436 956 
Q 3884 1394 3884 2338 
Q 3884 3275 3436 3711 
Q 2988 4147 2022 4147 
L 1259 4147 
z
M 628 4666 
L 1925 4666 
Q 3281 4666 3915 4102 
Q 4550 3538 4550 2338 
Q 4550 1131 3912 565 
Q 3275 0 1925 0 
L 628 0 
L 628 4666 
z
" transform="scale(0.015625)"/>
      </defs>
      <use xlink:href="#DejaVuSans-44"/>
      <use xlink:href="#DejaVuSans-69" x="77.001953"/>
      <use xlink:href="#DejaVuSans-73" x="104.785156"/>
      <use xlink:href="#DejaVuSans-73" x="156.884766"/>
      <use xlink:href="#DejaVuSans-6f" x="208.984375"/>
      <use xlink:href="#DejaVuSans-63" x="270.166016"/>
      <use xlink:href="#DejaVuSans-69" x="325.146484"/>
      <use xlink:href="#DejaVuSans-61" x="352.929688"/>
      <use xlink:href="#DejaVuSans-74" x="414.208984"/>
      <use xlink:href="#DejaVuSans-69" x="453.417969"/>
      <use xlink:href="#DejaVuSans-6f" x="481.201172"/>
      <use xlink:href="#DejaVuSans-6e" x="542.382812"/>
     </g>
    </g>
   </g>
  </g>
 </g>
 <defs>
  <clipPath id="p2b13578180">
   <rect x="46.872344" y="20.8" width="658.24" height="452.64"/>
  </clipPath>
 </defs>
</svg>
