<?xml version="1.0" encoding="utf-8" standalone="no"?>
<!DOCTYPE svg PUBLIC "-//W3C//DTD SVG 1.1//EN"
  "http://www.w3.org/Graphics/SVG/1.1/DTD/svg11.dtd">
<svg xmlns:xlink="http://www.w3.org/1999/xlink" width="568.312344pt" height="394.24pt" viewBox="0 0 568.312344 394.24" xmlns="http://www.w3.org/2000/svg" version="1.1">
 <metadata>
  <rdf:RDF xmlns:dc="http://purl.org/dc/elements/1.1/" xmlns:cc="http://creativecommons.org/ns#" xmlns:rdf="http://www.w3.org/1999/02/22-rdf-syntax-ns#">
   <cc:Work>
    <dc:type rdf:resource="http://purl.org/dc/dcmitype/StillImage"/>
    <dc:date>2026-04-26T11:12:36.757020</dc:date>
    <dc:format>image/svg+xml</dc:format>
    <dc:creator>
     <cc:Agent>
      <dc:title>Matplotlib v3.6.3, https://matplotlib.org/</dc:title>
     </cc:Agent>
    </dc:creator>
   </cc:Work>
  </rdf:RDF>
 </metadata>
 <defs>
  <style type="text/css">*{stroke-linejoin: round; stroke-linecap: butt}</style>
 </defs>
 <g id="figure_1">
  <g id="patch_1">
   <path d="M 0 394.24 
L 568.312344 394.24 
L 568.312344 0 
L 0 0 
z
" style="fill: #ffffff"/>
  </g>
  <g id="axes_1">
   <g id="patch_2">
    <path d="M 46.872344 387.04 
L 561.112344 387.04 
L 561.112344 20.8 
L 46.872344 20.8 
z
" style="fill: #ffffff"/>
   </g>
   <g id="matplotlib.axis_1"/>
   <g id="matplotlib.axis_2">
    <g id="ytick_1">
     <g id="line2d_1">
      <defs>
       <path id="m5fdb8ea495" d="M 0 0 
L -3.5 0 
" style="stroke: #000000; stroke-width: 0.8"/>
      </defs>
      <g>
       <use xlink:href="#m5fdb8ea495" x="46.872344" y="372.953846" style="stroke: #000000; stroke-width: 0.8"/>
      </g>
     </g>
     <g id="text_1">
      <!-- −10 -->
      <g transform="translate(20.878125 376.373143) scale(0.09 -0.09)">
       <defs>
        <path id="DejaVuSans-2212" d="M 678 2272 
L 4684 2272 
L 4684 1741 
L 678 1741 
L 678 2272 
z
" transform="scale(0.015625)"/>
        <path id="DejaVuSans-31" d="M 794 531 
L 1825 531 
L 1825 4091 
L 703 3866 
L 703 4441 
L 1819 4666 
L 2450 4666 
L 2450 531 
L 3481 531 
L 3481 0 
L 794 0 
L 794 531 
z
" transform="scale(0.015625)"/>
        <path id="DejaVuSans-30" d="M 2034 4250 
Q 1547 4250 1301 3770 
Q 1056 3291 1056 2328 
Q 1056 1369 1301 889 
Q 1547 409 2034 409 
Q 2525 409 2770 889 
Q 3016 1369 3016 2328 
Q 3016 3291 2770 3770 
Q 2525 4250 2034 4250 
z
M 2034 4750 
Q 2819 4750 3233 4129 
Q 3647 3509 3647 2328 
Q 3647 1150 3233 529 
Q 2819 -91 2034 -91 
Q 1250 -91 836 529 
Q 422 1150 422 2328 
Q 422 3509 836 4129 
Q 1250 4750 2034 4750 
z
" transform="scale(0.015625)"/>
       </defs>
       <use xlink:href="#DejaVuSans-2212"/>
       <use xlink:href="#DejaVuSans-31" x="83.789062"/>
       <use xlink:href="#DejaVuSans-30" x="147.412109"/>
      </g>
     </g>
    </g>
    <g id="ytick_2">
     <g id="line2d_2">
      <g>
       <use xlink:href="#m5fdb8ea495" x="46.872344" y="316.609231" style="stroke: #000000; stroke-width: 0.8"/>
      </g>
     </g>
     <g id="text_2">
      <!-- −8 -->
      <g transform="translate(26.604375 320.028528) scale(0.09 -0.09)">
       <defs>
        <path id="DejaVuSans-38" d="M 2034 2216 
Q 1584 2216 1326 1975 
Q 1069 1734 1069 1313 
Q 1069 891 1326 650 
Q 1584 409 2034 409 
Q 2484 409 2743 651 
Q 3003 894 3003 1313 
Q 3003 1734 2745 1975 
Q 2488 2216 2034 2216 
z
M 1403 2484 
Q 997 2584 770 2862 
Q 544 3141 544 3541 
Q 544 4100 942 4425 
Q 1341 4750 2034 4750 
Q 2731 4750 3128 4425 
Q 3525 4100 3525 3541 
Q 3525 3141 3298 2862 
Q 3072 2584 2669 2484 
Q 3125 2378 3379 2068 
Q 3634 1759 3634 1313 
Q 3634 634 3220 271 
Q 2806 -91 2034 -91 
Q 1263 -91 848 271 
Q 434 634 434 1313 
Q 434 1759 690 2068 
Q 947 2378 1403 2484 
z
M 1172 3481 
Q 1172 3119 1398 2916 
Q 1625 2713 2034 2713 
Q 2441 2713 2670 2916 
Q 2900 3119 2900 3481 
Q 2900 3844 2670 4047 
Q 2441 4250 2034 4250 
Q 1625 4250 1398 4047 
Q 1172 3844 1172 3481 
z
" transform="scale(0.015625)"/>
       </defs>
       <use xlink:href="#DejaVuSans-2212"/>
       <use xlink:href="#DejaVuSans-38" x="83.789062"/>
      </g>
     </g>
    </g>
    <g id="ytick_3">
     <g id="line2d_3">
      <g>
       <use xlink:href="#m5fdb8ea495" x="46.872344" y="260.264615" style="stroke: #000000; stroke-width: 0.8"/>
      </g>
     </g>
     <g id="text_3">
      <!-- −6 -->
      <g transform="translate(26.604375 263.683912) scale(0.09 -0.09)">
       <defs>
        <path id="DejaVuSans-36" d="M 2113 2584 
Q 1688 2584 1439 2293 
Q 1191 2003 1191 1497 
Q 1191 994 1439 701 
Q 1688 409 2113 409 
Q 2538 409 2786 701 
Q 3034 994 3034 1497 
Q 3034 2003 2786 2293 
Q 2538 2584 2113 2584 
z
M 3366 4563 
L 3366 3988 
Q 3128 4100 2886 4159 
Q 2644 4219 2406 4219 
Q 1781 4219 1451 3797 
Q 1122 3375 1075 2522 
Q 1259 2794 1537 2939 
Q 1816 3084 2150 3084 
Q 2853 3084 3261 2657 
Q 3669 2231 3669 1497 
Q 3669 778 3244 343 
Q 2819 -91 2113 -91 
Q 1303 -91 875 529 
Q 447 1150 447 2328 
Q 447 3434 972 4092 
Q 1497 4750 2381 4750 
Q 2619 4750 2861 4703 
Q 3103 4656 3366 4563 
z
" transform="scale(0.015625)"/>
       </defs>
       <use xlink:href="#DejaVuSans-2212"/>
       <use xlink:href="#DejaVuSans-36" x="83.789062"/>
      </g>
     </g>
    </g>
    <g id="ytick_4">
     <g id="line2d_4">
      <g>
       <use xlink:href="#m5fdb8ea495" x="46.872344" y="203.92" style="stroke: #000000; stroke-width: 0.8"/>
      </g>
     </g>
     <g id="text_4">
      <!-- −4 -->
      <g transform="translate(26.604375 207.339297) scale(0.09 -0.09)">
       <defs>
        <path id="DejaVuSans-34" d="M 2419 4116 
L 825 1625 
L 2419 1625 
L 2419 4116 
z
M 2253 4666 
L 3047 4666 
L 3047 1625 
L 3713 1625 
L 3713 1100 
L 3047 1100 
L 3047 0 
L 2419 0 
L 2419 1100 
L 313 1100 
L 313 1709 
L 2253 4666 
z
" transform="scale(0.015625)"/>
       </defs>
       <use xlink:href="#DejaVuSans-2212"/>
       <use xlink:href="#DejaVuSans-34" x="83.789062"/>
      </g>
     </g>
    </g>
    <g id="ytick_5">
     <g id="line2d_5">
      <g>
       <use xlink:href="#m5fdb8ea495" x="46.872344" y="147.575385" style="stroke: #000000; stroke-width: 0.8"/>
      </g>
     </g>
     <g id="text_5">
      <!-- −2 -->
      <g transform="translate(26.604375 150.994681) scale(0.09 -0.09)">
       <defs>
        <path id="DejaVuSans-32" d="M 1228 531 
L 3431 531 
L 3431 0 
L 469 0 
L 469 531 
Q 828 903 1448 1529 
Q 2069 2156 2228 2338 
Q 2531 2678 2651 2914 
Q 2772 3150 2772 3378 
Q 2772 3750 2511 3984 
Q 2250 4219 1831 4219 
Q 1534 4219 1204 4116 
Q 875 4013 500 3803 
L 500 4441 
Q 881 4594 1212 4672 
Q 1544 4750 1819 4750 
Q 2544 4750 2975 4387 
Q 3406 4025 3406 3419 
Q 3406 3131 3298 2873 
Q 3191 2616 2906 2266 
Q 2828 2175 2409 1742 
Q 1991 1309 1228 531 
z
" transform="scale(0.015625)"/>
       </defs>
       <use xlink:href="#DejaVuSans-2212"/>
       <use xlink:href="#DejaVuSans-32" x="83.789062"/>
      </g>
     </g>
    </g>
    <g id="ytick_6">
     <g id="line2d_6">
      <g>
       <use xlink:href="#m5fdb8ea495" x="46.872344" y="91.230769" style="stroke: #000000; stroke-width: 0.8"/>
      </g>
     </g>
     <g id="text_6">
      <!-- 0 -->
      <g transform="translate(34.146094 94.650066) scale(0.09 -0.09)">
       <use xlink:href="#DejaVuSans-30"/>
      </g>
     </g>
    </g>
    <g id="ytick_7">
     <g id="line2d_7">
      <g>
       <use xlink:href="#m5fdb8ea495" x="46.872344" y="34.886154" style="stroke: #000000; stroke-width: 0.8"/>
      </g>
     </g>
     <g id="text_7">
      <!-- 2 -->
      <g transform="translate(34.146094 38.305451) scale(0.09 -0.09)">
       <use xlink:href="#DejaVuSans-32"/>
      </g>
     </g>
    </g>
    <g id="text_8">
     <!-- Energy (eV) — relative to atomized ground state -->
     <g transform="translate(14.798438 325.397344) rotate(-90) scale(0.1 -0.1)">
      <defs>
       <path id="DejaVuSans-45" d="M 628 4666 
L 3578 4666 
L 3578 4134 
L 1259 4134 
L 1259 2753 
L 3481 2753 
L 3481 2222 
L 1259 2222 
L 1259 531 
L 3634 531 
L 3634 0 
L 628 0 
L 628 4666 
z
" transform="scale(0.015625)"/>
       <path id="DejaVuSans-6e" d="M 3513 2113 
L 3513 0 
L 2938 0 
L 2938 2094 
Q 2938 2591 2744 2837 
Q 2550 3084 2163 3084 
Q 1697 3084 1428 2787 
Q 1159 2491 1159 1978 
L 1159 0 
L 581 0 
L 581 3500 
L 1159 3500 
L 1159 2956 
Q 1366 3272 1645 3428 
Q 1925 3584 2291 3584 
Q 2894 3584 3203 3211 
Q 3513 2838 3513 2113 
z
" transform="scale(0.015625)"/>
       <path id="DejaVuSans-65" d="M 3597 1894 
L 3597 1613 
L 953 1613 
Q 991 1019 1311 708 
Q 1631 397 2203 397 
Q 2534 397 2845 478 
Q 3156 559 3463 722 
L 3463 178 
Q 3153 47 2828 -22 
Q 2503 -91 2169 -91 
Q 1331 -91 842 396 
Q 353 884 353 1716 
Q 353 2575 817 3079 
Q 1281 3584 2069 3584 
Q 2775 3584 3186 3129 
Q 3597 2675 3597 1894 
z
M 3022 2063 
Q 3016 2534 2758 2815 
Q 2500 3097 2075 3097 
Q 1594 3097 1305 2825 
Q 1016 2553 972 2059 
L 3022 2063 
z
" transform="scale(0.015625)"/>
       <path id="DejaVuSans-72" d="M 2631 2963 
Q 2534 3019 2420 3045 
Q 2306 3072 2169 3072 
Q 1681 3072 1420 2755 
Q 1159 2438 1159 1844 
L 1159 0 
L 581 0 
L 581 3500 
L 1159 3500 
L 1159 2956 
Q 1341 3275 1631 3429 
Q 1922 3584 2338 3584 
Q 2397 3584 2469 3576 
Q 2541 3569 2628 3553 
L 2631 2963 
z
" transform="scale(0.015625)"/>
       <path id="DejaVuSans-67" d="M 2906 1791 
Q 2906 2416 2648 2759 
Q 2391 3103 1925 3103 
Q 1463 3103 1205 2759 
Q 947 2416 947 1791 
Q 947 1169 1205 825 
Q 1463 481 1925 481 
Q 2391 481 2648 825 
Q 2906 1169 2906 1791 
z
M 3481 434 
Q 3481 -459 3084 -895 
Q 2688 -1331 1869 -1331 
Q 1566 -1331 1297 -1286 
Q 1028 -1241 775 -1147 
L 775 -588 
Q 1028 -725 1275 -790 
Q 1522 -856 1778 -856 
Q 2344 -856 2625 -561 
Q 2906 -266 2906 331 
L 2906 616 
Q 2728 306 2450 153 
Q 2172 0 1784 0 
Q 1141 0 747 490 
Q 353 981 353 1791 
Q 353 2603 747 3093 
Q 1141 3584 1784 3584 
Q 2172 3584 2450 3431 
Q 2728 3278 2906 2969 
L 2906 3500 
L 3481 3500 
L 3481 434 
z
" transform="scale(0.015625)"/>
       <path id="DejaVuSans-79" d="M 2059 -325 
Q 1816 -950 1584 -1140 
Q 1353 -1331 966 -1331 
L 506 -1331 
L 506 -850 
L 844 -850 
Q 1081 -850 1212 -737 
Q 1344 -625 1503 -206 
L 1606 56 
L 191 3500 
L 800 3500 
L 1894 763 
L 2988 3500 
L 3597 3500 
L 2059 -325 
z
" transform="scale(0.015625)"/>
       <path id="DejaVuSans-20" transform="scale(0.015625)"/>
       <path id="DejaVuSans-28" d="M 1984 4856 
Q 1566 4138 1362 3434 
Q 1159 2731 1159 2009 
Q 1159 1288 1364 580 
Q 1569 -128 1984 -844 
L 1484 -844 
Q 1016 -109 783 600 
Q 550 1309 550 2009 
Q 550 2706 781 3412 
Q 1013 4119 1484 4856 
L 1984 4856 
z
" transform="scale(0.015625)"/>
       <path id="DejaVuSans-56" d="M 1831 0 
L 50 4666 
L 709 4666 
L 2188 738 
L 3669 4666 
L 4325 4666 
L 2547 0 
L 1831 0 
z
" transform="scale(0.015625)"/>
       <path id="DejaVuSans-29" d="M 513 4856 
L 1013 4856 
Q 1481 4119 1714 3412 
Q 1947 2706 1947 2009 
Q 1947 1309 1714 600 
Q 1481 -109 1013 -844 
L 513 -844 
Q 928 -128 1133 580 
Q 1338 1288 1338 2009 
Q 1338 2731 1133 3434 
Q 928 4138 513 4856 
z
" transform="scale(0.015625)"/>
       <path id="DejaVuSans-2014" d="M 313 1978 
L 6088 1978 
L 6088 1528 
L 313 1528 
L 313 1978 
z
" transform="scale(0.015625)"/>
       <path id="DejaVuSans-6c" d="M 603 4863 
L 1178 4863 
L 1178 0 
L 603 0 
L 603 4863 
z
" transform="scale(0.015625)"/>
       <path id="DejaVuSans-61" d="M 2194 1759 
Q 1497 1759 1228 1600 
Q 959 1441 959 1056 
Q 959 750 1161 570 
Q 1363 391 1709 391 
Q 2188 391 2477 730 
Q 2766 1069 2766 1631 
L 2766 1759 
L 2194 1759 
z
M 3341 1997 
L 3341 0 
L 2766 0 
L 2766 531 
Q 2569 213 2275 61 
Q 1981 -91 1556 -91 
Q 1019 -91 701 211 
Q 384 513 384 1019 
Q 384 1609 779 1909 
Q 1175 2209 1959 2209 
L 2766 2209 
L 2766 2266 
Q 2766 2663 2505 2880 
Q 2244 3097 1772 3097 
Q 1472 3097 1187 3025 
Q 903 2953 641 2809 
L 641 3341 
Q 956 3463 1253 3523 
Q 1550 3584 1831 3584 
Q 2591 3584 2966 3190 
Q 3341 2797 3341 1997 
z
" transform="scale(0.015625)"/>
       <path id="DejaVuSans-74" d="M 1172 4494 
L 1172 3500 
L 2356 3500 
L 2356 3053 
L 1172 3053 
L 1172 1153 
Q 1172 725 1289 603 
Q 1406 481 1766 481 
L 2356 481 
L 2356 0 
L 1766 0 
Q 1100 0 847 248 
Q 594 497 594 1153 
L 594 3053 
L 172 3053 
L 172 3500 
L 594 3500 
L 594 4494 
L 1172 4494 
z
" transform="scale(0.015625)"/>
       <path id="DejaVuSans-69" d="M 603 3500 
L 1178 3500 
L 1178 0 
L 603 0 
L 603 3500 
z
M 603 4863 
L 1178 4863 
L 1178 4134 
L 603 4134 
L 603 4863 
z
" transform="scale(0.015625)"/>
       <path id="DejaVuSans-76" d="M 191 3500 
L 800 3500 
L 1894 563 
L 2988 3500 
L 3597 3500 
L 2284 0 
L 1503 0 
L 191 3500 
z
" transform="scale(0.015625)"/>
       <path id="DejaVuSans-6f" d="M 1959 3097 
Q 1497 3097 1228 2736 
Q 959 2375 959 1747 
Q 959 1119 1226 758 
Q 1494 397 1959 397 
Q 2419 397 2687 759 
Q 2956 1122 2956 1747 
Q 2956 2369 2687 2733 
Q 2419 3097 1959 3097 
z
M 1959 3584 
Q 2709 3584 3137 3096 
Q 3566 2609 3566 1747 
Q 3566 888 3137 398 
Q 2709 -91 1959 -91 
Q 1206 -91 779 398 
Q 353 888 353 1747 
Q 353 2609 779 3096 
Q 1206 3584 1959 3584 
z
" transform="scale(0.015625)"/>
       <path id="DejaVuSans-6d" d="M 3328 2828 
Q 3544 3216 3844 3400 
Q 4144 3584 4550 3584 
Q 5097 3584 5394 3201 
Q 5691 2819 5691 2113 
L 5691 0 
L 5113 0 
L 5113 2094 
Q 5113 2597 4934 2840 
Q 4756 3084 4391 3084 
Q 3944 3084 3684 2787 
Q 3425 2491 3425 1978 
L 3425 0 
L 2847 0 
L 2847 2094 
Q 2847 2600 2669 2842 
Q 2491 3084 2119 3084 
Q 1678 3084 1418 2786 
Q 1159 2488 1159 1978 
L 1159 0 
L 581 0 
L 581 3500 
L 1159 3500 
L 1159 2956 
Q 1356 3278 1631 3431 
Q 1906 3584 2284 3584 
Q 2666 3584 2933 3390 
Q 3200 3197 3328 2828 
z
" transform="scale(0.015625)"/>
       <path id="DejaVuSans-7a" d="M 353 3500 
L 3084 3500 
L 3084 2975 
L 922 459 
L 3084 459 
L 3084 0 
L 275 0 
L 275 525 
L 2438 3041 
L 353 3041 
L 353 3500 
z
" transform="scale(0.015625)"/>
       <path id="DejaVuSans-64" d="M 2906 2969 
L 2906 4863 
L 3481 4863 
L 3481 0 
L 2906 0 
L 2906 525 
Q 2725 213 2448 61 
Q 2172 -91 1784 -91 
Q 1150 -91 751 415 
Q 353 922 353 1747 
Q 353 2572 751 3078 
Q 1150 3584 1784 3584 
Q 2172 3584 2448 3432 
Q 2725 3281 2906 2969 
z
M 947 1747 
Q 947 1113 1208 752 
Q 1469 391 1925 391 
Q 2381 391 2643 752 
Q 2906 1113 2906 1747 
Q 2906 2381 2643 2742 
Q 2381 3103 1925 3103 
Q 1469 3103 1208 2742 
Q 947 2381 947 1747 
z
" transform="scale(0.015625)"/>
       <path id="DejaVuSans-75" d="M 544 1381 
L 544 3500 
L 1119 3500 
L 1119 1403 
Q 1119 906 1312 657 
Q 1506 409 1894 409 
Q 2359 409 2629 706 
Q 2900 1003 2900 1516 
L 2900 3500 
L 3475 3500 
L 3475 0 
L 2900 0 
L 2900 538 
Q 2691 219 2414 64 
Q 2138 -91 1772 -91 
Q 1169 -91 856 284 
Q 544 659 544 1381 
z
M 1991 3584 
L 1991 3584 
z
" transform="scale(0.015625)"/>
       <path id="DejaVuSans-73" d="M 2834 3397 
L 2834 2853 
Q 2591 2978 2328 3040 
Q 2066 3103 1784 3103 
Q 1356 3103 1142 2972 
Q 928 2841 928 2578 
Q 928 2378 1081 2264 
Q 1234 2150 1697 2047 
L 1894 2003 
Q 2506 1872 2764 1633 
Q 3022 1394 3022 966 
Q 3022 478 2636 193 
Q 2250 -91 1575 -91 
Q 1294 -91 989 -36 
Q 684 19 347 128 
L 347 722 
Q 666 556 975 473 
Q 1284 391 1588 391 
Q 1994 391 2212 530 
Q 2431 669 2431 922 
Q 2431 1156 2273 1281 
Q 2116 1406 1581 1522 
L 1381 1569 
Q 847 1681 609 1914 
Q 372 2147 372 2553 
Q 372 3047 722 3315 
Q 1072 3584 1716 3584 
Q 2034 3584 2315 3537 
Q 2597 3491 2834 3397 
z
" transform="scale(0.015625)"/>
      </defs>
      <use xlink:href="#DejaVuSans-45"/>
      <use xlink:href="#DejaVuSans-6e" x="63.183594"/>
      <use xlink:href="#DejaVuSans-65" x="126.5625"/>
      <use xlink:href="#DejaVuSans-72" x="188.085938"/>
      <use xlink:href="#DejaVuSans-67" x="227.449219"/>
      <use xlink:href="#DejaVuSans-79" x="290.925781"/>
      <use xlink:href="#DejaVuSans-20" x="350.105469"/>
      <use xlink:href="#DejaVuSans-28" x="381.892578"/>
      <use xlink:href="#DejaVuSans-65" x="420.90625"/>
      <use xlink:href="#DejaVuSans-56" x="482.429688"/>
      <use xlink:href="#DejaVuSans-29" x="550.837891"/>
      <use xlink:href="#DejaVuSans-20" x="589.851562"/>
      <use xlink:href="#DejaVuSans-2014" x="621.638672"/>
      <use xlink:href="#DejaVuSans-20" x="721.638672"/>
      <use xlink:href="#DejaVuSans-72" x="753.425781"/>
      <use xlink:href="#DejaVuSans-65" x="792.289062"/>
      <use xlink:href="#DejaVuSans-6c" x="853.8125"/>
      <use xlink:href="#DejaVuSans-61" x="881.595703"/>
      <use xlink:href="#DejaVuSans-74" x="942.875"/>
      <use xlink:href="#DejaVuSans-69" x="982.083984"/>
      <use xlink:href="#DejaVuSans-76" x="1009.867188"/>
      <use xlink:href="#DejaVuSans-65" x="1069.046875"/>
      <use xlink:href="#DejaVuSans-20" x="1130.570312"/>
      <use xlink:href="#DejaVuSans-74" x="1162.357422"/>
      <use xlink:href="#DejaVuSans-6f" x="1201.566406"/>
      <use xlink:href="#DejaVuSans-20" x="1262.748047"/>
      <use xlink:href="#DejaVuSans-61" x="1294.535156"/>
      <use xlink:href="#DejaVuSans-74" x="1355.814453"/>
      <use xlink:href="#DejaVuSans-6f" x="1395.023438"/>
      <use xlink:href="#DejaVuSans-6d" x="1456.205078"/>
      <use xlink:href="#DejaVuSans-69" x="1553.617188"/>
      <use xlink:href="#DejaVuSans-7a" x="1581.400391"/>
      <use xlink:href="#DejaVuSans-65" x="1633.890625"/>
      <use xlink:href="#DejaVuSans-64" x="1695.414062"/>
      <use xlink:href="#DejaVuSans-20" x="1758.890625"/>
      <use xlink:href="#DejaVuSans-67" x="1790.677734"/>
      <use xlink:href="#DejaVuSans-72" x="1854.154297"/>
      <use xlink:href="#DejaVuSans-6f" x="1893.017578"/>
      <use xlink:href="#DejaVuSans-75" x="1954.199219"/>
      <use xlink:href="#DejaVuSans-6e" x="2017.578125"/>
      <use xlink:href="#DejaVuSans-64" x="2080.957031"/>
      <use xlink:href="#DejaVuSans-20" x="2144.433594"/>
      <use xlink:href="#DejaVuSans-73" x="2176.220703"/>
      <use xlink:href="#DejaVuSans-74" x="2228.320312"/>
      <use xlink:href="#DejaVuSans-61" x="2267.529297"/>
      <use xlink:href="#DejaVuSans-74" x="2328.808594"/>
      <use xlink:href="#DejaVuSans-65" x="2368.017578"/>
     </g>
    </g>
   </g>
   <g id="LineCollection_1">
    <path d="M 72.584344 366.051631 
L 201.144344 366.051631 
" clip-path="url(#p71da3d516a)" style="fill: none; stroke: #000000; stroke-width: 2"/>
   </g>
   <g id="LineCollection_2">
    <path d="M 237.141144 298.888849 
L 370.843544 298.888849 
" clip-path="url(#p71da3d516a)" style="fill: none; stroke: #000000; stroke-width: 2"/>
   </g>
   <g id="LineCollection_3">
    <path d="M 237.141144 256.630388 
L 370.843544 256.630388 
" clip-path="url(#p71da3d516a)" style="fill: none; stroke-dasharray: 8,4; stroke-dashoffset: 0; stroke: #d62728; stroke-width: 2"/>
   </g>
   <g id="LineCollection_4">
    <path d="M 406.840344 91.230769 
L 540.542744 91.230769 
" clip-path="url(#p71da3d516a)" style="fill: none; stroke: #000000; stroke-width: 2"/>
   </g>
   <g id="line2d_8">
    <path d="M 370.843544 298.888849 
L 237.141144 256.630388 
" clip-path="url(#p71da3d516a)" style="fill: none; stroke-dasharray: 3.6,1.8; stroke-dashoffset: 0; stroke: #d62728; stroke-width: 0.9"/>
   </g>
   <g id="line2d_9">
    <path d="M 370.843544 256.630388 
L 370.843544 298.888849 
" clip-path="url(#p71da3d516a)" style="fill: none; stroke-dasharray: 3.6,1.8; stroke-dashoffset: 0; stroke: #d62728; stroke-width: 0.9"/>
   </g>
   <g id="line2d_10">
    <path d="M 201.144344 366.051631 
L 406.840344 91.230769 
" clip-path="url(#p71da3d516a)" style="fill: none; stroke: #808080; stroke-width: 0.7; stroke-linecap: square"/>
   </g>
   <g id="line2d_11">
    <path d="M 370.843544 298.888849 
L 406.840344 91.230769 
" clip-path="url(#p71da3d516a)" style="fill: none; stroke: #808080; stroke-width: 0.7; stroke-linecap: square"/>
   </g>
   <g id="patch_3">
    <path d="M 46.872344 387.04 
L 46.872344 20.8 
" style="fill: none; stroke: #000000; stroke-width: 0.8; stroke-linejoin: miter; stroke-linecap: square"/>
   </g>
   <g id="text_9">
    <!-- N$_2$(X$^1\Sigma_g^+$) + N($^4$S) -->
    <g transform="translate(96.446844 357.410615) scale(0.085 -0.085)">
     <defs>
      <path id="DejaVuSans-Bold-4e" d="M 588 4666 
L 1931 4666 
L 3628 1466 
L 3628 4666 
L 4769 4666 
L 4769 0 
L 3425 0 
L 1728 3200 
L 1728 0 
L 588 0 
L 588 4666 
z
" transform="scale(0.015625)"/>
      <path id="DejaVuSans-Bold-28" d="M 2413 -844 
L 1484 -844 
Q 1006 -72 778 623 
Q 550 1319 550 2003 
Q 550 2688 779 3389 
Q 1009 4091 1484 4856 
L 2413 4856 
Q 2013 4116 1813 3408 
Q 1613 2700 1613 2009 
Q 1613 1319 1811 609 
Q 2009 -100 2413 -844 
z
" transform="scale(0.015625)"/>
      <path id="DejaVuSans-Bold-58" d="M 3188 2381 
L 4806 0 
L 3553 0 
L 2463 1594 
L 1381 0 
L 122 0 
L 1741 2381 
L 184 4666 
L 1441 4666 
L 2463 3163 
L 3481 4666 
L 4744 4666 
L 3188 2381 
z
" transform="scale(0.015625)"/>
      <path id="DejaVuSans-3a3" d="M 1353 531 
L 3634 531 
L 3634 0 
L 628 0 
L 628 531 
L 2125 2481 
L 628 4134 
L 628 4666 
L 3578 4666 
L 3578 4134 
L 1353 4134 
L 2850 2494 
L 1353 531 
z
" transform="scale(0.015625)"/>
      <path id="DejaVuSans-2b" d="M 2944 4013 
L 2944 2272 
L 4684 2272 
L 4684 1741 
L 2944 1741 
L 2944 0 
L 2419 0 
L 2419 1741 
L 678 1741 
L 678 2272 
L 2419 2272 
L 2419 4013 
L 2944 4013 
z
" transform="scale(0.015625)"/>
      <path id="DejaVuSans-Oblique-67" d="M 3816 3500 
L 3219 434 
Q 3047 -456 2561 -893 
Q 2075 -1331 1253 -1331 
Q 950 -1331 690 -1286 
Q 431 -1241 206 -1147 
L 313 -588 
Q 525 -725 762 -790 
Q 1000 -856 1269 -856 
Q 1816 -856 2167 -557 
Q 2519 -259 2631 300 
L 2681 563 
Q 2441 288 2122 144 
Q 1803 0 1434 0 
Q 903 0 598 351 
Q 294 703 294 1319 
Q 294 1803 478 2267 
Q 663 2731 997 3091 
Q 1219 3328 1514 3456 
Q 1809 3584 2131 3584 
Q 2484 3584 2746 3420 
Q 3009 3256 3138 2956 
L 3238 3500 
L 3816 3500 
z
M 2950 2216 
Q 2950 2641 2750 2872 
Q 2550 3103 2181 3103 
Q 1953 3103 1747 3012 
Q 1541 2922 1394 2759 
Q 1156 2491 1023 2127 
Q 891 1763 891 1375 
Q 891 944 1092 712 
Q 1294 481 1672 481 
Q 2219 481 2584 976 
Q 2950 1472 2950 2216 
z
" transform="scale(0.015625)"/>
      <path id="DejaVuSans-Bold-29" d="M 513 -844 
Q 913 -100 1113 609 
Q 1313 1319 1313 2009 
Q 1313 2700 1113 3408 
Q 913 4116 513 4856 
L 1441 4856 
Q 1916 4091 2145 3389 
Q 2375 2688 2375 2003 
Q 2375 1319 2147 623 
Q 1919 -72 1441 -844 
L 513 -844 
z
" transform="scale(0.015625)"/>
      <path id="DejaVuSans-Bold-20" transform="scale(0.015625)"/>
      <path id="DejaVuSans-Bold-2b" d="M 3053 4013 
L 3053 2375 
L 4684 2375 
L 4684 1638 
L 3053 1638 
L 3053 0 
L 2309 0 
L 2309 1638 
L 678 1638 
L 678 2375 
L 2309 2375 
L 2309 4013 
L 3053 4013 
z
" transform="scale(0.015625)"/>
      <path id="DejaVuSans-Bold-53" d="M 3834 4519 
L 3834 3531 
Q 3450 3703 3084 3790 
Q 2719 3878 2394 3878 
Q 1963 3878 1756 3759 
Q 1550 3641 1550 3391 
Q 1550 3203 1689 3098 
Q 1828 2994 2194 2919 
L 2706 2816 
Q 3484 2659 3812 2340 
Q 4141 2022 4141 1434 
Q 4141 663 3683 286 
Q 3225 -91 2284 -91 
Q 1841 -91 1394 -6 
Q 947 78 500 244 
L 500 1259 
Q 947 1022 1364 901 
Q 1781 781 2169 781 
Q 2563 781 2772 912 
Q 2981 1044 2981 1288 
Q 2981 1506 2839 1625 
Q 2697 1744 2272 1838 
L 1806 1941 
Q 1106 2091 782 2419 
Q 459 2747 459 3303 
Q 459 4000 909 4375 
Q 1359 4750 2203 4750 
Q 2588 4750 2994 4692 
Q 3400 4634 3834 4519 
z
" transform="scale(0.015625)"/>
     </defs>
     <use xlink:href="#DejaVuSans-Bold-4e" transform="translate(0 0.684375)"/>
     <use xlink:href="#DejaVuSans-32" transform="translate(84.648438 -15.721875) scale(0.7)"/>
     <use xlink:href="#DejaVuSans-Bold-28" transform="translate(131.918945 0.684375)"/>
     <use xlink:href="#DejaVuSans-Bold-58" transform="translate(177.62207 0.684375)"/>
     <use xlink:href="#DejaVuSans-31" transform="translate(255.678711 38.965625) scale(0.7)"/>
     <use xlink:href="#DejaVuSans-3a3" transform="translate(302.949219 0.684375)"/>
     <use xlink:href="#DejaVuSans-2b" transform="translate(380.727539 38.965625) scale(0.7)"/>
     <use xlink:href="#DejaVuSans-Oblique-67" transform="translate(367.089844 -26.659375) scale(0.7)"/>
     <use xlink:href="#DejaVuSans-Bold-29" transform="translate(455.751953 0.684375)"/>
     <use xlink:href="#DejaVuSans-Bold-20" transform="translate(501.455078 0.684375)"/>
     <use xlink:href="#DejaVuSans-Bold-2b" transform="translate(536.269531 0.684375)"/>
     <use xlink:href="#DejaVuSans-Bold-20" transform="translate(620.058594 0.684375)"/>
     <use xlink:href="#DejaVuSans-Bold-4e" transform="translate(654.873047 0.684375)"/>
     <use xlink:href="#DejaVuSans-Bold-28" transform="translate(738.564453 0.684375)"/>
     <use xlink:href="#DejaVuSans-34" transform="translate(785.224609 38.965625) scale(0.7)"/>
     <use xlink:href="#DejaVuSans-Bold-53" transform="translate(832.495117 0.684375)"/>
     <use xlink:href="#DejaVuSans-Bold-29" transform="translate(904.516602 0.684375)"/>
    </g>
   </g>
   <g id="text_10">
    <!-- N$_2$(X$^1\Sigma_g^+$) + N($^2$D) -->
    <g transform="translate(263.107344 290.247834) scale(0.085 -0.085)">
     <defs>
      <path id="DejaVuSans-Bold-44" d="M 1791 3756 
L 1791 909 
L 2222 909 
Q 2959 909 3348 1275 
Q 3738 1641 3738 2338 
Q 3738 3031 3350 3393 
Q 2963 3756 2222 3756 
L 1791 3756 
z
M 588 4666 
L 1856 4666 
Q 2919 4666 3439 4514 
Q 3959 4363 4331 4000 
Q 4659 3684 4818 3271 
Q 4978 2859 4978 2338 
Q 4978 1809 4818 1395 
Q 4659 981 4331 666 
Q 3956 303 3431 151 
Q 2906 0 1856 0 
L 588 0 
L 588 4666 
z
" transform="scale(0.015625)"/>
     </defs>
     <use xlink:href="#DejaVuSans-Bold-4e" transform="translate(0 0.765625)"/>
     <use xlink:href="#DejaVuSans-32" transform="translate(84.648438 -15.640625) scale(0.7)"/>
     <use xlink:href="#DejaVuSans-Bold-28" transform="translate(131.918945 0.765625)"/>
     <use xlink:href="#DejaVuSans-Bold-58" transform="translate(177.62207 0.765625)"/>
     <use xlink:href="#DejaVuSans-31" transform="translate(255.678711 39.046875) scale(0.7)"/>
     <use xlink:href="#DejaVuSans-3a3" transform="translate(302.949219 0.765625)"/>
     <use xlink:href="#DejaVuSans-2b" transform="translate(380.727539 39.046875) scale(0.7)"/>
     <use xlink:href="#DejaVuSans-Oblique-67" transform="translate(367.089844 -26.578125) scale(0.7)"/>
     <use xlink:href="#DejaVuSans-Bold-29" transform="translate(455.751953 0.765625)"/>
     <use xlink:href="#DejaVuSans-Bold-20" transform="translate(501.455078 0.765625)"/>
     <use xlink:href="#DejaVuSans-Bold-2b" transform="translate(536.269531 0.765625)"/>
     <use xlink:href="#DejaVuSans-Bold-20" transform="translate(620.058594 0.765625)"/>
     <use xlink:href="#DejaVuSans-Bold-4e" transform="translate(654.873047 0.765625)"/>
     <use xlink:href="#DejaVuSans-Bold-28" transform="translate(738.564453 0.765625)"/>
     <use xlink:href="#DejaVuSans-32" transform="translate(785.224609 39.046875) scale(0.7)"/>
     <use xlink:href="#DejaVuSans-Bold-44" transform="translate(832.495117 0.765625)"/>
     <use xlink:href="#DejaVuSans-Bold-29" transform="translate(915.50293 0.765625)"/>
    </g>
   </g>
   <g id="text_11">
    <!-- cyclic D$_{3h}$ exchange saddle -->
    <g style="fill: #d62728" transform="translate(249.432344 249.879372) scale(0.08 -0.08)">
     <defs>
      <path id="DejaVuSans-Oblique-63" d="M 3431 3366 
L 3316 2797 
Q 3109 2947 2876 3022 
Q 2644 3097 2394 3097 
Q 2119 3097 1870 3000 
Q 1622 2903 1453 2725 
Q 1184 2453 1037 2087 
Q 891 1722 891 1331 
Q 891 859 1127 628 
Q 1363 397 1844 397 
Q 2081 397 2348 469 
Q 2616 541 2906 684 
L 2797 116 
Q 2547 13 2283 -39 
Q 2019 -91 1741 -91 
Q 1044 -91 669 257 
Q 294 606 294 1253 
Q 294 1797 489 2255 
Q 684 2713 1069 3078 
Q 1331 3328 1684 3456 
Q 2038 3584 2456 3584 
Q 2700 3584 2940 3529 
Q 3181 3475 3431 3366 
z
" transform="scale(0.015625)"/>
      <path id="DejaVuSans-Oblique-79" d="M 1588 -325 
Q 1188 -997 936 -1164 
Q 684 -1331 294 -1331 
L -159 -1331 
L -63 -850 
L 269 -850 
Q 509 -850 678 -719 
Q 847 -588 1056 -206 
L 1234 128 
L 459 3500 
L 1069 3500 
L 1650 819 
L 3256 3500 
L 3859 3500 
L 1588 -325 
z
" transform="scale(0.015625)"/>
      <path id="DejaVuSans-Oblique-6c" d="M 1172 4863 
L 1747 4863 
L 800 0 
L 225 0 
L 1172 4863 
z
" transform="scale(0.015625)"/>
      <path id="DejaVuSans-Oblique-69" d="M 1172 4863 
L 1747 4863 
L 1606 4134 
L 1031 4134 
L 1172 4863 
z
M 909 3500 
L 1484 3500 
L 800 0 
L 225 0 
L 909 3500 
z
" transform="scale(0.015625)"/>
      <path id="DejaVuSans-Oblique-20" transform="scale(0.015625)"/>
      <path id="DejaVuSans-Oblique-44" d="M 1081 4666 
L 2438 4666 
Q 3519 4666 4070 4208 
Q 4622 3750 4622 2847 
Q 4622 2250 4412 1698 
Q 4203 1147 3834 769 
Q 3463 381 2891 190 
Q 2319 0 1538 0 
L 172 0 
L 1081 4666 
z
M 1613 4147 
L 909 519 
L 1734 519 
Q 2794 519 3375 1128 
Q 3956 1738 3956 2847 
Q 3956 3519 3581 3833 
Q 3206 4147 2406 4147 
L 1613 4147 
z
" transform="scale(0.015625)"/>
      <path id="DejaVuSans-33" d="M 2597 2516 
Q 3050 2419 3304 2112 
Q 3559 1806 3559 1356 
Q 3559 666 3084 287 
Q 2609 -91 1734 -91 
Q 1441 -91 1130 -33 
Q 819 25 488 141 
L 488 750 
Q 750 597 1062 519 
Q 1375 441 1716 441 
Q 2309 441 2620 675 
Q 2931 909 2931 1356 
Q 2931 1769 2642 2001 
Q 2353 2234 1838 2234 
L 1294 2234 
L 1294 2753 
L 1863 2753 
Q 2328 2753 2575 2939 
Q 2822 3125 2822 3475 
Q 2822 3834 2567 4026 
Q 2313 4219 1838 4219 
Q 1578 4219 1281 4162 
Q 984 4106 628 3988 
L 628 4550 
Q 988 4650 1302 4700 
Q 1616 4750 1894 4750 
Q 2613 4750 3031 4423 
Q 3450 4097 3450 3541 
Q 3450 3153 3228 2886 
Q 3006 2619 2597 2516 
z
" transform="scale(0.015625)"/>
      <path id="DejaVuSans-Oblique-68" d="M 3566 2113 
L 3156 0 
L 2578 0 
L 2988 2091 
Q 3016 2238 3031 2350 
Q 3047 2463 3047 2528 
Q 3047 2791 2881 2937 
Q 2716 3084 2419 3084 
Q 1956 3084 1617 2771 
Q 1278 2459 1178 1941 
L 800 0 
L 225 0 
L 1172 4863 
L 1747 4863 
L 1375 2950 
Q 1594 3244 1934 3414 
Q 2275 3584 2650 3584 
Q 3113 3584 3367 3334 
Q 3622 3084 3622 2631 
Q 3622 2519 3608 2391 
Q 3594 2263 3566 2113 
z
" transform="scale(0.015625)"/>
      <path id="DejaVuSans-Oblique-65" d="M 3078 2063 
Q 3088 2113 3092 2166 
Q 3097 2219 3097 2272 
Q 3097 2653 2873 2875 
Q 2650 3097 2266 3097 
Q 1838 3097 1509 2826 
Q 1181 2556 1013 2059 
L 3078 2063 
z
M 3578 1613 
L 903 1613 
Q 884 1494 878 1425 
Q 872 1356 872 1306 
Q 872 872 1139 634 
Q 1406 397 1894 397 
Q 2269 397 2603 481 
Q 2938 566 3225 728 
L 3116 159 
Q 2806 34 2476 -28 
Q 2147 -91 1806 -91 
Q 1078 -91 686 257 
Q 294 606 294 1247 
Q 294 1794 489 2264 
Q 684 2734 1063 3103 
Q 1306 3334 1642 3459 
Q 1978 3584 2356 3584 
Q 2950 3584 3301 3228 
Q 3653 2872 3653 2272 
Q 3653 2128 3634 1964 
Q 3616 1800 3578 1613 
z
" transform="scale(0.015625)"/>
      <path id="DejaVuSans-Oblique-78" d="M 3841 3500 
L 2234 1784 
L 3219 0 
L 2559 0 
L 1819 1388 
L 531 0 
L -166 0 
L 1556 1844 
L 641 3500 
L 1300 3500 
L 1972 2234 
L 3144 3500 
L 3841 3500 
z
" transform="scale(0.015625)"/>
      <path id="DejaVuSans-Oblique-61" d="M 3438 1997 
L 3047 0 
L 2472 0 
L 2578 531 
Q 2325 219 2001 64 
Q 1678 -91 1281 -91 
Q 834 -91 548 182 
Q 263 456 263 884 
Q 263 1497 752 1853 
Q 1241 2209 2100 2209 
L 2900 2209 
L 2931 2363 
Q 2938 2388 2941 2417 
Q 2944 2447 2944 2509 
Q 2944 2788 2717 2942 
Q 2491 3097 2081 3097 
Q 1800 3097 1504 3025 
Q 1209 2953 897 2809 
L 997 3341 
Q 1322 3463 1633 3523 
Q 1944 3584 2234 3584 
Q 2853 3584 3176 3315 
Q 3500 3047 3500 2534 
Q 3500 2431 3484 2292 
Q 3469 2153 3438 1997 
z
M 2816 1759 
L 2241 1759 
Q 1534 1759 1195 1570 
Q 856 1381 856 984 
Q 856 709 1029 553 
Q 1203 397 1509 397 
Q 1978 397 2328 733 
Q 2678 1069 2791 1631 
L 2816 1759 
z
" transform="scale(0.015625)"/>
      <path id="DejaVuSans-Oblique-6e" d="M 3566 2113 
L 3156 0 
L 2578 0 
L 2988 2091 
Q 3016 2238 3031 2350 
Q 3047 2463 3047 2528 
Q 3047 2791 2881 2937 
Q 2716 3084 2419 3084 
Q 1956 3084 1622 2776 
Q 1288 2469 1184 1941 
L 800 0 
L 225 0 
L 903 3500 
L 1478 3500 
L 1363 2950 
Q 1603 3253 1940 3418 
Q 2278 3584 2650 3584 
Q 3113 3584 3367 3334 
Q 3622 3084 3622 2631 
Q 3622 2519 3608 2391 
Q 3594 2263 3566 2113 
z
" transform="scale(0.015625)"/>
      <path id="DejaVuSans-Oblique-73" d="M 3200 3397 
L 3091 2853 
Q 2863 2978 2609 3040 
Q 2356 3103 2088 3103 
Q 1634 3103 1373 2948 
Q 1113 2794 1113 2528 
Q 1113 2219 1719 2053 
Q 1766 2041 1788 2034 
L 1972 1978 
Q 2547 1819 2739 1644 
Q 2931 1469 2931 1166 
Q 2931 609 2489 259 
Q 2047 -91 1331 -91 
Q 1053 -91 747 -37 
Q 441 16 72 128 
L 184 722 
Q 500 559 806 475 
Q 1113 391 1394 391 
Q 1816 391 2080 572 
Q 2344 753 2344 1031 
Q 2344 1331 1650 1516 
L 1591 1531 
L 1394 1581 
Q 956 1697 753 1886 
Q 550 2075 550 2369 
Q 550 2928 970 3256 
Q 1391 3584 2113 3584 
Q 2397 3584 2667 3537 
Q 2938 3491 3200 3397 
z
" transform="scale(0.015625)"/>
      <path id="DejaVuSans-Oblique-64" d="M 2675 525 
Q 2444 222 2128 65 
Q 1813 -91 1428 -91 
Q 903 -91 598 267 
Q 294 625 294 1247 
Q 294 1766 478 2236 
Q 663 2706 1013 3078 
Q 1244 3325 1534 3454 
Q 1825 3584 2144 3584 
Q 2481 3584 2739 3421 
Q 2997 3259 3138 2956 
L 3513 4863 
L 4091 4863 
L 3144 0 
L 2566 0 
L 2675 525 
z
M 891 1350 
Q 891 897 1095 644 
Q 1300 391 1663 391 
Q 1931 391 2161 520 
Q 2391 650 2566 903 
Q 2750 1166 2856 1509 
Q 2963 1853 2963 2188 
Q 2963 2622 2758 2865 
Q 2553 3109 2194 3109 
Q 1922 3109 1687 2981 
Q 1453 2853 1288 2613 
Q 1106 2353 998 2009 
Q 891 1666 891 1350 
z
" transform="scale(0.015625)"/>
     </defs>
     <use xlink:href="#DejaVuSans-Oblique-63" transform="translate(0 0.015625)"/>
     <use xlink:href="#DejaVuSans-Oblique-79" transform="translate(54.980469 0.015625)"/>
     <use xlink:href="#DejaVuSans-Oblique-63" transform="translate(114.160156 0.015625)"/>
     <use xlink:href="#DejaVuSans-Oblique-6c" transform="translate(169.140625 0.015625)"/>
     <use xlink:href="#DejaVuSans-Oblique-69" transform="translate(196.923828 0.015625)"/>
     <use xlink:href="#DejaVuSans-Oblique-63" transform="translate(224.707031 0.015625)"/>
     <use xlink:href="#DejaVuSans-Oblique-20" transform="translate(279.6875 0.015625)"/>
     <use xlink:href="#DejaVuSans-Oblique-44" transform="translate(311.474609 0.015625)"/>
     <use xlink:href="#DejaVuSans-33" transform="translate(389.433594 -16.390625) scale(0.7)"/>
     <use xlink:href="#DejaVuSans-Oblique-68" transform="translate(433.969727 -16.390625) scale(0.7)"/>
     <use xlink:href="#DejaVuSans-Oblique-20" transform="translate(481.069336 0.015625)"/>
     <use xlink:href="#DejaVuSans-Oblique-65" transform="translate(512.856445 0.015625)"/>
     <use xlink:href="#DejaVuSans-Oblique-78" transform="translate(574.379883 0.015625)"/>
     <use xlink:href="#DejaVuSans-Oblique-63" transform="translate(633.55957 0.015625)"/>
     <use xlink:href="#DejaVuSans-Oblique-68" transform="translate(688.540039 0.015625)"/>
     <use xlink:href="#DejaVuSans-Oblique-61" transform="translate(751.918945 0.015625)"/>
     <use xlink:href="#DejaVuSans-Oblique-6e" transform="translate(813.198242 0.015625)"/>
     <use xlink:href="#DejaVuSans-Oblique-67" transform="translate(876.577148 0.015625)"/>
     <use xlink:href="#DejaVuSans-Oblique-65" transform="translate(940.053711 0.015625)"/>
     <use xlink:href="#DejaVuSans-Oblique-20" transform="translate(1001.577148 0.015625)"/>
     <use xlink:href="#DejaVuSans-Oblique-73" transform="translate(1033.364258 0.015625)"/>
     <use xlink:href="#DejaVuSans-Oblique-61" transform="translate(1085.463867 0.015625)"/>
     <use xlink:href="#DejaVuSans-Oblique-64" transform="translate(1146.743164 0.015625)"/>
     <use xlink:href="#DejaVuSans-Oblique-64" transform="translate(1210.219727 0.015625)"/>
     <use xlink:href="#DejaVuSans-Oblique-6c" transform="translate(1273.696289 0.015625)"/>
     <use xlink:href="#DejaVuSans-Oblique-65" transform="translate(1301.479492 0.015625)"/>
    </g>
   </g>
   <g id="text_12">
    <!-- N + N + N -->
    <g transform="translate(449.980528 84.392019) scale(0.085 -0.085)">
     <use xlink:href="#DejaVuSans-Bold-4e"/>
     <use xlink:href="#DejaVuSans-Bold-20" x="83.691406"/>
     <use xlink:href="#DejaVuSans-Bold-2b" x="118.505859"/>
     <use xlink:href="#DejaVuSans-Bold-20" x="202.294922"/>
     <use xlink:href="#DejaVuSans-Bold-4e" x="237.109375"/>
     <use xlink:href="#DejaVuSans-Bold-20" x="320.800781"/>
     <use xlink:href="#DejaVuSans-Bold-2b" x="355.615234"/>
     <use xlink:href="#DejaVuSans-Bold-20" x="439.404297"/>
     <use xlink:href="#DejaVuSans-Bold-4e" x="474.21875"/>
    </g>
   </g>
   <g id="text_13">
    <!-- Ground-state N$_3$ has no bound covalent minimum on -->
    <g style="fill: #696969" transform="translate(191.409844 181.886745) scale(0.085 -0.085)">
     <defs>
      <path id="DejaVuSans-Oblique-47" d="M 3494 697 
L 3738 1919 
L 2700 1919 
L 2797 2438 
L 4453 2438 
L 4050 384 
Q 3634 156 3143 32 
Q 2653 -91 2156 -91 
Q 1278 -91 783 396 
Q 288 884 288 1753 
Q 288 2475 589 3126 
Q 891 3778 1422 4213 
Q 1756 4484 2153 4617 
Q 2550 4750 3034 4750 
Q 3472 4750 3873 4639 
Q 4275 4528 4641 4306 
L 4513 3634 
Q 4231 3928 3853 4083 
Q 3475 4238 3047 4238 
Q 2550 4238 2172 4048 
Q 1794 3859 1497 3463 
Q 1244 3125 1098 2667 
Q 953 2209 953 1734 
Q 953 1081 1287 751 
Q 1622 422 2284 422 
Q 2616 422 2925 492 
Q 3234 563 3494 697 
z
" transform="scale(0.015625)"/>
      <path id="DejaVuSans-Oblique-72" d="M 2853 2969 
Q 2766 3016 2653 3041 
Q 2541 3066 2413 3066 
Q 1953 3066 1609 2717 
Q 1266 2369 1153 1784 
L 800 0 
L 225 0 
L 909 3500 
L 1484 3500 
L 1375 2956 
Q 1603 3259 1920 3421 
Q 2238 3584 2597 3584 
Q 2691 3584 2781 3573 
Q 2872 3563 2963 3538 
L 2853 2969 
z
" transform="scale(0.015625)"/>
      <path id="DejaVuSans-Oblique-6f" d="M 1625 -91 
Q 1009 -91 651 289 
Q 294 669 294 1325 
Q 294 1706 417 2101 
Q 541 2497 738 2766 
Q 1047 3184 1428 3384 
Q 1809 3584 2291 3584 
Q 2888 3584 3255 3212 
Q 3622 2841 3622 2241 
Q 3622 1825 3500 1412 
Q 3378 1000 3181 728 
Q 2875 309 2494 109 
Q 2113 -91 1625 -91 
z
M 891 1344 
Q 891 869 1089 633 
Q 1288 397 1691 397 
Q 2269 397 2648 901 
Q 3028 1406 3028 2181 
Q 3028 2634 2825 2865 
Q 2622 3097 2228 3097 
Q 1903 3097 1650 2945 
Q 1397 2794 1197 2484 
Q 1050 2253 970 1956 
Q 891 1659 891 1344 
z
" transform="scale(0.015625)"/>
      <path id="DejaVuSans-Oblique-75" d="M 428 1388 
L 838 3500 
L 1416 3500 
L 1006 1409 
Q 975 1256 961 1147 
Q 947 1038 947 966 
Q 947 700 1109 554 
Q 1272 409 1569 409 
Q 2031 409 2368 721 
Q 2706 1034 2809 1563 
L 3194 3500 
L 3769 3500 
L 3091 0 
L 2516 0 
L 2631 550 
Q 2388 244 2052 76 
Q 1716 -91 1338 -91 
Q 878 -91 622 161 
Q 366 413 366 863 
Q 366 956 381 1097 
Q 397 1238 428 1388 
z
" transform="scale(0.015625)"/>
      <path id="DejaVuSans-Oblique-2d" d="M 391 2009 
L 2075 2009 
L 1978 1497 
L 288 1497 
L 391 2009 
z
" transform="scale(0.015625)"/>
      <path id="DejaVuSans-Oblique-74" d="M 2706 3500 
L 2619 3053 
L 1472 3053 
L 1100 1153 
Q 1081 1047 1072 975 
Q 1063 903 1063 863 
Q 1063 663 1183 572 
Q 1303 481 1569 481 
L 2150 481 
L 2053 0 
L 1503 0 
Q 991 0 739 200 
Q 488 400 488 806 
Q 488 878 497 964 
Q 506 1050 525 1153 
L 897 3053 
L 409 3053 
L 500 3500 
L 978 3500 
L 1172 4494 
L 1747 4494 
L 1556 3500 
L 2706 3500 
z
" transform="scale(0.015625)"/>
      <path id="DejaVuSans-Oblique-4e" d="M 1081 4666 
L 1931 4666 
L 3219 666 
L 4000 4666 
L 4616 4666 
L 3706 0 
L 2853 0 
L 1569 4025 
L 788 0 
L 172 0 
L 1081 4666 
z
" transform="scale(0.015625)"/>
      <path id="DejaVuSans-Oblique-62" d="M 3169 2138 
Q 3169 2591 2961 2847 
Q 2753 3103 2388 3103 
Q 2122 3103 1889 2973 
Q 1656 2844 1484 2597 
Q 1303 2338 1198 1995 
Q 1094 1653 1094 1313 
Q 1094 881 1298 636 
Q 1503 391 1863 391 
Q 2134 391 2365 517 
Q 2597 644 2772 891 
Q 2950 1147 3059 1487 
Q 3169 1828 3169 2138 
z
M 1381 2969 
Q 1594 3256 1914 3420 
Q 2234 3584 2584 3584 
Q 3122 3584 3439 3221 
Q 3756 2859 3756 2241 
Q 3756 1734 3570 1259 
Q 3384 784 3041 416 
Q 2816 172 2522 40 
Q 2228 -91 1906 -91 
Q 1566 -91 1316 65 
Q 1066 222 909 531 
L 806 0 
L 231 0 
L 1178 4863 
L 1753 4863 
L 1381 2969 
z
" transform="scale(0.015625)"/>
      <path id="DejaVuSans-Oblique-76" d="M 459 3500 
L 1069 3500 
L 1581 525 
L 3256 3500 
L 3866 3500 
L 1875 0 
L 1100 0 
L 459 3500 
z
" transform="scale(0.015625)"/>
      <path id="DejaVuSans-Oblique-6d" d="M 5747 2113 
L 5338 0 
L 4763 0 
L 5166 2094 
Q 5191 2228 5203 2325 
Q 5216 2422 5216 2491 
Q 5216 2772 5059 2928 
Q 4903 3084 4622 3084 
Q 4203 3084 3875 2770 
Q 3547 2456 3450 1953 
L 3066 0 
L 2491 0 
L 2900 2094 
Q 2925 2209 2937 2307 
Q 2950 2406 2950 2484 
Q 2950 2769 2794 2926 
Q 2638 3084 2363 3084 
Q 1938 3084 1609 2770 
Q 1281 2456 1184 1953 
L 800 0 
L 225 0 
L 909 3500 
L 1484 3500 
L 1375 2956 
Q 1609 3263 1923 3423 
Q 2238 3584 2597 3584 
Q 2978 3584 3223 3384 
Q 3469 3184 3519 2828 
Q 3781 3197 4126 3390 
Q 4472 3584 4856 3584 
Q 5306 3584 5551 3325 
Q 5797 3066 5797 2591 
Q 5797 2488 5784 2364 
Q 5772 2241 5747 2113 
z
" transform="scale(0.015625)"/>
     </defs>
     <use xlink:href="#DejaVuSans-Oblique-47" transform="translate(0 0.015625)"/>
     <use xlink:href="#DejaVuSans-Oblique-72" transform="translate(77.490234 0.015625)"/>
     <use xlink:href="#DejaVuSans-Oblique-6f" transform="translate(118.603516 0.015625)"/>
     <use xlink:href="#DejaVuSans-Oblique-75" transform="translate(179.785156 0.015625)"/>
     <use xlink:href="#DejaVuSans-Oblique-6e" transform="translate(243.164062 0.015625)"/>
     <use xlink:href="#DejaVuSans-Oblique-64" transform="translate(306.542969 0.015625)"/>
     <use xlink:href="#DejaVuSans-Oblique-2d" transform="translate(370.019531 0.015625)"/>
     <use xlink:href="#DejaVuSans-Oblique-73" transform="translate(406.103516 0.015625)"/>
     <use xlink:href="#DejaVuSans-Oblique-74" transform="translate(458.203125 0.015625)"/>
     <use xlink:href="#DejaVuSans-Oblique-61" transform="translate(497.412109 0.015625)"/>
     <use xlink:href="#DejaVuSans-Oblique-74" transform="translate(558.691406 0.015625)"/>
     <use xlink:href="#DejaVuSans-Oblique-65" transform="translate(597.900391 0.015625)"/>
     <use xlink:href="#DejaVuSans-Oblique-20" transform="translate(659.423828 0.015625)"/>
     <use xlink:href="#DejaVuSans-Oblique-4e" transform="translate(691.210938 0.015625)"/>
     <use xlink:href="#DejaVuSans-33" transform="translate(766.972656 -16.390625) scale(0.7)"/>
     <use xlink:href="#DejaVuSans-Oblique-20" transform="translate(814.243164 0.015625)"/>
     <use xlink:href="#DejaVuSans-Oblique-68" transform="translate(846.030273 0.015625)"/>
     <use xlink:href="#DejaVuSans-Oblique-61" transform="translate(909.40918 0.015625)"/>
     <use xlink:href="#DejaVuSans-Oblique-73" transform="translate(970.688477 0.015625)"/>
     <use xlink:href="#DejaVuSans-Oblique-20" transform="translate(1022.788086 0.015625)"/>
     <use xlink:href="#DejaVuSans-Oblique-6e" transform="translate(1054.575195 0.015625)"/>
     <use xlink:href="#DejaVuSans-Oblique-6f" transform="translate(1117.954102 0.015625)"/>
     <use xlink:href="#DejaVuSans-Oblique-20" transform="translate(1179.135742 0.015625)"/>
     <use xlink:href="#DejaVuSans-Oblique-62" transform="translate(1210.922852 0.015625)"/>
     <use xlink:href="#DejaVuSans-Oblique-6f" transform="translate(1274.399414 0.015625)"/>
     <use xlink:href="#DejaVuSans-Oblique-75" transform="translate(1335.581055 0.015625)"/>
     <use xlink:href="#DejaVuSans-Oblique-6e" transform="translate(1398.959961 0.015625)"/>
     <use xlink:href="#DejaVuSans-Oblique-64" transform="translate(1462.338867 0.015625)"/>
     <use xlink:href="#DejaVuSans-Oblique-20" transform="translate(1525.81543 0.015625)"/>
     <use xlink:href="#DejaVuSans-Oblique-63" transform="translate(1557.602539 0.015625)"/>
     <use xlink:href="#DejaVuSans-Oblique-6f" transform="translate(1612.583008 0.015625)"/>
     <use xlink:href="#DejaVuSans-Oblique-76" transform="translate(1673.764648 0.015625)"/>
     <use xlink:href="#DejaVuSans-Oblique-61" transform="translate(1732.944336 0.015625)"/>
     <use xlink:href="#DejaVuSans-Oblique-6c" transform="translate(1794.223633 0.015625)"/>
     <use xlink:href="#DejaVuSans-Oblique-65" transform="translate(1822.006836 0.015625)"/>
     <use xlink:href="#DejaVuSans-Oblique-6e" transform="translate(1883.530273 0.015625)"/>
     <use xlink:href="#DejaVuSans-Oblique-74" transform="translate(1946.90918 0.015625)"/>
     <use xlink:href="#DejaVuSans-Oblique-20" transform="translate(1986.118164 0.015625)"/>
     <use xlink:href="#DejaVuSans-Oblique-6d" transform="translate(2017.905273 0.015625)"/>
     <use xlink:href="#DejaVuSans-Oblique-69" transform="translate(2115.317383 0.015625)"/>
     <use xlink:href="#DejaVuSans-Oblique-6e" transform="translate(2143.100586 0.015625)"/>
     <use xlink:href="#DejaVuSans-Oblique-69" transform="translate(2206.479492 0.015625)"/>
     <use xlink:href="#DejaVuSans-Oblique-6d" transform="translate(2234.262695 0.015625)"/>
     <use xlink:href="#DejaVuSans-Oblique-75" transform="translate(2331.674805 0.015625)"/>
     <use xlink:href="#DejaVuSans-Oblique-6d" transform="translate(2395.053711 0.015625)"/>
     <use xlink:href="#DejaVuSans-Oblique-20" transform="translate(2492.46582 0.015625)"/>
     <use xlink:href="#DejaVuSans-Oblique-6f" transform="translate(2524.25293 0.015625)"/>
     <use xlink:href="#DejaVuSans-Oblique-6e" transform="translate(2585.43457 0.015625)"/>
    </g>
    <!-- the NASA / UMN doublet surfaces; exchange proceeds via -->
    <g style="fill: #696969" transform="translate(181.029219 191.404885) scale(0.085 -0.085)">
     <defs>
      <path id="DejaVuSans-Oblique-41" d="M 2356 4666 
L 3072 4666 
L 3938 0 
L 3278 0 
L 3084 1197 
L 984 1197 
L 325 0 
L -341 0 
L 2356 4666 
z
M 2584 4044 
L 1275 1722 
L 2988 1722 
L 2584 4044 
z
" transform="scale(0.015625)"/>
      <path id="DejaVuSans-Oblique-53" d="M 3859 4513 
L 3738 3897 
Q 3422 4066 3111 4152 
Q 2800 4238 2509 4238 
Q 1944 4238 1609 3991 
Q 1275 3744 1275 3334 
Q 1275 3109 1398 2989 
Q 1522 2869 2034 2731 
L 2413 2638 
Q 3053 2472 3303 2217 
Q 3553 1963 3553 1503 
Q 3553 797 2998 353 
Q 2444 -91 1538 -91 
Q 1166 -91 791 -17 
Q 416 56 38 206 
L 166 856 
Q 513 641 861 531 
Q 1209 422 1556 422 
Q 2147 422 2503 684 
Q 2859 947 2859 1369 
Q 2859 1650 2717 1795 
Q 2575 1941 2106 2059 
L 1728 2156 
Q 1081 2325 845 2545 
Q 609 2766 609 3163 
Q 609 3859 1145 4304 
Q 1681 4750 2541 4750 
Q 2875 4750 3203 4690 
Q 3531 4631 3859 4513 
z
" transform="scale(0.015625)"/>
      <path id="DejaVuSans-Oblique-2f" d="M 2175 4666 
L 2731 4666 
L 84 -594 
L -469 -594 
L 2175 4666 
z
" transform="scale(0.015625)"/>
      <path id="DejaVuSans-Oblique-55" d="M 991 4666 
L 1625 4666 
L 1075 1831 
Q 1041 1641 1027 1517 
Q 1013 1394 1013 1300 
Q 1013 869 1253 645 
Q 1494 422 1959 422 
Q 2563 422 2898 753 
Q 3234 1084 3378 1831 
L 3928 4666 
L 4563 4666 
L 4000 1753 
Q 3816 809 3300 359 
Q 2784 -91 1888 -91 
Q 1188 -91 780 261 
Q 372 613 372 1216 
Q 372 1325 387 1461 
Q 403 1597 434 1753 
L 991 4666 
z
" transform="scale(0.015625)"/>
      <path id="DejaVuSans-Oblique-4d" d="M 1081 4666 
L 2028 4666 
L 2572 1522 
L 4378 4666 
L 5350 4666 
L 4441 0 
L 3828 0 
L 4622 4091 
L 2791 897 
L 2175 897 
L 1581 4103 
L 788 0 
L 172 0 
L 1081 4666 
z
" transform="scale(0.015625)"/>
      <path id="DejaVuSans-Oblique-66" d="M 3059 4863 
L 2969 4384 
L 2419 4384 
Q 2106 4384 1964 4261 
Q 1822 4138 1753 3809 
L 1691 3500 
L 2638 3500 
L 2553 3053 
L 1606 3053 
L 1013 0 
L 434 0 
L 1031 3053 
L 481 3053 
L 563 3500 
L 1113 3500 
L 1159 3744 
Q 1278 4363 1576 4613 
Q 1875 4863 2516 4863 
L 3059 4863 
z
" transform="scale(0.015625)"/>
      <path id="DejaVuSans-Oblique-3b" d="M 563 794 
L 1222 794 
L 1113 256 
L 409 -744 
L 6 -744 
L 453 256 
L 563 794 
z
M 1050 3309 
L 1709 3309 
L 1556 2516 
L 897 2516 
L 1050 3309 
z
" transform="scale(0.015625)"/>
      <path id="DejaVuSans-Oblique-70" d="M 3175 2156 
Q 3175 2616 2975 2859 
Q 2775 3103 2400 3103 
Q 2144 3103 1911 2972 
Q 1678 2841 1497 2591 
Q 1319 2344 1212 1994 
Q 1106 1644 1106 1300 
Q 1106 863 1306 627 
Q 1506 391 1875 391 
Q 2147 391 2380 519 
Q 2613 647 2778 891 
Q 2956 1147 3065 1494 
Q 3175 1841 3175 2156 
z
M 1394 2969 
Q 1625 3272 1939 3428 
Q 2253 3584 2638 3584 
Q 3175 3584 3472 3232 
Q 3769 2881 3769 2247 
Q 3769 1728 3584 1258 
Q 3400 788 3053 416 
Q 2822 169 2531 39 
Q 2241 -91 1919 -91 
Q 1547 -91 1294 64 
Q 1041 219 916 525 
L 556 -1331 
L -19 -1331 
L 922 3500 
L 1497 3500 
L 1394 2969 
z
" transform="scale(0.015625)"/>
     </defs>
     <use xlink:href="#DejaVuSans-Oblique-74"/>
     <use xlink:href="#DejaVuSans-Oblique-68" x="39.208984"/>
     <use xlink:href="#DejaVuSans-Oblique-65" x="102.587891"/>
     <use xlink:href="#DejaVuSans-Oblique-20" x="164.111328"/>
     <use xlink:href="#DejaVuSans-Oblique-4e" x="195.898438"/>
     <use xlink:href="#DejaVuSans-Oblique-41" x="270.703125"/>
     <use xlink:href="#DejaVuSans-Oblique-53" x="339.111328"/>
     <use xlink:href="#DejaVuSans-Oblique-41" x="402.587891"/>
     <use xlink:href="#DejaVuSans-Oblique-20" x="470.996094"/>
     <use xlink:href="#DejaVuSans-Oblique-2f" x="502.783203"/>
     <use xlink:href="#DejaVuSans-Oblique-20" x="536.474609"/>
     <use xlink:href="#DejaVuSans-Oblique-55" x="568.261719"/>
     <use xlink:href="#DejaVuSans-Oblique-4d" x="641.455078"/>
     <use xlink:href="#DejaVuSans-Oblique-4e" x="727.734375"/>
     <use xlink:href="#DejaVuSans-Oblique-20" x="802.539062"/>
     <use xlink:href="#DejaVuSans-Oblique-64" x="834.326172"/>
     <use xlink:href="#DejaVuSans-Oblique-6f" x="897.802734"/>
     <use xlink:href="#DejaVuSans-Oblique-75" x="958.984375"/>
     <use xlink:href="#DejaVuSans-Oblique-62" x="1022.363281"/>
     <use xlink:href="#DejaVuSans-Oblique-6c" x="1085.839844"/>
     <use xlink:href="#DejaVuSans-Oblique-65" x="1113.623047"/>
     <use xlink:href="#DejaVuSans-Oblique-74" x="1175.146484"/>
     <use xlink:href="#DejaVuSans-Oblique-20" x="1214.355469"/>
     <use xlink:href="#DejaVuSans-Oblique-73" x="1246.142578"/>
     <use xlink:href="#DejaVuSans-Oblique-75" x="1298.242188"/>
     <use xlink:href="#DejaVuSans-Oblique-72" x="1361.621094"/>
     <use xlink:href="#DejaVuSans-Oblique-66" x="1402.734375"/>
     <use xlink:href="#DejaVuSans-Oblique-61" x="1437.939453"/>
     <use xlink:href="#DejaVuSans-Oblique-63" x="1499.21875"/>
     <use xlink:href="#DejaVuSans-Oblique-65" x="1554.199219"/>
     <use xlink:href="#DejaVuSans-Oblique-73" x="1615.722656"/>
     <use xlink:href="#DejaVuSans-Oblique-3b" x="1667.822266"/>
     <use xlink:href="#DejaVuSans-Oblique-20" x="1701.513672"/>
     <use xlink:href="#DejaVuSans-Oblique-65" x="1733.300781"/>
     <use xlink:href="#DejaVuSans-Oblique-78" x="1794.824219"/>
     <use xlink:href="#DejaVuSans-Oblique-63" x="1854.003906"/>
     <use xlink:href="#DejaVuSans-Oblique-68" x="1908.984375"/>
     <use xlink:href="#DejaVuSans-Oblique-61" x="1972.363281"/>
     <use xlink:href="#DejaVuSans-Oblique-6e" x="2033.642578"/>
     <use xlink:href="#DejaVuSans-Oblique-67" x="2097.021484"/>
     <use xlink:href="#DejaVuSans-Oblique-65" x="2160.498047"/>
     <use xlink:href="#DejaVuSans-Oblique-20" x="2222.021484"/>
     <use xlink:href="#DejaVuSans-Oblique-70" x="2253.808594"/>
     <use xlink:href="#DejaVuSans-Oblique-72" x="2317.285156"/>
     <use xlink:href="#DejaVuSans-Oblique-6f" x="2358.398438"/>
     <use xlink:href="#DejaVuSans-Oblique-63" x="2419.580078"/>
     <use xlink:href="#DejaVuSans-Oblique-65" x="2474.560547"/>
     <use xlink:href="#DejaVuSans-Oblique-65" x="2536.083984"/>
     <use xlink:href="#DejaVuSans-Oblique-64" x="2597.607422"/>
     <use xlink:href="#DejaVuSans-Oblique-73" x="2661.083984"/>
     <use xlink:href="#DejaVuSans-Oblique-20" x="2713.183594"/>
     <use xlink:href="#DejaVuSans-Oblique-76" x="2744.970703"/>
     <use xlink:href="#DejaVuSans-Oblique-69" x="2804.150391"/>
     <use xlink:href="#DejaVuSans-Oblique-61" x="2831.933594"/>
    </g>
    <!-- the cyclic saddle above the N$_2$+N($^2$D) asymptote. -->
    <g style="fill: #696969" transform="translate(198.294844 202.45462) scale(0.085 -0.085)">
     <defs>
      <path id="DejaVuSans-Oblique-2b" d="M 2944 4013 
L 2944 2272 
L 4684 2272 
L 4684 1741 
L 2944 1741 
L 2944 0 
L 2419 0 
L 2419 1741 
L 678 1741 
L 678 2272 
L 2419 2272 
L 2419 4013 
L 2944 4013 
z
" transform="scale(0.015625)"/>
      <path id="DejaVuSans-Oblique-28" d="M 2731 4856 
Q 1903 3822 1495 2892 
Q 1088 1963 1088 1100 
Q 1088 606 1206 120 
Q 1325 -366 1563 -844 
L 1063 -844 
Q 775 -306 634 201 
Q 494 709 494 1197 
Q 494 2125 923 3036 
Q 1353 3947 2222 4856 
L 2731 4856 
z
" transform="scale(0.015625)"/>
      <path id="DejaVuSans-Oblique-29" d="M -397 -844 
Q 434 191 840 1120 
Q 1247 2050 1247 2913 
Q 1247 3406 1130 3892 
Q 1013 4378 775 4856 
L 1275 4856 
Q 1563 4316 1703 3812 
Q 1844 3309 1844 2822 
Q 1844 1891 1411 973 
Q 978 56 116 -844 
L -397 -844 
z
" transform="scale(0.015625)"/>
      <path id="DejaVuSans-Oblique-2e" d="M 525 794 
L 1184 794 
L 1031 0 
L 372 0 
L 525 794 
z
" transform="scale(0.015625)"/>
     </defs>
     <use xlink:href="#DejaVuSans-Oblique-74" transform="translate(0 0.765625)"/>
     <use xlink:href="#DejaVuSans-Oblique-68" transform="translate(39.208984 0.765625)"/>
     <use xlink:href="#DejaVuSans-Oblique-65" transform="translate(102.587891 0.765625)"/>
     <use xlink:href="#DejaVuSans-Oblique-20" transform="translate(164.111328 0.765625)"/>
     <use xlink:href="#DejaVuSans-Oblique-63" transform="translate(195.898438 0.765625)"/>
     <use xlink:href="#DejaVuSans-Oblique-79" transform="translate(250.878906 0.765625)"/>
     <use xlink:href="#DejaVuSans-Oblique-63" transform="translate(310.058594 0.765625)"/>
     <use xlink:href="#DejaVuSans-Oblique-6c" transform="translate(365.039062 0.765625)"/>
     <use xlink:href="#DejaVuSans-Oblique-69" transform="translate(392.822266 0.765625)"/>
     <use xlink:href="#DejaVuSans-Oblique-63" transform="translate(420.605469 0.765625)"/>
     <use xlink:href="#DejaVuSans-Oblique-20" transform="translate(475.585938 0.765625)"/>
     <use xlink:href="#DejaVuSans-Oblique-73" transform="translate(507.373047 0.765625)"/>
     <use xlink:href="#DejaVuSans-Oblique-61" transform="translate(559.472656 0.765625)"/>
     <use xlink:href="#DejaVuSans-Oblique-64" transform="translate(620.751953 0.765625)"/>
     <use xlink:href="#DejaVuSans-Oblique-64" transform="translate(684.228516 0.765625)"/>
     <use xlink:href="#DejaVuSans-Oblique-6c" transform="translate(747.705078 0.765625)"/>
     <use xlink:href="#DejaVuSans-Oblique-65" transform="translate(775.488281 0.765625)"/>
     <use xlink:href="#DejaVuSans-Oblique-20" transform="translate(837.011719 0.765625)"/>
     <use xlink:href="#DejaVuSans-Oblique-61" transform="translate(868.798828 0.765625)"/>
     <use xlink:href="#DejaVuSans-Oblique-62" transform="translate(930.078125 0.765625)"/>
     <use xlink:href="#DejaVuSans-Oblique-6f" transform="translate(993.554688 0.765625)"/>
     <use xlink:href="#DejaVuSans-Oblique-76" transform="translate(1054.736328 0.765625)"/>
     <use xlink:href="#DejaVuSans-Oblique-65" transform="translate(1113.916016 0.765625)"/>
     <use xlink:href="#DejaVuSans-Oblique-20" transform="translate(1175.439453 0.765625)"/>
     <use xlink:href="#DejaVuSans-Oblique-74" transform="translate(1207.226562 0.765625)"/>
     <use xlink:href="#DejaVuSans-Oblique-68" transform="translate(1246.435547 0.765625)"/>
     <use xlink:href="#DejaVuSans-Oblique-65" transform="translate(1309.814453 0.765625)"/>
     <use xlink:href="#DejaVuSans-Oblique-20" transform="translate(1371.337891 0.765625)"/>
     <use xlink:href="#DejaVuSans-Oblique-4e" transform="translate(1403.125 0.765625)"/>
     <use xlink:href="#DejaVuSans-32" transform="translate(1478.886719 -15.640625) scale(0.7)"/>
     <use xlink:href="#DejaVuSans-Oblique-2b" transform="translate(1526.157227 0.765625)"/>
     <use xlink:href="#DejaVuSans-Oblique-4e" transform="translate(1609.946289 0.765625)"/>
     <use xlink:href="#DejaVuSans-Oblique-28" transform="translate(1684.750977 0.765625)"/>
     <use xlink:href="#DejaVuSans-32" transform="translate(1724.72168 39.046875) scale(0.7)"/>
     <use xlink:href="#DejaVuSans-Oblique-44" transform="translate(1771.992188 0.765625)"/>
     <use xlink:href="#DejaVuSans-Oblique-29" transform="translate(1848.994141 0.765625)"/>
     <use xlink:href="#DejaVuSans-Oblique-20" transform="translate(1888.007812 0.765625)"/>
     <use xlink:href="#DejaVuSans-Oblique-61" transform="translate(1919.794922 0.765625)"/>
     <use xlink:href="#DejaVuSans-Oblique-73" transform="translate(1981.074219 0.765625)"/>
     <use xlink:href="#DejaVuSans-Oblique-79" transform="translate(2033.173828 0.765625)"/>
     <use xlink:href="#DejaVuSans-Oblique-6d" transform="translate(2092.353516 0.765625)"/>
     <use xlink:href="#DejaVuSans-Oblique-70" transform="translate(2189.765625 0.765625)"/>
     <use xlink:href="#DejaVuSans-Oblique-74" transform="translate(2253.242188 0.765625)"/>
     <use xlink:href="#DejaVuSans-Oblique-6f" transform="translate(2292.451172 0.765625)"/>
     <use xlink:href="#DejaVuSans-Oblique-74" transform="translate(2353.632812 0.765625)"/>
     <use xlink:href="#DejaVuSans-Oblique-65" transform="translate(2392.841797 0.765625)"/>
     <use xlink:href="#DejaVuSans-Oblique-2e" transform="translate(2454.365234 0.765625)"/>
    </g>
   </g>
   <g id="text_14">
    <!-- N$_3$ correlation diagram (NASA / UMN surfaces) -->
    <g transform="translate(188.342344 14.8) scale(0.1 -0.1)">
     <defs>
      <path id="DejaVuSans-4e" d="M 628 4666 
L 1478 4666 
L 3547 763 
L 3547 4666 
L 4159 4666 
L 4159 0 
L 3309 0 
L 1241 3903 
L 1241 0 
L 628 0 
L 628 4666 
z
" transform="scale(0.015625)"/>
      <path id="DejaVuSans-63" d="M 3122 3366 
L 3122 2828 
Q 2878 2963 2633 3030 
Q 2388 3097 2138 3097 
Q 1578 3097 1268 2742 
Q 959 2388 959 1747 
Q 959 1106 1268 751 
Q 1578 397 2138 397 
Q 2388 397 2633 464 
Q 2878 531 3122 666 
L 3122 134 
Q 2881 22 2623 -34 
Q 2366 -91 2075 -91 
Q 1284 -91 818 406 
Q 353 903 353 1747 
Q 353 2603 823 3093 
Q 1294 3584 2113 3584 
Q 2378 3584 2631 3529 
Q 2884 3475 3122 3366 
z
" transform="scale(0.015625)"/>
      <path id="DejaVuSans-41" d="M 2188 4044 
L 1331 1722 
L 3047 1722 
L 2188 4044 
z
M 1831 4666 
L 2547 4666 
L 4325 0 
L 3669 0 
L 3244 1197 
L 1141 1197 
L 716 0 
L 50 0 
L 1831 4666 
z
" transform="scale(0.015625)"/>
      <path id="DejaVuSans-53" d="M 3425 4513 
L 3425 3897 
Q 3066 4069 2747 4153 
Q 2428 4238 2131 4238 
Q 1616 4238 1336 4038 
Q 1056 3838 1056 3469 
Q 1056 3159 1242 3001 
Q 1428 2844 1947 2747 
L 2328 2669 
Q 3034 2534 3370 2195 
Q 3706 1856 3706 1288 
Q 3706 609 3251 259 
Q 2797 -91 1919 -91 
Q 1588 -91 1214 -16 
Q 841 59 441 206 
L 441 856 
Q 825 641 1194 531 
Q 1563 422 1919 422 
Q 2459 422 2753 634 
Q 3047 847 3047 1241 
Q 3047 1584 2836 1778 
Q 2625 1972 2144 2069 
L 1759 2144 
Q 1053 2284 737 2584 
Q 422 2884 422 3419 
Q 422 4038 858 4394 
Q 1294 4750 2059 4750 
Q 2388 4750 2728 4690 
Q 3069 4631 3425 4513 
z
" transform="scale(0.015625)"/>
      <path id="DejaVuSans-2f" d="M 1625 4666 
L 2156 4666 
L 531 -594 
L 0 -594 
L 1625 4666 
z
" transform="scale(0.015625)"/>
      <path id="DejaVuSans-55" d="M 556 4666 
L 1191 4666 
L 1191 1831 
Q 1191 1081 1462 751 
Q 1734 422 2344 422 
Q 2950 422 3222 751 
Q 3494 1081 3494 1831 
L 3494 4666 
L 4128 4666 
L 4128 1753 
Q 4128 841 3676 375 
Q 3225 -91 2344 -91 
Q 1459 -91 1007 375 
Q 556 841 556 1753 
L 556 4666 
z
" transform="scale(0.015625)"/>
      <path id="DejaVuSans-4d" d="M 628 4666 
L 1569 4666 
L 2759 1491 
L 3956 4666 
L 4897 4666 
L 4897 0 
L 4281 0 
L 4281 4097 
L 3078 897 
L 2444 897 
L 1241 4097 
L 1241 0 
L 628 0 
L 628 4666 
z
" transform="scale(0.015625)"/>
      <path id="DejaVuSans-66" d="M 2375 4863 
L 2375 4384 
L 1825 4384 
Q 1516 4384 1395 4259 
Q 1275 4134 1275 3809 
L 1275 3500 
L 2222 3500 
L 2222 3053 
L 1275 3053 
L 1275 0 
L 697 0 
L 697 3053 
L 147 3053 
L 147 3500 
L 697 3500 
L 697 3744 
Q 697 4328 969 4595 
Q 1241 4863 1831 4863 
L 2375 4863 
z
" transform="scale(0.015625)"/>
     </defs>
     <use xlink:href="#DejaVuSans-4e" transform="translate(0 0.015625)"/>
     <use xlink:href="#DejaVuSans-33" transform="translate(75.761719 -16.390625) scale(0.7)"/>
     <use xlink:href="#DejaVuSans-20" transform="translate(123.032227 0.015625)"/>
     <use xlink:href="#DejaVuSans-63" transform="translate(154.819336 0.015625)"/>
     <use xlink:href="#DejaVuSans-6f" transform="translate(209.799805 0.015625)"/>
     <use xlink:href="#DejaVuSans-72" transform="translate(270.981445 0.015625)"/>
     <use xlink:href="#DejaVuSans-72" transform="translate(312.094727 0.015625)"/>
     <use xlink:href="#DejaVuSans-65" transform="translate(353.208008 0.015625)"/>
     <use xlink:href="#DejaVuSans-6c" transform="translate(414.731445 0.015625)"/>
     <use xlink:href="#DejaVuSans-61" transform="translate(442.514648 0.015625)"/>
     <use xlink:href="#DejaVuSans-74" transform="translate(503.793945 0.015625)"/>
     <use xlink:href="#DejaVuSans-69" transform="translate(543.00293 0.015625)"/>
     <use xlink:href="#DejaVuSans-6f" transform="translate(570.786133 0.015625)"/>
     <use xlink:href="#DejaVuSans-6e" transform="translate(631.967773 0.015625)"/>
     <use xlink:href="#DejaVuSans-20" transform="translate(695.34668 0.015625)"/>
     <use xlink:href="#DejaVuSans-64" transform="translate(727.133789 0.015625)"/>
     <use xlink:href="#DejaVuSans-69" transform="translate(790.610352 0.015625)"/>
     <use xlink:href="#DejaVuSans-61" transform="translate(818.393555 0.015625)"/>
     <use xlink:href="#DejaVuSans-67" transform="translate(879.672852 0.015625)"/>
     <use xlink:href="#DejaVuSans-72" transform="translate(943.149414 0.015625)"/>
     <use xlink:href="#DejaVuSans-61" transform="translate(984.262695 0.015625)"/>
     <use xlink:href="#DejaVuSans-6d" transform="translate(1045.541992 0.015625)"/>
     <use xlink:href="#DejaVuSans-20" transform="translate(1142.954102 0.015625)"/>
     <use xlink:href="#DejaVuSans-28" transform="translate(1174.741211 0.015625)"/>
     <use xlink:href="#DejaVuSans-4e" transform="translate(1213.754883 0.015625)"/>
     <use xlink:href="#DejaVuSans-41" transform="translate(1288.55957 0.015625)"/>
     <use xlink:href="#DejaVuSans-53" transform="translate(1356.967773 0.015625)"/>
     <use xlink:href="#DejaVuSans-41" transform="translate(1420.444336 0.015625)"/>
     <use xlink:href="#DejaVuSans-20" transform="translate(1488.852539 0.015625)"/>
     <use xlink:href="#DejaVuSans-2f" transform="translate(1520.639648 0.015625)"/>
     <use xlink:href="#DejaVuSans-20" transform="translate(1554.331055 0.015625)"/>
     <use xlink:href="#DejaVuSans-55" transform="translate(1586.118164 0.015625)"/>
     <use xlink:href="#DejaVuSans-4d" transform="translate(1659.311523 0.015625)"/>
     <use xlink:href="#DejaVuSans-4e" transform="translate(1745.59082 0.015625)"/>
     <use xlink:href="#DejaVuSans-20" transform="translate(1820.395508 0.015625)"/>
     <use xlink:href="#DejaVuSans-73" transform="translate(1852.182617 0.015625)"/>
     <use xlink:href="#DejaVuSans-75" transform="translate(1904.282227 0.015625)"/>
     <use xlink:href="#DejaVuSans-72" transform="translate(1967.661133 0.015625)"/>
     <use xlink:href="#DejaVuSans-66" transform="translate(2008.774414 0.015625)"/>
     <use xlink:href="#DejaVuSans-61" transform="translate(2043.979492 0.015625)"/>
     <use xlink:href="#DejaVuSans-63" transform="translate(2105.258789 0.015625)"/>
     <use xlink:href="#DejaVuSans-65" transform="translate(2160.239258 0.015625)"/>
     <use xlink:href="#DejaVuSans-73" transform="translate(2221.762695 0.015625)"/>
     <use xlink:href="#DejaVuSans-29" transform="translate(2273.862305 0.015625)"/>
    </g>
   </g>
  </g>
 </g>
 <defs>
  <clipPath id="p71da3d516a">
   <rect x="46.872344" y="20.8" width="514.24" height="366.24"/>
  </clipPath>
 </defs>
</svg>
