<?xml version="1.0" encoding="utf-8" standalone="no"?>
<!DOCTYPE svg PUBLIC "-//W3C//DTD SVG 1.1//EN"
  "http://www.w3.org/Graphics/SVG/1.1/DTD/svg11.dtd">
<svg xmlns:xlink="http://www.w3.org/1999/xlink" width="748.346094pt" height="494.66pt" viewBox="0 0 748.346094 494.66" xmlns="http://www.w3.org/2000/svg" version="1.1">
 <metadata>
  <rdf:RDF xmlns:dc="http://purl.org/dc/elements/1.1/" xmlns:cc="http://creativecommons.org/ns#" xmlns:rdf="http://www.w3.org/1999/02/22-rdf-syntax-ns#">
   <cc:Work>
    <dc:type rdf:resource="http://purl.org/dc/dcmitype/StillImage"/>
    <dc:date>2026-04-26T11:18:21.053283</dc:date>
    <dc:format>image/svg+xml</dc:format>
    <dc:creator>
     <cc:Agent>
      <dc:title>Matplotlib v3.6.3, https://matplotlib.org/</dc:title>
     </cc:Agent>
    </dc:creator>
   </cc:Work>
  </rdf:RDF>
 </metadata>
 <defs>
  <style type="text/css">*{stroke-linejoin: round; stroke-linecap: butt}</style>
 </defs>
 <g id="figure_1">
  <g id="patch_1">
   <path d="M 0 494.66 
L 748.346094 494.66 
L 748.346094 0 
L 0 0 
z
" style="fill: #ffffff"/>
  </g>
  <g id="axes_1">
   <g id="patch_2">
    <path d="M 41.146094 487.46 
L 741.146094 487.46 
L 741.146094 20.42 
L 41.146094 20.42 
z
" style="fill: #ffffff"/>
   </g>
   <g id="matplotlib.axis_1"/>
   <g id="matplotlib.axis_2">
    <g id="ytick_1">
     <g id="line2d_1">
      <defs>
       <path id="m496f402a77" d="M 0 0 
L -3.5 0 
" style="stroke: #000000; stroke-width: 0.8"/>
      </defs>
      <g>
       <use xlink:href="#m496f402a77" x="41.146094" y="412.130968" style="stroke: #000000; stroke-width: 0.8"/>
      </g>
     </g>
     <g id="text_1">
      <!-- −6 -->
      <g transform="translate(20.878125 415.550265) scale(0.09 -0.09)">
       <defs>
        <path id="DejaVuSans-2212" d="M 678 2272 
L 4684 2272 
L 4684 1741 
L 678 1741 
L 678 2272 
z
" transform="scale(0.015625)"/>
        <path id="DejaVuSans-36" d="M 2113 2584 
Q 1688 2584 1439 2293 
Q 1191 2003 1191 1497 
Q 1191 994 1439 701 
Q 1688 409 2113 409 
Q 2538 409 2786 701 
Q 3034 994 3034 1497 
Q 3034 2003 2786 2293 
Q 2538 2584 2113 2584 
z
M 3366 4563 
L 3366 3988 
Q 3128 4100 2886 4159 
Q 2644 4219 2406 4219 
Q 1781 4219 1451 3797 
Q 1122 3375 1075 2522 
Q 1259 2794 1537 2939 
Q 1816 3084 2150 3084 
Q 2853 3084 3261 2657 
Q 3669 2231 3669 1497 
Q 3669 778 3244 343 
Q 2819 -91 2113 -91 
Q 1303 -91 875 529 
Q 447 1150 447 2328 
Q 447 3434 972 4092 
Q 1497 4750 2381 4750 
Q 2619 4750 2861 4703 
Q 3103 4656 3366 4563 
z
" transform="scale(0.015625)"/>
       </defs>
       <use xlink:href="#DejaVuSans-2212"/>
       <use xlink:href="#DejaVuSans-36" x="83.789062"/>
      </g>
     </g>
    </g>
    <g id="ytick_2">
     <g id="line2d_2">
      <g>
       <use xlink:href="#m496f402a77" x="41.146094" y="311.692258" style="stroke: #000000; stroke-width: 0.8"/>
      </g>
     </g>
     <g id="text_2">
      <!-- −4 -->
      <g transform="translate(20.878125 315.111555) scale(0.09 -0.09)">
       <defs>
        <path id="DejaVuSans-34" d="M 2419 4116 
L 825 1625 
L 2419 1625 
L 2419 4116 
z
M 2253 4666 
L 3047 4666 
L 3047 1625 
L 3713 1625 
L 3713 1100 
L 3047 1100 
L 3047 0 
L 2419 0 
L 2419 1100 
L 313 1100 
L 313 1709 
L 2253 4666 
z
" transform="scale(0.015625)"/>
       </defs>
       <use xlink:href="#DejaVuSans-2212"/>
       <use xlink:href="#DejaVuSans-34" x="83.789062"/>
      </g>
     </g>
    </g>
    <g id="ytick_3">
     <g id="line2d_3">
      <g>
       <use xlink:href="#m496f402a77" x="41.146094" y="211.253548" style="stroke: #000000; stroke-width: 0.8"/>
      </g>
     </g>
     <g id="text_3">
      <!-- −2 -->
      <g transform="translate(20.878125 214.672845) scale(0.09 -0.09)">
       <defs>
        <path id="DejaVuSans-32" d="M 1228 531 
L 3431 531 
L 3431 0 
L 469 0 
L 469 531 
Q 828 903 1448 1529 
Q 2069 2156 2228 2338 
Q 2531 2678 2651 2914 
Q 2772 3150 2772 3378 
Q 2772 3750 2511 3984 
Q 2250 4219 1831 4219 
Q 1534 4219 1204 4116 
Q 875 4013 500 3803 
L 500 4441 
Q 881 4594 1212 4672 
Q 1544 4750 1819 4750 
Q 2544 4750 2975 4387 
Q 3406 4025 3406 3419 
Q 3406 3131 3298 2873 
Q 3191 2616 2906 2266 
Q 2828 2175 2409 1742 
Q 1991 1309 1228 531 
z
" transform="scale(0.015625)"/>
       </defs>
       <use xlink:href="#DejaVuSans-2212"/>
       <use xlink:href="#DejaVuSans-32" x="83.789062"/>
      </g>
     </g>
    </g>
    <g id="ytick_4">
     <g id="line2d_4">
      <g>
       <use xlink:href="#m496f402a77" x="41.146094" y="110.814839" style="stroke: #000000; stroke-width: 0.8"/>
      </g>
     </g>
     <g id="text_4">
      <!-- 0 -->
      <g transform="translate(28.419844 114.234136) scale(0.09 -0.09)">
       <defs>
        <path id="DejaVuSans-30" d="M 2034 4250 
Q 1547 4250 1301 3770 
Q 1056 3291 1056 2328 
Q 1056 1369 1301 889 
Q 1547 409 2034 409 
Q 2525 409 2770 889 
Q 3016 1369 3016 2328 
Q 3016 3291 2770 3770 
Q 2525 4250 2034 4250 
z
M 2034 4750 
Q 2819 4750 3233 4129 
Q 3647 3509 3647 2328 
Q 3647 1150 3233 529 
Q 2819 -91 2034 -91 
Q 1250 -91 836 529 
Q 422 1150 422 2328 
Q 422 3509 836 4129 
Q 1250 4750 2034 4750 
z
" transform="scale(0.015625)"/>
       </defs>
       <use xlink:href="#DejaVuSans-30"/>
      </g>
     </g>
    </g>
    <g id="text_5">
     <!-- Energy (eV) — relative to atomized ground state -->
     <g transform="translate(14.798438 375.417344) rotate(-90) scale(0.1 -0.1)">
      <defs>
       <path id="DejaVuSans-45" d="M 628 4666 
L 3578 4666 
L 3578 4134 
L 1259 4134 
L 1259 2753 
L 3481 2753 
L 3481 2222 
L 1259 2222 
L 1259 531 
L 3634 531 
L 3634 0 
L 628 0 
L 628 4666 
z
" transform="scale(0.015625)"/>
       <path id="DejaVuSans-6e" d="M 3513 2113 
L 3513 0 
L 2938 0 
L 2938 2094 
Q 2938 2591 2744 2837 
Q 2550 3084 2163 3084 
Q 1697 3084 1428 2787 
Q 1159 2491 1159 1978 
L 1159 0 
L 581 0 
L 581 3500 
L 1159 3500 
L 1159 2956 
Q 1366 3272 1645 3428 
Q 1925 3584 2291 3584 
Q 2894 3584 3203 3211 
Q 3513 2838 3513 2113 
z
" transform="scale(0.015625)"/>
       <path id="DejaVuSans-65" d="M 3597 1894 
L 3597 1613 
L 953 1613 
Q 991 1019 1311 708 
Q 1631 397 2203 397 
Q 2534 397 2845 478 
Q 3156 559 3463 722 
L 3463 178 
Q 3153 47 2828 -22 
Q 2503 -91 2169 -91 
Q 1331 -91 842 396 
Q 353 884 353 1716 
Q 353 2575 817 3079 
Q 1281 3584 2069 3584 
Q 2775 3584 3186 3129 
Q 3597 2675 3597 1894 
z
M 3022 2063 
Q 3016 2534 2758 2815 
Q 2500 3097 2075 3097 
Q 1594 3097 1305 2825 
Q 1016 2553 972 2059 
L 3022 2063 
z
" transform="scale(0.015625)"/>
       <path id="DejaVuSans-72" d="M 2631 2963 
Q 2534 3019 2420 3045 
Q 2306 3072 2169 3072 
Q 1681 3072 1420 2755 
Q 1159 2438 1159 1844 
L 1159 0 
L 581 0 
L 581 3500 
L 1159 3500 
L 1159 2956 
Q 1341 3275 1631 3429 
Q 1922 3584 2338 3584 
Q 2397 3584 2469 3576 
Q 2541 3569 2628 3553 
L 2631 2963 
z
" transform="scale(0.015625)"/>
       <path id="DejaVuSans-67" d="M 2906 1791 
Q 2906 2416 2648 2759 
Q 2391 3103 1925 3103 
Q 1463 3103 1205 2759 
Q 947 2416 947 1791 
Q 947 1169 1205 825 
Q 1463 481 1925 481 
Q 2391 481 2648 825 
Q 2906 1169 2906 1791 
z
M 3481 434 
Q 3481 -459 3084 -895 
Q 2688 -1331 1869 -1331 
Q 1566 -1331 1297 -1286 
Q 1028 -1241 775 -1147 
L 775 -588 
Q 1028 -725 1275 -790 
Q 1522 -856 1778 -856 
Q 2344 -856 2625 -561 
Q 2906 -266 2906 331 
L 2906 616 
Q 2728 306 2450 153 
Q 2172 0 1784 0 
Q 1141 0 747 490 
Q 353 981 353 1791 
Q 353 2603 747 3093 
Q 1141 3584 1784 3584 
Q 2172 3584 2450 3431 
Q 2728 3278 2906 2969 
L 2906 3500 
L 3481 3500 
L 3481 434 
z
" transform="scale(0.015625)"/>
       <path id="DejaVuSans-79" d="M 2059 -325 
Q 1816 -950 1584 -1140 
Q 1353 -1331 966 -1331 
L 506 -1331 
L 506 -850 
L 844 -850 
Q 1081 -850 1212 -737 
Q 1344 -625 1503 -206 
L 1606 56 
L 191 3500 
L 800 3500 
L 1894 763 
L 2988 3500 
L 3597 3500 
L 2059 -325 
z
" transform="scale(0.015625)"/>
       <path id="DejaVuSans-20" transform="scale(0.015625)"/>
       <path id="DejaVuSans-28" d="M 1984 4856 
Q 1566 4138 1362 3434 
Q 1159 2731 1159 2009 
Q 1159 1288 1364 580 
Q 1569 -128 1984 -844 
L 1484 -844 
Q 1016 -109 783 600 
Q 550 1309 550 2009 
Q 550 2706 781 3412 
Q 1013 4119 1484 4856 
L 1984 4856 
z
" transform="scale(0.015625)"/>
       <path id="DejaVuSans-56" d="M 1831 0 
L 50 4666 
L 709 4666 
L 2188 738 
L 3669 4666 
L 4325 4666 
L 2547 0 
L 1831 0 
z
" transform="scale(0.015625)"/>
       <path id="DejaVuSans-29" d="M 513 4856 
L 1013 4856 
Q 1481 4119 1714 3412 
Q 1947 2706 1947 2009 
Q 1947 1309 1714 600 
Q 1481 -109 1013 -844 
L 513 -844 
Q 928 -128 1133 580 
Q 1338 1288 1338 2009 
Q 1338 2731 1133 3434 
Q 928 4138 513 4856 
z
" transform="scale(0.015625)"/>
       <path id="DejaVuSans-2014" d="M 313 1978 
L 6088 1978 
L 6088 1528 
L 313 1528 
L 313 1978 
z
" transform="scale(0.015625)"/>
       <path id="DejaVuSans-6c" d="M 603 4863 
L 1178 4863 
L 1178 0 
L 603 0 
L 603 4863 
z
" transform="scale(0.015625)"/>
       <path id="DejaVuSans-61" d="M 2194 1759 
Q 1497 1759 1228 1600 
Q 959 1441 959 1056 
Q 959 750 1161 570 
Q 1363 391 1709 391 
Q 2188 391 2477 730 
Q 2766 1069 2766 1631 
L 2766 1759 
L 2194 1759 
z
M 3341 1997 
L 3341 0 
L 2766 0 
L 2766 531 
Q 2569 213 2275 61 
Q 1981 -91 1556 -91 
Q 1019 -91 701 211 
Q 384 513 384 1019 
Q 384 1609 779 1909 
Q 1175 2209 1959 2209 
L 2766 2209 
L 2766 2266 
Q 2766 2663 2505 2880 
Q 2244 3097 1772 3097 
Q 1472 3097 1187 3025 
Q 903 2953 641 2809 
L 641 3341 
Q 956 3463 1253 3523 
Q 1550 3584 1831 3584 
Q 2591 3584 2966 3190 
Q 3341 2797 3341 1997 
z
" transform="scale(0.015625)"/>
       <path id="DejaVuSans-74" d="M 1172 4494 
L 1172 3500 
L 2356 3500 
L 2356 3053 
L 1172 3053 
L 1172 1153 
Q 1172 725 1289 603 
Q 1406 481 1766 481 
L 2356 481 
L 2356 0 
L 1766 0 
Q 1100 0 847 248 
Q 594 497 594 1153 
L 594 3053 
L 172 3053 
L 172 3500 
L 594 3500 
L 594 4494 
L 1172 4494 
z
" transform="scale(0.015625)"/>
       <path id="DejaVuSans-69" d="M 603 3500 
L 1178 3500 
L 1178 0 
L 603 0 
L 603 3500 
z
M 603 4863 
L 1178 4863 
L 1178 4134 
L 603 4134 
L 603 4863 
z
" transform="scale(0.015625)"/>
       <path id="DejaVuSans-76" d="M 191 3500 
L 800 3500 
L 1894 563 
L 2988 3500 
L 3597 3500 
L 2284 0 
L 1503 0 
L 191 3500 
z
" transform="scale(0.015625)"/>
       <path id="DejaVuSans-6f" d="M 1959 3097 
Q 1497 3097 1228 2736 
Q 959 2375 959 1747 
Q 959 1119 1226 758 
Q 1494 397 1959 397 
Q 2419 397 2687 759 
Q 2956 1122 2956 1747 
Q 2956 2369 2687 2733 
Q 2419 3097 1959 3097 
z
M 1959 3584 
Q 2709 3584 3137 3096 
Q 3566 2609 3566 1747 
Q 3566 888 3137 398 
Q 2709 -91 1959 -91 
Q 1206 -91 779 398 
Q 353 888 353 1747 
Q 353 2609 779 3096 
Q 1206 3584 1959 3584 
z
" transform="scale(0.015625)"/>
       <path id="DejaVuSans-6d" d="M 3328 2828 
Q 3544 3216 3844 3400 
Q 4144 3584 4550 3584 
Q 5097 3584 5394 3201 
Q 5691 2819 5691 2113 
L 5691 0 
L 5113 0 
L 5113 2094 
Q 5113 2597 4934 2840 
Q 4756 3084 4391 3084 
Q 3944 3084 3684 2787 
Q 3425 2491 3425 1978 
L 3425 0 
L 2847 0 
L 2847 2094 
Q 2847 2600 2669 2842 
Q 2491 3084 2119 3084 
Q 1678 3084 1418 2786 
Q 1159 2488 1159 1978 
L 1159 0 
L 581 0 
L 581 3500 
L 1159 3500 
L 1159 2956 
Q 1356 3278 1631 3431 
Q 1906 3584 2284 3584 
Q 2666 3584 2933 3390 
Q 3200 3197 3328 2828 
z
" transform="scale(0.015625)"/>
       <path id="DejaVuSans-7a" d="M 353 3500 
L 3084 3500 
L 3084 2975 
L 922 459 
L 3084 459 
L 3084 0 
L 275 0 
L 275 525 
L 2438 3041 
L 353 3041 
L 353 3500 
z
" transform="scale(0.015625)"/>
       <path id="DejaVuSans-64" d="M 2906 2969 
L 2906 4863 
L 3481 4863 
L 3481 0 
L 2906 0 
L 2906 525 
Q 2725 213 2448 61 
Q 2172 -91 1784 -91 
Q 1150 -91 751 415 
Q 353 922 353 1747 
Q 353 2572 751 3078 
Q 1150 3584 1784 3584 
Q 2172 3584 2448 3432 
Q 2725 3281 2906 2969 
z
M 947 1747 
Q 947 1113 1208 752 
Q 1469 391 1925 391 
Q 2381 391 2643 752 
Q 2906 1113 2906 1747 
Q 2906 2381 2643 2742 
Q 2381 3103 1925 3103 
Q 1469 3103 1208 2742 
Q 947 2381 947 1747 
z
" transform="scale(0.015625)"/>
       <path id="DejaVuSans-75" d="M 544 1381 
L 544 3500 
L 1119 3500 
L 1119 1403 
Q 1119 906 1312 657 
Q 1506 409 1894 409 
Q 2359 409 2629 706 
Q 2900 1003 2900 1516 
L 2900 3500 
L 3475 3500 
L 3475 0 
L 2900 0 
L 2900 538 
Q 2691 219 2414 64 
Q 2138 -91 1772 -91 
Q 1169 -91 856 284 
Q 544 659 544 1381 
z
M 1991 3584 
L 1991 3584 
z
" transform="scale(0.015625)"/>
       <path id="DejaVuSans-73" d="M 2834 3397 
L 2834 2853 
Q 2591 2978 2328 3040 
Q 2066 3103 1784 3103 
Q 1356 3103 1142 2972 
Q 928 2841 928 2578 
Q 928 2378 1081 2264 
Q 1234 2150 1697 2047 
L 1894 2003 
Q 2506 1872 2764 1633 
Q 3022 1394 3022 966 
Q 3022 478 2636 193 
Q 2250 -91 1575 -91 
Q 1294 -91 989 -36 
Q 684 19 347 128 
L 347 722 
Q 666 556 975 473 
Q 1284 391 1588 391 
Q 1994 391 2212 530 
Q 2431 669 2431 922 
Q 2431 1156 2273 1281 
Q 2116 1406 1581 1522 
L 1381 1569 
Q 847 1681 609 1914 
Q 372 2147 372 2553 
Q 372 3047 722 3315 
Q 1072 3584 1716 3584 
Q 2034 3584 2315 3537 
Q 2597 3491 2834 3397 
z
" transform="scale(0.015625)"/>
      </defs>
      <use xlink:href="#DejaVuSans-45"/>
      <use xlink:href="#DejaVuSans-6e" x="63.183594"/>
      <use xlink:href="#DejaVuSans-65" x="126.5625"/>
      <use xlink:href="#DejaVuSans-72" x="188.085938"/>
      <use xlink:href="#DejaVuSans-67" x="227.449219"/>
      <use xlink:href="#DejaVuSans-79" x="290.925781"/>
      <use xlink:href="#DejaVuSans-20" x="350.105469"/>
      <use xlink:href="#DejaVuSans-28" x="381.892578"/>
      <use xlink:href="#DejaVuSans-65" x="420.90625"/>
      <use xlink:href="#DejaVuSans-56" x="482.429688"/>
      <use xlink:href="#DejaVuSans-29" x="550.837891"/>
      <use xlink:href="#DejaVuSans-20" x="589.851562"/>
      <use xlink:href="#DejaVuSans-2014" x="621.638672"/>
      <use xlink:href="#DejaVuSans-20" x="721.638672"/>
      <use xlink:href="#DejaVuSans-72" x="753.425781"/>
      <use xlink:href="#DejaVuSans-65" x="792.289062"/>
      <use xlink:href="#DejaVuSans-6c" x="853.8125"/>
      <use xlink:href="#DejaVuSans-61" x="881.595703"/>
      <use xlink:href="#DejaVuSans-74" x="942.875"/>
      <use xlink:href="#DejaVuSans-69" x="982.083984"/>
      <use xlink:href="#DejaVuSans-76" x="1009.867188"/>
      <use xlink:href="#DejaVuSans-65" x="1069.046875"/>
      <use xlink:href="#DejaVuSans-20" x="1130.570312"/>
      <use xlink:href="#DejaVuSans-74" x="1162.357422"/>
      <use xlink:href="#DejaVuSans-6f" x="1201.566406"/>
      <use xlink:href="#DejaVuSans-20" x="1262.748047"/>
      <use xlink:href="#DejaVuSans-61" x="1294.535156"/>
      <use xlink:href="#DejaVuSans-74" x="1355.814453"/>
      <use xlink:href="#DejaVuSans-6f" x="1395.023438"/>
      <use xlink:href="#DejaVuSans-6d" x="1456.205078"/>
      <use xlink:href="#DejaVuSans-69" x="1553.617188"/>
      <use xlink:href="#DejaVuSans-7a" x="1581.400391"/>
      <use xlink:href="#DejaVuSans-65" x="1633.890625"/>
      <use xlink:href="#DejaVuSans-64" x="1695.414062"/>
      <use xlink:href="#DejaVuSans-20" x="1758.890625"/>
      <use xlink:href="#DejaVuSans-67" x="1790.677734"/>
      <use xlink:href="#DejaVuSans-72" x="1854.154297"/>
      <use xlink:href="#DejaVuSans-6f" x="1893.017578"/>
      <use xlink:href="#DejaVuSans-75" x="1954.199219"/>
      <use xlink:href="#DejaVuSans-6e" x="2017.578125"/>
      <use xlink:href="#DejaVuSans-64" x="2080.957031"/>
      <use xlink:href="#DejaVuSans-20" x="2144.433594"/>
      <use xlink:href="#DejaVuSans-73" x="2176.220703"/>
      <use xlink:href="#DejaVuSans-74" x="2228.320312"/>
      <use xlink:href="#DejaVuSans-61" x="2267.529297"/>
      <use xlink:href="#DejaVuSans-74" x="2328.808594"/>
      <use xlink:href="#DejaVuSans-65" x="2368.017578"/>
     </g>
    </g>
   </g>
   <g id="LineCollection_1">
    <path d="M 97.146094 367.686839 
L 209.146094 367.686839 
" clip-path="url(#p3db5fb453a)" style="fill: none; stroke: #000000; stroke-width: 2"/>
   </g>
   <g id="LineCollection_2">
    <path d="M 573.146094 268.905368 
L 685.146094 268.905368 
" clip-path="url(#p3db5fb453a)" style="fill: none; stroke: #000000; stroke-width: 2"/>
   </g>
   <g id="LineCollection_3">
    <path d="M 349.146094 110.814839 
L 461.146094 110.814839 
" clip-path="url(#p3db5fb453a)" style="fill: none; stroke: #000000; stroke-width: 2"/>
   </g>
   <g id="LineCollection_4">
    <path d="M 220.346094 424.43471 
L 309.946094 424.43471 
" clip-path="url(#p3db5fb453a)" style="fill: none; stroke: #1f77b4; stroke-width: 2.6"/>
   </g>
   <g id="LineCollection_5">
    <path d="M 321.146094 344.334839 
L 433.146094 344.334839 
" clip-path="url(#p3db5fb453a)" style="fill: none; stroke: #1f77b4; stroke-width: 2.6"/>
   </g>
   <g id="LineCollection_6">
    <path d="M 444.346094 309.18129 
L 556.346094 309.18129 
" clip-path="url(#p3db5fb453a)" style="fill: none; stroke: #9467bd; stroke-width: 2.6"/>
   </g>
   <g id="LineCollection_7">
    <path d="M 220.346094 281.560645 
L 309.946094 281.560645 
" clip-path="url(#p3db5fb453a)" style="fill: none; stroke: #2ca02c; stroke-width: 2.6"/>
   </g>
   <g id="LineCollection_8">
    <path d="M 321.146094 256.450968 
L 433.146094 256.450968 
" clip-path="url(#p3db5fb453a)" style="fill: none; stroke: #d62728; stroke-width: 2.6"/>
   </g>
   <g id="LineCollection_9">
    <path d="M 97.146094 371.955484 
L 209.146094 371.955484 
" clip-path="url(#p3db5fb453a)" style="fill: none; stroke-dasharray: 8,4; stroke-dashoffset: 0; stroke: #1f77b4; stroke-width: 2"/>
   </g>
   <g id="LineCollection_10">
    <path d="M 573.146094 258.961935 
L 685.146094 258.961935 
" clip-path="url(#p3db5fb453a)" style="fill: none; stroke-dasharray: 8,4; stroke-dashoffset: 0; stroke: #9467bd; stroke-width: 2"/>
   </g>
   <g id="LineCollection_11">
    <path d="M 309.946094 301.648387 
L 321.146094 301.648387 
" clip-path="url(#p3db5fb453a)" style="fill: none; stroke-dasharray: 8,4; stroke-dashoffset: 0; stroke: #1f77b4; stroke-width: 2"/>
   </g>
   <g id="line2d_5">
    <path d="M 97.146094 367.686839 
L 97.146094 371.955484 
" clip-path="url(#p3db5fb453a)" style="fill: none; stroke-dasharray: 3.6,1.8; stroke-dashoffset: 0; stroke: #1f77b4; stroke-width: 0.9"/>
   </g>
   <g id="line2d_6">
    <path d="M 209.146094 371.955484 
L 220.346094 424.43471 
" clip-path="url(#p3db5fb453a)" style="fill: none; stroke-dasharray: 3.6,1.8; stroke-dashoffset: 0; stroke: #1f77b4; stroke-width: 0.9"/>
   </g>
   <g id="line2d_7">
    <path d="M 309.946094 424.43471 
L 309.946094 301.648387 
" clip-path="url(#p3db5fb453a)" style="fill: none; stroke-dasharray: 3.6,1.8; stroke-dashoffset: 0; stroke: #1f77b4; stroke-width: 0.9"/>
   </g>
   <g id="line2d_8">
    <path d="M 321.146094 301.648387 
L 321.146094 344.334839 
" clip-path="url(#p3db5fb453a)" style="fill: none; stroke-dasharray: 3.6,1.8; stroke-dashoffset: 0; stroke: #1f77b4; stroke-width: 0.9"/>
   </g>
   <g id="line2d_9">
    <path d="M 685.146094 268.905368 
L 685.146094 258.961935 
" clip-path="url(#p3db5fb453a)" style="fill: none; stroke-dasharray: 3.6,1.8; stroke-dashoffset: 0; stroke: #9467bd; stroke-width: 0.9"/>
   </g>
   <g id="line2d_10">
    <path d="M 573.146094 258.961935 
L 556.346094 309.18129 
" clip-path="url(#p3db5fb453a)" style="fill: none; stroke-dasharray: 3.6,1.8; stroke-dashoffset: 0; stroke: #9467bd; stroke-width: 0.9"/>
   </g>
   <g id="line2d_11">
    <path d="M 444.346094 309.18129 
L 433.146094 344.334839 
" clip-path="url(#p3db5fb453a)" style="fill: none; stroke-dasharray: 3.6,1.8; stroke-dashoffset: 0; stroke: #1f77b4; stroke-width: 0.9"/>
   </g>
   <g id="line2d_12">
    <path d="M 209.146094 367.686839 
L 220.346094 281.560645 
" clip-path="url(#p3db5fb453a)" style="fill: none; stroke-dasharray: 3.6,1.8; stroke-dashoffset: 0; stroke: #2ca02c; stroke-width: 0.9"/>
   </g>
   <g id="line2d_13">
    <path d="M 573.146094 268.905368 
L 433.146094 256.450968 
" clip-path="url(#p3db5fb453a)" style="fill: none; stroke-dasharray: 3.6,1.8; stroke-dashoffset: 0; stroke: #d62728; stroke-width: 0.9"/>
   </g>
   <g id="line2d_14">
    <path d="M 209.146094 367.686839 
L 349.146094 110.814839 
" clip-path="url(#p3db5fb453a)" style="fill: none; stroke: #808080; stroke-width: 0.7; stroke-linecap: square"/>
   </g>
   <g id="line2d_15">
    <path d="M 573.146094 268.905368 
L 461.146094 110.814839 
" clip-path="url(#p3db5fb453a)" style="fill: none; stroke: #808080; stroke-width: 0.7; stroke-linecap: square"/>
   </g>
   <g id="patch_3">
    <path d="M 41.146094 487.46 
L 41.146094 20.42 
" style="fill: none; stroke: #000000; stroke-width: 0.8; stroke-linejoin: miter; stroke-linecap: square"/>
   </g>
   <g id="text_6">
    <!-- O$_2$(X$^3\Sigma_g^-$) + O($^3$P) -->
    <g transform="translate(112.558594 355.077355) scale(0.085 -0.085)">
     <defs>
      <path id="DejaVuSans-Bold-4f" d="M 2719 3878 
Q 2169 3878 1866 3472 
Q 1563 3066 1563 2328 
Q 1563 1594 1866 1187 
Q 2169 781 2719 781 
Q 3272 781 3575 1187 
Q 3878 1594 3878 2328 
Q 3878 3066 3575 3472 
Q 3272 3878 2719 3878 
z
M 2719 4750 
Q 3844 4750 4481 4106 
Q 5119 3463 5119 2328 
Q 5119 1197 4481 553 
Q 3844 -91 2719 -91 
Q 1597 -91 958 553 
Q 319 1197 319 2328 
Q 319 3463 958 4106 
Q 1597 4750 2719 4750 
z
" transform="scale(0.015625)"/>
      <path id="DejaVuSans-Bold-28" d="M 2413 -844 
L 1484 -844 
Q 1006 -72 778 623 
Q 550 1319 550 2003 
Q 550 2688 779 3389 
Q 1009 4091 1484 4856 
L 2413 4856 
Q 2013 4116 1813 3408 
Q 1613 2700 1613 2009 
Q 1613 1319 1811 609 
Q 2009 -100 2413 -844 
z
" transform="scale(0.015625)"/>
      <path id="DejaVuSans-Bold-58" d="M 3188 2381 
L 4806 0 
L 3553 0 
L 2463 1594 
L 1381 0 
L 122 0 
L 1741 2381 
L 184 4666 
L 1441 4666 
L 2463 3163 
L 3481 4666 
L 4744 4666 
L 3188 2381 
z
" transform="scale(0.015625)"/>
      <path id="DejaVuSans-33" d="M 2597 2516 
Q 3050 2419 3304 2112 
Q 3559 1806 3559 1356 
Q 3559 666 3084 287 
Q 2609 -91 1734 -91 
Q 1441 -91 1130 -33 
Q 819 25 488 141 
L 488 750 
Q 750 597 1062 519 
Q 1375 441 1716 441 
Q 2309 441 2620 675 
Q 2931 909 2931 1356 
Q 2931 1769 2642 2001 
Q 2353 2234 1838 2234 
L 1294 2234 
L 1294 2753 
L 1863 2753 
Q 2328 2753 2575 2939 
Q 2822 3125 2822 3475 
Q 2822 3834 2567 4026 
Q 2313 4219 1838 4219 
Q 1578 4219 1281 4162 
Q 984 4106 628 3988 
L 628 4550 
Q 988 4650 1302 4700 
Q 1616 4750 1894 4750 
Q 2613 4750 3031 4423 
Q 3450 4097 3450 3541 
Q 3450 3153 3228 2886 
Q 3006 2619 2597 2516 
z
" transform="scale(0.015625)"/>
      <path id="DejaVuSans-3a3" d="M 1353 531 
L 3634 531 
L 3634 0 
L 628 0 
L 628 531 
L 2125 2481 
L 628 4134 
L 628 4666 
L 3578 4666 
L 3578 4134 
L 1353 4134 
L 2850 2494 
L 1353 531 
z
" transform="scale(0.015625)"/>
      <path id="DejaVuSans-Oblique-67" d="M 3816 3500 
L 3219 434 
Q 3047 -456 2561 -893 
Q 2075 -1331 1253 -1331 
Q 950 -1331 690 -1286 
Q 431 -1241 206 -1147 
L 313 -588 
Q 525 -725 762 -790 
Q 1000 -856 1269 -856 
Q 1816 -856 2167 -557 
Q 2519 -259 2631 300 
L 2681 563 
Q 2441 288 2122 144 
Q 1803 0 1434 0 
Q 903 0 598 351 
Q 294 703 294 1319 
Q 294 1803 478 2267 
Q 663 2731 997 3091 
Q 1219 3328 1514 3456 
Q 1809 3584 2131 3584 
Q 2484 3584 2746 3420 
Q 3009 3256 3138 2956 
L 3238 3500 
L 3816 3500 
z
M 2950 2216 
Q 2950 2641 2750 2872 
Q 2550 3103 2181 3103 
Q 1953 3103 1747 3012 
Q 1541 2922 1394 2759 
Q 1156 2491 1023 2127 
Q 891 1763 891 1375 
Q 891 944 1092 712 
Q 1294 481 1672 481 
Q 2219 481 2584 976 
Q 2950 1472 2950 2216 
z
" transform="scale(0.015625)"/>
      <path id="DejaVuSans-Bold-29" d="M 513 -844 
Q 913 -100 1113 609 
Q 1313 1319 1313 2009 
Q 1313 2700 1113 3408 
Q 913 4116 513 4856 
L 1441 4856 
Q 1916 4091 2145 3389 
Q 2375 2688 2375 2003 
Q 2375 1319 2147 623 
Q 1919 -72 1441 -844 
L 513 -844 
z
" transform="scale(0.015625)"/>
      <path id="DejaVuSans-Bold-20" transform="scale(0.015625)"/>
      <path id="DejaVuSans-Bold-2b" d="M 3053 4013 
L 3053 2375 
L 4684 2375 
L 4684 1638 
L 3053 1638 
L 3053 0 
L 2309 0 
L 2309 1638 
L 678 1638 
L 678 2375 
L 2309 2375 
L 2309 4013 
L 3053 4013 
z
" transform="scale(0.015625)"/>
      <path id="DejaVuSans-Bold-50" d="M 588 4666 
L 2584 4666 
Q 3475 4666 3951 4270 
Q 4428 3875 4428 3144 
Q 4428 2409 3951 2014 
Q 3475 1619 2584 1619 
L 1791 1619 
L 1791 0 
L 588 0 
L 588 4666 
z
M 1791 3794 
L 1791 2491 
L 2456 2491 
Q 2806 2491 2997 2661 
Q 3188 2831 3188 3144 
Q 3188 3456 2997 3625 
Q 2806 3794 2456 3794 
L 1791 3794 
z
" transform="scale(0.015625)"/>
     </defs>
     <use xlink:href="#DejaVuSans-Bold-4f" transform="translate(0 0.765625)"/>
     <use xlink:href="#DejaVuSans-32" transform="translate(85.966797 -15.640625) scale(0.7)"/>
     <use xlink:href="#DejaVuSans-Bold-28" transform="translate(133.237305 0.765625)"/>
     <use xlink:href="#DejaVuSans-Bold-58" transform="translate(178.94043 0.765625)"/>
     <use xlink:href="#DejaVuSans-33" transform="translate(256.99707 39.046875) scale(0.7)"/>
     <use xlink:href="#DejaVuSans-3a3" transform="translate(304.267578 0.765625)"/>
     <use xlink:href="#DejaVuSans-2212" transform="translate(382.045898 39.046875) scale(0.7)"/>
     <use xlink:href="#DejaVuSans-Oblique-67" transform="translate(368.408203 -26.578125) scale(0.7)"/>
     <use xlink:href="#DejaVuSans-Bold-29" transform="translate(457.070312 0.765625)"/>
     <use xlink:href="#DejaVuSans-Bold-20" transform="translate(502.773438 0.765625)"/>
     <use xlink:href="#DejaVuSans-Bold-2b" transform="translate(537.587891 0.765625)"/>
     <use xlink:href="#DejaVuSans-Bold-20" transform="translate(621.376953 0.765625)"/>
     <use xlink:href="#DejaVuSans-Bold-4f" transform="translate(656.191406 0.765625)"/>
     <use xlink:href="#DejaVuSans-Bold-28" transform="translate(741.201172 0.765625)"/>
     <use xlink:href="#DejaVuSans-33" transform="translate(787.861328 39.046875) scale(0.7)"/>
     <use xlink:href="#DejaVuSans-Bold-50" transform="translate(835.131836 0.765625)"/>
     <use xlink:href="#DejaVuSans-Bold-29" transform="translate(908.422852 0.765625)"/>
    </g>
   </g>
   <g id="text_7">
    <!-- O$_2$(X$^3\Sigma_g^-$) + O($^1$D) -->
    <g transform="translate(588.176094 256.295884) scale(0.085 -0.085)">
     <defs>
      <path id="DejaVuSans-31" d="M 794 531 
L 1825 531 
L 1825 4091 
L 703 3866 
L 703 4441 
L 1819 4666 
L 2450 4666 
L 2450 531 
L 3481 531 
L 3481 0 
L 794 0 
L 794 531 
z
" transform="scale(0.015625)"/>
      <path id="DejaVuSans-Bold-44" d="M 1791 3756 
L 1791 909 
L 2222 909 
Q 2959 909 3348 1275 
Q 3738 1641 3738 2338 
Q 3738 3031 3350 3393 
Q 2963 3756 2222 3756 
L 1791 3756 
z
M 588 4666 
L 1856 4666 
Q 2919 4666 3439 4514 
Q 3959 4363 4331 4000 
Q 4659 3684 4818 3271 
Q 4978 2859 4978 2338 
Q 4978 1809 4818 1395 
Q 4659 981 4331 666 
Q 3956 303 3431 151 
Q 2906 0 1856 0 
L 588 0 
L 588 4666 
z
" transform="scale(0.015625)"/>
     </defs>
     <use xlink:href="#DejaVuSans-Bold-4f" transform="translate(0 0.765625)"/>
     <use xlink:href="#DejaVuSans-32" transform="translate(85.966797 -15.640625) scale(0.7)"/>
     <use xlink:href="#DejaVuSans-Bold-28" transform="translate(133.237305 0.765625)"/>
     <use xlink:href="#DejaVuSans-Bold-58" transform="translate(178.94043 0.765625)"/>
     <use xlink:href="#DejaVuSans-33" transform="translate(256.99707 39.046875) scale(0.7)"/>
     <use xlink:href="#DejaVuSans-3a3" transform="translate(304.267578 0.765625)"/>
     <use xlink:href="#DejaVuSans-2212" transform="translate(382.045898 39.046875) scale(0.7)"/>
     <use xlink:href="#DejaVuSans-Oblique-67" transform="translate(368.408203 -26.578125) scale(0.7)"/>
     <use xlink:href="#DejaVuSans-Bold-29" transform="translate(457.070312 0.765625)"/>
     <use xlink:href="#DejaVuSans-Bold-20" transform="translate(502.773438 0.765625)"/>
     <use xlink:href="#DejaVuSans-Bold-2b" transform="translate(537.587891 0.765625)"/>
     <use xlink:href="#DejaVuSans-Bold-20" transform="translate(621.376953 0.765625)"/>
     <use xlink:href="#DejaVuSans-Bold-4f" transform="translate(656.191406 0.765625)"/>
     <use xlink:href="#DejaVuSans-Bold-28" transform="translate(741.201172 0.765625)"/>
     <use xlink:href="#DejaVuSans-31" transform="translate(787.861328 39.046875) scale(0.7)"/>
     <use xlink:href="#DejaVuSans-Bold-44" transform="translate(835.131836 0.765625)"/>
     <use xlink:href="#DejaVuSans-Bold-29" transform="translate(918.139648 0.765625)"/>
    </g>
   </g>
   <g id="text_8">
    <!-- O + O + O -->
    <g transform="translate(381.265742 100.00762) scale(0.085 -0.085)">
     <use xlink:href="#DejaVuSans-Bold-4f"/>
     <use xlink:href="#DejaVuSans-Bold-20" x="85.009766"/>
     <use xlink:href="#DejaVuSans-Bold-2b" x="119.824219"/>
     <use xlink:href="#DejaVuSans-Bold-20" x="203.613281"/>
     <use xlink:href="#DejaVuSans-Bold-4f" x="238.427734"/>
     <use xlink:href="#DejaVuSans-Bold-20" x="323.4375"/>
     <use xlink:href="#DejaVuSans-Bold-2b" x="358.251953"/>
     <use xlink:href="#DejaVuSans-Bold-20" x="442.041016"/>
     <use xlink:href="#DejaVuSans-Bold-4f" x="476.855469"/>
    </g>
   </g>
   <g id="text_9">
    <!-- O$_3$(X $^1A_1$, C$_{2v}$ open) -->
    <g style="fill: #1f77b4" transform="translate(223.751094 413.610226) scale(0.085 -0.085)">
     <defs>
      <path id="DejaVuSans-4f" d="M 2522 4238 
Q 1834 4238 1429 3725 
Q 1025 3213 1025 2328 
Q 1025 1447 1429 934 
Q 1834 422 2522 422 
Q 3209 422 3611 934 
Q 4013 1447 4013 2328 
Q 4013 3213 3611 3725 
Q 3209 4238 2522 4238 
z
M 2522 4750 
Q 3503 4750 4090 4092 
Q 4678 3434 4678 2328 
Q 4678 1225 4090 567 
Q 3503 -91 2522 -91 
Q 1538 -91 948 565 
Q 359 1222 359 2328 
Q 359 3434 948 4092 
Q 1538 4750 2522 4750 
z
" transform="scale(0.015625)"/>
      <path id="DejaVuSans-58" d="M 403 4666 
L 1081 4666 
L 2241 2931 
L 3406 4666 
L 4084 4666 
L 2584 2425 
L 4184 0 
L 3506 0 
L 2194 1984 
L 872 0 
L 191 0 
L 1856 2491 
L 403 4666 
z
" transform="scale(0.015625)"/>
      <path id="DejaVuSans-Oblique-41" d="M 2356 4666 
L 3072 4666 
L 3938 0 
L 3278 0 
L 3084 1197 
L 984 1197 
L 325 0 
L -341 0 
L 2356 4666 
z
M 2584 4044 
L 1275 1722 
L 2988 1722 
L 2584 4044 
z
" transform="scale(0.015625)"/>
      <path id="DejaVuSans-2c" d="M 750 794 
L 1409 794 
L 1409 256 
L 897 -744 
L 494 -744 
L 750 256 
L 750 794 
z
" transform="scale(0.015625)"/>
      <path id="DejaVuSans-43" d="M 4122 4306 
L 4122 3641 
Q 3803 3938 3442 4084 
Q 3081 4231 2675 4231 
Q 1875 4231 1450 3742 
Q 1025 3253 1025 2328 
Q 1025 1406 1450 917 
Q 1875 428 2675 428 
Q 3081 428 3442 575 
Q 3803 722 4122 1019 
L 4122 359 
Q 3791 134 3420 21 
Q 3050 -91 2638 -91 
Q 1578 -91 968 557 
Q 359 1206 359 2328 
Q 359 3453 968 4101 
Q 1578 4750 2638 4750 
Q 3056 4750 3426 4639 
Q 3797 4528 4122 4306 
z
" transform="scale(0.015625)"/>
      <path id="DejaVuSans-Oblique-76" d="M 459 3500 
L 1069 3500 
L 1581 525 
L 3256 3500 
L 3866 3500 
L 1875 0 
L 1100 0 
L 459 3500 
z
" transform="scale(0.015625)"/>
      <path id="DejaVuSans-70" d="M 1159 525 
L 1159 -1331 
L 581 -1331 
L 581 3500 
L 1159 3500 
L 1159 2969 
Q 1341 3281 1617 3432 
Q 1894 3584 2278 3584 
Q 2916 3584 3314 3078 
Q 3713 2572 3713 1747 
Q 3713 922 3314 415 
Q 2916 -91 2278 -91 
Q 1894 -91 1617 61 
Q 1341 213 1159 525 
z
M 3116 1747 
Q 3116 2381 2855 2742 
Q 2594 3103 2138 3103 
Q 1681 3103 1420 2742 
Q 1159 2381 1159 1747 
Q 1159 1113 1420 752 
Q 1681 391 2138 391 
Q 2594 391 2855 752 
Q 3116 1113 3116 1747 
z
" transform="scale(0.015625)"/>
     </defs>
     <use xlink:href="#DejaVuSans-4f" transform="translate(0 0.684375)"/>
     <use xlink:href="#DejaVuSans-33" transform="translate(79.667969 -15.721875) scale(0.7)"/>
     <use xlink:href="#DejaVuSans-28" transform="translate(126.938477 0.684375)"/>
     <use xlink:href="#DejaVuSans-58" transform="translate(165.952148 0.684375)"/>
     <use xlink:href="#DejaVuSans-20" transform="translate(234.458008 0.684375)"/>
     <use xlink:href="#DejaVuSans-31" transform="translate(267.202148 38.965625) scale(0.7)"/>
     <use xlink:href="#DejaVuSans-Oblique-41" transform="translate(314.472656 0.684375)"/>
     <use xlink:href="#DejaVuSans-31" transform="translate(382.880859 -15.721875) scale(0.7)"/>
     <use xlink:href="#DejaVuSans-2c" transform="translate(430.151367 0.684375)"/>
     <use xlink:href="#DejaVuSans-20" transform="translate(461.938477 0.684375)"/>
     <use xlink:href="#DejaVuSans-43" transform="translate(493.725586 0.684375)"/>
     <use xlink:href="#DejaVuSans-32" transform="translate(564.506836 -15.721875) scale(0.7)"/>
     <use xlink:href="#DejaVuSans-Oblique-76" transform="translate(609.042969 -15.721875) scale(0.7)"/>
     <use xlink:href="#DejaVuSans-20" transform="translate(653.203125 0.684375)"/>
     <use xlink:href="#DejaVuSans-6f" transform="translate(684.990234 0.684375)"/>
     <use xlink:href="#DejaVuSans-70" transform="translate(746.171875 0.684375)"/>
     <use xlink:href="#DejaVuSans-65" transform="translate(809.648438 0.684375)"/>
     <use xlink:href="#DejaVuSans-6e" transform="translate(871.171875 0.684375)"/>
     <use xlink:href="#DejaVuSans-29" transform="translate(934.550781 0.684375)"/>
    </g>
   </g>
   <g id="text_10">
    <!-- O$_3$ ring (D$_{3h}$, $^1A_1^\prime$) -->
    <g style="fill: #1f77b4" transform="translate(340.511094 332.915355) scale(0.085 -0.085)">
     <defs>
      <path id="DejaVuSans-44" d="M 1259 4147 
L 1259 519 
L 2022 519 
Q 2988 519 3436 956 
Q 3884 1394 3884 2338 
Q 3884 3275 3436 3711 
Q 2988 4147 2022 4147 
L 1259 4147 
z
M 628 4666 
L 1925 4666 
Q 3281 4666 3915 4102 
Q 4550 3538 4550 2338 
Q 4550 1131 3912 565 
Q 3275 0 1925 0 
L 628 0 
L 628 4666 
z
" transform="scale(0.015625)"/>
      <path id="DejaVuSans-Oblique-68" d="M 3566 2113 
L 3156 0 
L 2578 0 
L 2988 2091 
Q 3016 2238 3031 2350 
Q 3047 2463 3047 2528 
Q 3047 2791 2881 2937 
Q 2716 3084 2419 3084 
Q 1956 3084 1617 2771 
Q 1278 2459 1178 1941 
L 800 0 
L 225 0 
L 1172 4863 
L 1747 4863 
L 1375 2950 
Q 1594 3244 1934 3414 
Q 2275 3584 2650 3584 
Q 3113 3584 3367 3334 
Q 3622 3084 3622 2631 
Q 3622 2519 3608 2391 
Q 3594 2263 3566 2113 
z
" transform="scale(0.015625)"/>
      <path id="Cmsy10-30" d="M 225 347 
Q 184 359 184 409 
L 966 3316 
Q 1003 3434 1093 3506 
Q 1184 3578 1300 3578 
Q 1450 3578 1564 3479 
Q 1678 3381 1678 3231 
Q 1678 3166 1644 3084 
L 488 319 
Q 466 275 428 275 
Q 394 275 320 306 
Q 247 338 225 347 
z
" transform="scale(0.015625)"/>
     </defs>
     <use xlink:href="#DejaVuSans-4f" transform="translate(0 0.684375)"/>
     <use xlink:href="#DejaVuSans-33" transform="translate(79.667969 -15.721875) scale(0.7)"/>
     <use xlink:href="#DejaVuSans-20" transform="translate(126.938477 0.684375)"/>
     <use xlink:href="#DejaVuSans-72" transform="translate(158.725586 0.684375)"/>
     <use xlink:href="#DejaVuSans-69" transform="translate(199.838867 0.684375)"/>
     <use xlink:href="#DejaVuSans-6e" transform="translate(227.62207 0.684375)"/>
     <use xlink:href="#DejaVuSans-67" transform="translate(291.000977 0.684375)"/>
     <use xlink:href="#DejaVuSans-20" transform="translate(354.477539 0.684375)"/>
     <use xlink:href="#DejaVuSans-28" transform="translate(386.264648 0.684375)"/>
     <use xlink:href="#DejaVuSans-44" transform="translate(425.27832 0.684375)"/>
     <use xlink:href="#DejaVuSans-33" transform="translate(503.237305 -15.721875) scale(0.7)"/>
     <use xlink:href="#DejaVuSans-Oblique-68" transform="translate(547.773438 -15.721875) scale(0.7)"/>
     <use xlink:href="#DejaVuSans-2c" transform="translate(594.873047 0.684375)"/>
     <use xlink:href="#DejaVuSans-20" transform="translate(626.660156 0.684375)"/>
     <use xlink:href="#DejaVuSans-31" transform="translate(659.404297 38.965625) scale(0.7)"/>
     <use xlink:href="#DejaVuSans-Oblique-41" transform="translate(706.674805 0.684375)"/>
     <use xlink:href="#Cmsy10-30" transform="translate(782.099779 38.965625) scale(0.7)"/>
     <use xlink:href="#DejaVuSans-31" transform="translate(775.083008 -26.659375) scale(0.7)"/>
     <use xlink:href="#DejaVuSans-29" transform="translate(822.353516 0.684375)"/>
    </g>
   </g>
   <g id="text_11">
    <!-- O$_3$($^1A^{\prime\prime}$, bent) -->
    <g style="fill: #9467bd" transform="translate(472.211094 298.374072) scale(0.085 -0.085)">
     <defs>
      <path id="DejaVuSans-62" d="M 3116 1747 
Q 3116 2381 2855 2742 
Q 2594 3103 2138 3103 
Q 1681 3103 1420 2742 
Q 1159 2381 1159 1747 
Q 1159 1113 1420 752 
Q 1681 391 2138 391 
Q 2594 391 2855 752 
Q 3116 1113 3116 1747 
z
M 1159 2969 
Q 1341 3281 1617 3432 
Q 1894 3584 2278 3584 
Q 2916 3584 3314 3078 
Q 3713 2572 3713 1747 
Q 3713 922 3314 415 
Q 2916 -91 2278 -91 
Q 1894 -91 1617 61 
Q 1341 213 1159 525 
L 1159 0 
L 581 0 
L 581 4863 
L 1159 4863 
L 1159 2969 
z
" transform="scale(0.015625)"/>
     </defs>
     <use xlink:href="#DejaVuSans-4f" transform="translate(0 0.684375)"/>
     <use xlink:href="#DejaVuSans-33" transform="translate(79.667969 -15.721875) scale(0.7)"/>
     <use xlink:href="#DejaVuSans-28" transform="translate(126.938477 0.684375)"/>
     <use xlink:href="#DejaVuSans-31" transform="translate(166.90918 38.965625) scale(0.7)"/>
     <use xlink:href="#DejaVuSans-Oblique-41" transform="translate(214.179688 0.684375)"/>
     <use xlink:href="#Cmsy10-30" transform="translate(289.604661 38.965625) scale(0.7)"/>
     <use xlink:href="#Cmsy10-30" transform="translate(308.847826 38.965625) scale(0.7)"/>
     <use xlink:href="#DejaVuSans-2c" transform="translate(330.825365 0.684375)"/>
     <use xlink:href="#DejaVuSans-20" transform="translate(362.612474 0.684375)"/>
     <use xlink:href="#DejaVuSans-62" transform="translate(394.399583 0.684375)"/>
     <use xlink:href="#DejaVuSans-65" transform="translate(457.876146 0.684375)"/>
     <use xlink:href="#DejaVuSans-6e" transform="translate(519.399583 0.684375)"/>
     <use xlink:href="#DejaVuSans-74" transform="translate(582.77849 0.684375)"/>
     <use xlink:href="#DejaVuSans-29" transform="translate(621.987474 0.684375)"/>
    </g>
   </g>
   <g id="text_12">
    <!-- O$_3$($^3A^\prime$, bent) -->
    <g style="fill: #2ca02c" transform="translate(237.861094 270.753427) scale(0.085 -0.085)">
     <use xlink:href="#DejaVuSans-4f" transform="translate(0 0.765625)"/>
     <use xlink:href="#DejaVuSans-33" transform="translate(79.667969 -15.640625) scale(0.7)"/>
     <use xlink:href="#DejaVuSans-28" transform="translate(126.938477 0.765625)"/>
     <use xlink:href="#DejaVuSans-33" transform="translate(166.90918 39.046875) scale(0.7)"/>
     <use xlink:href="#DejaVuSans-Oblique-41" transform="translate(214.179688 0.765625)"/>
     <use xlink:href="#Cmsy10-30" transform="translate(289.604661 39.046875) scale(0.7)"/>
     <use xlink:href="#DejaVuSans-2c" transform="translate(311.582201 0.765625)"/>
     <use xlink:href="#DejaVuSans-20" transform="translate(343.36931 0.765625)"/>
     <use xlink:href="#DejaVuSans-62" transform="translate(375.156419 0.765625)"/>
     <use xlink:href="#DejaVuSans-65" transform="translate(438.632982 0.765625)"/>
     <use xlink:href="#DejaVuSans-6e" transform="translate(500.156419 0.765625)"/>
     <use xlink:href="#DejaVuSans-74" transform="translate(563.535326 0.765625)"/>
     <use xlink:href="#DejaVuSans-29" transform="translate(602.74431 0.765625)"/>
    </g>
   </g>
   <g id="text_13">
    <!-- O$_3$($^3A^{\prime\prime}$, bent) -->
    <g style="fill: #d62728" transform="translate(349.011094 245.643749) scale(0.085 -0.085)">
     <use xlink:href="#DejaVuSans-4f" transform="translate(0 0.765625)"/>
     <use xlink:href="#DejaVuSans-33" transform="translate(79.667969 -15.640625) scale(0.7)"/>
     <use xlink:href="#DejaVuSans-28" transform="translate(126.938477 0.765625)"/>
     <use xlink:href="#DejaVuSans-33" transform="translate(166.90918 39.046875) scale(0.7)"/>
     <use xlink:href="#DejaVuSans-Oblique-41" transform="translate(214.179688 0.765625)"/>
     <use xlink:href="#Cmsy10-30" transform="translate(289.604661 39.046875) scale(0.7)"/>
     <use xlink:href="#Cmsy10-30" transform="translate(308.847826 39.046875) scale(0.7)"/>
     <use xlink:href="#DejaVuSans-2c" transform="translate(330.825365 0.765625)"/>
     <use xlink:href="#DejaVuSans-20" transform="translate(362.612474 0.765625)"/>
     <use xlink:href="#DejaVuSans-62" transform="translate(394.399583 0.765625)"/>
     <use xlink:href="#DejaVuSans-65" transform="translate(457.876146 0.765625)"/>
     <use xlink:href="#DejaVuSans-6e" transform="translate(519.399583 0.765625)"/>
     <use xlink:href="#DejaVuSans-74" transform="translate(582.77849 0.765625)"/>
     <use xlink:href="#DejaVuSans-29" transform="translate(621.987474 0.765625)"/>
    </g>
   </g>
   <g id="text_14">
    <!-- O$_2$+O$\to$O$_3$(X) TS ($^1A^\prime$) -->
    <g style="fill: #1f77b4" transform="translate(110.786094 361.25225) scale(0.08 -0.08)">
     <defs>
      <path id="DejaVuSans-Oblique-4f" d="M 2919 4238 
Q 2400 4238 2003 3986 
Q 1606 3734 1313 3219 
Q 1125 2891 1026 2522 
Q 928 2153 928 1778 
Q 928 1128 1239 775 
Q 1550 422 2119 422 
Q 2631 422 3032 676 
Q 3434 931 3719 1434 
Q 3909 1772 4009 2142 
Q 4109 2513 4109 2881 
Q 4109 3528 3796 3883 
Q 3484 4238 2919 4238 
z
M 2100 -91 
Q 1241 -91 748 418 
Q 256 928 256 1813 
Q 256 2319 448 2847 
Q 641 3375 978 3788 
Q 1375 4272 1862 4511 
Q 2350 4750 2938 4750 
Q 3794 4750 4287 4245 
Q 4781 3741 4781 2869 
Q 4781 2331 4593 1812 
Q 4406 1294 4056 872 
Q 3656 384 3173 146 
Q 2691 -91 2100 -91 
z
" transform="scale(0.015625)"/>
      <path id="DejaVuSans-Oblique-2b" d="M 2944 4013 
L 2944 2272 
L 4684 2272 
L 4684 1741 
L 2944 1741 
L 2944 0 
L 2419 0 
L 2419 1741 
L 678 1741 
L 678 2272 
L 2419 2272 
L 2419 4013 
L 2944 4013 
z
" transform="scale(0.015625)"/>
      <path id="DejaVuSans-2192" d="M 5050 2147 
L 5050 1866 
L 3822 638 
L 3447 1013 
L 4175 1741 
L 366 1741 
L 366 2272 
L 4175 2272 
L 3447 3000 
L 3822 3375 
L 5050 2147 
z
" transform="scale(0.015625)"/>
      <path id="DejaVuSans-Oblique-28" d="M 2731 4856 
Q 1903 3822 1495 2892 
Q 1088 1963 1088 1100 
Q 1088 606 1206 120 
Q 1325 -366 1563 -844 
L 1063 -844 
Q 775 -306 634 201 
Q 494 709 494 1197 
Q 494 2125 923 3036 
Q 1353 3947 2222 4856 
L 2731 4856 
z
" transform="scale(0.015625)"/>
      <path id="DejaVuSans-Oblique-58" d="M 878 4666 
L 1516 4666 
L 2316 2981 
L 3763 4666 
L 4500 4666 
L 2578 2438 
L 3738 0 
L 3103 0 
L 2163 1966 
L 459 0 
L -275 0 
L 1906 2509 
L 878 4666 
z
" transform="scale(0.015625)"/>
      <path id="DejaVuSans-Oblique-29" d="M -397 -844 
Q 434 191 840 1120 
Q 1247 2050 1247 2913 
Q 1247 3406 1130 3892 
Q 1013 4378 775 4856 
L 1275 4856 
Q 1563 4316 1703 3812 
Q 1844 3309 1844 2822 
Q 1844 1891 1411 973 
Q 978 56 116 -844 
L -397 -844 
z
" transform="scale(0.015625)"/>
      <path id="DejaVuSans-Oblique-20" transform="scale(0.015625)"/>
      <path id="DejaVuSans-Oblique-54" d="M 378 4666 
L 4325 4666 
L 4225 4134 
L 2559 4134 
L 1759 0 
L 1125 0 
L 1925 4134 
L 275 4134 
L 378 4666 
z
" transform="scale(0.015625)"/>
      <path id="DejaVuSans-Oblique-53" d="M 3859 4513 
L 3738 3897 
Q 3422 4066 3111 4152 
Q 2800 4238 2509 4238 
Q 1944 4238 1609 3991 
Q 1275 3744 1275 3334 
Q 1275 3109 1398 2989 
Q 1522 2869 2034 2731 
L 2413 2638 
Q 3053 2472 3303 2217 
Q 3553 1963 3553 1503 
Q 3553 797 2998 353 
Q 2444 -91 1538 -91 
Q 1166 -91 791 -17 
Q 416 56 38 206 
L 166 856 
Q 513 641 861 531 
Q 1209 422 1556 422 
Q 2147 422 2503 684 
Q 2859 947 2859 1369 
Q 2859 1650 2717 1795 
Q 2575 1941 2106 2059 
L 1728 2156 
Q 1081 2325 845 2545 
Q 609 2766 609 3163 
Q 609 3859 1145 4304 
Q 1681 4750 2541 4750 
Q 2875 4750 3203 4690 
Q 3531 4631 3859 4513 
z
" transform="scale(0.015625)"/>
     </defs>
     <use xlink:href="#DejaVuSans-Oblique-4f" transform="translate(0 0.684375)"/>
     <use xlink:href="#DejaVuSans-32" transform="translate(79.667969 -15.721875) scale(0.7)"/>
     <use xlink:href="#DejaVuSans-Oblique-2b" transform="translate(126.938477 0.684375)"/>
     <use xlink:href="#DejaVuSans-Oblique-4f" transform="translate(210.727539 0.684375)"/>
     <use xlink:href="#DejaVuSans-2192" transform="translate(289.438477 0.684375)"/>
     <use xlink:href="#DejaVuSans-Oblique-4f" transform="translate(373.227539 0.684375)"/>
     <use xlink:href="#DejaVuSans-33" transform="translate(452.895508 -15.721875) scale(0.7)"/>
     <use xlink:href="#DejaVuSans-Oblique-28" transform="translate(500.166016 0.684375)"/>
     <use xlink:href="#DejaVuSans-Oblique-58" transform="translate(539.179688 0.684375)"/>
     <use xlink:href="#DejaVuSans-Oblique-29" transform="translate(607.685547 0.684375)"/>
     <use xlink:href="#DejaVuSans-Oblique-20" transform="translate(646.699219 0.684375)"/>
     <use xlink:href="#DejaVuSans-Oblique-54" transform="translate(678.486328 0.684375)"/>
     <use xlink:href="#DejaVuSans-Oblique-53" transform="translate(739.570312 0.684375)"/>
     <use xlink:href="#DejaVuSans-Oblique-20" transform="translate(803.046875 0.684375)"/>
     <use xlink:href="#DejaVuSans-Oblique-28" transform="translate(834.833984 0.684375)"/>
     <use xlink:href="#DejaVuSans-31" transform="translate(874.804688 38.965625) scale(0.7)"/>
     <use xlink:href="#DejaVuSans-Oblique-41" transform="translate(922.075195 0.684375)"/>
     <use xlink:href="#Cmsy10-30" transform="translate(997.500169 38.965625) scale(0.7)"/>
     <use xlink:href="#DejaVuSans-Oblique-29" transform="translate(1019.477708 0.684375)"/>
    </g>
   </g>
   <g id="text_15">
    <!-- O$_2$+O($^1$D) TS ($^1A^{\prime\prime}$) -->
    <g style="fill: #9467bd" transform="translate(592.186094 248.258702) scale(0.08 -0.08)">
     <defs>
      <path id="DejaVuSans-Oblique-44" d="M 1081 4666 
L 2438 4666 
Q 3519 4666 4070 4208 
Q 4622 3750 4622 2847 
Q 4622 2250 4412 1698 
Q 4203 1147 3834 769 
Q 3463 381 2891 190 
Q 2319 0 1538 0 
L 172 0 
L 1081 4666 
z
M 1613 4147 
L 909 519 
L 1734 519 
Q 2794 519 3375 1128 
Q 3956 1738 3956 2847 
Q 3956 3519 3581 3833 
Q 3206 4147 2406 4147 
L 1613 4147 
z
" transform="scale(0.015625)"/>
     </defs>
     <use xlink:href="#DejaVuSans-Oblique-4f" transform="translate(0 0.684375)"/>
     <use xlink:href="#DejaVuSans-32" transform="translate(79.667969 -15.721875) scale(0.7)"/>
     <use xlink:href="#DejaVuSans-Oblique-2b" transform="translate(126.938477 0.684375)"/>
     <use xlink:href="#DejaVuSans-Oblique-4f" transform="translate(210.727539 0.684375)"/>
     <use xlink:href="#DejaVuSans-Oblique-28" transform="translate(289.438477 0.684375)"/>
     <use xlink:href="#DejaVuSans-31" transform="translate(329.40918 38.965625) scale(0.7)"/>
     <use xlink:href="#DejaVuSans-Oblique-44" transform="translate(376.679688 0.684375)"/>
     <use xlink:href="#DejaVuSans-Oblique-29" transform="translate(453.681641 0.684375)"/>
     <use xlink:href="#DejaVuSans-Oblique-20" transform="translate(492.695312 0.684375)"/>
     <use xlink:href="#DejaVuSans-Oblique-54" transform="translate(524.482422 0.684375)"/>
     <use xlink:href="#DejaVuSans-Oblique-53" transform="translate(585.566406 0.684375)"/>
     <use xlink:href="#DejaVuSans-Oblique-20" transform="translate(649.042969 0.684375)"/>
     <use xlink:href="#DejaVuSans-Oblique-28" transform="translate(680.830078 0.684375)"/>
     <use xlink:href="#DejaVuSans-31" transform="translate(720.800781 38.965625) scale(0.7)"/>
     <use xlink:href="#DejaVuSans-Oblique-41" transform="translate(768.071289 0.684375)"/>
     <use xlink:href="#Cmsy10-30" transform="translate(843.496263 38.965625) scale(0.7)"/>
     <use xlink:href="#Cmsy10-30" transform="translate(862.739427 38.965625) scale(0.7)"/>
     <use xlink:href="#DejaVuSans-Oblique-29" transform="translate(884.716966 0.684375)"/>
    </g>
   </g>
   <g id="text_16">
    <!-- open$\leftrightarrow$ring TS -->
    <g style="fill: #1f77b4" transform="translate(286.546094 290.928903) scale(0.08 -0.08)">
     <defs>
      <path id="DejaVuSans-Oblique-6f" d="M 1625 -91 
Q 1009 -91 651 289 
Q 294 669 294 1325 
Q 294 1706 417 2101 
Q 541 2497 738 2766 
Q 1047 3184 1428 3384 
Q 1809 3584 2291 3584 
Q 2888 3584 3255 3212 
Q 3622 2841 3622 2241 
Q 3622 1825 3500 1412 
Q 3378 1000 3181 728 
Q 2875 309 2494 109 
Q 2113 -91 1625 -91 
z
M 891 1344 
Q 891 869 1089 633 
Q 1288 397 1691 397 
Q 2269 397 2648 901 
Q 3028 1406 3028 2181 
Q 3028 2634 2825 2865 
Q 2622 3097 2228 3097 
Q 1903 3097 1650 2945 
Q 1397 2794 1197 2484 
Q 1050 2253 970 1956 
Q 891 1659 891 1344 
z
" transform="scale(0.015625)"/>
      <path id="DejaVuSans-Oblique-70" d="M 3175 2156 
Q 3175 2616 2975 2859 
Q 2775 3103 2400 3103 
Q 2144 3103 1911 2972 
Q 1678 2841 1497 2591 
Q 1319 2344 1212 1994 
Q 1106 1644 1106 1300 
Q 1106 863 1306 627 
Q 1506 391 1875 391 
Q 2147 391 2380 519 
Q 2613 647 2778 891 
Q 2956 1147 3065 1494 
Q 3175 1841 3175 2156 
z
M 1394 2969 
Q 1625 3272 1939 3428 
Q 2253 3584 2638 3584 
Q 3175 3584 3472 3232 
Q 3769 2881 3769 2247 
Q 3769 1728 3584 1258 
Q 3400 788 3053 416 
Q 2822 169 2531 39 
Q 2241 -91 1919 -91 
Q 1547 -91 1294 64 
Q 1041 219 916 525 
L 556 -1331 
L -19 -1331 
L 922 3500 
L 1497 3500 
L 1394 2969 
z
" transform="scale(0.015625)"/>
      <path id="DejaVuSans-Oblique-65" d="M 3078 2063 
Q 3088 2113 3092 2166 
Q 3097 2219 3097 2272 
Q 3097 2653 2873 2875 
Q 2650 3097 2266 3097 
Q 1838 3097 1509 2826 
Q 1181 2556 1013 2059 
L 3078 2063 
z
M 3578 1613 
L 903 1613 
Q 884 1494 878 1425 
Q 872 1356 872 1306 
Q 872 872 1139 634 
Q 1406 397 1894 397 
Q 2269 397 2603 481 
Q 2938 566 3225 728 
L 3116 159 
Q 2806 34 2476 -28 
Q 2147 -91 1806 -91 
Q 1078 -91 686 257 
Q 294 606 294 1247 
Q 294 1794 489 2264 
Q 684 2734 1063 3103 
Q 1306 3334 1642 3459 
Q 1978 3584 2356 3584 
Q 2950 3584 3301 3228 
Q 3653 2872 3653 2272 
Q 3653 2128 3634 1964 
Q 3616 1800 3578 1613 
z
" transform="scale(0.015625)"/>
      <path id="DejaVuSans-Oblique-6e" d="M 3566 2113 
L 3156 0 
L 2578 0 
L 2988 2091 
Q 3016 2238 3031 2350 
Q 3047 2463 3047 2528 
Q 3047 2791 2881 2937 
Q 2716 3084 2419 3084 
Q 1956 3084 1622 2776 
Q 1288 2469 1184 1941 
L 800 0 
L 225 0 
L 903 3500 
L 1478 3500 
L 1363 2950 
Q 1603 3253 1940 3418 
Q 2278 3584 2650 3584 
Q 3113 3584 3367 3334 
Q 3622 3084 3622 2631 
Q 3622 2519 3608 2391 
Q 3594 2263 3566 2113 
z
" transform="scale(0.015625)"/>
      <path id="DejaVuSans-2194" d="M 313 1866 
L 313 2147 
L 1541 3375 
L 1916 3000 
L 1188 2272 
L 4175 2272 
L 3447 3000 
L 3822 3375 
L 5050 2147 
L 5050 1866 
L 3822 638 
L 3447 1013 
L 4175 1741 
L 1188 1741 
L 1916 1013 
L 1541 638 
L 313 1866 
z
" transform="scale(0.015625)"/>
      <path id="DejaVuSans-Oblique-72" d="M 2853 2969 
Q 2766 3016 2653 3041 
Q 2541 3066 2413 3066 
Q 1953 3066 1609 2717 
Q 1266 2369 1153 1784 
L 800 0 
L 225 0 
L 909 3500 
L 1484 3500 
L 1375 2956 
Q 1603 3259 1920 3421 
Q 2238 3584 2597 3584 
Q 2691 3584 2781 3573 
Q 2872 3563 2963 3538 
L 2853 2969 
z
" transform="scale(0.015625)"/>
      <path id="DejaVuSans-Oblique-69" d="M 1172 4863 
L 1747 4863 
L 1606 4134 
L 1031 4134 
L 1172 4863 
z
M 909 3500 
L 1484 3500 
L 800 0 
L 225 0 
L 909 3500 
z
" transform="scale(0.015625)"/>
     </defs>
     <use xlink:href="#DejaVuSans-Oblique-6f" transform="translate(0 0.015625)"/>
     <use xlink:href="#DejaVuSans-Oblique-70" transform="translate(61.181641 0.015625)"/>
     <use xlink:href="#DejaVuSans-Oblique-65" transform="translate(124.658203 0.015625)"/>
     <use xlink:href="#DejaVuSans-Oblique-6e" transform="translate(186.181641 0.015625)"/>
     <use xlink:href="#DejaVuSans-2194" transform="translate(269.042969 0.015625)"/>
     <use xlink:href="#DejaVuSans-Oblique-72" transform="translate(372.314453 0.015625)"/>
     <use xlink:href="#DejaVuSans-Oblique-69" transform="translate(413.427734 0.015625)"/>
     <use xlink:href="#DejaVuSans-Oblique-6e" transform="translate(441.210938 0.015625)"/>
     <use xlink:href="#DejaVuSans-Oblique-67" transform="translate(504.589844 0.015625)"/>
     <use xlink:href="#DejaVuSans-Oblique-20" transform="translate(568.066406 0.015625)"/>
     <use xlink:href="#DejaVuSans-Oblique-54" transform="translate(599.853516 0.015625)"/>
     <use xlink:href="#DejaVuSans-Oblique-53" transform="translate(660.9375 0.015625)"/>
    </g>
   </g>
   <g id="text_17">
    <!-- O$_3$ correlation diagram — 9 electronic surfaces (UMN / NN / BNN / GP / LEPS) -->
    <g transform="translate(208.983594 14.42) scale(0.095 -0.095)">
     <defs>
      <path id="DejaVuSans-63" d="M 3122 3366 
L 3122 2828 
Q 2878 2963 2633 3030 
Q 2388 3097 2138 3097 
Q 1578 3097 1268 2742 
Q 959 2388 959 1747 
Q 959 1106 1268 751 
Q 1578 397 2138 397 
Q 2388 397 2633 464 
Q 2878 531 3122 666 
L 3122 134 
Q 2881 22 2623 -34 
Q 2366 -91 2075 -91 
Q 1284 -91 818 406 
Q 353 903 353 1747 
Q 353 2603 823 3093 
Q 1294 3584 2113 3584 
Q 2378 3584 2631 3529 
Q 2884 3475 3122 3366 
z
" transform="scale(0.015625)"/>
      <path id="DejaVuSansDisplay-2014" d="M 313 1978 
L 6088 1978 
L 6088 1528 
L 313 1528 
L 313 1978 
z
" transform="scale(0.015625)"/>
      <path id="DejaVuSans-39" d="M 703 97 
L 703 672 
Q 941 559 1184 500 
Q 1428 441 1663 441 
Q 2288 441 2617 861 
Q 2947 1281 2994 2138 
Q 2813 1869 2534 1725 
Q 2256 1581 1919 1581 
Q 1219 1581 811 2004 
Q 403 2428 403 3163 
Q 403 3881 828 4315 
Q 1253 4750 1959 4750 
Q 2769 4750 3195 4129 
Q 3622 3509 3622 2328 
Q 3622 1225 3098 567 
Q 2575 -91 1691 -91 
Q 1453 -91 1209 -44 
Q 966 3 703 97 
z
M 1959 2075 
Q 2384 2075 2632 2365 
Q 2881 2656 2881 3163 
Q 2881 3666 2632 3958 
Q 2384 4250 1959 4250 
Q 1534 4250 1286 3958 
Q 1038 3666 1038 3163 
Q 1038 2656 1286 2365 
Q 1534 2075 1959 2075 
z
" transform="scale(0.015625)"/>
      <path id="DejaVuSans-66" d="M 2375 4863 
L 2375 4384 
L 1825 4384 
Q 1516 4384 1395 4259 
Q 1275 4134 1275 3809 
L 1275 3500 
L 2222 3500 
L 2222 3053 
L 1275 3053 
L 1275 0 
L 697 0 
L 697 3053 
L 147 3053 
L 147 3500 
L 697 3500 
L 697 3744 
Q 697 4328 969 4595 
Q 1241 4863 1831 4863 
L 2375 4863 
z
" transform="scale(0.015625)"/>
      <path id="DejaVuSans-55" d="M 556 4666 
L 1191 4666 
L 1191 1831 
Q 1191 1081 1462 751 
Q 1734 422 2344 422 
Q 2950 422 3222 751 
Q 3494 1081 3494 1831 
L 3494 4666 
L 4128 4666 
L 4128 1753 
Q 4128 841 3676 375 
Q 3225 -91 2344 -91 
Q 1459 -91 1007 375 
Q 556 841 556 1753 
L 556 4666 
z
" transform="scale(0.015625)"/>
      <path id="DejaVuSans-4d" d="M 628 4666 
L 1569 4666 
L 2759 1491 
L 3956 4666 
L 4897 4666 
L 4897 0 
L 4281 0 
L 4281 4097 
L 3078 897 
L 2444 897 
L 1241 4097 
L 1241 0 
L 628 0 
L 628 4666 
z
" transform="scale(0.015625)"/>
      <path id="DejaVuSans-4e" d="M 628 4666 
L 1478 4666 
L 3547 763 
L 3547 4666 
L 4159 4666 
L 4159 0 
L 3309 0 
L 1241 3903 
L 1241 0 
L 628 0 
L 628 4666 
z
" transform="scale(0.015625)"/>
      <path id="DejaVuSans-2f" d="M 1625 4666 
L 2156 4666 
L 531 -594 
L 0 -594 
L 1625 4666 
z
" transform="scale(0.015625)"/>
      <path id="DejaVuSans-42" d="M 1259 2228 
L 1259 519 
L 2272 519 
Q 2781 519 3026 730 
Q 3272 941 3272 1375 
Q 3272 1813 3026 2020 
Q 2781 2228 2272 2228 
L 1259 2228 
z
M 1259 4147 
L 1259 2741 
L 2194 2741 
Q 2656 2741 2882 2914 
Q 3109 3088 3109 3444 
Q 3109 3797 2882 3972 
Q 2656 4147 2194 4147 
L 1259 4147 
z
M 628 4666 
L 2241 4666 
Q 2963 4666 3353 4366 
Q 3744 4066 3744 3513 
Q 3744 3084 3544 2831 
Q 3344 2578 2956 2516 
Q 3422 2416 3680 2098 
Q 3938 1781 3938 1306 
Q 3938 681 3513 340 
Q 3088 0 2303 0 
L 628 0 
L 628 4666 
z
" transform="scale(0.015625)"/>
      <path id="DejaVuSans-47" d="M 3809 666 
L 3809 1919 
L 2778 1919 
L 2778 2438 
L 4434 2438 
L 4434 434 
Q 4069 175 3628 42 
Q 3188 -91 2688 -91 
Q 1594 -91 976 548 
Q 359 1188 359 2328 
Q 359 3472 976 4111 
Q 1594 4750 2688 4750 
Q 3144 4750 3555 4637 
Q 3966 4525 4313 4306 
L 4313 3634 
Q 3963 3931 3569 4081 
Q 3175 4231 2741 4231 
Q 1884 4231 1454 3753 
Q 1025 3275 1025 2328 
Q 1025 1384 1454 906 
Q 1884 428 2741 428 
Q 3075 428 3337 486 
Q 3600 544 3809 666 
z
" transform="scale(0.015625)"/>
      <path id="DejaVuSans-50" d="M 1259 4147 
L 1259 2394 
L 2053 2394 
Q 2494 2394 2734 2622 
Q 2975 2850 2975 3272 
Q 2975 3691 2734 3919 
Q 2494 4147 2053 4147 
L 1259 4147 
z
M 628 4666 
L 2053 4666 
Q 2838 4666 3239 4311 
Q 3641 3956 3641 3272 
Q 3641 2581 3239 2228 
Q 2838 1875 2053 1875 
L 1259 1875 
L 1259 0 
L 628 0 
L 628 4666 
z
" transform="scale(0.015625)"/>
      <path id="DejaVuSans-4c" d="M 628 4666 
L 1259 4666 
L 1259 531 
L 3531 531 
L 3531 0 
L 628 0 
L 628 4666 
z
" transform="scale(0.015625)"/>
      <path id="DejaVuSans-53" d="M 3425 4513 
L 3425 3897 
Q 3066 4069 2747 4153 
Q 2428 4238 2131 4238 
Q 1616 4238 1336 4038 
Q 1056 3838 1056 3469 
Q 1056 3159 1242 3001 
Q 1428 2844 1947 2747 
L 2328 2669 
Q 3034 2534 3370 2195 
Q 3706 1856 3706 1288 
Q 3706 609 3251 259 
Q 2797 -91 1919 -91 
Q 1588 -91 1214 -16 
Q 841 59 441 206 
L 441 856 
Q 825 641 1194 531 
Q 1563 422 1919 422 
Q 2459 422 2753 634 
Q 3047 847 3047 1241 
Q 3047 1584 2836 1778 
Q 2625 1972 2144 2069 
L 1759 2144 
Q 1053 2284 737 2584 
Q 422 2884 422 3419 
Q 422 4038 858 4394 
Q 1294 4750 2059 4750 
Q 2388 4750 2728 4690 
Q 3069 4631 3425 4513 
z
" transform="scale(0.015625)"/>
     </defs>
     <use xlink:href="#DejaVuSans-4f" transform="translate(0 0.015625)"/>
     <use xlink:href="#DejaVuSans-33" transform="translate(79.667969 -16.390625) scale(0.7)"/>
     <use xlink:href="#DejaVuSans-20" transform="translate(126.938477 0.015625)"/>
     <use xlink:href="#DejaVuSans-63" transform="translate(158.725586 0.015625)"/>
     <use xlink:href="#DejaVuSans-6f" transform="translate(213.706055 0.015625)"/>
     <use xlink:href="#DejaVuSans-72" transform="translate(274.887695 0.015625)"/>
     <use xlink:href="#DejaVuSans-72" transform="translate(316.000977 0.015625)"/>
     <use xlink:href="#DejaVuSans-65" transform="translate(357.114258 0.015625)"/>
     <use xlink:href="#DejaVuSans-6c" transform="translate(418.637695 0.015625)"/>
     <use xlink:href="#DejaVuSans-61" transform="translate(446.420898 0.015625)"/>
     <use xlink:href="#DejaVuSans-74" transform="translate(507.700195 0.015625)"/>
     <use xlink:href="#DejaVuSans-69" transform="translate(546.90918 0.015625)"/>
     <use xlink:href="#DejaVuSans-6f" transform="translate(574.692383 0.015625)"/>
     <use xlink:href="#DejaVuSans-6e" transform="translate(635.874023 0.015625)"/>
     <use xlink:href="#DejaVuSans-20" transform="translate(699.25293 0.015625)"/>
     <use xlink:href="#DejaVuSans-64" transform="translate(731.040039 0.015625)"/>
     <use xlink:href="#DejaVuSans-69" transform="translate(794.516602 0.015625)"/>
     <use xlink:href="#DejaVuSans-61" transform="translate(822.299805 0.015625)"/>
     <use xlink:href="#DejaVuSans-67" transform="translate(883.579102 0.015625)"/>
     <use xlink:href="#DejaVuSans-72" transform="translate(947.055664 0.015625)"/>
     <use xlink:href="#DejaVuSans-61" transform="translate(988.168945 0.015625)"/>
     <use xlink:href="#DejaVuSans-6d" transform="translate(1049.448242 0.015625)"/>
     <use xlink:href="#DejaVuSans-20" transform="translate(1146.860352 0.015625)"/>
     <use xlink:href="#DejaVuSansDisplay-2014" transform="translate(1178.647461 0.015625)"/>
     <use xlink:href="#DejaVuSans-20" transform="translate(1278.647461 0.015625)"/>
     <use xlink:href="#DejaVuSans-39" transform="translate(1310.43457 0.015625)"/>
     <use xlink:href="#DejaVuSans-20" transform="translate(1374.057617 0.015625)"/>
     <use xlink:href="#DejaVuSans-65" transform="translate(1405.844727 0.015625)"/>
     <use xlink:href="#DejaVuSans-6c" transform="translate(1467.368164 0.015625)"/>
     <use xlink:href="#DejaVuSans-65" transform="translate(1495.151367 0.015625)"/>
     <use xlink:href="#DejaVuSans-63" transform="translate(1556.674805 0.015625)"/>
     <use xlink:href="#DejaVuSans-74" transform="translate(1611.655273 0.015625)"/>
     <use xlink:href="#DejaVuSans-72" transform="translate(1650.864258 0.015625)"/>
     <use xlink:href="#DejaVuSans-6f" transform="translate(1691.977539 0.015625)"/>
     <use xlink:href="#DejaVuSans-6e" transform="translate(1753.15918 0.015625)"/>
     <use xlink:href="#DejaVuSans-69" transform="translate(1816.538086 0.015625)"/>
     <use xlink:href="#DejaVuSans-63" transform="translate(1844.321289 0.015625)"/>
     <use xlink:href="#DejaVuSans-20" transform="translate(1899.301758 0.015625)"/>
     <use xlink:href="#DejaVuSans-73" transform="translate(1931.088867 0.015625)"/>
     <use xlink:href="#DejaVuSans-75" transform="translate(1983.188477 0.015625)"/>
     <use xlink:href="#DejaVuSans-72" transform="translate(2046.567383 0.015625)"/>
     <use xlink:href="#DejaVuSans-66" transform="translate(2087.680664 0.015625)"/>
     <use xlink:href="#DejaVuSans-61" transform="translate(2122.885742 0.015625)"/>
     <use xlink:href="#DejaVuSans-63" transform="translate(2184.165039 0.015625)"/>
     <use xlink:href="#DejaVuSans-65" transform="translate(2239.145508 0.015625)"/>
     <use xlink:href="#DejaVuSans-73" transform="translate(2300.668945 0.015625)"/>
     <use xlink:href="#DejaVuSans-20" transform="translate(2352.768555 0.015625)"/>
     <use xlink:href="#DejaVuSans-28" transform="translate(2384.555664 0.015625)"/>
     <use xlink:href="#DejaVuSans-55" transform="translate(2423.569336 0.015625)"/>
     <use xlink:href="#DejaVuSans-4d" transform="translate(2496.762695 0.015625)"/>
     <use xlink:href="#DejaVuSans-4e" transform="translate(2583.041992 0.015625)"/>
     <use xlink:href="#DejaVuSans-20" transform="translate(2657.84668 0.015625)"/>
     <use xlink:href="#DejaVuSans-2f" transform="translate(2689.633789 0.015625)"/>
     <use xlink:href="#DejaVuSans-20" transform="translate(2723.325195 0.015625)"/>
     <use xlink:href="#DejaVuSans-4e" transform="translate(2755.112305 0.015625)"/>
     <use xlink:href="#DejaVuSans-4e" transform="translate(2829.916992 0.015625)"/>
     <use xlink:href="#DejaVuSans-20" transform="translate(2904.72168 0.015625)"/>
     <use xlink:href="#DejaVuSans-2f" transform="translate(2936.508789 0.015625)"/>
     <use xlink:href="#DejaVuSans-20" transform="translate(2970.200195 0.015625)"/>
     <use xlink:href="#DejaVuSans-42" transform="translate(3001.987305 0.015625)"/>
     <use xlink:href="#DejaVuSans-4e" transform="translate(3070.59082 0.015625)"/>
     <use xlink:href="#DejaVuSans-4e" transform="translate(3145.395508 0.015625)"/>
     <use xlink:href="#DejaVuSans-20" transform="translate(3220.200195 0.015625)"/>
     <use xlink:href="#DejaVuSans-2f" transform="translate(3251.987305 0.015625)"/>
     <use xlink:href="#DejaVuSans-20" transform="translate(3285.678711 0.015625)"/>
     <use xlink:href="#DejaVuSans-47" transform="translate(3317.46582 0.015625)"/>
     <use xlink:href="#DejaVuSans-50" transform="translate(3394.956055 0.015625)"/>
     <use xlink:href="#DejaVuSans-20" transform="translate(3455.258789 0.015625)"/>
     <use xlink:href="#DejaVuSans-2f" transform="translate(3487.045898 0.015625)"/>
     <use xlink:href="#DejaVuSans-20" transform="translate(3520.737305 0.015625)"/>
     <use xlink:href="#DejaVuSans-4c" transform="translate(3552.524414 0.015625)"/>
     <use xlink:href="#DejaVuSans-45" transform="translate(3608.237305 0.015625)"/>
     <use xlink:href="#DejaVuSans-50" transform="translate(3671.420898 0.015625)"/>
     <use xlink:href="#DejaVuSans-53" transform="translate(3731.723633 0.015625)"/>
     <use xlink:href="#DejaVuSans-29" transform="translate(3795.200195 0.015625)"/>
    </g>
   </g>
   <g id="legend_1">
    <g id="patch_4">
     <path d="M 578.771094 86.778594 
L 735.896094 86.778594 
Q 737.396094 86.778594 737.396094 85.278594 
L 737.396094 25.67 
Q 737.396094 24.17 735.896094 24.17 
L 578.771094 24.17 
Q 577.271094 24.17 577.271094 25.67 
L 577.271094 85.278594 
Q 577.271094 86.778594 578.771094 86.778594 
z
" style="fill: #ffffff; opacity: 0.8; stroke: #cccccc; stroke-linejoin: miter"/>
    </g>
    <g id="line2d_16">
     <path d="M 580.271094 31.295 
L 587.771094 31.295 
L 595.271094 31.295 
" style="fill: none; stroke-dasharray: 5.6,2.8; stroke-dashoffset: 0; stroke: #1f77b4; stroke-width: 1.4"/>
    </g>
    <g id="text_18">
     <!-- $^1A^\prime$  (UMN_11A1, NN_11A1; ground) -->
     <g transform="translate(601.271094 33.92) scale(0.075 -0.075)">
      <defs>
       <path id="DejaVuSans-5f" d="M 3263 -1063 
L 3263 -1509 
L -63 -1509 
L -63 -1063 
L 3263 -1063 
z
" transform="scale(0.015625)"/>
       <path id="DejaVuSans-41" d="M 2188 4044 
L 1331 1722 
L 3047 1722 
L 2188 4044 
z
M 1831 4666 
L 2547 4666 
L 4325 0 
L 3669 0 
L 3244 1197 
L 1141 1197 
L 716 0 
L 50 0 
L 1831 4666 
z
" transform="scale(0.015625)"/>
       <path id="DejaVuSans-3b" d="M 750 3309 
L 1409 3309 
L 1409 2516 
L 750 2516 
L 750 3309 
z
M 750 794 
L 1409 794 
L 1409 256 
L 897 -744 
L 494 -744 
L 750 256 
L 750 794 
z
" transform="scale(0.015625)"/>
      </defs>
      <use xlink:href="#DejaVuSans-31" transform="translate(0.957031 38.965625) scale(0.7)"/>
      <use xlink:href="#DejaVuSans-Oblique-41" transform="translate(48.227539 0.684375)"/>
      <use xlink:href="#Cmsy10-30" transform="translate(123.652513 38.965625) scale(0.7)"/>
      <use xlink:href="#DejaVuSans-20" transform="translate(145.630052 0.684375)"/>
      <use xlink:href="#DejaVuSans-20" transform="translate(177.417161 0.684375)"/>
      <use xlink:href="#DejaVuSans-28" transform="translate(209.204271 0.684375)"/>
      <use xlink:href="#DejaVuSans-55" transform="translate(248.217943 0.684375)"/>
      <use xlink:href="#DejaVuSans-4d" transform="translate(321.411302 0.684375)"/>
      <use xlink:href="#DejaVuSans-4e" transform="translate(407.690599 0.684375)"/>
      <use xlink:href="#DejaVuSans-5f" transform="translate(482.495286 0.684375)"/>
      <use xlink:href="#DejaVuSans-31" transform="translate(532.495286 0.684375)"/>
      <use xlink:href="#DejaVuSans-31" transform="translate(596.118333 0.684375)"/>
      <use xlink:href="#DejaVuSans-41" transform="translate(659.74138 0.684375)"/>
      <use xlink:href="#DejaVuSans-31" transform="translate(728.149583 0.684375)"/>
      <use xlink:href="#DejaVuSans-2c" transform="translate(791.77263 0.684375)"/>
      <use xlink:href="#DejaVuSans-20" transform="translate(823.55974 0.684375)"/>
      <use xlink:href="#DejaVuSans-4e" transform="translate(855.346849 0.684375)"/>
      <use xlink:href="#DejaVuSans-4e" transform="translate(930.151536 0.684375)"/>
      <use xlink:href="#DejaVuSans-5f" transform="translate(1004.956224 0.684375)"/>
      <use xlink:href="#DejaVuSans-31" transform="translate(1054.956224 0.684375)"/>
      <use xlink:href="#DejaVuSans-31" transform="translate(1118.579271 0.684375)"/>
      <use xlink:href="#DejaVuSans-41" transform="translate(1182.202318 0.684375)"/>
      <use xlink:href="#DejaVuSans-31" transform="translate(1250.610521 0.684375)"/>
      <use xlink:href="#DejaVuSans-3b" transform="translate(1314.233568 0.684375)"/>
      <use xlink:href="#DejaVuSans-20" transform="translate(1347.924974 0.684375)"/>
      <use xlink:href="#DejaVuSans-67" transform="translate(1379.712083 0.684375)"/>
      <use xlink:href="#DejaVuSans-72" transform="translate(1443.188646 0.684375)"/>
      <use xlink:href="#DejaVuSans-6f" transform="translate(1484.301927 0.684375)"/>
      <use xlink:href="#DejaVuSans-75" transform="translate(1545.483568 0.684375)"/>
      <use xlink:href="#DejaVuSans-6e" transform="translate(1608.862474 0.684375)"/>
      <use xlink:href="#DejaVuSans-64" transform="translate(1672.24138 0.684375)"/>
      <use xlink:href="#DejaVuSans-29" transform="translate(1735.717943 0.684375)"/>
     </g>
    </g>
    <g id="line2d_17">
     <path d="M 580.271094 43.595 
L 587.771094 43.595 
L 595.271094 43.595 
" style="fill: none; stroke-dasharray: 5.6,2.8; stroke-dashoffset: 0; stroke: #9467bd; stroke-width: 1.4"/>
    </g>
    <g id="text_19">
     <!-- $^1A^{\prime\prime}$  (UMN_11A2) -->
     <g transform="translate(601.271094 46.22) scale(0.075 -0.075)">
      <use xlink:href="#DejaVuSans-31" transform="translate(0.957031 38.965625) scale(0.7)"/>
      <use xlink:href="#DejaVuSans-Oblique-41" transform="translate(48.227539 0.684375)"/>
      <use xlink:href="#Cmsy10-30" transform="translate(123.652513 38.965625) scale(0.7)"/>
      <use xlink:href="#Cmsy10-30" transform="translate(142.895677 38.965625) scale(0.7)"/>
      <use xlink:href="#DejaVuSans-20" transform="translate(164.873216 0.684375)"/>
      <use xlink:href="#DejaVuSans-20" transform="translate(196.660326 0.684375)"/>
      <use xlink:href="#DejaVuSans-28" transform="translate(228.447435 0.684375)"/>
      <use xlink:href="#DejaVuSans-55" transform="translate(267.461107 0.684375)"/>
      <use xlink:href="#DejaVuSans-4d" transform="translate(340.654466 0.684375)"/>
      <use xlink:href="#DejaVuSans-4e" transform="translate(426.933763 0.684375)"/>
      <use xlink:href="#DejaVuSans-5f" transform="translate(501.738451 0.684375)"/>
      <use xlink:href="#DejaVuSans-31" transform="translate(551.738451 0.684375)"/>
      <use xlink:href="#DejaVuSans-31" transform="translate(615.361497 0.684375)"/>
      <use xlink:href="#DejaVuSans-41" transform="translate(678.984544 0.684375)"/>
      <use xlink:href="#DejaVuSans-32" transform="translate(747.392747 0.684375)"/>
      <use xlink:href="#DejaVuSans-29" transform="translate(811.015794 0.684375)"/>
     </g>
    </g>
    <g id="line2d_18">
     <path d="M 580.271094 55.97 
L 587.771094 55.97 
L 595.271094 55.97 
" style="fill: none; stroke-dasharray: 5.6,2.8; stroke-dashoffset: 0; stroke: #2ca02c; stroke-width: 1.4"/>
    </g>
    <g id="text_20">
     <!-- $^3A^\prime$  (UMN_13A1, 23A1) -->
     <g transform="translate(601.271094 58.595) scale(0.075 -0.075)">
      <use xlink:href="#DejaVuSans-33" transform="translate(0.957031 39.046875) scale(0.7)"/>
      <use xlink:href="#DejaVuSans-Oblique-41" transform="translate(48.227539 0.765625)"/>
      <use xlink:href="#Cmsy10-30" transform="translate(123.652513 39.046875) scale(0.7)"/>
      <use xlink:href="#DejaVuSans-20" transform="translate(145.630052 0.765625)"/>
      <use xlink:href="#DejaVuSans-20" transform="translate(177.417161 0.765625)"/>
      <use xlink:href="#DejaVuSans-28" transform="translate(209.204271 0.765625)"/>
      <use xlink:href="#DejaVuSans-55" transform="translate(248.217943 0.765625)"/>
      <use xlink:href="#DejaVuSans-4d" transform="translate(321.411302 0.765625)"/>
      <use xlink:href="#DejaVuSans-4e" transform="translate(407.690599 0.765625)"/>
      <use xlink:href="#DejaVuSans-5f" transform="translate(482.495286 0.765625)"/>
      <use xlink:href="#DejaVuSans-31" transform="translate(532.495286 0.765625)"/>
      <use xlink:href="#DejaVuSans-33" transform="translate(596.118333 0.765625)"/>
      <use xlink:href="#DejaVuSans-41" transform="translate(659.74138 0.765625)"/>
      <use xlink:href="#DejaVuSans-31" transform="translate(728.149583 0.765625)"/>
      <use xlink:href="#DejaVuSans-2c" transform="translate(791.77263 0.765625)"/>
      <use xlink:href="#DejaVuSans-20" transform="translate(823.55974 0.765625)"/>
      <use xlink:href="#DejaVuSans-32" transform="translate(855.346849 0.765625)"/>
      <use xlink:href="#DejaVuSans-33" transform="translate(918.969896 0.765625)"/>
      <use xlink:href="#DejaVuSans-41" transform="translate(982.592943 0.765625)"/>
      <use xlink:href="#DejaVuSans-31" transform="translate(1051.001146 0.765625)"/>
      <use xlink:href="#DejaVuSans-29" transform="translate(1114.624193 0.765625)"/>
     </g>
    </g>
    <g id="line2d_19">
     <path d="M 580.271094 68.345 
L 587.771094 68.345 
L 595.271094 68.345 
" style="fill: none; stroke-dasharray: 5.6,2.8; stroke-dashoffset: 0; stroke: #d62728; stroke-width: 1.4"/>
    </g>
    <g id="text_21">
     <!-- $^3A^{\prime\prime}$  (UMN_13A2) -->
     <g transform="translate(601.271094 70.97) scale(0.075 -0.075)">
      <use xlink:href="#DejaVuSans-33" transform="translate(0.957031 39.046875) scale(0.7)"/>
      <use xlink:href="#DejaVuSans-Oblique-41" transform="translate(48.227539 0.765625)"/>
      <use xlink:href="#Cmsy10-30" transform="translate(123.652513 39.046875) scale(0.7)"/>
      <use xlink:href="#Cmsy10-30" transform="translate(142.895677 39.046875) scale(0.7)"/>
      <use xlink:href="#DejaVuSans-20" transform="translate(164.873216 0.765625)"/>
      <use xlink:href="#DejaVuSans-20" transform="translate(196.660326 0.765625)"/>
      <use xlink:href="#DejaVuSans-28" transform="translate(228.447435 0.765625)"/>
      <use xlink:href="#DejaVuSans-55" transform="translate(267.461107 0.765625)"/>
      <use xlink:href="#DejaVuSans-4d" transform="translate(340.654466 0.765625)"/>
      <use xlink:href="#DejaVuSans-4e" transform="translate(426.933763 0.765625)"/>
      <use xlink:href="#DejaVuSans-5f" transform="translate(501.738451 0.765625)"/>
      <use xlink:href="#DejaVuSans-31" transform="translate(551.738451 0.765625)"/>
      <use xlink:href="#DejaVuSans-33" transform="translate(615.361497 0.765625)"/>
      <use xlink:href="#DejaVuSans-41" transform="translate(678.984544 0.765625)"/>
      <use xlink:href="#DejaVuSans-32" transform="translate(747.392747 0.765625)"/>
      <use xlink:href="#DejaVuSans-29" transform="translate(811.015794 0.765625)"/>
     </g>
    </g>
    <g id="line2d_20">
     <path d="M 580.271094 79.593828 
L 587.771094 79.593828 
L 595.271094 79.593828 
" style="fill: none; stroke: #808080; stroke-linecap: square"/>
    </g>
    <g id="text_22">
     <!-- Dissociation -->
     <g transform="translate(601.271094 82.218828) scale(0.075 -0.075)">
      <use xlink:href="#DejaVuSans-44"/>
      <use xlink:href="#DejaVuSans-69" x="77.001953"/>
      <use xlink:href="#DejaVuSans-73" x="104.785156"/>
      <use xlink:href="#DejaVuSans-73" x="156.884766"/>
      <use xlink:href="#DejaVuSans-6f" x="208.984375"/>
      <use xlink:href="#DejaVuSans-63" x="270.166016"/>
      <use xlink:href="#DejaVuSans-69" x="325.146484"/>
      <use xlink:href="#DejaVuSans-61" x="352.929688"/>
      <use xlink:href="#DejaVuSans-74" x="414.208984"/>
      <use xlink:href="#DejaVuSans-69" x="453.417969"/>
      <use xlink:href="#DejaVuSans-6f" x="481.201172"/>
      <use xlink:href="#DejaVuSans-6e" x="542.382812"/>
     </g>
    </g>
   </g>
  </g>
 </g>
 <defs>
  <clipPath id="p3db5fb453a">
   <rect x="41.146094" y="20.42" width="700" height="467.04"/>
  </clipPath>
 </defs>
</svg>
