<?xml version="1.0" encoding="utf-8" standalone="no"?>
<!DOCTYPE svg PUBLIC "-//W3C//DTD SVG 1.1//EN"
  "http://www.w3.org/Graphics/SVG/1.1/DTD/svg11.dtd">
<svg xmlns:xlink="http://www.w3.org/1999/xlink" width="820.258906pt" height="509.44pt" viewBox="0 0 820.258906 509.44" xmlns="http://www.w3.org/2000/svg" version="1.1">
 <metadata>
  <rdf:RDF xmlns:dc="http://purl.org/dc/elements/1.1/" xmlns:cc="http://creativecommons.org/ns#" xmlns:rdf="http://www.w3.org/1999/02/22-rdf-syntax-ns#">
   <cc:Work>
    <dc:type rdf:resource="http://purl.org/dc/dcmitype/StillImage"/>
    <dc:date>2026-04-26T11:12:37.481744</dc:date>
    <dc:format>image/svg+xml</dc:format>
    <dc:creator>
     <cc:Agent>
      <dc:title>Matplotlib v3.6.3, https://matplotlib.org/</dc:title>
     </cc:Agent>
    </dc:creator>
   </cc:Work>
  </rdf:RDF>
 </metadata>
 <defs>
  <style type="text/css">*{stroke-linejoin: round; stroke-linecap: butt}</style>
 </defs>
 <g id="figure_1">
  <g id="patch_1">
   <path d="M 0 509.44 
L 820.258906 509.44 
L 820.258906 0 
L 0 0 
z
" style="fill: #ffffff"/>
  </g>
  <g id="axes_1">
   <g id="patch_2">
    <path d="M 55.458906 502.24 
L 813.058906 502.24 
L 813.058906 20.8 
L 55.458906 20.8 
z
" style="fill: #ffffff"/>
   </g>
   <g id="matplotlib.axis_1"/>
   <g id="matplotlib.axis_2">
    <g id="ytick_1">
     <g id="line2d_1">
      <defs>
       <path id="m4f7185737f" d="M 0 0 
L -3.5 0 
" style="stroke: #000000; stroke-width: 0.8"/>
      </defs>
      <g>
       <use xlink:href="#m4f7185737f" x="55.458906" y="489.895385" style="stroke: #000000; stroke-width: 0.8"/>
      </g>
     </g>
     <g id="text_1">
      <!-- −17.5 -->
      <g transform="translate(20.878125 493.314681) scale(0.09 -0.09)">
       <defs>
        <path id="DejaVuSans-2212" d="M 678 2272 
L 4684 2272 
L 4684 1741 
L 678 1741 
L 678 2272 
z
" transform="scale(0.015625)"/>
        <path id="DejaVuSans-31" d="M 794 531 
L 1825 531 
L 1825 4091 
L 703 3866 
L 703 4441 
L 1819 4666 
L 2450 4666 
L 2450 531 
L 3481 531 
L 3481 0 
L 794 0 
L 794 531 
z
" transform="scale(0.015625)"/>
        <path id="DejaVuSans-37" d="M 525 4666 
L 3525 4666 
L 3525 4397 
L 1831 0 
L 1172 0 
L 2766 4134 
L 525 4134 
L 525 4666 
z
" transform="scale(0.015625)"/>
        <path id="DejaVuSans-2e" d="M 684 794 
L 1344 794 
L 1344 0 
L 684 0 
L 684 794 
z
" transform="scale(0.015625)"/>
        <path id="DejaVuSans-35" d="M 691 4666 
L 3169 4666 
L 3169 4134 
L 1269 4134 
L 1269 2991 
Q 1406 3038 1543 3061 
Q 1681 3084 1819 3084 
Q 2600 3084 3056 2656 
Q 3513 2228 3513 1497 
Q 3513 744 3044 326 
Q 2575 -91 1722 -91 
Q 1428 -91 1123 -41 
Q 819 9 494 109 
L 494 744 
Q 775 591 1075 516 
Q 1375 441 1709 441 
Q 2250 441 2565 725 
Q 2881 1009 2881 1497 
Q 2881 1984 2565 2268 
Q 2250 2553 1709 2553 
Q 1456 2553 1204 2497 
Q 953 2441 691 2322 
L 691 4666 
z
" transform="scale(0.015625)"/>
       </defs>
       <use xlink:href="#DejaVuSans-2212"/>
       <use xlink:href="#DejaVuSans-31" x="83.789062"/>
       <use xlink:href="#DejaVuSans-37" x="147.412109"/>
       <use xlink:href="#DejaVuSans-2e" x="211.035156"/>
       <use xlink:href="#DejaVuSans-35" x="242.822266"/>
      </g>
     </g>
    </g>
    <g id="ytick_2">
     <g id="line2d_2">
      <g>
       <use xlink:href="#m4f7185737f" x="55.458906" y="428.172308" style="stroke: #000000; stroke-width: 0.8"/>
      </g>
     </g>
     <g id="text_2">
      <!-- −15.0 -->
      <g transform="translate(20.878125 431.591605) scale(0.09 -0.09)">
       <defs>
        <path id="DejaVuSans-30" d="M 2034 4250 
Q 1547 4250 1301 3770 
Q 1056 3291 1056 2328 
Q 1056 1369 1301 889 
Q 1547 409 2034 409 
Q 2525 409 2770 889 
Q 3016 1369 3016 2328 
Q 3016 3291 2770 3770 
Q 2525 4250 2034 4250 
z
M 2034 4750 
Q 2819 4750 3233 4129 
Q 3647 3509 3647 2328 
Q 3647 1150 3233 529 
Q 2819 -91 2034 -91 
Q 1250 -91 836 529 
Q 422 1150 422 2328 
Q 422 3509 836 4129 
Q 1250 4750 2034 4750 
z
" transform="scale(0.015625)"/>
       </defs>
       <use xlink:href="#DejaVuSans-2212"/>
       <use xlink:href="#DejaVuSans-31" x="83.789062"/>
       <use xlink:href="#DejaVuSans-35" x="147.412109"/>
       <use xlink:href="#DejaVuSans-2e" x="211.035156"/>
       <use xlink:href="#DejaVuSans-30" x="242.822266"/>
      </g>
     </g>
    </g>
    <g id="ytick_3">
     <g id="line2d_3">
      <g>
       <use xlink:href="#m4f7185737f" x="55.458906" y="366.449231" style="stroke: #000000; stroke-width: 0.8"/>
      </g>
     </g>
     <g id="text_3">
      <!-- −12.5 -->
      <g transform="translate(20.878125 369.868528) scale(0.09 -0.09)">
       <defs>
        <path id="DejaVuSans-32" d="M 1228 531 
L 3431 531 
L 3431 0 
L 469 0 
L 469 531 
Q 828 903 1448 1529 
Q 2069 2156 2228 2338 
Q 2531 2678 2651 2914 
Q 2772 3150 2772 3378 
Q 2772 3750 2511 3984 
Q 2250 4219 1831 4219 
Q 1534 4219 1204 4116 
Q 875 4013 500 3803 
L 500 4441 
Q 881 4594 1212 4672 
Q 1544 4750 1819 4750 
Q 2544 4750 2975 4387 
Q 3406 4025 3406 3419 
Q 3406 3131 3298 2873 
Q 3191 2616 2906 2266 
Q 2828 2175 2409 1742 
Q 1991 1309 1228 531 
z
" transform="scale(0.015625)"/>
       </defs>
       <use xlink:href="#DejaVuSans-2212"/>
       <use xlink:href="#DejaVuSans-31" x="83.789062"/>
       <use xlink:href="#DejaVuSans-32" x="147.412109"/>
       <use xlink:href="#DejaVuSans-2e" x="211.035156"/>
       <use xlink:href="#DejaVuSans-35" x="242.822266"/>
      </g>
     </g>
    </g>
    <g id="ytick_4">
     <g id="line2d_4">
      <g>
       <use xlink:href="#m4f7185737f" x="55.458906" y="304.726154" style="stroke: #000000; stroke-width: 0.8"/>
      </g>
     </g>
     <g id="text_4">
      <!-- −10.0 -->
      <g transform="translate(20.878125 308.145451) scale(0.09 -0.09)">
       <use xlink:href="#DejaVuSans-2212"/>
       <use xlink:href="#DejaVuSans-31" x="83.789062"/>
       <use xlink:href="#DejaVuSans-30" x="147.412109"/>
       <use xlink:href="#DejaVuSans-2e" x="211.035156"/>
       <use xlink:href="#DejaVuSans-30" x="242.822266"/>
      </g>
     </g>
    </g>
    <g id="ytick_5">
     <g id="line2d_5">
      <g>
       <use xlink:href="#m4f7185737f" x="55.458906" y="243.003077" style="stroke: #000000; stroke-width: 0.8"/>
      </g>
     </g>
     <g id="text_5">
      <!-- −7.5 -->
      <g transform="translate(26.604375 246.422374) scale(0.09 -0.09)">
       <use xlink:href="#DejaVuSans-2212"/>
       <use xlink:href="#DejaVuSans-37" x="83.789062"/>
       <use xlink:href="#DejaVuSans-2e" x="147.412109"/>
       <use xlink:href="#DejaVuSans-35" x="179.199219"/>
      </g>
     </g>
    </g>
    <g id="ytick_6">
     <g id="line2d_6">
      <g>
       <use xlink:href="#m4f7185737f" x="55.458906" y="181.28" style="stroke: #000000; stroke-width: 0.8"/>
      </g>
     </g>
     <g id="text_6">
      <!-- −5.0 -->
      <g transform="translate(26.604375 184.699297) scale(0.09 -0.09)">
       <use xlink:href="#DejaVuSans-2212"/>
       <use xlink:href="#DejaVuSans-35" x="83.789062"/>
       <use xlink:href="#DejaVuSans-2e" x="147.412109"/>
       <use xlink:href="#DejaVuSans-30" x="179.199219"/>
      </g>
     </g>
    </g>
    <g id="ytick_7">
     <g id="line2d_7">
      <g>
       <use xlink:href="#m4f7185737f" x="55.458906" y="119.556923" style="stroke: #000000; stroke-width: 0.8"/>
      </g>
     </g>
     <g id="text_7">
      <!-- −2.5 -->
      <g transform="translate(26.604375 122.97622) scale(0.09 -0.09)">
       <use xlink:href="#DejaVuSans-2212"/>
       <use xlink:href="#DejaVuSans-32" x="83.789062"/>
       <use xlink:href="#DejaVuSans-2e" x="147.412109"/>
       <use xlink:href="#DejaVuSans-35" x="179.199219"/>
      </g>
     </g>
    </g>
    <g id="ytick_8">
     <g id="line2d_8">
      <g>
       <use xlink:href="#m4f7185737f" x="55.458906" y="57.833846" style="stroke: #000000; stroke-width: 0.8"/>
      </g>
     </g>
     <g id="text_8">
      <!-- 0.0 -->
      <g transform="translate(34.146094 61.253143) scale(0.09 -0.09)">
       <use xlink:href="#DejaVuSans-30"/>
       <use xlink:href="#DejaVuSans-2e" x="63.623047"/>
       <use xlink:href="#DejaVuSans-30" x="95.410156"/>
      </g>
     </g>
    </g>
    <g id="text_9">
     <!-- Energy (eV) — relative to atomized ground state -->
     <g transform="translate(14.798438 382.997344) rotate(-90) scale(0.1 -0.1)">
      <defs>
       <path id="DejaVuSans-45" d="M 628 4666 
L 3578 4666 
L 3578 4134 
L 1259 4134 
L 1259 2753 
L 3481 2753 
L 3481 2222 
L 1259 2222 
L 1259 531 
L 3634 531 
L 3634 0 
L 628 0 
L 628 4666 
z
" transform="scale(0.015625)"/>
       <path id="DejaVuSans-6e" d="M 3513 2113 
L 3513 0 
L 2938 0 
L 2938 2094 
Q 2938 2591 2744 2837 
Q 2550 3084 2163 3084 
Q 1697 3084 1428 2787 
Q 1159 2491 1159 1978 
L 1159 0 
L 581 0 
L 581 3500 
L 1159 3500 
L 1159 2956 
Q 1366 3272 1645 3428 
Q 1925 3584 2291 3584 
Q 2894 3584 3203 3211 
Q 3513 2838 3513 2113 
z
" transform="scale(0.015625)"/>
       <path id="DejaVuSans-65" d="M 3597 1894 
L 3597 1613 
L 953 1613 
Q 991 1019 1311 708 
Q 1631 397 2203 397 
Q 2534 397 2845 478 
Q 3156 559 3463 722 
L 3463 178 
Q 3153 47 2828 -22 
Q 2503 -91 2169 -91 
Q 1331 -91 842 396 
Q 353 884 353 1716 
Q 353 2575 817 3079 
Q 1281 3584 2069 3584 
Q 2775 3584 3186 3129 
Q 3597 2675 3597 1894 
z
M 3022 2063 
Q 3016 2534 2758 2815 
Q 2500 3097 2075 3097 
Q 1594 3097 1305 2825 
Q 1016 2553 972 2059 
L 3022 2063 
z
" transform="scale(0.015625)"/>
       <path id="DejaVuSans-72" d="M 2631 2963 
Q 2534 3019 2420 3045 
Q 2306 3072 2169 3072 
Q 1681 3072 1420 2755 
Q 1159 2438 1159 1844 
L 1159 0 
L 581 0 
L 581 3500 
L 1159 3500 
L 1159 2956 
Q 1341 3275 1631 3429 
Q 1922 3584 2338 3584 
Q 2397 3584 2469 3576 
Q 2541 3569 2628 3553 
L 2631 2963 
z
" transform="scale(0.015625)"/>
       <path id="DejaVuSans-67" d="M 2906 1791 
Q 2906 2416 2648 2759 
Q 2391 3103 1925 3103 
Q 1463 3103 1205 2759 
Q 947 2416 947 1791 
Q 947 1169 1205 825 
Q 1463 481 1925 481 
Q 2391 481 2648 825 
Q 2906 1169 2906 1791 
z
M 3481 434 
Q 3481 -459 3084 -895 
Q 2688 -1331 1869 -1331 
Q 1566 -1331 1297 -1286 
Q 1028 -1241 775 -1147 
L 775 -588 
Q 1028 -725 1275 -790 
Q 1522 -856 1778 -856 
Q 2344 -856 2625 -561 
Q 2906 -266 2906 331 
L 2906 616 
Q 2728 306 2450 153 
Q 2172 0 1784 0 
Q 1141 0 747 490 
Q 353 981 353 1791 
Q 353 2603 747 3093 
Q 1141 3584 1784 3584 
Q 2172 3584 2450 3431 
Q 2728 3278 2906 2969 
L 2906 3500 
L 3481 3500 
L 3481 434 
z
" transform="scale(0.015625)"/>
       <path id="DejaVuSans-79" d="M 2059 -325 
Q 1816 -950 1584 -1140 
Q 1353 -1331 966 -1331 
L 506 -1331 
L 506 -850 
L 844 -850 
Q 1081 -850 1212 -737 
Q 1344 -625 1503 -206 
L 1606 56 
L 191 3500 
L 800 3500 
L 1894 763 
L 2988 3500 
L 3597 3500 
L 2059 -325 
z
" transform="scale(0.015625)"/>
       <path id="DejaVuSans-20" transform="scale(0.015625)"/>
       <path id="DejaVuSans-28" d="M 1984 4856 
Q 1566 4138 1362 3434 
Q 1159 2731 1159 2009 
Q 1159 1288 1364 580 
Q 1569 -128 1984 -844 
L 1484 -844 
Q 1016 -109 783 600 
Q 550 1309 550 2009 
Q 550 2706 781 3412 
Q 1013 4119 1484 4856 
L 1984 4856 
z
" transform="scale(0.015625)"/>
       <path id="DejaVuSans-56" d="M 1831 0 
L 50 4666 
L 709 4666 
L 2188 738 
L 3669 4666 
L 4325 4666 
L 2547 0 
L 1831 0 
z
" transform="scale(0.015625)"/>
       <path id="DejaVuSans-29" d="M 513 4856 
L 1013 4856 
Q 1481 4119 1714 3412 
Q 1947 2706 1947 2009 
Q 1947 1309 1714 600 
Q 1481 -109 1013 -844 
L 513 -844 
Q 928 -128 1133 580 
Q 1338 1288 1338 2009 
Q 1338 2731 1133 3434 
Q 928 4138 513 4856 
z
" transform="scale(0.015625)"/>
       <path id="DejaVuSans-2014" d="M 313 1978 
L 6088 1978 
L 6088 1528 
L 313 1528 
L 313 1978 
z
" transform="scale(0.015625)"/>
       <path id="DejaVuSans-6c" d="M 603 4863 
L 1178 4863 
L 1178 0 
L 603 0 
L 603 4863 
z
" transform="scale(0.015625)"/>
       <path id="DejaVuSans-61" d="M 2194 1759 
Q 1497 1759 1228 1600 
Q 959 1441 959 1056 
Q 959 750 1161 570 
Q 1363 391 1709 391 
Q 2188 391 2477 730 
Q 2766 1069 2766 1631 
L 2766 1759 
L 2194 1759 
z
M 3341 1997 
L 3341 0 
L 2766 0 
L 2766 531 
Q 2569 213 2275 61 
Q 1981 -91 1556 -91 
Q 1019 -91 701 211 
Q 384 513 384 1019 
Q 384 1609 779 1909 
Q 1175 2209 1959 2209 
L 2766 2209 
L 2766 2266 
Q 2766 2663 2505 2880 
Q 2244 3097 1772 3097 
Q 1472 3097 1187 3025 
Q 903 2953 641 2809 
L 641 3341 
Q 956 3463 1253 3523 
Q 1550 3584 1831 3584 
Q 2591 3584 2966 3190 
Q 3341 2797 3341 1997 
z
" transform="scale(0.015625)"/>
       <path id="DejaVuSans-74" d="M 1172 4494 
L 1172 3500 
L 2356 3500 
L 2356 3053 
L 1172 3053 
L 1172 1153 
Q 1172 725 1289 603 
Q 1406 481 1766 481 
L 2356 481 
L 2356 0 
L 1766 0 
Q 1100 0 847 248 
Q 594 497 594 1153 
L 594 3053 
L 172 3053 
L 172 3500 
L 594 3500 
L 594 4494 
L 1172 4494 
z
" transform="scale(0.015625)"/>
       <path id="DejaVuSans-69" d="M 603 3500 
L 1178 3500 
L 1178 0 
L 603 0 
L 603 3500 
z
M 603 4863 
L 1178 4863 
L 1178 4134 
L 603 4134 
L 603 4863 
z
" transform="scale(0.015625)"/>
       <path id="DejaVuSans-76" d="M 191 3500 
L 800 3500 
L 1894 563 
L 2988 3500 
L 3597 3500 
L 2284 0 
L 1503 0 
L 191 3500 
z
" transform="scale(0.015625)"/>
       <path id="DejaVuSans-6f" d="M 1959 3097 
Q 1497 3097 1228 2736 
Q 959 2375 959 1747 
Q 959 1119 1226 758 
Q 1494 397 1959 397 
Q 2419 397 2687 759 
Q 2956 1122 2956 1747 
Q 2956 2369 2687 2733 
Q 2419 3097 1959 3097 
z
M 1959 3584 
Q 2709 3584 3137 3096 
Q 3566 2609 3566 1747 
Q 3566 888 3137 398 
Q 2709 -91 1959 -91 
Q 1206 -91 779 398 
Q 353 888 353 1747 
Q 353 2609 779 3096 
Q 1206 3584 1959 3584 
z
" transform="scale(0.015625)"/>
       <path id="DejaVuSans-6d" d="M 3328 2828 
Q 3544 3216 3844 3400 
Q 4144 3584 4550 3584 
Q 5097 3584 5394 3201 
Q 5691 2819 5691 2113 
L 5691 0 
L 5113 0 
L 5113 2094 
Q 5113 2597 4934 2840 
Q 4756 3084 4391 3084 
Q 3944 3084 3684 2787 
Q 3425 2491 3425 1978 
L 3425 0 
L 2847 0 
L 2847 2094 
Q 2847 2600 2669 2842 
Q 2491 3084 2119 3084 
Q 1678 3084 1418 2786 
Q 1159 2488 1159 1978 
L 1159 0 
L 581 0 
L 581 3500 
L 1159 3500 
L 1159 2956 
Q 1356 3278 1631 3431 
Q 1906 3584 2284 3584 
Q 2666 3584 2933 3390 
Q 3200 3197 3328 2828 
z
" transform="scale(0.015625)"/>
       <path id="DejaVuSans-7a" d="M 353 3500 
L 3084 3500 
L 3084 2975 
L 922 459 
L 3084 459 
L 3084 0 
L 275 0 
L 275 525 
L 2438 3041 
L 353 3041 
L 353 3500 
z
" transform="scale(0.015625)"/>
       <path id="DejaVuSans-64" d="M 2906 2969 
L 2906 4863 
L 3481 4863 
L 3481 0 
L 2906 0 
L 2906 525 
Q 2725 213 2448 61 
Q 2172 -91 1784 -91 
Q 1150 -91 751 415 
Q 353 922 353 1747 
Q 353 2572 751 3078 
Q 1150 3584 1784 3584 
Q 2172 3584 2448 3432 
Q 2725 3281 2906 2969 
z
M 947 1747 
Q 947 1113 1208 752 
Q 1469 391 1925 391 
Q 2381 391 2643 752 
Q 2906 1113 2906 1747 
Q 2906 2381 2643 2742 
Q 2381 3103 1925 3103 
Q 1469 3103 1208 2742 
Q 947 2381 947 1747 
z
" transform="scale(0.015625)"/>
       <path id="DejaVuSans-75" d="M 544 1381 
L 544 3500 
L 1119 3500 
L 1119 1403 
Q 1119 906 1312 657 
Q 1506 409 1894 409 
Q 2359 409 2629 706 
Q 2900 1003 2900 1516 
L 2900 3500 
L 3475 3500 
L 3475 0 
L 2900 0 
L 2900 538 
Q 2691 219 2414 64 
Q 2138 -91 1772 -91 
Q 1169 -91 856 284 
Q 544 659 544 1381 
z
M 1991 3584 
L 1991 3584 
z
" transform="scale(0.015625)"/>
       <path id="DejaVuSans-73" d="M 2834 3397 
L 2834 2853 
Q 2591 2978 2328 3040 
Q 2066 3103 1784 3103 
Q 1356 3103 1142 2972 
Q 928 2841 928 2578 
Q 928 2378 1081 2264 
Q 1234 2150 1697 2047 
L 1894 2003 
Q 2506 1872 2764 1633 
Q 3022 1394 3022 966 
Q 3022 478 2636 193 
Q 2250 -91 1575 -91 
Q 1294 -91 989 -36 
Q 684 19 347 128 
L 347 722 
Q 666 556 975 473 
Q 1284 391 1588 391 
Q 1994 391 2212 530 
Q 2431 669 2431 922 
Q 2431 1156 2273 1281 
Q 2116 1406 1581 1522 
L 1381 1569 
Q 847 1681 609 1914 
Q 372 2147 372 2553 
Q 372 3047 722 3315 
Q 1072 3584 1716 3584 
Q 2034 3584 2315 3537 
Q 2597 3491 2834 3397 
z
" transform="scale(0.015625)"/>
      </defs>
      <use xlink:href="#DejaVuSans-45"/>
      <use xlink:href="#DejaVuSans-6e" x="63.183594"/>
      <use xlink:href="#DejaVuSans-65" x="126.5625"/>
      <use xlink:href="#DejaVuSans-72" x="188.085938"/>
      <use xlink:href="#DejaVuSans-67" x="227.449219"/>
      <use xlink:href="#DejaVuSans-79" x="290.925781"/>
      <use xlink:href="#DejaVuSans-20" x="350.105469"/>
      <use xlink:href="#DejaVuSans-28" x="381.892578"/>
      <use xlink:href="#DejaVuSans-65" x="420.90625"/>
      <use xlink:href="#DejaVuSans-56" x="482.429688"/>
      <use xlink:href="#DejaVuSans-29" x="550.837891"/>
      <use xlink:href="#DejaVuSans-20" x="589.851562"/>
      <use xlink:href="#DejaVuSans-2014" x="621.638672"/>
      <use xlink:href="#DejaVuSans-20" x="721.638672"/>
      <use xlink:href="#DejaVuSans-72" x="753.425781"/>
      <use xlink:href="#DejaVuSans-65" x="792.289062"/>
      <use xlink:href="#DejaVuSans-6c" x="853.8125"/>
      <use xlink:href="#DejaVuSans-61" x="881.595703"/>
      <use xlink:href="#DejaVuSans-74" x="942.875"/>
      <use xlink:href="#DejaVuSans-69" x="982.083984"/>
      <use xlink:href="#DejaVuSans-76" x="1009.867188"/>
      <use xlink:href="#DejaVuSans-65" x="1069.046875"/>
      <use xlink:href="#DejaVuSans-20" x="1130.570312"/>
      <use xlink:href="#DejaVuSans-74" x="1162.357422"/>
      <use xlink:href="#DejaVuSans-6f" x="1201.566406"/>
      <use xlink:href="#DejaVuSans-20" x="1262.748047"/>
      <use xlink:href="#DejaVuSans-61" x="1294.535156"/>
      <use xlink:href="#DejaVuSans-74" x="1355.814453"/>
      <use xlink:href="#DejaVuSans-6f" x="1395.023438"/>
      <use xlink:href="#DejaVuSans-6d" x="1456.205078"/>
      <use xlink:href="#DejaVuSans-69" x="1553.617188"/>
      <use xlink:href="#DejaVuSans-7a" x="1581.400391"/>
      <use xlink:href="#DejaVuSans-65" x="1633.890625"/>
      <use xlink:href="#DejaVuSans-64" x="1695.414062"/>
      <use xlink:href="#DejaVuSans-20" x="1758.890625"/>
      <use xlink:href="#DejaVuSans-67" x="1790.677734"/>
      <use xlink:href="#DejaVuSans-72" x="1854.154297"/>
      <use xlink:href="#DejaVuSans-6f" x="1893.017578"/>
      <use xlink:href="#DejaVuSans-75" x="1954.199219"/>
      <use xlink:href="#DejaVuSans-6e" x="2017.578125"/>
      <use xlink:href="#DejaVuSans-64" x="2080.957031"/>
      <use xlink:href="#DejaVuSans-20" x="2144.433594"/>
      <use xlink:href="#DejaVuSans-73" x="2176.220703"/>
      <use xlink:href="#DejaVuSans-74" x="2228.320312"/>
      <use xlink:href="#DejaVuSans-61" x="2267.529297"/>
      <use xlink:href="#DejaVuSans-74" x="2328.808594"/>
      <use xlink:href="#DejaVuSans-65" x="2368.017578"/>
     </g>
    </g>
   </g>
   <g id="LineCollection_1">
    <path d="M 111.577425 331.637415 
L 223.814462 331.637415 
" clip-path="url(#p0434cfb1b8)" style="fill: none; stroke: #000000; stroke-width: 2"/>
   </g>
   <g id="LineCollection_2">
    <path d="M 240.650017 283.073698 
L 352.887054 283.073698 
" clip-path="url(#p0434cfb1b8)" style="fill: none; stroke: #000000; stroke-width: 2"/>
   </g>
   <g id="LineCollection_3">
    <path d="M 532.466314 184.119262 
L 644.703351 184.119262 
" clip-path="url(#p0434cfb1b8)" style="fill: none; stroke: #000000; stroke-width: 2"/>
   </g>
   <g id="LineCollection_4">
    <path d="M 661.538906 152.912074 
L 773.775943 152.912074 
" clip-path="url(#p0434cfb1b8)" style="fill: none; stroke: #000000; stroke-width: 2"/>
   </g>
   <g id="LineCollection_5">
    <path d="M 392.170017 57.833846 
L 504.407054 57.833846 
" clip-path="url(#p0434cfb1b8)" style="fill: none; stroke: #000000; stroke-width: 2"/>
   </g>
   <g id="LineCollection_6">
    <path d="M 111.577425 466.193723 
L 223.814462 466.193723 
" clip-path="url(#p0434cfb1b8)" style="fill: none; stroke: #1f77b4; stroke-width: 2.6"/>
   </g>
   <g id="LineCollection_7">
    <path d="M 240.650017 325.465108 
L 352.887054 325.465108 
" clip-path="url(#p0434cfb1b8)" style="fill: none; stroke: #2ca02c; stroke-width: 2.6"/>
   </g>
   <g id="LineCollection_8">
    <path d="M 532.466314 330.402954 
L 644.703351 330.402954 
" clip-path="url(#p0434cfb1b8)" style="fill: none; stroke: #d62728; stroke-width: 2.6"/>
   </g>
   <g id="LineCollection_9">
    <path d="M 111.577425 316.823877 
L 223.814462 316.823877 
" clip-path="url(#p0434cfb1b8)" style="fill: none; stroke-dasharray: 8,4; stroke-dashoffset: 0; stroke: #2ca02c; stroke-width: 2"/>
   </g>
   <g id="LineCollection_10">
    <path d="M 240.650017 271.395692 
L 352.887054 271.395692 
" clip-path="url(#p0434cfb1b8)" style="fill: none; stroke-dasharray: 8,4; stroke-dashoffset: 0; stroke: #1f77b4; stroke-width: 2"/>
   </g>
   <g id="LineCollection_11">
    <path d="M 532.466314 172.638769 
L 644.703351 172.638769 
" clip-path="url(#p0434cfb1b8)" style="fill: none; stroke-dasharray: 8,4; stroke-dashoffset: 0; stroke: #2ca02c; stroke-width: 2"/>
   </g>
   <g id="line2d_9">
    <path d="M 240.650017 283.073698 
L 352.887054 271.395692 
" clip-path="url(#p0434cfb1b8)" style="fill: none; stroke-dasharray: 3.6,1.8; stroke-dashoffset: 0; stroke: #1f77b4; stroke-width: 0.9"/>
   </g>
   <g id="line2d_10">
    <path d="M 240.650017 271.395692 
L 111.577425 466.193723 
" clip-path="url(#p0434cfb1b8)" style="fill: none; stroke-dasharray: 3.6,1.8; stroke-dashoffset: 0; stroke: #1f77b4; stroke-width: 0.9"/>
   </g>
   <g id="line2d_11">
    <path d="M 223.814462 331.637415 
L 223.814462 316.823877 
" clip-path="url(#p0434cfb1b8)" style="fill: none; stroke-dasharray: 3.6,1.8; stroke-dashoffset: 0; stroke: #2ca02c; stroke-width: 0.9"/>
   </g>
   <g id="line2d_12">
    <path d="M 223.814462 316.823877 
L 240.650017 325.465108 
" clip-path="url(#p0434cfb1b8)" style="fill: none; stroke-dasharray: 3.6,1.8; stroke-dashoffset: 0; stroke: #2ca02c; stroke-width: 0.9"/>
   </g>
   <g id="line2d_13">
    <path d="M 352.887054 325.465108 
L 532.466314 184.119262 
" clip-path="url(#p0434cfb1b8)" style="fill: none; stroke-dasharray: 3.6,1.8; stroke-dashoffset: 0; stroke: #2ca02c; stroke-width: 0.9"/>
   </g>
   <g id="line2d_14">
    <path d="M 644.703351 184.119262 
L 532.466314 172.638769 
" clip-path="url(#p0434cfb1b8)" style="fill: none; stroke-dasharray: 3.6,1.8; stroke-dashoffset: 0; stroke: #d62728; stroke-width: 0.9"/>
   </g>
   <g id="line2d_15">
    <path d="M 532.466314 172.638769 
L 644.703351 330.402954 
" clip-path="url(#p0434cfb1b8)" style="fill: none; stroke-dasharray: 3.6,1.8; stroke-dashoffset: 0; stroke: #d62728; stroke-width: 0.9"/>
   </g>
   <g id="line2d_16">
    <path d="M 644.703351 330.402954 
L 661.538906 152.912074 
" clip-path="url(#p0434cfb1b8)" style="fill: none; stroke-dasharray: 3.6,1.8; stroke-dashoffset: 0; stroke: #d62728; stroke-width: 0.9"/>
   </g>
   <g id="line2d_17">
    <path d="M 223.814462 331.637415 
L 392.170017 57.833846 
" clip-path="url(#p0434cfb1b8)" style="fill: none; stroke: #808080; stroke-width: 0.7; stroke-linecap: square"/>
   </g>
   <g id="line2d_18">
    <path d="M 352.887054 283.073698 
L 392.170017 57.833846 
" clip-path="url(#p0434cfb1b8)" style="fill: none; stroke: #808080; stroke-width: 0.7; stroke-linecap: square"/>
   </g>
   <g id="line2d_19">
    <path d="M 532.466314 184.119262 
L 504.407054 57.833846 
" clip-path="url(#p0434cfb1b8)" style="fill: none; stroke: #808080; stroke-width: 0.7; stroke-linecap: square"/>
   </g>
   <g id="line2d_20">
    <path d="M 661.538906 152.912074 
L 504.407054 57.833846 
" clip-path="url(#p0434cfb1b8)" style="fill: none; stroke: #808080; stroke-width: 0.7; stroke-linecap: square"/>
   </g>
   <g id="patch_3">
    <path d="M 55.458906 502.24 
L 55.458906 20.8 
" style="fill: none; stroke: #000000; stroke-width: 0.8; stroke-linejoin: miter; stroke-linecap: square"/>
   </g>
   <g id="text_10">
    <!-- CO(X$^1\Sigma^+$) + O($^3$P) -->
    <g transform="translate(126.045943 325.425619) scale(0.085 -0.085)">
     <defs>
      <path id="DejaVuSans-Bold-43" d="M 4288 256 
Q 3956 84 3597 -3 
Q 3238 -91 2847 -91 
Q 1681 -91 1000 561 
Q 319 1213 319 2328 
Q 319 3447 1000 4098 
Q 1681 4750 2847 4750 
Q 3238 4750 3597 4662 
Q 3956 4575 4288 4403 
L 4288 3438 
Q 3953 3666 3628 3772 
Q 3303 3878 2944 3878 
Q 2300 3878 1931 3465 
Q 1563 3053 1563 2328 
Q 1563 1606 1931 1193 
Q 2300 781 2944 781 
Q 3303 781 3628 887 
Q 3953 994 4288 1222 
L 4288 256 
z
" transform="scale(0.015625)"/>
      <path id="DejaVuSans-Bold-4f" d="M 2719 3878 
Q 2169 3878 1866 3472 
Q 1563 3066 1563 2328 
Q 1563 1594 1866 1187 
Q 2169 781 2719 781 
Q 3272 781 3575 1187 
Q 3878 1594 3878 2328 
Q 3878 3066 3575 3472 
Q 3272 3878 2719 3878 
z
M 2719 4750 
Q 3844 4750 4481 4106 
Q 5119 3463 5119 2328 
Q 5119 1197 4481 553 
Q 3844 -91 2719 -91 
Q 1597 -91 958 553 
Q 319 1197 319 2328 
Q 319 3463 958 4106 
Q 1597 4750 2719 4750 
z
" transform="scale(0.015625)"/>
      <path id="DejaVuSans-Bold-28" d="M 2413 -844 
L 1484 -844 
Q 1006 -72 778 623 
Q 550 1319 550 2003 
Q 550 2688 779 3389 
Q 1009 4091 1484 4856 
L 2413 4856 
Q 2013 4116 1813 3408 
Q 1613 2700 1613 2009 
Q 1613 1319 1811 609 
Q 2009 -100 2413 -844 
z
" transform="scale(0.015625)"/>
      <path id="DejaVuSans-Bold-58" d="M 3188 2381 
L 4806 0 
L 3553 0 
L 2463 1594 
L 1381 0 
L 122 0 
L 1741 2381 
L 184 4666 
L 1441 4666 
L 2463 3163 
L 3481 4666 
L 4744 4666 
L 3188 2381 
z
" transform="scale(0.015625)"/>
      <path id="DejaVuSans-3a3" d="M 1353 531 
L 3634 531 
L 3634 0 
L 628 0 
L 628 531 
L 2125 2481 
L 628 4134 
L 628 4666 
L 3578 4666 
L 3578 4134 
L 1353 4134 
L 2850 2494 
L 1353 531 
z
" transform="scale(0.015625)"/>
      <path id="DejaVuSans-2b" d="M 2944 4013 
L 2944 2272 
L 4684 2272 
L 4684 1741 
L 2944 1741 
L 2944 0 
L 2419 0 
L 2419 1741 
L 678 1741 
L 678 2272 
L 2419 2272 
L 2419 4013 
L 2944 4013 
z
" transform="scale(0.015625)"/>
      <path id="DejaVuSans-Bold-29" d="M 513 -844 
Q 913 -100 1113 609 
Q 1313 1319 1313 2009 
Q 1313 2700 1113 3408 
Q 913 4116 513 4856 
L 1441 4856 
Q 1916 4091 2145 3389 
Q 2375 2688 2375 2003 
Q 2375 1319 2147 623 
Q 1919 -72 1441 -844 
L 513 -844 
z
" transform="scale(0.015625)"/>
      <path id="DejaVuSans-Bold-20" transform="scale(0.015625)"/>
      <path id="DejaVuSans-Bold-2b" d="M 3053 4013 
L 3053 2375 
L 4684 2375 
L 4684 1638 
L 3053 1638 
L 3053 0 
L 2309 0 
L 2309 1638 
L 678 1638 
L 678 2375 
L 2309 2375 
L 2309 4013 
L 3053 4013 
z
" transform="scale(0.015625)"/>
      <path id="DejaVuSans-33" d="M 2597 2516 
Q 3050 2419 3304 2112 
Q 3559 1806 3559 1356 
Q 3559 666 3084 287 
Q 2609 -91 1734 -91 
Q 1441 -91 1130 -33 
Q 819 25 488 141 
L 488 750 
Q 750 597 1062 519 
Q 1375 441 1716 441 
Q 2309 441 2620 675 
Q 2931 909 2931 1356 
Q 2931 1769 2642 2001 
Q 2353 2234 1838 2234 
L 1294 2234 
L 1294 2753 
L 1863 2753 
Q 2328 2753 2575 2939 
Q 2822 3125 2822 3475 
Q 2822 3834 2567 4026 
Q 2313 4219 1838 4219 
Q 1578 4219 1281 4162 
Q 984 4106 628 3988 
L 628 4550 
Q 988 4650 1302 4700 
Q 1616 4750 1894 4750 
Q 2613 4750 3031 4423 
Q 3450 4097 3450 3541 
Q 3450 3153 3228 2886 
Q 3006 2619 2597 2516 
z
" transform="scale(0.015625)"/>
      <path id="DejaVuSans-Bold-50" d="M 588 4666 
L 2584 4666 
Q 3475 4666 3951 4270 
Q 4428 3875 4428 3144 
Q 4428 2409 3951 2014 
Q 3475 1619 2584 1619 
L 1791 1619 
L 1791 0 
L 588 0 
L 588 4666 
z
M 1791 3794 
L 1791 2491 
L 2456 2491 
Q 2806 2491 2997 2661 
Q 3188 2831 3188 3144 
Q 3188 3456 2997 3625 
Q 2806 3794 2456 3794 
L 1791 3794 
z
" transform="scale(0.015625)"/>
     </defs>
     <use xlink:href="#DejaVuSans-Bold-43" transform="translate(0 0.765625)"/>
     <use xlink:href="#DejaVuSans-Bold-4f" transform="translate(73.388672 0.765625)"/>
     <use xlink:href="#DejaVuSans-Bold-28" transform="translate(158.398438 0.765625)"/>
     <use xlink:href="#DejaVuSans-Bold-58" transform="translate(204.101562 0.765625)"/>
     <use xlink:href="#DejaVuSans-31" transform="translate(282.158203 39.046875) scale(0.7)"/>
     <use xlink:href="#DejaVuSans-3a3" transform="translate(329.428711 0.765625)"/>
     <use xlink:href="#DejaVuSans-2b" transform="translate(407.207031 39.046875) scale(0.7)"/>
     <use xlink:href="#DejaVuSans-Bold-29" transform="translate(482.231445 0.765625)"/>
     <use xlink:href="#DejaVuSans-Bold-20" transform="translate(527.93457 0.765625)"/>
     <use xlink:href="#DejaVuSans-Bold-2b" transform="translate(562.749023 0.765625)"/>
     <use xlink:href="#DejaVuSans-Bold-20" transform="translate(646.538086 0.765625)"/>
     <use xlink:href="#DejaVuSans-Bold-4f" transform="translate(681.352539 0.765625)"/>
     <use xlink:href="#DejaVuSans-Bold-28" transform="translate(766.362305 0.765625)"/>
     <use xlink:href="#DejaVuSans-33" transform="translate(813.022461 39.046875) scale(0.7)"/>
     <use xlink:href="#DejaVuSans-Bold-50" transform="translate(860.292969 0.765625)"/>
     <use xlink:href="#DejaVuSans-Bold-29" transform="translate(933.583984 0.765625)"/>
    </g>
   </g>
   <g id="text_11">
    <!-- CO + O($^1$D) -->
    <g transform="translate(270.418536 276.861903) scale(0.085 -0.085)">
     <defs>
      <path id="DejaVuSans-Bold-44" d="M 1791 3756 
L 1791 909 
L 2222 909 
Q 2959 909 3348 1275 
Q 3738 1641 3738 2338 
Q 3738 3031 3350 3393 
Q 2963 3756 2222 3756 
L 1791 3756 
z
M 588 4666 
L 1856 4666 
Q 2919 4666 3439 4514 
Q 3959 4363 4331 4000 
Q 4659 3684 4818 3271 
Q 4978 2859 4978 2338 
Q 4978 1809 4818 1395 
Q 4659 981 4331 666 
Q 3956 303 3431 151 
Q 2906 0 1856 0 
L 588 0 
L 588 4666 
z
" transform="scale(0.015625)"/>
     </defs>
     <use xlink:href="#DejaVuSans-Bold-43" transform="translate(0 0.684375)"/>
     <use xlink:href="#DejaVuSans-Bold-4f" transform="translate(73.388672 0.684375)"/>
     <use xlink:href="#DejaVuSans-Bold-20" transform="translate(158.398438 0.684375)"/>
     <use xlink:href="#DejaVuSans-Bold-2b" transform="translate(193.212891 0.684375)"/>
     <use xlink:href="#DejaVuSans-Bold-20" transform="translate(277.001953 0.684375)"/>
     <use xlink:href="#DejaVuSans-Bold-4f" transform="translate(311.816406 0.684375)"/>
     <use xlink:href="#DejaVuSans-Bold-28" transform="translate(396.826172 0.684375)"/>
     <use xlink:href="#DejaVuSans-31" transform="translate(443.486328 38.965625) scale(0.7)"/>
     <use xlink:href="#DejaVuSans-Bold-44" transform="translate(490.756836 0.684375)"/>
     <use xlink:href="#DejaVuSans-Bold-29" transform="translate(573.764648 0.684375)"/>
    </g>
   </g>
   <g id="text_12">
    <!-- O$_2$(X$^3\Sigma_g^-$) + C($^3$P) -->
    <g transform="translate(548.507332 176.1052) scale(0.085 -0.085)">
     <defs>
      <path id="DejaVuSans-Oblique-67" d="M 3816 3500 
L 3219 434 
Q 3047 -456 2561 -893 
Q 2075 -1331 1253 -1331 
Q 950 -1331 690 -1286 
Q 431 -1241 206 -1147 
L 313 -588 
Q 525 -725 762 -790 
Q 1000 -856 1269 -856 
Q 1816 -856 2167 -557 
Q 2519 -259 2631 300 
L 2681 563 
Q 2441 288 2122 144 
Q 1803 0 1434 0 
Q 903 0 598 351 
Q 294 703 294 1319 
Q 294 1803 478 2267 
Q 663 2731 997 3091 
Q 1219 3328 1514 3456 
Q 1809 3584 2131 3584 
Q 2484 3584 2746 3420 
Q 3009 3256 3138 2956 
L 3238 3500 
L 3816 3500 
z
M 2950 2216 
Q 2950 2641 2750 2872 
Q 2550 3103 2181 3103 
Q 1953 3103 1747 3012 
Q 1541 2922 1394 2759 
Q 1156 2491 1023 2127 
Q 891 1763 891 1375 
Q 891 944 1092 712 
Q 1294 481 1672 481 
Q 2219 481 2584 976 
Q 2950 1472 2950 2216 
z
" transform="scale(0.015625)"/>
     </defs>
     <use xlink:href="#DejaVuSans-Bold-4f" transform="translate(0 0.765625)"/>
     <use xlink:href="#DejaVuSans-32" transform="translate(85.966797 -15.640625) scale(0.7)"/>
     <use xlink:href="#DejaVuSans-Bold-28" transform="translate(133.237305 0.765625)"/>
     <use xlink:href="#DejaVuSans-Bold-58" transform="translate(178.94043 0.765625)"/>
     <use xlink:href="#DejaVuSans-33" transform="translate(256.99707 39.046875) scale(0.7)"/>
     <use xlink:href="#DejaVuSans-3a3" transform="translate(304.267578 0.765625)"/>
     <use xlink:href="#DejaVuSans-2212" transform="translate(382.045898 39.046875) scale(0.7)"/>
     <use xlink:href="#DejaVuSans-Oblique-67" transform="translate(368.408203 -26.578125) scale(0.7)"/>
     <use xlink:href="#DejaVuSans-Bold-29" transform="translate(457.070312 0.765625)"/>
     <use xlink:href="#DejaVuSans-Bold-20" transform="translate(502.773438 0.765625)"/>
     <use xlink:href="#DejaVuSans-Bold-2b" transform="translate(537.587891 0.765625)"/>
     <use xlink:href="#DejaVuSans-Bold-20" transform="translate(621.376953 0.765625)"/>
     <use xlink:href="#DejaVuSans-Bold-43" transform="translate(656.191406 0.765625)"/>
     <use xlink:href="#DejaVuSans-Bold-28" transform="translate(729.580078 0.765625)"/>
     <use xlink:href="#DejaVuSans-33" transform="translate(776.240234 39.046875) scale(0.7)"/>
     <use xlink:href="#DejaVuSans-Bold-50" transform="translate(823.510742 0.765625)"/>
     <use xlink:href="#DejaVuSans-Bold-29" transform="translate(896.801758 0.765625)"/>
    </g>
   </g>
   <g id="text_13">
    <!-- O$_2$ + C($^1$D) -->
    <g transform="translate(692.879925 146.700278) scale(0.085 -0.085)">
     <use xlink:href="#DejaVuSans-Bold-4f" transform="translate(0 0.684375)"/>
     <use xlink:href="#DejaVuSans-32" transform="translate(85.966797 -15.721875) scale(0.7)"/>
     <use xlink:href="#DejaVuSans-Bold-20" transform="translate(133.237305 0.684375)"/>
     <use xlink:href="#DejaVuSans-Bold-2b" transform="translate(168.051758 0.684375)"/>
     <use xlink:href="#DejaVuSans-Bold-20" transform="translate(251.84082 0.684375)"/>
     <use xlink:href="#DejaVuSans-Bold-43" transform="translate(286.655273 0.684375)"/>
     <use xlink:href="#DejaVuSans-Bold-28" transform="translate(360.043945 0.684375)"/>
     <use xlink:href="#DejaVuSans-31" transform="translate(406.704102 38.965625) scale(0.7)"/>
     <use xlink:href="#DejaVuSans-Bold-44" transform="translate(453.974609 0.684375)"/>
     <use xlink:href="#DejaVuSans-Bold-29" transform="translate(536.982422 0.684375)"/>
    </g>
   </g>
   <g id="text_14">
    <!-- C + O + O -->
    <g transform="translate(424.902247 51.62205) scale(0.085 -0.085)">
     <use xlink:href="#DejaVuSans-Bold-43"/>
     <use xlink:href="#DejaVuSans-Bold-20" x="73.388672"/>
     <use xlink:href="#DejaVuSans-Bold-2b" x="108.203125"/>
     <use xlink:href="#DejaVuSans-Bold-20" x="191.992188"/>
     <use xlink:href="#DejaVuSans-Bold-4f" x="226.806641"/>
     <use xlink:href="#DejaVuSans-Bold-20" x="311.816406"/>
     <use xlink:href="#DejaVuSans-Bold-2b" x="346.630859"/>
     <use xlink:href="#DejaVuSans-Bold-20" x="430.419922"/>
     <use xlink:href="#DejaVuSans-Bold-4f" x="465.234375"/>
    </g>
   </g>
   <g id="text_15">
    <!-- CO$_2$(X$^1\Sigma_g^+$, linear) -->
    <g style="fill: #1f77b4" transform="translate(129.828443 458.179662) scale(0.085 -0.085)">
     <defs>
      <path id="DejaVuSans-43" d="M 4122 4306 
L 4122 3641 
Q 3803 3938 3442 4084 
Q 3081 4231 2675 4231 
Q 1875 4231 1450 3742 
Q 1025 3253 1025 2328 
Q 1025 1406 1450 917 
Q 1875 428 2675 428 
Q 3081 428 3442 575 
Q 3803 722 4122 1019 
L 4122 359 
Q 3791 134 3420 21 
Q 3050 -91 2638 -91 
Q 1578 -91 968 557 
Q 359 1206 359 2328 
Q 359 3453 968 4101 
Q 1578 4750 2638 4750 
Q 3056 4750 3426 4639 
Q 3797 4528 4122 4306 
z
" transform="scale(0.015625)"/>
      <path id="DejaVuSans-4f" d="M 2522 4238 
Q 1834 4238 1429 3725 
Q 1025 3213 1025 2328 
Q 1025 1447 1429 934 
Q 1834 422 2522 422 
Q 3209 422 3611 934 
Q 4013 1447 4013 2328 
Q 4013 3213 3611 3725 
Q 3209 4238 2522 4238 
z
M 2522 4750 
Q 3503 4750 4090 4092 
Q 4678 3434 4678 2328 
Q 4678 1225 4090 567 
Q 3503 -91 2522 -91 
Q 1538 -91 948 565 
Q 359 1222 359 2328 
Q 359 3434 948 4092 
Q 1538 4750 2522 4750 
z
" transform="scale(0.015625)"/>
      <path id="DejaVuSans-58" d="M 403 4666 
L 1081 4666 
L 2241 2931 
L 3406 4666 
L 4084 4666 
L 2584 2425 
L 4184 0 
L 3506 0 
L 2194 1984 
L 872 0 
L 191 0 
L 1856 2491 
L 403 4666 
z
" transform="scale(0.015625)"/>
      <path id="DejaVuSans-2c" d="M 750 794 
L 1409 794 
L 1409 256 
L 897 -744 
L 494 -744 
L 750 256 
L 750 794 
z
" transform="scale(0.015625)"/>
     </defs>
     <use xlink:href="#DejaVuSans-43" transform="translate(0 0.684375)"/>
     <use xlink:href="#DejaVuSans-4f" transform="translate(69.824219 0.684375)"/>
     <use xlink:href="#DejaVuSans-32" transform="translate(149.492188 -15.721875) scale(0.7)"/>
     <use xlink:href="#DejaVuSans-28" transform="translate(196.762695 0.684375)"/>
     <use xlink:href="#DejaVuSans-58" transform="translate(235.776367 0.684375)"/>
     <use xlink:href="#DejaVuSans-31" transform="translate(305.239258 38.965625) scale(0.7)"/>
     <use xlink:href="#DejaVuSans-3a3" transform="translate(352.509766 0.684375)"/>
     <use xlink:href="#DejaVuSans-2b" transform="translate(430.288086 38.965625) scale(0.7)"/>
     <use xlink:href="#DejaVuSans-Oblique-67" transform="translate(416.650391 -26.659375) scale(0.7)"/>
     <use xlink:href="#DejaVuSans-2c" transform="translate(505.3125 0.684375)"/>
     <use xlink:href="#DejaVuSans-20" transform="translate(537.099609 0.684375)"/>
     <use xlink:href="#DejaVuSans-6c" transform="translate(568.886719 0.684375)"/>
     <use xlink:href="#DejaVuSans-69" transform="translate(596.669922 0.684375)"/>
     <use xlink:href="#DejaVuSans-6e" transform="translate(624.453125 0.684375)"/>
     <use xlink:href="#DejaVuSans-65" transform="translate(687.832031 0.684375)"/>
     <use xlink:href="#DejaVuSans-61" transform="translate(749.355469 0.684375)"/>
     <use xlink:href="#DejaVuSans-72" transform="translate(810.634766 0.684375)"/>
     <use xlink:href="#DejaVuSans-29" transform="translate(851.748047 0.684375)"/>
    </g>
   </g>
   <g id="text_16">
    <!-- CO$_2$($^3B_2$, bent) -->
    <g style="fill: #2ca02c" transform="translate(265.701036 319.253312) scale(0.085 -0.085)">
     <defs>
      <path id="DejaVuSans-Oblique-42" d="M 1081 4666 
L 2694 4666 
Q 3350 4666 3675 4422 
Q 4000 4178 4000 3688 
Q 4000 3238 3720 2911 
Q 3441 2584 2988 2516 
Q 3375 2428 3569 2181 
Q 3763 1934 3763 1522 
Q 3763 819 3242 409 
Q 2722 0 1819 0 
L 172 0 
L 1081 4666 
z
M 1234 2228 
L 903 519 
L 1919 519 
Q 2491 519 2800 781 
Q 3109 1044 3109 1522 
Q 3109 1891 2904 2059 
Q 2700 2228 2247 2228 
L 1234 2228 
z
M 1606 4147 
L 1331 2741 
L 2272 2741 
Q 2775 2741 3058 2959 
Q 3341 3178 3341 3566 
Q 3341 3869 3150 4008 
Q 2959 4147 2541 4147 
L 1606 4147 
z
" transform="scale(0.015625)"/>
      <path id="DejaVuSans-62" d="M 3116 1747 
Q 3116 2381 2855 2742 
Q 2594 3103 2138 3103 
Q 1681 3103 1420 2742 
Q 1159 2381 1159 1747 
Q 1159 1113 1420 752 
Q 1681 391 2138 391 
Q 2594 391 2855 752 
Q 3116 1113 3116 1747 
z
M 1159 2969 
Q 1341 3281 1617 3432 
Q 1894 3584 2278 3584 
Q 2916 3584 3314 3078 
Q 3713 2572 3713 1747 
Q 3713 922 3314 415 
Q 2916 -91 2278 -91 
Q 1894 -91 1617 61 
Q 1341 213 1159 525 
L 1159 0 
L 581 0 
L 581 4863 
L 1159 4863 
L 1159 2969 
z
" transform="scale(0.015625)"/>
     </defs>
     <use xlink:href="#DejaVuSans-43" transform="translate(0 0.765625)"/>
     <use xlink:href="#DejaVuSans-4f" transform="translate(69.824219 0.765625)"/>
     <use xlink:href="#DejaVuSans-32" transform="translate(149.492188 -15.640625) scale(0.7)"/>
     <use xlink:href="#DejaVuSans-28" transform="translate(196.762695 0.765625)"/>
     <use xlink:href="#DejaVuSans-33" transform="translate(236.733398 39.046875) scale(0.7)"/>
     <use xlink:href="#DejaVuSans-Oblique-42" transform="translate(284.003906 0.765625)"/>
     <use xlink:href="#DejaVuSans-32" transform="translate(352.607422 -15.640625) scale(0.7)"/>
     <use xlink:href="#DejaVuSans-2c" transform="translate(399.87793 0.765625)"/>
     <use xlink:href="#DejaVuSans-20" transform="translate(431.665039 0.765625)"/>
     <use xlink:href="#DejaVuSans-62" transform="translate(463.452148 0.765625)"/>
     <use xlink:href="#DejaVuSans-65" transform="translate(526.928711 0.765625)"/>
     <use xlink:href="#DejaVuSans-6e" transform="translate(588.452148 0.765625)"/>
     <use xlink:href="#DejaVuSans-74" transform="translate(651.831055 0.765625)"/>
     <use xlink:href="#DejaVuSans-29" transform="translate(691.040039 0.765625)"/>
    </g>
   </g>
   <g id="text_17">
    <!-- CO$_2$($^3A_1$, bent) -->
    <g style="fill: #d62728" transform="translate(557.559832 324.191158) scale(0.085 -0.085)">
     <defs>
      <path id="DejaVuSans-Oblique-41" d="M 2356 4666 
L 3072 4666 
L 3938 0 
L 3278 0 
L 3084 1197 
L 984 1197 
L 325 0 
L -341 0 
L 2356 4666 
z
M 2584 4044 
L 1275 1722 
L 2988 1722 
L 2584 4044 
z
" transform="scale(0.015625)"/>
     </defs>
     <use xlink:href="#DejaVuSans-43" transform="translate(0 0.765625)"/>
     <use xlink:href="#DejaVuSans-4f" transform="translate(69.824219 0.765625)"/>
     <use xlink:href="#DejaVuSans-32" transform="translate(149.492188 -15.640625) scale(0.7)"/>
     <use xlink:href="#DejaVuSans-28" transform="translate(196.762695 0.765625)"/>
     <use xlink:href="#DejaVuSans-33" transform="translate(236.733398 39.046875) scale(0.7)"/>
     <use xlink:href="#DejaVuSans-Oblique-41" transform="translate(284.003906 0.765625)"/>
     <use xlink:href="#DejaVuSans-31" transform="translate(352.412109 -15.640625) scale(0.7)"/>
     <use xlink:href="#DejaVuSans-2c" transform="translate(399.682617 0.765625)"/>
     <use xlink:href="#DejaVuSans-20" transform="translate(431.469727 0.765625)"/>
     <use xlink:href="#DejaVuSans-62" transform="translate(463.256836 0.765625)"/>
     <use xlink:href="#DejaVuSans-65" transform="translate(526.733398 0.765625)"/>
     <use xlink:href="#DejaVuSans-6e" transform="translate(588.256836 0.765625)"/>
     <use xlink:href="#DejaVuSans-74" transform="translate(651.635742 0.765625)"/>
     <use xlink:href="#DejaVuSans-29" transform="translate(690.844727 0.765625)"/>
    </g>
   </g>
   <g id="text_18">
    <!-- CO+O($^3$P) saddle ($^3A^{\prime\prime}$) -->
    <g style="fill: #2ca02c" transform="translate(122.335943 310.716065) scale(0.08 -0.08)">
     <defs>
      <path id="DejaVuSans-Oblique-43" d="M 4447 4306 
L 4319 3641 
Q 4019 3944 3683 4091 
Q 3347 4238 2956 4238 
Q 2422 4238 2017 3981 
Q 1613 3725 1319 3200 
Q 1131 2863 1032 2486 
Q 934 2109 934 1728 
Q 934 1091 1264 756 
Q 1594 422 2222 422 
Q 2656 422 3056 561 
Q 3456 700 3834 978 
L 3688 231 
Q 3316 72 2936 -9 
Q 2556 -91 2175 -91 
Q 1278 -91 773 396 
Q 269 884 269 1753 
Q 269 2309 461 2846 
Q 653 3384 1013 3828 
Q 1394 4300 1883 4525 
Q 2372 4750 3022 4750 
Q 3422 4750 3780 4639 
Q 4138 4528 4447 4306 
z
" transform="scale(0.015625)"/>
      <path id="DejaVuSans-Oblique-4f" d="M 2919 4238 
Q 2400 4238 2003 3986 
Q 1606 3734 1313 3219 
Q 1125 2891 1026 2522 
Q 928 2153 928 1778 
Q 928 1128 1239 775 
Q 1550 422 2119 422 
Q 2631 422 3032 676 
Q 3434 931 3719 1434 
Q 3909 1772 4009 2142 
Q 4109 2513 4109 2881 
Q 4109 3528 3796 3883 
Q 3484 4238 2919 4238 
z
M 2100 -91 
Q 1241 -91 748 418 
Q 256 928 256 1813 
Q 256 2319 448 2847 
Q 641 3375 978 3788 
Q 1375 4272 1862 4511 
Q 2350 4750 2938 4750 
Q 3794 4750 4287 4245 
Q 4781 3741 4781 2869 
Q 4781 2331 4593 1812 
Q 4406 1294 4056 872 
Q 3656 384 3173 146 
Q 2691 -91 2100 -91 
z
" transform="scale(0.015625)"/>
      <path id="DejaVuSans-Oblique-2b" d="M 2944 4013 
L 2944 2272 
L 4684 2272 
L 4684 1741 
L 2944 1741 
L 2944 0 
L 2419 0 
L 2419 1741 
L 678 1741 
L 678 2272 
L 2419 2272 
L 2419 4013 
L 2944 4013 
z
" transform="scale(0.015625)"/>
      <path id="DejaVuSans-Oblique-28" d="M 2731 4856 
Q 1903 3822 1495 2892 
Q 1088 1963 1088 1100 
Q 1088 606 1206 120 
Q 1325 -366 1563 -844 
L 1063 -844 
Q 775 -306 634 201 
Q 494 709 494 1197 
Q 494 2125 923 3036 
Q 1353 3947 2222 4856 
L 2731 4856 
z
" transform="scale(0.015625)"/>
      <path id="DejaVuSans-Oblique-50" d="M 1081 4666 
L 2541 4666 
Q 3178 4666 3512 4369 
Q 3847 4072 3847 3500 
Q 3847 2731 3353 2303 
Q 2859 1875 1966 1875 
L 1172 1875 
L 806 0 
L 172 0 
L 1081 4666 
z
M 1613 4147 
L 1275 2394 
L 2069 2394 
Q 2606 2394 2893 2669 
Q 3181 2944 3181 3456 
Q 3181 3784 2986 3965 
Q 2791 4147 2438 4147 
L 1613 4147 
z
" transform="scale(0.015625)"/>
      <path id="DejaVuSans-Oblique-29" d="M -397 -844 
Q 434 191 840 1120 
Q 1247 2050 1247 2913 
Q 1247 3406 1130 3892 
Q 1013 4378 775 4856 
L 1275 4856 
Q 1563 4316 1703 3812 
Q 1844 3309 1844 2822 
Q 1844 1891 1411 973 
Q 978 56 116 -844 
L -397 -844 
z
" transform="scale(0.015625)"/>
      <path id="DejaVuSans-Oblique-20" transform="scale(0.015625)"/>
      <path id="DejaVuSans-Oblique-73" d="M 3200 3397 
L 3091 2853 
Q 2863 2978 2609 3040 
Q 2356 3103 2088 3103 
Q 1634 3103 1373 2948 
Q 1113 2794 1113 2528 
Q 1113 2219 1719 2053 
Q 1766 2041 1788 2034 
L 1972 1978 
Q 2547 1819 2739 1644 
Q 2931 1469 2931 1166 
Q 2931 609 2489 259 
Q 2047 -91 1331 -91 
Q 1053 -91 747 -37 
Q 441 16 72 128 
L 184 722 
Q 500 559 806 475 
Q 1113 391 1394 391 
Q 1816 391 2080 572 
Q 2344 753 2344 1031 
Q 2344 1331 1650 1516 
L 1591 1531 
L 1394 1581 
Q 956 1697 753 1886 
Q 550 2075 550 2369 
Q 550 2928 970 3256 
Q 1391 3584 2113 3584 
Q 2397 3584 2667 3537 
Q 2938 3491 3200 3397 
z
" transform="scale(0.015625)"/>
      <path id="DejaVuSans-Oblique-61" d="M 3438 1997 
L 3047 0 
L 2472 0 
L 2578 531 
Q 2325 219 2001 64 
Q 1678 -91 1281 -91 
Q 834 -91 548 182 
Q 263 456 263 884 
Q 263 1497 752 1853 
Q 1241 2209 2100 2209 
L 2900 2209 
L 2931 2363 
Q 2938 2388 2941 2417 
Q 2944 2447 2944 2509 
Q 2944 2788 2717 2942 
Q 2491 3097 2081 3097 
Q 1800 3097 1504 3025 
Q 1209 2953 897 2809 
L 997 3341 
Q 1322 3463 1633 3523 
Q 1944 3584 2234 3584 
Q 2853 3584 3176 3315 
Q 3500 3047 3500 2534 
Q 3500 2431 3484 2292 
Q 3469 2153 3438 1997 
z
M 2816 1759 
L 2241 1759 
Q 1534 1759 1195 1570 
Q 856 1381 856 984 
Q 856 709 1029 553 
Q 1203 397 1509 397 
Q 1978 397 2328 733 
Q 2678 1069 2791 1631 
L 2816 1759 
z
" transform="scale(0.015625)"/>
      <path id="DejaVuSans-Oblique-64" d="M 2675 525 
Q 2444 222 2128 65 
Q 1813 -91 1428 -91 
Q 903 -91 598 267 
Q 294 625 294 1247 
Q 294 1766 478 2236 
Q 663 2706 1013 3078 
Q 1244 3325 1534 3454 
Q 1825 3584 2144 3584 
Q 2481 3584 2739 3421 
Q 2997 3259 3138 2956 
L 3513 4863 
L 4091 4863 
L 3144 0 
L 2566 0 
L 2675 525 
z
M 891 1350 
Q 891 897 1095 644 
Q 1300 391 1663 391 
Q 1931 391 2161 520 
Q 2391 650 2566 903 
Q 2750 1166 2856 1509 
Q 2963 1853 2963 2188 
Q 2963 2622 2758 2865 
Q 2553 3109 2194 3109 
Q 1922 3109 1687 2981 
Q 1453 2853 1288 2613 
Q 1106 2353 998 2009 
Q 891 1666 891 1350 
z
" transform="scale(0.015625)"/>
      <path id="DejaVuSans-Oblique-6c" d="M 1172 4863 
L 1747 4863 
L 800 0 
L 225 0 
L 1172 4863 
z
" transform="scale(0.015625)"/>
      <path id="DejaVuSans-Oblique-65" d="M 3078 2063 
Q 3088 2113 3092 2166 
Q 3097 2219 3097 2272 
Q 3097 2653 2873 2875 
Q 2650 3097 2266 3097 
Q 1838 3097 1509 2826 
Q 1181 2556 1013 2059 
L 3078 2063 
z
M 3578 1613 
L 903 1613 
Q 884 1494 878 1425 
Q 872 1356 872 1306 
Q 872 872 1139 634 
Q 1406 397 1894 397 
Q 2269 397 2603 481 
Q 2938 566 3225 728 
L 3116 159 
Q 2806 34 2476 -28 
Q 2147 -91 1806 -91 
Q 1078 -91 686 257 
Q 294 606 294 1247 
Q 294 1794 489 2264 
Q 684 2734 1063 3103 
Q 1306 3334 1642 3459 
Q 1978 3584 2356 3584 
Q 2950 3584 3301 3228 
Q 3653 2872 3653 2272 
Q 3653 2128 3634 1964 
Q 3616 1800 3578 1613 
z
" transform="scale(0.015625)"/>
      <path id="Cmsy10-30" d="M 225 347 
Q 184 359 184 409 
L 966 3316 
Q 1003 3434 1093 3506 
Q 1184 3578 1300 3578 
Q 1450 3578 1564 3479 
Q 1678 3381 1678 3231 
Q 1678 3166 1644 3084 
L 488 319 
Q 466 275 428 275 
Q 394 275 320 306 
Q 247 338 225 347 
z
" transform="scale(0.015625)"/>
     </defs>
     <use xlink:href="#DejaVuSans-Oblique-43" transform="translate(0 0.765625)"/>
     <use xlink:href="#DejaVuSans-Oblique-4f" transform="translate(69.824219 0.765625)"/>
     <use xlink:href="#DejaVuSans-Oblique-2b" transform="translate(148.535156 0.765625)"/>
     <use xlink:href="#DejaVuSans-Oblique-4f" transform="translate(232.324219 0.765625)"/>
     <use xlink:href="#DejaVuSans-Oblique-28" transform="translate(311.035156 0.765625)"/>
     <use xlink:href="#DejaVuSans-33" transform="translate(351.005859 39.046875) scale(0.7)"/>
     <use xlink:href="#DejaVuSans-Oblique-50" transform="translate(398.276367 0.765625)"/>
     <use xlink:href="#DejaVuSans-Oblique-29" transform="translate(458.579102 0.765625)"/>
     <use xlink:href="#DejaVuSans-Oblique-20" transform="translate(497.592773 0.765625)"/>
     <use xlink:href="#DejaVuSans-Oblique-73" transform="translate(529.379883 0.765625)"/>
     <use xlink:href="#DejaVuSans-Oblique-61" transform="translate(581.479492 0.765625)"/>
     <use xlink:href="#DejaVuSans-Oblique-64" transform="translate(642.758789 0.765625)"/>
     <use xlink:href="#DejaVuSans-Oblique-64" transform="translate(706.235352 0.765625)"/>
     <use xlink:href="#DejaVuSans-Oblique-6c" transform="translate(769.711914 0.765625)"/>
     <use xlink:href="#DejaVuSans-Oblique-65" transform="translate(797.495117 0.765625)"/>
     <use xlink:href="#DejaVuSans-Oblique-20" transform="translate(859.018555 0.765625)"/>
     <use xlink:href="#DejaVuSans-Oblique-28" transform="translate(890.805664 0.765625)"/>
     <use xlink:href="#DejaVuSans-33" transform="translate(930.776367 39.046875) scale(0.7)"/>
     <use xlink:href="#DejaVuSans-Oblique-41" transform="translate(978.046875 0.765625)"/>
     <use xlink:href="#Cmsy10-30" transform="translate(1053.471849 39.046875) scale(0.7)"/>
     <use xlink:href="#Cmsy10-30" transform="translate(1072.715013 39.046875) scale(0.7)"/>
     <use xlink:href="#DejaVuSans-Oblique-29" transform="translate(1094.692552 0.765625)"/>
    </g>
   </g>
   <g id="text_19">
    <!-- CO+O($^1$D) saddle ($^1A^\prime$) -->
    <g style="fill: #1f77b4" transform="translate(251.488536 265.287881) scale(0.08 -0.08)">
     <defs>
      <path id="DejaVuSans-Oblique-44" d="M 1081 4666 
L 2438 4666 
Q 3519 4666 4070 4208 
Q 4622 3750 4622 2847 
Q 4622 2250 4412 1698 
Q 4203 1147 3834 769 
Q 3463 381 2891 190 
Q 2319 0 1538 0 
L 172 0 
L 1081 4666 
z
M 1613 4147 
L 909 519 
L 1734 519 
Q 2794 519 3375 1128 
Q 3956 1738 3956 2847 
Q 3956 3519 3581 3833 
Q 3206 4147 2406 4147 
L 1613 4147 
z
" transform="scale(0.015625)"/>
     </defs>
     <use xlink:href="#DejaVuSans-Oblique-43" transform="translate(0 0.684375)"/>
     <use xlink:href="#DejaVuSans-Oblique-4f" transform="translate(69.824219 0.684375)"/>
     <use xlink:href="#DejaVuSans-Oblique-2b" transform="translate(148.535156 0.684375)"/>
     <use xlink:href="#DejaVuSans-Oblique-4f" transform="translate(232.324219 0.684375)"/>
     <use xlink:href="#DejaVuSans-Oblique-28" transform="translate(311.035156 0.684375)"/>
     <use xlink:href="#DejaVuSans-31" transform="translate(351.005859 38.965625) scale(0.7)"/>
     <use xlink:href="#DejaVuSans-Oblique-44" transform="translate(398.276367 0.684375)"/>
     <use xlink:href="#DejaVuSans-Oblique-29" transform="translate(475.27832 0.684375)"/>
     <use xlink:href="#DejaVuSans-Oblique-20" transform="translate(514.291992 0.684375)"/>
     <use xlink:href="#DejaVuSans-Oblique-73" transform="translate(546.079102 0.684375)"/>
     <use xlink:href="#DejaVuSans-Oblique-61" transform="translate(598.178711 0.684375)"/>
     <use xlink:href="#DejaVuSans-Oblique-64" transform="translate(659.458008 0.684375)"/>
     <use xlink:href="#DejaVuSans-Oblique-64" transform="translate(722.93457 0.684375)"/>
     <use xlink:href="#DejaVuSans-Oblique-6c" transform="translate(786.411133 0.684375)"/>
     <use xlink:href="#DejaVuSans-Oblique-65" transform="translate(814.194336 0.684375)"/>
     <use xlink:href="#DejaVuSans-Oblique-20" transform="translate(875.717773 0.684375)"/>
     <use xlink:href="#DejaVuSans-Oblique-28" transform="translate(907.504883 0.684375)"/>
     <use xlink:href="#DejaVuSans-31" transform="translate(947.475586 38.965625) scale(0.7)"/>
     <use xlink:href="#DejaVuSans-Oblique-41" transform="translate(994.746094 0.684375)"/>
     <use xlink:href="#Cmsy10-30" transform="translate(1070.171068 38.965625) scale(0.7)"/>
     <use xlink:href="#DejaVuSans-Oblique-29" transform="translate(1092.148607 0.684375)"/>
    </g>
   </g>
   <g id="text_20">
    <!-- O$_2$+C($^3$P) saddle ($^3A^{\prime\prime}$) -->
    <g style="fill: #2ca02c" transform="translate(544.424832 166.530958) scale(0.08 -0.08)">
     <use xlink:href="#DejaVuSans-Oblique-4f" transform="translate(0 0.765625)"/>
     <use xlink:href="#DejaVuSans-32" transform="translate(79.667969 -15.640625) scale(0.7)"/>
     <use xlink:href="#DejaVuSans-Oblique-2b" transform="translate(126.938477 0.765625)"/>
     <use xlink:href="#DejaVuSans-Oblique-43" transform="translate(210.727539 0.765625)"/>
     <use xlink:href="#DejaVuSans-Oblique-28" transform="translate(280.551758 0.765625)"/>
     <use xlink:href="#DejaVuSans-33" transform="translate(320.522461 39.046875) scale(0.7)"/>
     <use xlink:href="#DejaVuSans-Oblique-50" transform="translate(367.792969 0.765625)"/>
     <use xlink:href="#DejaVuSans-Oblique-29" transform="translate(428.095703 0.765625)"/>
     <use xlink:href="#DejaVuSans-Oblique-20" transform="translate(467.109375 0.765625)"/>
     <use xlink:href="#DejaVuSans-Oblique-73" transform="translate(498.896484 0.765625)"/>
     <use xlink:href="#DejaVuSans-Oblique-61" transform="translate(550.996094 0.765625)"/>
     <use xlink:href="#DejaVuSans-Oblique-64" transform="translate(612.275391 0.765625)"/>
     <use xlink:href="#DejaVuSans-Oblique-64" transform="translate(675.751953 0.765625)"/>
     <use xlink:href="#DejaVuSans-Oblique-6c" transform="translate(739.228516 0.765625)"/>
     <use xlink:href="#DejaVuSans-Oblique-65" transform="translate(767.011719 0.765625)"/>
     <use xlink:href="#DejaVuSans-Oblique-20" transform="translate(828.535156 0.765625)"/>
     <use xlink:href="#DejaVuSans-Oblique-28" transform="translate(860.322266 0.765625)"/>
     <use xlink:href="#DejaVuSans-33" transform="translate(900.292969 39.046875) scale(0.7)"/>
     <use xlink:href="#DejaVuSans-Oblique-41" transform="translate(947.563477 0.765625)"/>
     <use xlink:href="#Cmsy10-30" transform="translate(1022.988451 39.046875) scale(0.7)"/>
     <use xlink:href="#Cmsy10-30" transform="translate(1042.231615 39.046875) scale(0.7)"/>
     <use xlink:href="#DejaVuSans-Oblique-29" transform="translate(1064.209154 0.765625)"/>
    </g>
   </g>
   <g id="text_21">
    <!-- CO$_2$ correlation diagram (NASA / Basel surfaces) -->
    <g transform="translate(313.058906 14.8) scale(0.1 -0.1)">
     <defs>
      <path id="DejaVuSans-63" d="M 3122 3366 
L 3122 2828 
Q 2878 2963 2633 3030 
Q 2388 3097 2138 3097 
Q 1578 3097 1268 2742 
Q 959 2388 959 1747 
Q 959 1106 1268 751 
Q 1578 397 2138 397 
Q 2388 397 2633 464 
Q 2878 531 3122 666 
L 3122 134 
Q 2881 22 2623 -34 
Q 2366 -91 2075 -91 
Q 1284 -91 818 406 
Q 353 903 353 1747 
Q 353 2603 823 3093 
Q 1294 3584 2113 3584 
Q 2378 3584 2631 3529 
Q 2884 3475 3122 3366 
z
" transform="scale(0.015625)"/>
      <path id="DejaVuSans-4e" d="M 628 4666 
L 1478 4666 
L 3547 763 
L 3547 4666 
L 4159 4666 
L 4159 0 
L 3309 0 
L 1241 3903 
L 1241 0 
L 628 0 
L 628 4666 
z
" transform="scale(0.015625)"/>
      <path id="DejaVuSans-41" d="M 2188 4044 
L 1331 1722 
L 3047 1722 
L 2188 4044 
z
M 1831 4666 
L 2547 4666 
L 4325 0 
L 3669 0 
L 3244 1197 
L 1141 1197 
L 716 0 
L 50 0 
L 1831 4666 
z
" transform="scale(0.015625)"/>
      <path id="DejaVuSans-53" d="M 3425 4513 
L 3425 3897 
Q 3066 4069 2747 4153 
Q 2428 4238 2131 4238 
Q 1616 4238 1336 4038 
Q 1056 3838 1056 3469 
Q 1056 3159 1242 3001 
Q 1428 2844 1947 2747 
L 2328 2669 
Q 3034 2534 3370 2195 
Q 3706 1856 3706 1288 
Q 3706 609 3251 259 
Q 2797 -91 1919 -91 
Q 1588 -91 1214 -16 
Q 841 59 441 206 
L 441 856 
Q 825 641 1194 531 
Q 1563 422 1919 422 
Q 2459 422 2753 634 
Q 3047 847 3047 1241 
Q 3047 1584 2836 1778 
Q 2625 1972 2144 2069 
L 1759 2144 
Q 1053 2284 737 2584 
Q 422 2884 422 3419 
Q 422 4038 858 4394 
Q 1294 4750 2059 4750 
Q 2388 4750 2728 4690 
Q 3069 4631 3425 4513 
z
" transform="scale(0.015625)"/>
      <path id="DejaVuSans-2f" d="M 1625 4666 
L 2156 4666 
L 531 -594 
L 0 -594 
L 1625 4666 
z
" transform="scale(0.015625)"/>
      <path id="DejaVuSans-42" d="M 1259 2228 
L 1259 519 
L 2272 519 
Q 2781 519 3026 730 
Q 3272 941 3272 1375 
Q 3272 1813 3026 2020 
Q 2781 2228 2272 2228 
L 1259 2228 
z
M 1259 4147 
L 1259 2741 
L 2194 2741 
Q 2656 2741 2882 2914 
Q 3109 3088 3109 3444 
Q 3109 3797 2882 3972 
Q 2656 4147 2194 4147 
L 1259 4147 
z
M 628 4666 
L 2241 4666 
Q 2963 4666 3353 4366 
Q 3744 4066 3744 3513 
Q 3744 3084 3544 2831 
Q 3344 2578 2956 2516 
Q 3422 2416 3680 2098 
Q 3938 1781 3938 1306 
Q 3938 681 3513 340 
Q 3088 0 2303 0 
L 628 0 
L 628 4666 
z
" transform="scale(0.015625)"/>
      <path id="DejaVuSans-66" d="M 2375 4863 
L 2375 4384 
L 1825 4384 
Q 1516 4384 1395 4259 
Q 1275 4134 1275 3809 
L 1275 3500 
L 2222 3500 
L 2222 3053 
L 1275 3053 
L 1275 0 
L 697 0 
L 697 3053 
L 147 3053 
L 147 3500 
L 697 3500 
L 697 3744 
Q 697 4328 969 4595 
Q 1241 4863 1831 4863 
L 2375 4863 
z
" transform="scale(0.015625)"/>
     </defs>
     <use xlink:href="#DejaVuSans-43" transform="translate(0 0.015625)"/>
     <use xlink:href="#DejaVuSans-4f" transform="translate(69.824219 0.015625)"/>
     <use xlink:href="#DejaVuSans-32" transform="translate(149.492188 -16.390625) scale(0.7)"/>
     <use xlink:href="#DejaVuSans-20" transform="translate(196.762695 0.015625)"/>
     <use xlink:href="#DejaVuSans-63" transform="translate(228.549805 0.015625)"/>
     <use xlink:href="#DejaVuSans-6f" transform="translate(283.530273 0.015625)"/>
     <use xlink:href="#DejaVuSans-72" transform="translate(344.711914 0.015625)"/>
     <use xlink:href="#DejaVuSans-72" transform="translate(385.825195 0.015625)"/>
     <use xlink:href="#DejaVuSans-65" transform="translate(426.938477 0.015625)"/>
     <use xlink:href="#DejaVuSans-6c" transform="translate(488.461914 0.015625)"/>
     <use xlink:href="#DejaVuSans-61" transform="translate(516.245117 0.015625)"/>
     <use xlink:href="#DejaVuSans-74" transform="translate(577.524414 0.015625)"/>
     <use xlink:href="#DejaVuSans-69" transform="translate(616.733398 0.015625)"/>
     <use xlink:href="#DejaVuSans-6f" transform="translate(644.516602 0.015625)"/>
     <use xlink:href="#DejaVuSans-6e" transform="translate(705.698242 0.015625)"/>
     <use xlink:href="#DejaVuSans-20" transform="translate(769.077148 0.015625)"/>
     <use xlink:href="#DejaVuSans-64" transform="translate(800.864258 0.015625)"/>
     <use xlink:href="#DejaVuSans-69" transform="translate(864.34082 0.015625)"/>
     <use xlink:href="#DejaVuSans-61" transform="translate(892.124023 0.015625)"/>
     <use xlink:href="#DejaVuSans-67" transform="translate(953.40332 0.015625)"/>
     <use xlink:href="#DejaVuSans-72" transform="translate(1016.879883 0.015625)"/>
     <use xlink:href="#DejaVuSans-61" transform="translate(1057.993164 0.015625)"/>
     <use xlink:href="#DejaVuSans-6d" transform="translate(1119.272461 0.015625)"/>
     <use xlink:href="#DejaVuSans-20" transform="translate(1216.68457 0.015625)"/>
     <use xlink:href="#DejaVuSans-28" transform="translate(1248.47168 0.015625)"/>
     <use xlink:href="#DejaVuSans-4e" transform="translate(1287.485352 0.015625)"/>
     <use xlink:href="#DejaVuSans-41" transform="translate(1362.290039 0.015625)"/>
     <use xlink:href="#DejaVuSans-53" transform="translate(1430.698242 0.015625)"/>
     <use xlink:href="#DejaVuSans-41" transform="translate(1494.174805 0.015625)"/>
     <use xlink:href="#DejaVuSans-20" transform="translate(1562.583008 0.015625)"/>
     <use xlink:href="#DejaVuSans-2f" transform="translate(1594.370117 0.015625)"/>
     <use xlink:href="#DejaVuSans-20" transform="translate(1628.061523 0.015625)"/>
     <use xlink:href="#DejaVuSans-42" transform="translate(1659.848633 0.015625)"/>
     <use xlink:href="#DejaVuSans-61" transform="translate(1728.452148 0.015625)"/>
     <use xlink:href="#DejaVuSans-73" transform="translate(1789.731445 0.015625)"/>
     <use xlink:href="#DejaVuSans-65" transform="translate(1841.831055 0.015625)"/>
     <use xlink:href="#DejaVuSans-6c" transform="translate(1903.354492 0.015625)"/>
     <use xlink:href="#DejaVuSans-20" transform="translate(1931.137695 0.015625)"/>
     <use xlink:href="#DejaVuSans-73" transform="translate(1962.924805 0.015625)"/>
     <use xlink:href="#DejaVuSans-75" transform="translate(2015.024414 0.015625)"/>
     <use xlink:href="#DejaVuSans-72" transform="translate(2078.40332 0.015625)"/>
     <use xlink:href="#DejaVuSans-66" transform="translate(2119.516602 0.015625)"/>
     <use xlink:href="#DejaVuSans-61" transform="translate(2154.72168 0.015625)"/>
     <use xlink:href="#DejaVuSans-63" transform="translate(2216.000977 0.015625)"/>
     <use xlink:href="#DejaVuSans-65" transform="translate(2270.981445 0.015625)"/>
     <use xlink:href="#DejaVuSans-73" transform="translate(2332.504883 0.015625)"/>
     <use xlink:href="#DejaVuSans-29" transform="translate(2384.604492 0.015625)"/>
    </g>
   </g>
   <g id="legend_1">
    <g id="patch_4">
     <path d="M 653.908906 74.858594 
L 807.808906 74.858594 
Q 809.308906 74.858594 809.308906 73.358594 
L 809.308906 26.05 
Q 809.308906 24.55 807.808906 24.55 
L 653.908906 24.55 
Q 652.408906 24.55 652.408906 26.05 
L 652.408906 73.358594 
Q 652.408906 74.858594 653.908906 74.858594 
z
" style="fill: #ffffff; opacity: 0.8; stroke: #cccccc; stroke-linejoin: miter"/>
    </g>
    <g id="line2d_21">
     <path d="M 655.408906 31.675 
L 662.908906 31.675 
L 670.408906 31.675 
" style="fill: none; stroke-dasharray: 5.6,2.8; stroke-dashoffset: 0; stroke: #1f77b4; stroke-width: 1.4"/>
    </g>
    <g id="text_22">
     <!-- $^1\!A_1$  (NASA_11A1, singlet ground) -->
     <g transform="translate(676.408906 34.3) scale(0.075 -0.075)">
      <defs>
       <path id="DejaVuSans-5f" d="M 3263 -1063 
L 3263 -1509 
L -63 -1509 
L -63 -1063 
L 3263 -1063 
z
" transform="scale(0.015625)"/>
      </defs>
      <use xlink:href="#DejaVuSans-31" transform="translate(0.957031 38.965625) scale(0.7)"/>
      <use xlink:href="#DejaVuSans-Oblique-41" transform="translate(31.991863 0.684375)"/>
      <use xlink:href="#DejaVuSans-31" transform="translate(100.400066 -15.721875) scale(0.7)"/>
      <use xlink:href="#DejaVuSans-20" transform="translate(147.670574 0.684375)"/>
      <use xlink:href="#DejaVuSans-20" transform="translate(179.457683 0.684375)"/>
      <use xlink:href="#DejaVuSans-28" transform="translate(211.244792 0.684375)"/>
      <use xlink:href="#DejaVuSans-4e" transform="translate(250.258464 0.684375)"/>
      <use xlink:href="#DejaVuSans-41" transform="translate(325.063152 0.684375)"/>
      <use xlink:href="#DejaVuSans-53" transform="translate(393.471355 0.684375)"/>
      <use xlink:href="#DejaVuSans-41" transform="translate(456.947917 0.684375)"/>
      <use xlink:href="#DejaVuSans-5f" transform="translate(525.356121 0.684375)"/>
      <use xlink:href="#DejaVuSans-31" transform="translate(575.356121 0.684375)"/>
      <use xlink:href="#DejaVuSans-31" transform="translate(638.979167 0.684375)"/>
      <use xlink:href="#DejaVuSans-41" transform="translate(702.602214 0.684375)"/>
      <use xlink:href="#DejaVuSans-31" transform="translate(771.010417 0.684375)"/>
      <use xlink:href="#DejaVuSans-2c" transform="translate(834.633464 0.684375)"/>
      <use xlink:href="#DejaVuSans-20" transform="translate(866.420574 0.684375)"/>
      <use xlink:href="#DejaVuSans-73" transform="translate(898.207683 0.684375)"/>
      <use xlink:href="#DejaVuSans-69" transform="translate(950.307292 0.684375)"/>
      <use xlink:href="#DejaVuSans-6e" transform="translate(978.090496 0.684375)"/>
      <use xlink:href="#DejaVuSans-67" transform="translate(1041.469402 0.684375)"/>
      <use xlink:href="#DejaVuSans-6c" transform="translate(1104.945964 0.684375)"/>
      <use xlink:href="#DejaVuSans-65" transform="translate(1132.729167 0.684375)"/>
      <use xlink:href="#DejaVuSans-74" transform="translate(1194.252605 0.684375)"/>
      <use xlink:href="#DejaVuSans-20" transform="translate(1233.461589 0.684375)"/>
      <use xlink:href="#DejaVuSans-67" transform="translate(1265.248699 0.684375)"/>
      <use xlink:href="#DejaVuSans-72" transform="translate(1328.725261 0.684375)"/>
      <use xlink:href="#DejaVuSans-6f" transform="translate(1369.838542 0.684375)"/>
      <use xlink:href="#DejaVuSans-75" transform="translate(1431.020183 0.684375)"/>
      <use xlink:href="#DejaVuSans-6e" transform="translate(1494.399089 0.684375)"/>
      <use xlink:href="#DejaVuSans-64" transform="translate(1557.777996 0.684375)"/>
      <use xlink:href="#DejaVuSans-29" transform="translate(1621.254558 0.684375)"/>
     </g>
    </g>
    <g id="line2d_22">
     <path d="M 655.408906 44.05 
L 662.908906 44.05 
L 670.408906 44.05 
" style="fill: none; stroke-dasharray: 5.6,2.8; stroke-dashoffset: 0; stroke: #2ca02c; stroke-width: 1.4"/>
    </g>
    <g id="text_23">
     <!-- $^3B_2$ / $^3A_2$  (Basel_3A2, NASA_13A2) -->
     <g transform="translate(676.408906 46.675) scale(0.075 -0.075)">
      <use xlink:href="#DejaVuSans-33" transform="translate(0.957031 39.046875) scale(0.7)"/>
      <use xlink:href="#DejaVuSans-Oblique-42" transform="translate(48.227539 0.765625)"/>
      <use xlink:href="#DejaVuSans-32" transform="translate(116.831055 -15.640625) scale(0.7)"/>
      <use xlink:href="#DejaVuSans-20" transform="translate(164.101562 0.765625)"/>
      <use xlink:href="#DejaVuSans-2f" transform="translate(195.888672 0.765625)"/>
      <use xlink:href="#DejaVuSans-20" transform="translate(229.580078 0.765625)"/>
      <use xlink:href="#DejaVuSans-33" transform="translate(262.324219 39.046875) scale(0.7)"/>
      <use xlink:href="#DejaVuSans-Oblique-41" transform="translate(309.594727 0.765625)"/>
      <use xlink:href="#DejaVuSans-32" transform="translate(378.00293 -15.640625) scale(0.7)"/>
      <use xlink:href="#DejaVuSans-20" transform="translate(425.273438 0.765625)"/>
      <use xlink:href="#DejaVuSans-20" transform="translate(457.060547 0.765625)"/>
      <use xlink:href="#DejaVuSans-28" transform="translate(488.847656 0.765625)"/>
      <use xlink:href="#DejaVuSans-42" transform="translate(527.861328 0.765625)"/>
      <use xlink:href="#DejaVuSans-61" transform="translate(596.464844 0.765625)"/>
      <use xlink:href="#DejaVuSans-73" transform="translate(657.744141 0.765625)"/>
      <use xlink:href="#DejaVuSans-65" transform="translate(709.84375 0.765625)"/>
      <use xlink:href="#DejaVuSans-6c" transform="translate(771.367188 0.765625)"/>
      <use xlink:href="#DejaVuSans-5f" transform="translate(799.150391 0.765625)"/>
      <use xlink:href="#DejaVuSans-33" transform="translate(849.150391 0.765625)"/>
      <use xlink:href="#DejaVuSans-41" transform="translate(912.773438 0.765625)"/>
      <use xlink:href="#DejaVuSans-32" transform="translate(981.181641 0.765625)"/>
      <use xlink:href="#DejaVuSans-2c" transform="translate(1044.804688 0.765625)"/>
      <use xlink:href="#DejaVuSans-20" transform="translate(1076.591797 0.765625)"/>
      <use xlink:href="#DejaVuSans-4e" transform="translate(1108.378906 0.765625)"/>
      <use xlink:href="#DejaVuSans-41" transform="translate(1183.183594 0.765625)"/>
      <use xlink:href="#DejaVuSans-53" transform="translate(1251.591797 0.765625)"/>
      <use xlink:href="#DejaVuSans-41" transform="translate(1315.068359 0.765625)"/>
      <use xlink:href="#DejaVuSans-5f" transform="translate(1383.476562 0.765625)"/>
      <use xlink:href="#DejaVuSans-31" transform="translate(1433.476562 0.765625)"/>
      <use xlink:href="#DejaVuSans-33" transform="translate(1497.099609 0.765625)"/>
      <use xlink:href="#DejaVuSans-41" transform="translate(1560.722656 0.765625)"/>
      <use xlink:href="#DejaVuSans-32" transform="translate(1629.130859 0.765625)"/>
      <use xlink:href="#DejaVuSans-29" transform="translate(1692.753906 0.765625)"/>
     </g>
    </g>
    <g id="line2d_23">
     <path d="M 655.408906 56.425 
L 662.908906 56.425 
L 670.408906 56.425 
" style="fill: none; stroke-dasharray: 5.6,2.8; stroke-dashoffset: 0; stroke: #d62728; stroke-width: 1.4"/>
    </g>
    <g id="text_24">
     <!-- $^3A_1$  (Basel_3A1) -->
     <g transform="translate(676.408906 59.05) scale(0.075 -0.075)">
      <use xlink:href="#DejaVuSans-33" transform="translate(0.957031 39.046875) scale(0.7)"/>
      <use xlink:href="#DejaVuSans-Oblique-41" transform="translate(48.227539 0.765625)"/>
      <use xlink:href="#DejaVuSans-31" transform="translate(116.635742 -15.640625) scale(0.7)"/>
      <use xlink:href="#DejaVuSans-20" transform="translate(163.90625 0.765625)"/>
      <use xlink:href="#DejaVuSans-20" transform="translate(195.693359 0.765625)"/>
      <use xlink:href="#DejaVuSans-28" transform="translate(227.480469 0.765625)"/>
      <use xlink:href="#DejaVuSans-42" transform="translate(266.494141 0.765625)"/>
      <use xlink:href="#DejaVuSans-61" transform="translate(335.097656 0.765625)"/>
      <use xlink:href="#DejaVuSans-73" transform="translate(396.376953 0.765625)"/>
      <use xlink:href="#DejaVuSans-65" transform="translate(448.476562 0.765625)"/>
      <use xlink:href="#DejaVuSans-6c" transform="translate(510 0.765625)"/>
      <use xlink:href="#DejaVuSans-5f" transform="translate(537.783203 0.765625)"/>
      <use xlink:href="#DejaVuSans-33" transform="translate(587.783203 0.765625)"/>
      <use xlink:href="#DejaVuSans-41" transform="translate(651.40625 0.765625)"/>
      <use xlink:href="#DejaVuSans-31" transform="translate(719.814453 0.765625)"/>
      <use xlink:href="#DejaVuSans-29" transform="translate(783.4375 0.765625)"/>
     </g>
    </g>
    <g id="line2d_24">
     <path d="M 655.408906 67.673828 
L 662.908906 67.673828 
L 670.408906 67.673828 
" style="fill: none; stroke: #808080; stroke-linecap: square"/>
    </g>
    <g id="text_25">
     <!-- Dissociation -->
     <g transform="translate(676.408906 70.298828) scale(0.075 -0.075)">
      <defs>
       <path id="DejaVuSans-44" d="M 1259 4147 
L 1259 519 
L 2022 519 
Q 2988 519 3436 956 
Q 3884 1394 3884 2338 
Q 3884 3275 3436 3711 
Q 2988 4147 2022 4147 
L 1259 4147 
z
M 628 4666 
L 1925 4666 
Q 3281 4666 3915 4102 
Q 4550 3538 4550 2338 
Q 4550 1131 3912 565 
Q 3275 0 1925 0 
L 628 0 
L 628 4666 
z
" transform="scale(0.015625)"/>
      </defs>
      <use xlink:href="#DejaVuSans-44"/>
      <use xlink:href="#DejaVuSans-69" x="77.001953"/>
      <use xlink:href="#DejaVuSans-73" x="104.785156"/>
      <use xlink:href="#DejaVuSans-73" x="156.884766"/>
      <use xlink:href="#DejaVuSans-6f" x="208.984375"/>
      <use xlink:href="#DejaVuSans-63" x="270.166016"/>
      <use xlink:href="#DejaVuSans-69" x="325.146484"/>
      <use xlink:href="#DejaVuSans-61" x="352.929688"/>
      <use xlink:href="#DejaVuSans-74" x="414.208984"/>
      <use xlink:href="#DejaVuSans-69" x="453.417969"/>
      <use xlink:href="#DejaVuSans-6f" x="481.201172"/>
      <use xlink:href="#DejaVuSans-6e" x="542.382812"/>
     </g>
    </g>
   </g>
  </g>
 </g>
 <defs>
  <clipPath id="p0434cfb1b8">
   <rect x="55.458906" y="20.8" width="757.6" height="481.44"/>
  </clipPath>
 </defs>
</svg>
