<?xml version="1.0" encoding="utf-8" standalone="no"?>
<!DOCTYPE svg PUBLIC "-//W3C//DTD SVG 1.1//EN"
  "http://www.w3.org/Graphics/SVG/1.1/DTD/svg11.dtd">
<svg xmlns:xlink="http://www.w3.org/1999/xlink" width="568.346094pt" height="393.86pt" viewBox="0 0 568.346094 393.86" xmlns="http://www.w3.org/2000/svg" version="1.1">
 <metadata>
  <rdf:RDF xmlns:dc="http://purl.org/dc/elements/1.1/" xmlns:cc="http://creativecommons.org/ns#" xmlns:rdf="http://www.w3.org/1999/02/22-rdf-syntax-ns#">
   <cc:Work>
    <dc:type rdf:resource="http://purl.org/dc/dcmitype/StillImage"/>
    <dc:date>2026-04-26T10:51:36.978541</dc:date>
    <dc:format>image/svg+xml</dc:format>
    <dc:creator>
     <cc:Agent>
      <dc:title>Matplotlib v3.6.3, https://matplotlib.org/</dc:title>
     </cc:Agent>
    </dc:creator>
   </cc:Work>
  </rdf:RDF>
 </metadata>
 <defs>
  <style type="text/css">*{stroke-linejoin: round; stroke-linecap: butt}</style>
 </defs>
 <g id="figure_1">
  <g id="patch_1">
   <path d="M 0 393.86 
L 568.346094 393.86 
L 568.346094 0 
L 0 0 
z
" style="fill: #ffffff"/>
  </g>
  <g id="axes_1">
   <g id="patch_2">
    <path d="M 41.146094 386.66 
L 561.146094 386.66 
L 561.146094 20.42 
L 41.146094 20.42 
z
" style="fill: #ffffff"/>
   </g>
   <g id="matplotlib.axis_1"/>
   <g id="matplotlib.axis_2">
    <g id="ytick_1">
     <g id="line2d_1">
      <defs>
       <path id="mb8ea010ced" d="M 0 0 
L -3.5 0 
" style="stroke: #000000; stroke-width: 0.8"/>
      </defs>
      <g>
       <use xlink:href="#mb8ea010ced" x="41.146094" y="366.313333" style="stroke: #000000; stroke-width: 0.8"/>
      </g>
     </g>
     <g id="text_1">
      <!-- −7 -->
      <g transform="translate(20.878125 369.73263) scale(0.09 -0.09)">
       <defs>
        <path id="DejaVuSans-2212" d="M 678 2272 
L 4684 2272 
L 4684 1741 
L 678 1741 
L 678 2272 
z
" transform="scale(0.015625)"/>
        <path id="DejaVuSans-37" d="M 525 4666 
L 3525 4666 
L 3525 4397 
L 1831 0 
L 1172 0 
L 2766 4134 
L 525 4134 
L 525 4666 
z
" transform="scale(0.015625)"/>
       </defs>
       <use xlink:href="#DejaVuSans-2212"/>
       <use xlink:href="#DejaVuSans-37" x="83.789062"/>
      </g>
     </g>
    </g>
    <g id="ytick_2">
     <g id="line2d_2">
      <g>
       <use xlink:href="#mb8ea010ced" x="41.146094" y="325.62" style="stroke: #000000; stroke-width: 0.8"/>
      </g>
     </g>
     <g id="text_2">
      <!-- −6 -->
      <g transform="translate(20.878125 329.039297) scale(0.09 -0.09)">
       <defs>
        <path id="DejaVuSans-36" d="M 2113 2584 
Q 1688 2584 1439 2293 
Q 1191 2003 1191 1497 
Q 1191 994 1439 701 
Q 1688 409 2113 409 
Q 2538 409 2786 701 
Q 3034 994 3034 1497 
Q 3034 2003 2786 2293 
Q 2538 2584 2113 2584 
z
M 3366 4563 
L 3366 3988 
Q 3128 4100 2886 4159 
Q 2644 4219 2406 4219 
Q 1781 4219 1451 3797 
Q 1122 3375 1075 2522 
Q 1259 2794 1537 2939 
Q 1816 3084 2150 3084 
Q 2853 3084 3261 2657 
Q 3669 2231 3669 1497 
Q 3669 778 3244 343 
Q 2819 -91 2113 -91 
Q 1303 -91 875 529 
Q 447 1150 447 2328 
Q 447 3434 972 4092 
Q 1497 4750 2381 4750 
Q 2619 4750 2861 4703 
Q 3103 4656 3366 4563 
z
" transform="scale(0.015625)"/>
       </defs>
       <use xlink:href="#DejaVuSans-2212"/>
       <use xlink:href="#DejaVuSans-36" x="83.789062"/>
      </g>
     </g>
    </g>
    <g id="ytick_3">
     <g id="line2d_3">
      <g>
       <use xlink:href="#mb8ea010ced" x="41.146094" y="284.926667" style="stroke: #000000; stroke-width: 0.8"/>
      </g>
     </g>
     <g id="text_3">
      <!-- −5 -->
      <g transform="translate(20.878125 288.345964) scale(0.09 -0.09)">
       <defs>
        <path id="DejaVuSans-35" d="M 691 4666 
L 3169 4666 
L 3169 4134 
L 1269 4134 
L 1269 2991 
Q 1406 3038 1543 3061 
Q 1681 3084 1819 3084 
Q 2600 3084 3056 2656 
Q 3513 2228 3513 1497 
Q 3513 744 3044 326 
Q 2575 -91 1722 -91 
Q 1428 -91 1123 -41 
Q 819 9 494 109 
L 494 744 
Q 775 591 1075 516 
Q 1375 441 1709 441 
Q 2250 441 2565 725 
Q 2881 1009 2881 1497 
Q 2881 1984 2565 2268 
Q 2250 2553 1709 2553 
Q 1456 2553 1204 2497 
Q 953 2441 691 2322 
L 691 4666 
z
" transform="scale(0.015625)"/>
       </defs>
       <use xlink:href="#DejaVuSans-2212"/>
       <use xlink:href="#DejaVuSans-35" x="83.789062"/>
      </g>
     </g>
    </g>
    <g id="ytick_4">
     <g id="line2d_4">
      <g>
       <use xlink:href="#mb8ea010ced" x="41.146094" y="244.233333" style="stroke: #000000; stroke-width: 0.8"/>
      </g>
     </g>
     <g id="text_4">
      <!-- −4 -->
      <g transform="translate(20.878125 247.65263) scale(0.09 -0.09)">
       <defs>
        <path id="DejaVuSans-34" d="M 2419 4116 
L 825 1625 
L 2419 1625 
L 2419 4116 
z
M 2253 4666 
L 3047 4666 
L 3047 1625 
L 3713 1625 
L 3713 1100 
L 3047 1100 
L 3047 0 
L 2419 0 
L 2419 1100 
L 313 1100 
L 313 1709 
L 2253 4666 
z
" transform="scale(0.015625)"/>
       </defs>
       <use xlink:href="#DejaVuSans-2212"/>
       <use xlink:href="#DejaVuSans-34" x="83.789062"/>
      </g>
     </g>
    </g>
    <g id="ytick_5">
     <g id="line2d_5">
      <g>
       <use xlink:href="#mb8ea010ced" x="41.146094" y="203.54" style="stroke: #000000; stroke-width: 0.8"/>
      </g>
     </g>
     <g id="text_5">
      <!-- −3 -->
      <g transform="translate(20.878125 206.959297) scale(0.09 -0.09)">
       <defs>
        <path id="DejaVuSans-33" d="M 2597 2516 
Q 3050 2419 3304 2112 
Q 3559 1806 3559 1356 
Q 3559 666 3084 287 
Q 2609 -91 1734 -91 
Q 1441 -91 1130 -33 
Q 819 25 488 141 
L 488 750 
Q 750 597 1062 519 
Q 1375 441 1716 441 
Q 2309 441 2620 675 
Q 2931 909 2931 1356 
Q 2931 1769 2642 2001 
Q 2353 2234 1838 2234 
L 1294 2234 
L 1294 2753 
L 1863 2753 
Q 2328 2753 2575 2939 
Q 2822 3125 2822 3475 
Q 2822 3834 2567 4026 
Q 2313 4219 1838 4219 
Q 1578 4219 1281 4162 
Q 984 4106 628 3988 
L 628 4550 
Q 988 4650 1302 4700 
Q 1616 4750 1894 4750 
Q 2613 4750 3031 4423 
Q 3450 4097 3450 3541 
Q 3450 3153 3228 2886 
Q 3006 2619 2597 2516 
z
" transform="scale(0.015625)"/>
       </defs>
       <use xlink:href="#DejaVuSans-2212"/>
       <use xlink:href="#DejaVuSans-33" x="83.789062"/>
      </g>
     </g>
    </g>
    <g id="ytick_6">
     <g id="line2d_6">
      <g>
       <use xlink:href="#mb8ea010ced" x="41.146094" y="162.846667" style="stroke: #000000; stroke-width: 0.8"/>
      </g>
     </g>
     <g id="text_6">
      <!-- −2 -->
      <g transform="translate(20.878125 166.265964) scale(0.09 -0.09)">
       <defs>
        <path id="DejaVuSans-32" d="M 1228 531 
L 3431 531 
L 3431 0 
L 469 0 
L 469 531 
Q 828 903 1448 1529 
Q 2069 2156 2228 2338 
Q 2531 2678 2651 2914 
Q 2772 3150 2772 3378 
Q 2772 3750 2511 3984 
Q 2250 4219 1831 4219 
Q 1534 4219 1204 4116 
Q 875 4013 500 3803 
L 500 4441 
Q 881 4594 1212 4672 
Q 1544 4750 1819 4750 
Q 2544 4750 2975 4387 
Q 3406 4025 3406 3419 
Q 3406 3131 3298 2873 
Q 3191 2616 2906 2266 
Q 2828 2175 2409 1742 
Q 1991 1309 1228 531 
z
" transform="scale(0.015625)"/>
       </defs>
       <use xlink:href="#DejaVuSans-2212"/>
       <use xlink:href="#DejaVuSans-32" x="83.789062"/>
      </g>
     </g>
    </g>
    <g id="ytick_7">
     <g id="line2d_7">
      <g>
       <use xlink:href="#mb8ea010ced" x="41.146094" y="122.153333" style="stroke: #000000; stroke-width: 0.8"/>
      </g>
     </g>
     <g id="text_7">
      <!-- −1 -->
      <g transform="translate(20.878125 125.57263) scale(0.09 -0.09)">
       <defs>
        <path id="DejaVuSans-31" d="M 794 531 
L 1825 531 
L 1825 4091 
L 703 3866 
L 703 4441 
L 1819 4666 
L 2450 4666 
L 2450 531 
L 3481 531 
L 3481 0 
L 794 0 
L 794 531 
z
" transform="scale(0.015625)"/>
       </defs>
       <use xlink:href="#DejaVuSans-2212"/>
       <use xlink:href="#DejaVuSans-31" x="83.789062"/>
      </g>
     </g>
    </g>
    <g id="ytick_8">
     <g id="line2d_8">
      <g>
       <use xlink:href="#mb8ea010ced" x="41.146094" y="81.46" style="stroke: #000000; stroke-width: 0.8"/>
      </g>
     </g>
     <g id="text_8">
      <!-- 0 -->
      <g transform="translate(28.419844 84.879297) scale(0.09 -0.09)">
       <defs>
        <path id="DejaVuSans-30" d="M 2034 4250 
Q 1547 4250 1301 3770 
Q 1056 3291 1056 2328 
Q 1056 1369 1301 889 
Q 1547 409 2034 409 
Q 2525 409 2770 889 
Q 3016 1369 3016 2328 
Q 3016 3291 2770 3770 
Q 2525 4250 2034 4250 
z
M 2034 4750 
Q 2819 4750 3233 4129 
Q 3647 3509 3647 2328 
Q 3647 1150 3233 529 
Q 2819 -91 2034 -91 
Q 1250 -91 836 529 
Q 422 1150 422 2328 
Q 422 3509 836 4129 
Q 1250 4750 2034 4750 
z
" transform="scale(0.015625)"/>
       </defs>
       <use xlink:href="#DejaVuSans-30"/>
      </g>
     </g>
    </g>
    <g id="ytick_9">
     <g id="line2d_9">
      <g>
       <use xlink:href="#mb8ea010ced" x="41.146094" y="40.766667" style="stroke: #000000; stroke-width: 0.8"/>
      </g>
     </g>
     <g id="text_9">
      <!-- 1 -->
      <g transform="translate(28.419844 44.185964) scale(0.09 -0.09)">
       <use xlink:href="#DejaVuSans-31"/>
      </g>
     </g>
    </g>
    <g id="text_10">
     <!-- Energy (eV) — relative to atomized ground state -->
     <g transform="translate(14.798438 325.017344) rotate(-90) scale(0.1 -0.1)">
      <defs>
       <path id="DejaVuSans-45" d="M 628 4666 
L 3578 4666 
L 3578 4134 
L 1259 4134 
L 1259 2753 
L 3481 2753 
L 3481 2222 
L 1259 2222 
L 1259 531 
L 3634 531 
L 3634 0 
L 628 0 
L 628 4666 
z
" transform="scale(0.015625)"/>
       <path id="DejaVuSans-6e" d="M 3513 2113 
L 3513 0 
L 2938 0 
L 2938 2094 
Q 2938 2591 2744 2837 
Q 2550 3084 2163 3084 
Q 1697 3084 1428 2787 
Q 1159 2491 1159 1978 
L 1159 0 
L 581 0 
L 581 3500 
L 1159 3500 
L 1159 2956 
Q 1366 3272 1645 3428 
Q 1925 3584 2291 3584 
Q 2894 3584 3203 3211 
Q 3513 2838 3513 2113 
z
" transform="scale(0.015625)"/>
       <path id="DejaVuSans-65" d="M 3597 1894 
L 3597 1613 
L 953 1613 
Q 991 1019 1311 708 
Q 1631 397 2203 397 
Q 2534 397 2845 478 
Q 3156 559 3463 722 
L 3463 178 
Q 3153 47 2828 -22 
Q 2503 -91 2169 -91 
Q 1331 -91 842 396 
Q 353 884 353 1716 
Q 353 2575 817 3079 
Q 1281 3584 2069 3584 
Q 2775 3584 3186 3129 
Q 3597 2675 3597 1894 
z
M 3022 2063 
Q 3016 2534 2758 2815 
Q 2500 3097 2075 3097 
Q 1594 3097 1305 2825 
Q 1016 2553 972 2059 
L 3022 2063 
z
" transform="scale(0.015625)"/>
       <path id="DejaVuSans-72" d="M 2631 2963 
Q 2534 3019 2420 3045 
Q 2306 3072 2169 3072 
Q 1681 3072 1420 2755 
Q 1159 2438 1159 1844 
L 1159 0 
L 581 0 
L 581 3500 
L 1159 3500 
L 1159 2956 
Q 1341 3275 1631 3429 
Q 1922 3584 2338 3584 
Q 2397 3584 2469 3576 
Q 2541 3569 2628 3553 
L 2631 2963 
z
" transform="scale(0.015625)"/>
       <path id="DejaVuSans-67" d="M 2906 1791 
Q 2906 2416 2648 2759 
Q 2391 3103 1925 3103 
Q 1463 3103 1205 2759 
Q 947 2416 947 1791 
Q 947 1169 1205 825 
Q 1463 481 1925 481 
Q 2391 481 2648 825 
Q 2906 1169 2906 1791 
z
M 3481 434 
Q 3481 -459 3084 -895 
Q 2688 -1331 1869 -1331 
Q 1566 -1331 1297 -1286 
Q 1028 -1241 775 -1147 
L 775 -588 
Q 1028 -725 1275 -790 
Q 1522 -856 1778 -856 
Q 2344 -856 2625 -561 
Q 2906 -266 2906 331 
L 2906 616 
Q 2728 306 2450 153 
Q 2172 0 1784 0 
Q 1141 0 747 490 
Q 353 981 353 1791 
Q 353 2603 747 3093 
Q 1141 3584 1784 3584 
Q 2172 3584 2450 3431 
Q 2728 3278 2906 2969 
L 2906 3500 
L 3481 3500 
L 3481 434 
z
" transform="scale(0.015625)"/>
       <path id="DejaVuSans-79" d="M 2059 -325 
Q 1816 -950 1584 -1140 
Q 1353 -1331 966 -1331 
L 506 -1331 
L 506 -850 
L 844 -850 
Q 1081 -850 1212 -737 
Q 1344 -625 1503 -206 
L 1606 56 
L 191 3500 
L 800 3500 
L 1894 763 
L 2988 3500 
L 3597 3500 
L 2059 -325 
z
" transform="scale(0.015625)"/>
       <path id="DejaVuSans-20" transform="scale(0.015625)"/>
       <path id="DejaVuSans-28" d="M 1984 4856 
Q 1566 4138 1362 3434 
Q 1159 2731 1159 2009 
Q 1159 1288 1364 580 
Q 1569 -128 1984 -844 
L 1484 -844 
Q 1016 -109 783 600 
Q 550 1309 550 2009 
Q 550 2706 781 3412 
Q 1013 4119 1484 4856 
L 1984 4856 
z
" transform="scale(0.015625)"/>
       <path id="DejaVuSans-56" d="M 1831 0 
L 50 4666 
L 709 4666 
L 2188 738 
L 3669 4666 
L 4325 4666 
L 2547 0 
L 1831 0 
z
" transform="scale(0.015625)"/>
       <path id="DejaVuSans-29" d="M 513 4856 
L 1013 4856 
Q 1481 4119 1714 3412 
Q 1947 2706 1947 2009 
Q 1947 1309 1714 600 
Q 1481 -109 1013 -844 
L 513 -844 
Q 928 -128 1133 580 
Q 1338 1288 1338 2009 
Q 1338 2731 1133 3434 
Q 928 4138 513 4856 
z
" transform="scale(0.015625)"/>
       <path id="DejaVuSans-2014" d="M 313 1978 
L 6088 1978 
L 6088 1528 
L 313 1528 
L 313 1978 
z
" transform="scale(0.015625)"/>
       <path id="DejaVuSans-6c" d="M 603 4863 
L 1178 4863 
L 1178 0 
L 603 0 
L 603 4863 
z
" transform="scale(0.015625)"/>
       <path id="DejaVuSans-61" d="M 2194 1759 
Q 1497 1759 1228 1600 
Q 959 1441 959 1056 
Q 959 750 1161 570 
Q 1363 391 1709 391 
Q 2188 391 2477 730 
Q 2766 1069 2766 1631 
L 2766 1759 
L 2194 1759 
z
M 3341 1997 
L 3341 0 
L 2766 0 
L 2766 531 
Q 2569 213 2275 61 
Q 1981 -91 1556 -91 
Q 1019 -91 701 211 
Q 384 513 384 1019 
Q 384 1609 779 1909 
Q 1175 2209 1959 2209 
L 2766 2209 
L 2766 2266 
Q 2766 2663 2505 2880 
Q 2244 3097 1772 3097 
Q 1472 3097 1187 3025 
Q 903 2953 641 2809 
L 641 3341 
Q 956 3463 1253 3523 
Q 1550 3584 1831 3584 
Q 2591 3584 2966 3190 
Q 3341 2797 3341 1997 
z
" transform="scale(0.015625)"/>
       <path id="DejaVuSans-74" d="M 1172 4494 
L 1172 3500 
L 2356 3500 
L 2356 3053 
L 1172 3053 
L 1172 1153 
Q 1172 725 1289 603 
Q 1406 481 1766 481 
L 2356 481 
L 2356 0 
L 1766 0 
Q 1100 0 847 248 
Q 594 497 594 1153 
L 594 3053 
L 172 3053 
L 172 3500 
L 594 3500 
L 594 4494 
L 1172 4494 
z
" transform="scale(0.015625)"/>
       <path id="DejaVuSans-69" d="M 603 3500 
L 1178 3500 
L 1178 0 
L 603 0 
L 603 3500 
z
M 603 4863 
L 1178 4863 
L 1178 4134 
L 603 4134 
L 603 4863 
z
" transform="scale(0.015625)"/>
       <path id="DejaVuSans-76" d="M 191 3500 
L 800 3500 
L 1894 563 
L 2988 3500 
L 3597 3500 
L 2284 0 
L 1503 0 
L 191 3500 
z
" transform="scale(0.015625)"/>
       <path id="DejaVuSans-6f" d="M 1959 3097 
Q 1497 3097 1228 2736 
Q 959 2375 959 1747 
Q 959 1119 1226 758 
Q 1494 397 1959 397 
Q 2419 397 2687 759 
Q 2956 1122 2956 1747 
Q 2956 2369 2687 2733 
Q 2419 3097 1959 3097 
z
M 1959 3584 
Q 2709 3584 3137 3096 
Q 3566 2609 3566 1747 
Q 3566 888 3137 398 
Q 2709 -91 1959 -91 
Q 1206 -91 779 398 
Q 353 888 353 1747 
Q 353 2609 779 3096 
Q 1206 3584 1959 3584 
z
" transform="scale(0.015625)"/>
       <path id="DejaVuSans-6d" d="M 3328 2828 
Q 3544 3216 3844 3400 
Q 4144 3584 4550 3584 
Q 5097 3584 5394 3201 
Q 5691 2819 5691 2113 
L 5691 0 
L 5113 0 
L 5113 2094 
Q 5113 2597 4934 2840 
Q 4756 3084 4391 3084 
Q 3944 3084 3684 2787 
Q 3425 2491 3425 1978 
L 3425 0 
L 2847 0 
L 2847 2094 
Q 2847 2600 2669 2842 
Q 2491 3084 2119 3084 
Q 1678 3084 1418 2786 
Q 1159 2488 1159 1978 
L 1159 0 
L 581 0 
L 581 3500 
L 1159 3500 
L 1159 2956 
Q 1356 3278 1631 3431 
Q 1906 3584 2284 3584 
Q 2666 3584 2933 3390 
Q 3200 3197 3328 2828 
z
" transform="scale(0.015625)"/>
       <path id="DejaVuSans-7a" d="M 353 3500 
L 3084 3500 
L 3084 2975 
L 922 459 
L 3084 459 
L 3084 0 
L 275 0 
L 275 525 
L 2438 3041 
L 353 3041 
L 353 3500 
z
" transform="scale(0.015625)"/>
       <path id="DejaVuSans-64" d="M 2906 2969 
L 2906 4863 
L 3481 4863 
L 3481 0 
L 2906 0 
L 2906 525 
Q 2725 213 2448 61 
Q 2172 -91 1784 -91 
Q 1150 -91 751 415 
Q 353 922 353 1747 
Q 353 2572 751 3078 
Q 1150 3584 1784 3584 
Q 2172 3584 2448 3432 
Q 2725 3281 2906 2969 
z
M 947 1747 
Q 947 1113 1208 752 
Q 1469 391 1925 391 
Q 2381 391 2643 752 
Q 2906 1113 2906 1747 
Q 2906 2381 2643 2742 
Q 2381 3103 1925 3103 
Q 1469 3103 1208 2742 
Q 947 2381 947 1747 
z
" transform="scale(0.015625)"/>
       <path id="DejaVuSans-75" d="M 544 1381 
L 544 3500 
L 1119 3500 
L 1119 1403 
Q 1119 906 1312 657 
Q 1506 409 1894 409 
Q 2359 409 2629 706 
Q 2900 1003 2900 1516 
L 2900 3500 
L 3475 3500 
L 3475 0 
L 2900 0 
L 2900 538 
Q 2691 219 2414 64 
Q 2138 -91 1772 -91 
Q 1169 -91 856 284 
Q 544 659 544 1381 
z
M 1991 3584 
L 1991 3584 
z
" transform="scale(0.015625)"/>
       <path id="DejaVuSans-73" d="M 2834 3397 
L 2834 2853 
Q 2591 2978 2328 3040 
Q 2066 3103 1784 3103 
Q 1356 3103 1142 2972 
Q 928 2841 928 2578 
Q 928 2378 1081 2264 
Q 1234 2150 1697 2047 
L 1894 2003 
Q 2506 1872 2764 1633 
Q 3022 1394 3022 966 
Q 3022 478 2636 193 
Q 2250 -91 1575 -91 
Q 1294 -91 989 -36 
Q 684 19 347 128 
L 347 722 
Q 666 556 975 473 
Q 1284 391 1588 391 
Q 1994 391 2212 530 
Q 2431 669 2431 922 
Q 2431 1156 2273 1281 
Q 2116 1406 1581 1522 
L 1381 1569 
Q 847 1681 609 1914 
Q 372 2147 372 2553 
Q 372 3047 722 3315 
Q 1072 3584 1716 3584 
Q 2034 3584 2315 3537 
Q 2597 3491 2834 3397 
z
" transform="scale(0.015625)"/>
      </defs>
      <use xlink:href="#DejaVuSans-45"/>
      <use xlink:href="#DejaVuSans-6e" x="63.183594"/>
      <use xlink:href="#DejaVuSans-65" x="126.5625"/>
      <use xlink:href="#DejaVuSans-72" x="188.085938"/>
      <use xlink:href="#DejaVuSans-67" x="227.449219"/>
      <use xlink:href="#DejaVuSans-79" x="290.925781"/>
      <use xlink:href="#DejaVuSans-20" x="350.105469"/>
      <use xlink:href="#DejaVuSans-28" x="381.892578"/>
      <use xlink:href="#DejaVuSans-65" x="420.90625"/>
      <use xlink:href="#DejaVuSans-56" x="482.429688"/>
      <use xlink:href="#DejaVuSans-29" x="550.837891"/>
      <use xlink:href="#DejaVuSans-20" x="589.851562"/>
      <use xlink:href="#DejaVuSans-2014" x="621.638672"/>
      <use xlink:href="#DejaVuSans-20" x="721.638672"/>
      <use xlink:href="#DejaVuSans-72" x="753.425781"/>
      <use xlink:href="#DejaVuSans-65" x="792.289062"/>
      <use xlink:href="#DejaVuSans-6c" x="853.8125"/>
      <use xlink:href="#DejaVuSans-61" x="881.595703"/>
      <use xlink:href="#DejaVuSans-74" x="942.875"/>
      <use xlink:href="#DejaVuSans-69" x="982.083984"/>
      <use xlink:href="#DejaVuSans-76" x="1009.867188"/>
      <use xlink:href="#DejaVuSans-65" x="1069.046875"/>
      <use xlink:href="#DejaVuSans-20" x="1130.570312"/>
      <use xlink:href="#DejaVuSans-74" x="1162.357422"/>
      <use xlink:href="#DejaVuSans-6f" x="1201.566406"/>
      <use xlink:href="#DejaVuSans-20" x="1262.748047"/>
      <use xlink:href="#DejaVuSans-61" x="1294.535156"/>
      <use xlink:href="#DejaVuSans-74" x="1355.814453"/>
      <use xlink:href="#DejaVuSans-6f" x="1395.023438"/>
      <use xlink:href="#DejaVuSans-6d" x="1456.205078"/>
      <use xlink:href="#DejaVuSans-69" x="1553.617188"/>
      <use xlink:href="#DejaVuSans-7a" x="1581.400391"/>
      <use xlink:href="#DejaVuSans-65" x="1633.890625"/>
      <use xlink:href="#DejaVuSans-64" x="1695.414062"/>
      <use xlink:href="#DejaVuSans-20" x="1758.890625"/>
      <use xlink:href="#DejaVuSans-67" x="1790.677734"/>
      <use xlink:href="#DejaVuSans-72" x="1854.154297"/>
      <use xlink:href="#DejaVuSans-6f" x="1893.017578"/>
      <use xlink:href="#DejaVuSans-75" x="1954.199219"/>
      <use xlink:href="#DejaVuSans-6e" x="2017.578125"/>
      <use xlink:href="#DejaVuSans-64" x="2080.957031"/>
      <use xlink:href="#DejaVuSans-20" x="2144.433594"/>
      <use xlink:href="#DejaVuSans-73" x="2176.220703"/>
      <use xlink:href="#DejaVuSans-74" x="2228.320312"/>
      <use xlink:href="#DejaVuSans-61" x="2267.529297"/>
      <use xlink:href="#DejaVuSans-74" x="2328.808594"/>
      <use xlink:href="#DejaVuSans-65" x="2368.017578"/>
     </g>
    </g>
   </g>
   <g id="LineCollection_1">
    <path d="M 61.946094 289.6064 
L 197.146094 289.6064 
" clip-path="url(#p1b0d6d0676)" style="fill: none; stroke: #000000; stroke-width: 2"/>
   </g>
   <g id="LineCollection_2">
    <path d="M 233.546094 209.562613 
L 368.746094 209.562613 
" clip-path="url(#p1b0d6d0676)" style="fill: none; stroke: #000000; stroke-width: 2"/>
   </g>
   <g id="LineCollection_3">
    <path d="M 405.146094 81.46 
L 540.346094 81.46 
" clip-path="url(#p1b0d6d0676)" style="fill: none; stroke: #000000; stroke-width: 2"/>
   </g>
   <g id="LineCollection_4">
    <path d="M 129.546094 335.589867 
L 233.546094 335.589867 
" clip-path="url(#p1b0d6d0676)" style="fill: none; stroke: #1f77b4; stroke-width: 2.4"/>
   </g>
   <g id="line2d_10">
    <path d="M 129.546094 335.589867 
L 129.546094 289.6064 
" clip-path="url(#p1b0d6d0676)" style="fill: none; stroke-dasharray: 2.7,1.8; stroke-dashoffset: 0; stroke: #1f77b4; stroke-width: 0.9"/>
   </g>
   <g id="line2d_11">
    <path d="M 197.146094 289.6064 
L 275.146094 209.562613 
" clip-path="url(#p1b0d6d0676)" style="fill: none; stroke-dasharray: 2.1,1.4; stroke-dashoffset: 0; stroke: #808080; stroke-width: 0.7"/>
   </g>
   <g id="line2d_12">
    <path d="M 197.146094 289.6064 
L 431.146094 81.46 
" clip-path="url(#p1b0d6d0676)" style="fill: none; stroke: #808080; stroke-width: 0.7; stroke-linecap: square"/>
   </g>
   <g id="line2d_13">
    <path d="M 368.746094 209.562613 
L 431.146094 81.46 
" clip-path="url(#p1b0d6d0676)" style="fill: none; stroke: #808080; stroke-width: 0.7; stroke-linecap: square"/>
   </g>
   <g id="patch_3">
    <path d="M 41.146094 386.66 
L 41.146094 20.42 
" style="fill: none; stroke: #000000; stroke-width: 0.8; stroke-linejoin: miter; stroke-linecap: square"/>
   </g>
   <g id="text_11">
    <!-- O$_2$(X$^3\Sigma_g^-$) + O($^3$P) -->
    <g transform="translate(88.958594 281.1532) scale(0.085 -0.085)">
     <defs>
      <path id="DejaVuSans-Bold-4f" d="M 2719 3878 
Q 2169 3878 1866 3472 
Q 1563 3066 1563 2328 
Q 1563 1594 1866 1187 
Q 2169 781 2719 781 
Q 3272 781 3575 1187 
Q 3878 1594 3878 2328 
Q 3878 3066 3575 3472 
Q 3272 3878 2719 3878 
z
M 2719 4750 
Q 3844 4750 4481 4106 
Q 5119 3463 5119 2328 
Q 5119 1197 4481 553 
Q 3844 -91 2719 -91 
Q 1597 -91 958 553 
Q 319 1197 319 2328 
Q 319 3463 958 4106 
Q 1597 4750 2719 4750 
z
" transform="scale(0.015625)"/>
      <path id="DejaVuSans-Bold-28" d="M 2413 -844 
L 1484 -844 
Q 1006 -72 778 623 
Q 550 1319 550 2003 
Q 550 2688 779 3389 
Q 1009 4091 1484 4856 
L 2413 4856 
Q 2013 4116 1813 3408 
Q 1613 2700 1613 2009 
Q 1613 1319 1811 609 
Q 2009 -100 2413 -844 
z
" transform="scale(0.015625)"/>
      <path id="DejaVuSans-Bold-58" d="M 3188 2381 
L 4806 0 
L 3553 0 
L 2463 1594 
L 1381 0 
L 122 0 
L 1741 2381 
L 184 4666 
L 1441 4666 
L 2463 3163 
L 3481 4666 
L 4744 4666 
L 3188 2381 
z
" transform="scale(0.015625)"/>
      <path id="DejaVuSans-3a3" d="M 1353 531 
L 3634 531 
L 3634 0 
L 628 0 
L 628 531 
L 2125 2481 
L 628 4134 
L 628 4666 
L 3578 4666 
L 3578 4134 
L 1353 4134 
L 2850 2494 
L 1353 531 
z
" transform="scale(0.015625)"/>
      <path id="DejaVuSans-Oblique-67" d="M 3816 3500 
L 3219 434 
Q 3047 -456 2561 -893 
Q 2075 -1331 1253 -1331 
Q 950 -1331 690 -1286 
Q 431 -1241 206 -1147 
L 313 -588 
Q 525 -725 762 -790 
Q 1000 -856 1269 -856 
Q 1816 -856 2167 -557 
Q 2519 -259 2631 300 
L 2681 563 
Q 2441 288 2122 144 
Q 1803 0 1434 0 
Q 903 0 598 351 
Q 294 703 294 1319 
Q 294 1803 478 2267 
Q 663 2731 997 3091 
Q 1219 3328 1514 3456 
Q 1809 3584 2131 3584 
Q 2484 3584 2746 3420 
Q 3009 3256 3138 2956 
L 3238 3500 
L 3816 3500 
z
M 2950 2216 
Q 2950 2641 2750 2872 
Q 2550 3103 2181 3103 
Q 1953 3103 1747 3012 
Q 1541 2922 1394 2759 
Q 1156 2491 1023 2127 
Q 891 1763 891 1375 
Q 891 944 1092 712 
Q 1294 481 1672 481 
Q 2219 481 2584 976 
Q 2950 1472 2950 2216 
z
" transform="scale(0.015625)"/>
      <path id="DejaVuSans-Bold-29" d="M 513 -844 
Q 913 -100 1113 609 
Q 1313 1319 1313 2009 
Q 1313 2700 1113 3408 
Q 913 4116 513 4856 
L 1441 4856 
Q 1916 4091 2145 3389 
Q 2375 2688 2375 2003 
Q 2375 1319 2147 623 
Q 1919 -72 1441 -844 
L 513 -844 
z
" transform="scale(0.015625)"/>
      <path id="DejaVuSans-Bold-20" transform="scale(0.015625)"/>
      <path id="DejaVuSans-Bold-2b" d="M 3053 4013 
L 3053 2375 
L 4684 2375 
L 4684 1638 
L 3053 1638 
L 3053 0 
L 2309 0 
L 2309 1638 
L 678 1638 
L 678 2375 
L 2309 2375 
L 2309 4013 
L 3053 4013 
z
" transform="scale(0.015625)"/>
      <path id="DejaVuSans-Bold-50" d="M 588 4666 
L 2584 4666 
Q 3475 4666 3951 4270 
Q 4428 3875 4428 3144 
Q 4428 2409 3951 2014 
Q 3475 1619 2584 1619 
L 1791 1619 
L 1791 0 
L 588 0 
L 588 4666 
z
M 1791 3794 
L 1791 2491 
L 2456 2491 
Q 2806 2491 2997 2661 
Q 3188 2831 3188 3144 
Q 3188 3456 2997 3625 
Q 2806 3794 2456 3794 
L 1791 3794 
z
" transform="scale(0.015625)"/>
     </defs>
     <use xlink:href="#DejaVuSans-Bold-4f" transform="translate(0 0.765625)"/>
     <use xlink:href="#DejaVuSans-32" transform="translate(85.966797 -15.640625) scale(0.7)"/>
     <use xlink:href="#DejaVuSans-Bold-28" transform="translate(133.237305 0.765625)"/>
     <use xlink:href="#DejaVuSans-Bold-58" transform="translate(178.94043 0.765625)"/>
     <use xlink:href="#DejaVuSans-33" transform="translate(256.99707 39.046875) scale(0.7)"/>
     <use xlink:href="#DejaVuSans-3a3" transform="translate(304.267578 0.765625)"/>
     <use xlink:href="#DejaVuSans-2212" transform="translate(382.045898 39.046875) scale(0.7)"/>
     <use xlink:href="#DejaVuSans-Oblique-67" transform="translate(368.408203 -26.578125) scale(0.7)"/>
     <use xlink:href="#DejaVuSans-Bold-29" transform="translate(457.070312 0.765625)"/>
     <use xlink:href="#DejaVuSans-Bold-20" transform="translate(502.773438 0.765625)"/>
     <use xlink:href="#DejaVuSans-Bold-2b" transform="translate(537.587891 0.765625)"/>
     <use xlink:href="#DejaVuSans-Bold-20" transform="translate(621.376953 0.765625)"/>
     <use xlink:href="#DejaVuSans-Bold-4f" transform="translate(656.191406 0.765625)"/>
     <use xlink:href="#DejaVuSans-Bold-28" transform="translate(741.201172 0.765625)"/>
     <use xlink:href="#DejaVuSans-33" transform="translate(787.861328 39.046875) scale(0.7)"/>
     <use xlink:href="#DejaVuSans-Bold-50" transform="translate(835.131836 0.765625)"/>
     <use xlink:href="#DejaVuSans-Bold-29" transform="translate(908.422852 0.765625)"/>
    </g>
   </g>
   <g id="text_12">
    <!-- O$_2$(X$^3\Sigma_g^-$) + O($^1$D) -->
    <g transform="translate(260.176094 201.109413) scale(0.085 -0.085)">
     <defs>
      <path id="DejaVuSans-Bold-44" d="M 1791 3756 
L 1791 909 
L 2222 909 
Q 2959 909 3348 1275 
Q 3738 1641 3738 2338 
Q 3738 3031 3350 3393 
Q 2963 3756 2222 3756 
L 1791 3756 
z
M 588 4666 
L 1856 4666 
Q 2919 4666 3439 4514 
Q 3959 4363 4331 4000 
Q 4659 3684 4818 3271 
Q 4978 2859 4978 2338 
Q 4978 1809 4818 1395 
Q 4659 981 4331 666 
Q 3956 303 3431 151 
Q 2906 0 1856 0 
L 588 0 
L 588 4666 
z
" transform="scale(0.015625)"/>
     </defs>
     <use xlink:href="#DejaVuSans-Bold-4f" transform="translate(0 0.765625)"/>
     <use xlink:href="#DejaVuSans-32" transform="translate(85.966797 -15.640625) scale(0.7)"/>
     <use xlink:href="#DejaVuSans-Bold-28" transform="translate(133.237305 0.765625)"/>
     <use xlink:href="#DejaVuSans-Bold-58" transform="translate(178.94043 0.765625)"/>
     <use xlink:href="#DejaVuSans-33" transform="translate(256.99707 39.046875) scale(0.7)"/>
     <use xlink:href="#DejaVuSans-3a3" transform="translate(304.267578 0.765625)"/>
     <use xlink:href="#DejaVuSans-2212" transform="translate(382.045898 39.046875) scale(0.7)"/>
     <use xlink:href="#DejaVuSans-Oblique-67" transform="translate(368.408203 -26.578125) scale(0.7)"/>
     <use xlink:href="#DejaVuSans-Bold-29" transform="translate(457.070312 0.765625)"/>
     <use xlink:href="#DejaVuSans-Bold-20" transform="translate(502.773438 0.765625)"/>
     <use xlink:href="#DejaVuSans-Bold-2b" transform="translate(537.587891 0.765625)"/>
     <use xlink:href="#DejaVuSans-Bold-20" transform="translate(621.376953 0.765625)"/>
     <use xlink:href="#DejaVuSans-Bold-4f" transform="translate(656.191406 0.765625)"/>
     <use xlink:href="#DejaVuSans-Bold-28" transform="translate(741.201172 0.765625)"/>
     <use xlink:href="#DejaVuSans-31" transform="translate(787.861328 39.046875) scale(0.7)"/>
     <use xlink:href="#DejaVuSans-Bold-44" transform="translate(835.131836 0.765625)"/>
     <use xlink:href="#DejaVuSans-Bold-29" transform="translate(918.139648 0.765625)"/>
    </g>
   </g>
   <g id="text_13">
    <!-- O + O + O -->
    <g transform="translate(448.865742 74.809066) scale(0.085 -0.085)">
     <use xlink:href="#DejaVuSans-Bold-4f"/>
     <use xlink:href="#DejaVuSans-Bold-20" x="85.009766"/>
     <use xlink:href="#DejaVuSans-Bold-2b" x="119.824219"/>
     <use xlink:href="#DejaVuSans-Bold-20" x="203.613281"/>
     <use xlink:href="#DejaVuSans-Bold-4f" x="238.427734"/>
     <use xlink:href="#DejaVuSans-Bold-20" x="323.4375"/>
     <use xlink:href="#DejaVuSans-Bold-2b" x="358.251953"/>
     <use xlink:href="#DejaVuSans-Bold-20" x="442.041016"/>
     <use xlink:href="#DejaVuSans-Bold-4f" x="476.855469"/>
    </g>
   </g>
   <g id="text_14">
    <!-- O$_3$(X$^1A_1$) -->
    <g style="fill: #1f77b4" transform="translate(162.931094 328.938932) scale(0.085 -0.085)">
     <defs>
      <path id="DejaVuSans-4f" d="M 2522 4238 
Q 1834 4238 1429 3725 
Q 1025 3213 1025 2328 
Q 1025 1447 1429 934 
Q 1834 422 2522 422 
Q 3209 422 3611 934 
Q 4013 1447 4013 2328 
Q 4013 3213 3611 3725 
Q 3209 4238 2522 4238 
z
M 2522 4750 
Q 3503 4750 4090 4092 
Q 4678 3434 4678 2328 
Q 4678 1225 4090 567 
Q 3503 -91 2522 -91 
Q 1538 -91 948 565 
Q 359 1222 359 2328 
Q 359 3434 948 4092 
Q 1538 4750 2522 4750 
z
" transform="scale(0.015625)"/>
      <path id="DejaVuSans-58" d="M 403 4666 
L 1081 4666 
L 2241 2931 
L 3406 4666 
L 4084 4666 
L 2584 2425 
L 4184 0 
L 3506 0 
L 2194 1984 
L 872 0 
L 191 0 
L 1856 2491 
L 403 4666 
z
" transform="scale(0.015625)"/>
      <path id="DejaVuSans-Oblique-41" d="M 2356 4666 
L 3072 4666 
L 3938 0 
L 3278 0 
L 3084 1197 
L 984 1197 
L 325 0 
L -341 0 
L 2356 4666 
z
M 2584 4044 
L 1275 1722 
L 2988 1722 
L 2584 4044 
z
" transform="scale(0.015625)"/>
     </defs>
     <use xlink:href="#DejaVuSans-4f" transform="translate(0 0.684375)"/>
     <use xlink:href="#DejaVuSans-33" transform="translate(79.667969 -15.721875) scale(0.7)"/>
     <use xlink:href="#DejaVuSans-28" transform="translate(126.938477 0.684375)"/>
     <use xlink:href="#DejaVuSans-58" transform="translate(165.952148 0.684375)"/>
     <use xlink:href="#DejaVuSans-31" transform="translate(235.415039 38.965625) scale(0.7)"/>
     <use xlink:href="#DejaVuSans-Oblique-41" transform="translate(282.685547 0.684375)"/>
     <use xlink:href="#DejaVuSans-31" transform="translate(351.09375 -15.721875) scale(0.7)"/>
     <use xlink:href="#DejaVuSans-29" transform="translate(398.364258 0.684375)"/>
    </g>
   </g>
   <g id="text_15">
    <!-- O$_3$ correlation diagram — UMN / NN / BNN / GP / LEPS (9 electronic surfaces, schematic) -->
    <g transform="translate(91.623594 14.42) scale(0.095 -0.095)">
     <defs>
      <path id="DejaVuSans-63" d="M 3122 3366 
L 3122 2828 
Q 2878 2963 2633 3030 
Q 2388 3097 2138 3097 
Q 1578 3097 1268 2742 
Q 959 2388 959 1747 
Q 959 1106 1268 751 
Q 1578 397 2138 397 
Q 2388 397 2633 464 
Q 2878 531 3122 666 
L 3122 134 
Q 2881 22 2623 -34 
Q 2366 -91 2075 -91 
Q 1284 -91 818 406 
Q 353 903 353 1747 
Q 353 2603 823 3093 
Q 1294 3584 2113 3584 
Q 2378 3584 2631 3529 
Q 2884 3475 3122 3366 
z
" transform="scale(0.015625)"/>
      <path id="DejaVuSansDisplay-2014" d="M 313 1978 
L 6088 1978 
L 6088 1528 
L 313 1528 
L 313 1978 
z
" transform="scale(0.015625)"/>
      <path id="DejaVuSans-55" d="M 556 4666 
L 1191 4666 
L 1191 1831 
Q 1191 1081 1462 751 
Q 1734 422 2344 422 
Q 2950 422 3222 751 
Q 3494 1081 3494 1831 
L 3494 4666 
L 4128 4666 
L 4128 1753 
Q 4128 841 3676 375 
Q 3225 -91 2344 -91 
Q 1459 -91 1007 375 
Q 556 841 556 1753 
L 556 4666 
z
" transform="scale(0.015625)"/>
      <path id="DejaVuSans-4d" d="M 628 4666 
L 1569 4666 
L 2759 1491 
L 3956 4666 
L 4897 4666 
L 4897 0 
L 4281 0 
L 4281 4097 
L 3078 897 
L 2444 897 
L 1241 4097 
L 1241 0 
L 628 0 
L 628 4666 
z
" transform="scale(0.015625)"/>
      <path id="DejaVuSans-4e" d="M 628 4666 
L 1478 4666 
L 3547 763 
L 3547 4666 
L 4159 4666 
L 4159 0 
L 3309 0 
L 1241 3903 
L 1241 0 
L 628 0 
L 628 4666 
z
" transform="scale(0.015625)"/>
      <path id="DejaVuSans-2f" d="M 1625 4666 
L 2156 4666 
L 531 -594 
L 0 -594 
L 1625 4666 
z
" transform="scale(0.015625)"/>
      <path id="DejaVuSans-42" d="M 1259 2228 
L 1259 519 
L 2272 519 
Q 2781 519 3026 730 
Q 3272 941 3272 1375 
Q 3272 1813 3026 2020 
Q 2781 2228 2272 2228 
L 1259 2228 
z
M 1259 4147 
L 1259 2741 
L 2194 2741 
Q 2656 2741 2882 2914 
Q 3109 3088 3109 3444 
Q 3109 3797 2882 3972 
Q 2656 4147 2194 4147 
L 1259 4147 
z
M 628 4666 
L 2241 4666 
Q 2963 4666 3353 4366 
Q 3744 4066 3744 3513 
Q 3744 3084 3544 2831 
Q 3344 2578 2956 2516 
Q 3422 2416 3680 2098 
Q 3938 1781 3938 1306 
Q 3938 681 3513 340 
Q 3088 0 2303 0 
L 628 0 
L 628 4666 
z
" transform="scale(0.015625)"/>
      <path id="DejaVuSans-47" d="M 3809 666 
L 3809 1919 
L 2778 1919 
L 2778 2438 
L 4434 2438 
L 4434 434 
Q 4069 175 3628 42 
Q 3188 -91 2688 -91 
Q 1594 -91 976 548 
Q 359 1188 359 2328 
Q 359 3472 976 4111 
Q 1594 4750 2688 4750 
Q 3144 4750 3555 4637 
Q 3966 4525 4313 4306 
L 4313 3634 
Q 3963 3931 3569 4081 
Q 3175 4231 2741 4231 
Q 1884 4231 1454 3753 
Q 1025 3275 1025 2328 
Q 1025 1384 1454 906 
Q 1884 428 2741 428 
Q 3075 428 3337 486 
Q 3600 544 3809 666 
z
" transform="scale(0.015625)"/>
      <path id="DejaVuSans-50" d="M 1259 4147 
L 1259 2394 
L 2053 2394 
Q 2494 2394 2734 2622 
Q 2975 2850 2975 3272 
Q 2975 3691 2734 3919 
Q 2494 4147 2053 4147 
L 1259 4147 
z
M 628 4666 
L 2053 4666 
Q 2838 4666 3239 4311 
Q 3641 3956 3641 3272 
Q 3641 2581 3239 2228 
Q 2838 1875 2053 1875 
L 1259 1875 
L 1259 0 
L 628 0 
L 628 4666 
z
" transform="scale(0.015625)"/>
      <path id="DejaVuSans-4c" d="M 628 4666 
L 1259 4666 
L 1259 531 
L 3531 531 
L 3531 0 
L 628 0 
L 628 4666 
z
" transform="scale(0.015625)"/>
      <path id="DejaVuSans-53" d="M 3425 4513 
L 3425 3897 
Q 3066 4069 2747 4153 
Q 2428 4238 2131 4238 
Q 1616 4238 1336 4038 
Q 1056 3838 1056 3469 
Q 1056 3159 1242 3001 
Q 1428 2844 1947 2747 
L 2328 2669 
Q 3034 2534 3370 2195 
Q 3706 1856 3706 1288 
Q 3706 609 3251 259 
Q 2797 -91 1919 -91 
Q 1588 -91 1214 -16 
Q 841 59 441 206 
L 441 856 
Q 825 641 1194 531 
Q 1563 422 1919 422 
Q 2459 422 2753 634 
Q 3047 847 3047 1241 
Q 3047 1584 2836 1778 
Q 2625 1972 2144 2069 
L 1759 2144 
Q 1053 2284 737 2584 
Q 422 2884 422 3419 
Q 422 4038 858 4394 
Q 1294 4750 2059 4750 
Q 2388 4750 2728 4690 
Q 3069 4631 3425 4513 
z
" transform="scale(0.015625)"/>
      <path id="DejaVuSans-39" d="M 703 97 
L 703 672 
Q 941 559 1184 500 
Q 1428 441 1663 441 
Q 2288 441 2617 861 
Q 2947 1281 2994 2138 
Q 2813 1869 2534 1725 
Q 2256 1581 1919 1581 
Q 1219 1581 811 2004 
Q 403 2428 403 3163 
Q 403 3881 828 4315 
Q 1253 4750 1959 4750 
Q 2769 4750 3195 4129 
Q 3622 3509 3622 2328 
Q 3622 1225 3098 567 
Q 2575 -91 1691 -91 
Q 1453 -91 1209 -44 
Q 966 3 703 97 
z
M 1959 2075 
Q 2384 2075 2632 2365 
Q 2881 2656 2881 3163 
Q 2881 3666 2632 3958 
Q 2384 4250 1959 4250 
Q 1534 4250 1286 3958 
Q 1038 3666 1038 3163 
Q 1038 2656 1286 2365 
Q 1534 2075 1959 2075 
z
" transform="scale(0.015625)"/>
      <path id="DejaVuSans-66" d="M 2375 4863 
L 2375 4384 
L 1825 4384 
Q 1516 4384 1395 4259 
Q 1275 4134 1275 3809 
L 1275 3500 
L 2222 3500 
L 2222 3053 
L 1275 3053 
L 1275 0 
L 697 0 
L 697 3053 
L 147 3053 
L 147 3500 
L 697 3500 
L 697 3744 
Q 697 4328 969 4595 
Q 1241 4863 1831 4863 
L 2375 4863 
z
" transform="scale(0.015625)"/>
      <path id="DejaVuSans-2c" d="M 750 794 
L 1409 794 
L 1409 256 
L 897 -744 
L 494 -744 
L 750 256 
L 750 794 
z
" transform="scale(0.015625)"/>
      <path id="DejaVuSans-68" d="M 3513 2113 
L 3513 0 
L 2938 0 
L 2938 2094 
Q 2938 2591 2744 2837 
Q 2550 3084 2163 3084 
Q 1697 3084 1428 2787 
Q 1159 2491 1159 1978 
L 1159 0 
L 581 0 
L 581 4863 
L 1159 4863 
L 1159 2956 
Q 1366 3272 1645 3428 
Q 1925 3584 2291 3584 
Q 2894 3584 3203 3211 
Q 3513 2838 3513 2113 
z
" transform="scale(0.015625)"/>
     </defs>
     <use xlink:href="#DejaVuSans-4f" transform="translate(0 0.015625)"/>
     <use xlink:href="#DejaVuSans-33" transform="translate(79.667969 -16.390625) scale(0.7)"/>
     <use xlink:href="#DejaVuSans-20" transform="translate(126.938477 0.015625)"/>
     <use xlink:href="#DejaVuSans-63" transform="translate(158.725586 0.015625)"/>
     <use xlink:href="#DejaVuSans-6f" transform="translate(213.706055 0.015625)"/>
     <use xlink:href="#DejaVuSans-72" transform="translate(274.887695 0.015625)"/>
     <use xlink:href="#DejaVuSans-72" transform="translate(316.000977 0.015625)"/>
     <use xlink:href="#DejaVuSans-65" transform="translate(357.114258 0.015625)"/>
     <use xlink:href="#DejaVuSans-6c" transform="translate(418.637695 0.015625)"/>
     <use xlink:href="#DejaVuSans-61" transform="translate(446.420898 0.015625)"/>
     <use xlink:href="#DejaVuSans-74" transform="translate(507.700195 0.015625)"/>
     <use xlink:href="#DejaVuSans-69" transform="translate(546.90918 0.015625)"/>
     <use xlink:href="#DejaVuSans-6f" transform="translate(574.692383 0.015625)"/>
     <use xlink:href="#DejaVuSans-6e" transform="translate(635.874023 0.015625)"/>
     <use xlink:href="#DejaVuSans-20" transform="translate(699.25293 0.015625)"/>
     <use xlink:href="#DejaVuSans-64" transform="translate(731.040039 0.015625)"/>
     <use xlink:href="#DejaVuSans-69" transform="translate(794.516602 0.015625)"/>
     <use xlink:href="#DejaVuSans-61" transform="translate(822.299805 0.015625)"/>
     <use xlink:href="#DejaVuSans-67" transform="translate(883.579102 0.015625)"/>
     <use xlink:href="#DejaVuSans-72" transform="translate(947.055664 0.015625)"/>
     <use xlink:href="#DejaVuSans-61" transform="translate(988.168945 0.015625)"/>
     <use xlink:href="#DejaVuSans-6d" transform="translate(1049.448242 0.015625)"/>
     <use xlink:href="#DejaVuSans-20" transform="translate(1146.860352 0.015625)"/>
     <use xlink:href="#DejaVuSansDisplay-2014" transform="translate(1178.647461 0.015625)"/>
     <use xlink:href="#DejaVuSans-20" transform="translate(1278.647461 0.015625)"/>
     <use xlink:href="#DejaVuSans-55" transform="translate(1310.43457 0.015625)"/>
     <use xlink:href="#DejaVuSans-4d" transform="translate(1383.62793 0.015625)"/>
     <use xlink:href="#DejaVuSans-4e" transform="translate(1469.907227 0.015625)"/>
     <use xlink:href="#DejaVuSans-20" transform="translate(1544.711914 0.015625)"/>
     <use xlink:href="#DejaVuSans-2f" transform="translate(1576.499023 0.015625)"/>
     <use xlink:href="#DejaVuSans-20" transform="translate(1610.19043 0.015625)"/>
     <use xlink:href="#DejaVuSans-4e" transform="translate(1641.977539 0.015625)"/>
     <use xlink:href="#DejaVuSans-4e" transform="translate(1716.782227 0.015625)"/>
     <use xlink:href="#DejaVuSans-20" transform="translate(1791.586914 0.015625)"/>
     <use xlink:href="#DejaVuSans-2f" transform="translate(1823.374023 0.015625)"/>
     <use xlink:href="#DejaVuSans-20" transform="translate(1857.06543 0.015625)"/>
     <use xlink:href="#DejaVuSans-42" transform="translate(1888.852539 0.015625)"/>
     <use xlink:href="#DejaVuSans-4e" transform="translate(1957.456055 0.015625)"/>
     <use xlink:href="#DejaVuSans-4e" transform="translate(2032.260742 0.015625)"/>
     <use xlink:href="#DejaVuSans-20" transform="translate(2107.06543 0.015625)"/>
     <use xlink:href="#DejaVuSans-2f" transform="translate(2138.852539 0.015625)"/>
     <use xlink:href="#DejaVuSans-20" transform="translate(2172.543945 0.015625)"/>
     <use xlink:href="#DejaVuSans-47" transform="translate(2204.331055 0.015625)"/>
     <use xlink:href="#DejaVuSans-50" transform="translate(2281.821289 0.015625)"/>
     <use xlink:href="#DejaVuSans-20" transform="translate(2342.124023 0.015625)"/>
     <use xlink:href="#DejaVuSans-2f" transform="translate(2373.911133 0.015625)"/>
     <use xlink:href="#DejaVuSans-20" transform="translate(2407.602539 0.015625)"/>
     <use xlink:href="#DejaVuSans-4c" transform="translate(2439.389648 0.015625)"/>
     <use xlink:href="#DejaVuSans-45" transform="translate(2495.102539 0.015625)"/>
     <use xlink:href="#DejaVuSans-50" transform="translate(2558.286133 0.015625)"/>
     <use xlink:href="#DejaVuSans-53" transform="translate(2618.588867 0.015625)"/>
     <use xlink:href="#DejaVuSans-20" transform="translate(2682.06543 0.015625)"/>
     <use xlink:href="#DejaVuSans-28" transform="translate(2713.852539 0.015625)"/>
     <use xlink:href="#DejaVuSans-39" transform="translate(2752.866211 0.015625)"/>
     <use xlink:href="#DejaVuSans-20" transform="translate(2816.489258 0.015625)"/>
     <use xlink:href="#DejaVuSans-65" transform="translate(2848.276367 0.015625)"/>
     <use xlink:href="#DejaVuSans-6c" transform="translate(2909.799805 0.015625)"/>
     <use xlink:href="#DejaVuSans-65" transform="translate(2937.583008 0.015625)"/>
     <use xlink:href="#DejaVuSans-63" transform="translate(2999.106445 0.015625)"/>
     <use xlink:href="#DejaVuSans-74" transform="translate(3054.086914 0.015625)"/>
     <use xlink:href="#DejaVuSans-72" transform="translate(3093.295898 0.015625)"/>
     <use xlink:href="#DejaVuSans-6f" transform="translate(3134.40918 0.015625)"/>
     <use xlink:href="#DejaVuSans-6e" transform="translate(3195.59082 0.015625)"/>
     <use xlink:href="#DejaVuSans-69" transform="translate(3258.969727 0.015625)"/>
     <use xlink:href="#DejaVuSans-63" transform="translate(3286.75293 0.015625)"/>
     <use xlink:href="#DejaVuSans-20" transform="translate(3341.733398 0.015625)"/>
     <use xlink:href="#DejaVuSans-73" transform="translate(3373.520508 0.015625)"/>
     <use xlink:href="#DejaVuSans-75" transform="translate(3425.620117 0.015625)"/>
     <use xlink:href="#DejaVuSans-72" transform="translate(3488.999023 0.015625)"/>
     <use xlink:href="#DejaVuSans-66" transform="translate(3530.112305 0.015625)"/>
     <use xlink:href="#DejaVuSans-61" transform="translate(3565.317383 0.015625)"/>
     <use xlink:href="#DejaVuSans-63" transform="translate(3626.59668 0.015625)"/>
     <use xlink:href="#DejaVuSans-65" transform="translate(3681.577148 0.015625)"/>
     <use xlink:href="#DejaVuSans-73" transform="translate(3743.100586 0.015625)"/>
     <use xlink:href="#DejaVuSans-2c" transform="translate(3795.200195 0.015625)"/>
     <use xlink:href="#DejaVuSans-20" transform="translate(3826.987305 0.015625)"/>
     <use xlink:href="#DejaVuSans-73" transform="translate(3858.774414 0.015625)"/>
     <use xlink:href="#DejaVuSans-63" transform="translate(3910.874023 0.015625)"/>
     <use xlink:href="#DejaVuSans-68" transform="translate(3965.854492 0.015625)"/>
     <use xlink:href="#DejaVuSans-65" transform="translate(4029.233398 0.015625)"/>
     <use xlink:href="#DejaVuSans-6d" transform="translate(4090.756836 0.015625)"/>
     <use xlink:href="#DejaVuSans-61" transform="translate(4188.168945 0.015625)"/>
     <use xlink:href="#DejaVuSans-74" transform="translate(4249.448242 0.015625)"/>
     <use xlink:href="#DejaVuSans-69" transform="translate(4288.657227 0.015625)"/>
     <use xlink:href="#DejaVuSans-63" transform="translate(4316.44043 0.015625)"/>
     <use xlink:href="#DejaVuSans-29" transform="translate(4371.420898 0.015625)"/>
    </g>
   </g>
  </g>
 </g>
 <defs>
  <clipPath id="p1b0d6d0676">
   <rect x="41.146094" y="20.42" width="520" height="366.24"/>
  </clipPath>
 </defs>
</svg>
